<svg width="26" height="14" viewBox="0 0 26 14" fill="none" xmlns="http://www.w3.org/2000/svg">
<path d="M2.00017 0.499861C2.42853 0.499023 2.84366 0.648211 3.1735 0.921527L13.0002 9.13486L22.8452 1.21486C23.0327 1.06258 23.2485 0.94885 23.4801 0.880226C23.7117 0.8116 23.9546 0.789429 24.1948 0.814984C24.4351 0.84054 24.6679 0.913317 24.8799 1.02914C25.0919 1.14495 25.2789 1.30153 25.4302 1.48986C25.5825 1.67739 25.6962 1.89317 25.7648 2.12479C25.8334 2.35641 25.8556 2.59931 25.83 2.83953C25.8045 3.07975 25.7317 3.31255 25.6159 3.52455C25.5001 3.73655 25.3435 3.92357 25.1552 4.07486L14.1552 12.9299C13.8271 13.1995 13.4156 13.3469 12.991 13.3469C12.5664 13.3469 12.1549 13.1995 11.8268 12.9299L0.826833 3.76319C0.641192 3.60929 0.487737 3.42027 0.375258 3.20697C0.26278 2.99366 0.193484 2.76027 0.171346 2.52014C0.149207 2.28002 0.174659 2.03788 0.24624 1.80761C0.317823 1.57734 0.434127 1.36345 0.588498 1.17819C0.759095 0.967886 0.974168 0.797983 1.21825 0.680696C1.46233 0.563409 1.72937 0.501652 2.00017 0.499861Z" fill="url(#paint0_linear_30_10940)"/>
<defs>
<linearGradient id="paint0_linear_30_10940" x1="25.8403" y1="6.92339" x2="0.163603" y2="6.92339" gradientUnits="userSpaceOnUse">
<stop stop-color="#6A11CB"/>
<stop offset="1" stop-color="#2575FC"/>
</linearGradient>
</defs>
</svg>
