<svg width="97" height="53" viewBox="0 0 97 53" fill="none" xmlns="http://www.w3.org/2000/svg">
<g opacity="0.5">
<path d="M95.7475 29.0338L81.732 11.776C80.9004 10.7264 79.2108 10.8363 77.835 11.8597L63.2877 22.9941L54.2622 12.0343C53.4305 10.9846 51.741 11.0945 50.3652 12.1179L35.8178 23.2524L27.0513 12.3606C26.2196 11.311 24.5301 11.4208 23.1543 12.4442L8.60695 23.5787L-0.0235961 12.1686C-0.923277 11.3781 -2.80376 11.1608 -3.92058 12.2523L-27.0494 29.7182C-28.4251 30.7416 -28.8332 32.2964 -28.0015 33.3461L-24.225 37.9399C-23.3933 38.9896 -21.7037 38.8797 -20.328 37.8563L-5.84863 26.981L2.91793 37.8727C3.36777 38.268 4.07654 38.7313 4.6624 38.6083C5.50718 38.5534 6.09304 38.4304 6.81492 37.7891L21.2943 26.9138L30.0608 37.8056C30.5107 38.2008 31.2194 38.6641 31.8053 38.5411C32.6501 38.4862 33.2359 38.3632 33.9578 37.7219L48.4372 26.8466L57.2037 37.7384C57.6536 38.1336 58.3623 38.597 58.9482 38.474C59.793 38.419 60.3788 38.296 61.1007 37.6548L75.5801 26.7794L84.7416 37.221C85.5732 38.2707 87.2628 38.1608 88.6386 37.1374L94.7954 32.6616C95.9122 31.5702 96.3203 30.0154 95.7475 29.0338Z" fill="url(#paint0_radial_30_16503)"/>
</g>
<defs>
<radialGradient id="paint0_radial_30_16503" cx="0" cy="0" r="1" gradientUnits="userSpaceOnUse" gradientTransform="translate(36.3973 12.8261) rotate(14.7282) scale(47.492 41.6655)">
<stop stop-color="#5B2AA4"/>
<stop offset="0.9944" stop-color="#481A72"/>
</radialGradient>
</defs>
</svg>
