<svg width="126" height="28" viewBox="0 0 126 28" fill="none" xmlns="http://www.w3.org/2000/svg">
<path d="M124.748 18.0339L110.732 0.776169C109.9 -0.273482 108.211 -0.163602 106.835 0.859802L92.2877 11.9942L83.2622 1.03441C82.4305 -0.0152358 80.741 0.0946458 79.3652 1.11805L64.8178 12.2525L56.0513 1.36073C55.2196 0.311076 53.5301 0.420956 52.1543 1.44436L37.6069 12.5788L28.9764 1.16877C28.0767 0.378253 26.1962 0.160937 25.0794 1.25241L1.95064 18.7183C0.574891 19.7417 0.166834 21.2965 0.998506 22.3462L4.77503 26.94C5.6067 27.9897 7.29627 27.8798 8.67202 26.8564L23.1514 15.9811L31.9179 26.8729C32.3678 27.2681 33.0765 27.7315 33.6624 27.6084C34.5072 27.5535 35.093 27.4305 35.8149 26.7892L50.2943 15.9139L59.0608 26.8057C59.5107 27.2009 60.2194 27.6643 60.8053 27.5413C61.6501 27.4863 62.2359 27.3633 62.9578 26.7221L77.4372 15.8467L86.2037 26.7385C86.6536 27.1338 87.3623 27.5971 87.9482 27.4741C88.793 27.4191 89.3788 27.2961 90.1007 26.6549L104.58 15.7796L113.742 26.2211C114.573 27.2708 116.263 27.1609 117.639 26.1375L123.795 21.6617C124.912 20.5703 125.32 19.0155 124.748 18.0339Z" fill="url(#paint0_radial_30_10694)"/>
<defs>
<radialGradient id="paint0_radial_30_10694" cx="0" cy="0" r="1" gradientUnits="userSpaceOnUse" gradientTransform="translate(65.3973 1.82618) rotate(14.7282) scale(47.492 41.6655)">
<stop stop-color="#5B2AA4"/>
<stop offset="0.9944" stop-color="#481A72"/>
</radialGradient>
</defs>
</svg>
