<svg width="30" height="30" viewBox="0 0 30 30" fill="none" xmlns="http://www.w3.org/2000/svg">
<path opacity="0.5" d="M28.3119 18.2499L21.817 13.6068L26.3194 7.30872C27.0229 6.32464 26.7984 4.97458 25.8143 4.27108L21.4844 1.17569C20.5003 0.472192 19.1502 0.696653 18.4467 1.68073L13.8036 8.17564L7.30873 3.53255C6.32465 2.82905 4.97459 3.05351 4.27109 4.03759L1.17569 8.36753C0.472195 9.35161 0.69666 10.7017 1.68074 11.4052L8.17565 16.0483L3.53255 22.5432C2.82906 23.5273 3.05352 24.8773 4.0376 25.5808L8.36754 28.6762C9.35161 29.3797 10.7017 29.1552 11.4052 28.1712L16.3297 21.2826L22.8246 25.9257C23.8087 26.6292 25.1587 26.4048 25.8622 25.4207L28.8169 21.2875C29.3236 20.1628 29.2959 18.9534 28.3119 18.2499Z" fill="url(#paint0_linear_30_16394)"/>
<defs>
<linearGradient id="paint0_linear_30_16394" x1="6.23341" y1="27.0449" x2="23.6438" y2="2.6906" gradientUnits="userSpaceOnUse">
<stop stop-color="#FFD328"/>
<stop offset="1" stop-color="#FFA700"/>
</linearGradient>
</defs>
</svg>
