<svg width="127" height="53" viewBox="0 0 127 53" fill="none" xmlns="http://www.w3.org/2000/svg">
<g opacity="0.5">
<path d="M125.754 29.0339L111.621 11.7762C110.783 10.7265 109.079 10.8364 107.692 11.8598L93.0232 22.9942L83.9225 12.0344C83.0839 10.9848 81.3803 11.0946 79.9931 12.1181L65.3245 23.2525L56.4849 12.3607C55.6463 11.3111 53.9426 11.421 52.5554 12.4444L37.8868 23.5788L29.1843 12.1688C28.2772 11.3783 26.381 11.1609 25.2549 12.2524L1.93336 29.7183C0.546151 30.7417 0.134694 32.2965 0.973296 33.3462L4.78129 37.94C5.6199 38.9897 7.32354 38.8798 8.71076 37.8564L23.3108 26.9811L32.1504 37.8729C32.604 38.2681 33.3186 38.7315 33.9094 38.6084C34.7612 38.5535 35.352 38.4305 36.0798 37.7892L50.6799 26.9139L59.5195 37.8057C59.9731 38.2009 60.6877 38.6643 61.2785 38.5413C62.1303 38.4863 62.721 38.3633 63.4489 37.7221L78.0489 26.8467L86.8886 37.7385C87.3421 38.1338 88.0568 38.5971 88.6476 38.4741C89.4994 38.4191 90.0901 38.2961 90.818 37.6549L105.418 26.7796L114.656 37.2211C115.494 38.2708 117.198 38.1609 118.585 37.1375L124.794 32.6617C125.92 31.5703 126.331 30.0155 125.754 29.0339Z" fill="url(#paint0_linear_30_16392)"/>
</g>
<defs>
<linearGradient id="paint0_linear_30_16392" x1="5.97993" y1="11.2273" x2="122.909" y2="42.1711" gradientUnits="userSpaceOnUse">
<stop stop-color="#C72A16"/>
<stop offset="0.998" stop-color="#BA2244"/>
</linearGradient>
</defs>
</svg>
