<svg width="22" height="216" viewBox="0 0 22 216" fill="none" xmlns="http://www.w3.org/2000/svg">
<g opacity="0.5">
<path fill-rule="evenodd" clip-rule="evenodd" d="M1.07609 214.859C-0.358695 213.424 -0.358695 211.272 1.07609 210.555L3.94561 207.685C5.38039 206.251 5.38039 204.098 3.94561 202.664L1.07609 199.794C-0.358695 198.359 -0.358695 196.207 1.07609 195.49C2.51087 194.055 4.66297 194.055 5.38036 195.49C6.81515 196.924 6.81521 196.924 8.24999 198.359C9.68477 199.794 11.8369 199.794 13.2717 198.359L16.1412 195.49C17.576 194.055 19.7282 194.055 20.4456 195.49C21.8804 196.924 21.8804 199.077 20.4456 199.794L17.5761 202.664C16.1413 204.098 16.1413 206.251 17.5761 207.685L20.4456 210.555C21.8804 211.99 21.8804 214.142 20.4456 214.859C19.0108 216.294 16.8586 216.294 16.1412 214.859L13.2717 211.99C11.8369 210.555 9.68477 210.555 8.24999 211.99L6.0978 214.859C4.66302 216.294 2.51087 216.294 1.07609 214.859Z" fill="url(#paint0_linear_30_10683)"/>
<path fill-rule="evenodd" clip-rule="evenodd" d="M1.07609 166.078C-0.358695 164.643 -0.358695 162.491 1.07609 161.774L3.94561 158.904C5.38039 157.469 5.38039 155.317 3.94561 153.882L1.07609 151.013C-0.358695 149.578 -0.358695 147.426 1.07609 146.708C2.51087 145.274 4.66297 145.274 5.38036 146.708C6.81515 148.143 6.81521 148.143 8.24999 149.578C9.68477 151.013 11.8369 151.013 13.2717 149.578L16.1412 146.708C17.576 145.274 19.7282 145.274 20.4456 146.708C21.8804 148.143 21.8804 150.295 20.4456 151.013L17.5761 153.882C16.1413 155.317 16.1413 157.469 17.5761 158.904L20.4456 161.774C21.8804 163.208 21.8804 165.361 20.4456 166.078C19.0108 167.513 16.8586 167.513 16.1412 166.078L13.2717 163.208C11.8369 161.774 9.68477 161.774 8.24999 163.208L5.38036 166.078C4.66297 167.513 2.51087 167.513 1.07609 166.078Z" fill="url(#paint1_linear_30_10683)"/>
<path fill-rule="evenodd" clip-rule="evenodd" d="M1.07609 118.011C-0.358695 116.577 -0.358695 114.424 1.07609 113.707L3.94561 110.837C5.38039 109.403 5.38039 107.25 3.94561 105.816L1.07609 102.946C-0.358695 101.511 -0.358695 99.3592 1.07609 98.6418C2.51087 97.207 4.66297 97.207 5.38036 98.6418C6.81515 100.077 6.81521 100.077 8.24999 101.511C9.68477 102.946 11.8369 102.946 13.2717 101.511L16.1412 98.6418C17.576 97.207 19.7282 97.207 20.4456 98.6418C21.8804 100.077 21.8804 102.229 20.4456 102.946L17.5761 105.816C16.1413 107.25 16.1413 109.403 17.5761 110.837L20.4456 113.707C21.8804 115.142 21.8804 117.294 20.4456 118.011C19.0108 119.446 16.8586 119.446 16.1412 118.011L13.2717 115.142C11.8369 113.707 9.68477 113.707 8.24999 115.142L6.0978 118.011C4.66302 118.729 2.51087 118.729 1.07609 118.011Z" fill="url(#paint2_linear_30_10683)"/>
<path fill-rule="evenodd" clip-rule="evenodd" d="M1.07609 69.2301C-0.358695 67.7953 -0.358695 65.6431 1.07609 64.9257L3.94561 62.0562C5.38039 60.6214 5.38039 58.4692 3.94561 57.0344L1.07609 54.1649C-0.358695 52.7301 -0.358695 50.5779 1.07609 49.8605C2.51087 48.4257 4.66297 48.4257 5.38036 49.8605C6.81515 51.2953 6.81521 51.2953 8.24999 52.7301C9.68477 54.1649 11.8369 54.1649 13.2717 52.7301L16.1412 49.8605C17.576 48.4257 19.7282 48.4257 20.4456 49.8605C21.8804 51.2953 21.8804 53.4475 20.4456 54.1649L17.5761 57.0344C16.1413 58.4692 16.1413 60.6214 17.5761 62.0562L20.4456 64.9257C21.8804 66.3605 21.8804 68.5127 20.4456 69.2301C19.0108 70.6648 16.8586 70.6648 16.1412 69.2301L13.2717 66.3605C11.8369 64.9257 9.68477 64.9257 8.24999 66.3605L5.38036 69.2301C4.66297 70.6648 2.51087 70.6648 1.07609 69.2301Z" fill="url(#paint3_linear_30_10683)"/>
<path fill-rule="evenodd" clip-rule="evenodd" d="M1.07609 20.4454C-0.358695 19.0106 -0.358695 16.8584 1.07609 16.1411L3.94561 13.2715C5.38039 11.8367 5.38039 9.68455 3.94561 8.24976L1.07609 5.38019C-0.358695 3.94541 -0.358695 1.79325 1.07609 1.07586C2.51087 -0.358925 4.66297 -0.358925 5.38036 1.07586C6.81515 2.51064 6.81521 2.51062 8.24999 3.9454C9.68477 5.38018 11.8369 5.38018 13.2717 3.9454L16.1412 1.07586C17.576 -0.358925 19.7282 -0.358925 20.4456 1.07586C21.8804 2.51064 21.8804 4.6628 20.4456 5.38019L17.5761 8.24976C16.1413 9.68455 16.1413 11.8367 17.5761 13.2715L20.4456 16.1411C21.8804 17.5758 21.8804 19.728 20.4456 20.4454C19.0108 21.8802 16.8586 21.8802 16.1412 20.4454L13.2717 17.5758C11.8369 16.1411 9.68477 16.1411 8.24999 17.5758L5.38036 20.4454C4.66297 21.8802 2.51087 21.8802 1.07609 20.4454Z" fill="url(#paint4_linear_30_10683)"/>
</g>
<defs>
<linearGradient id="paint0_linear_30_10683" x1="10.7608" y1="215.935" x2="10.7609" y2="194.414" gradientUnits="userSpaceOnUse">
<stop stop-color="#6A11CB"/>
<stop offset="1" stop-color="#2575FC"/>
</linearGradient>
<linearGradient id="paint1_linear_30_10683" x1="10.7608" y1="167.154" x2="10.7609" y2="145.632" gradientUnits="userSpaceOnUse">
<stop stop-color="#6A11CB"/>
<stop offset="1" stop-color="#2575FC"/>
</linearGradient>
<linearGradient id="paint2_linear_30_10683" x1="10.7608" y1="119.087" x2="10.7609" y2="97.5657" gradientUnits="userSpaceOnUse">
<stop stop-color="#6A11CB"/>
<stop offset="1" stop-color="#2575FC"/>
</linearGradient>
<linearGradient id="paint3_linear_30_10683" x1="10.7608" y1="70.3062" x2="10.7609" y2="48.7844" gradientUnits="userSpaceOnUse">
<stop stop-color="#6A11CB"/>
<stop offset="1" stop-color="#2575FC"/>
</linearGradient>
<linearGradient id="paint4_linear_30_10683" x1="10.7608" y1="21.5215" x2="10.7609" y2="-0.000228826" gradientUnits="userSpaceOnUse">
<stop stop-color="#6A11CB"/>
<stop offset="1" stop-color="#2575FC"/>
</linearGradient>
</defs>
</svg>
