<svg width="135" height="146" viewBox="0 0 135 146" fill="none" xmlns="http://www.w3.org/2000/svg">
<g opacity="0.5">
<path fill-rule="evenodd" clip-rule="evenodd" d="M12.8569 22.9973C13.5812 22.273 14.6677 22.273 15.0298 22.9973L16.4785 24.446C17.2028 25.1703 18.2893 25.1703 19.0136 24.446L20.8244 22.9973C21.5488 22.273 22.6352 22.273 22.9974 22.9973C23.7217 23.7217 23.7217 24.8082 22.9974 25.1703C22.2731 25.8946 22.2731 25.8946 21.5488 26.619C20.8244 27.3433 20.8244 28.4298 21.5488 29.1541L22.9974 30.6027C23.7217 31.3271 23.7217 32.4136 22.9974 32.7757C22.2731 33.5 21.1866 33.5 20.8244 32.7757L19.3758 31.3271C18.6514 30.6028 17.565 30.6028 16.8406 31.3271L15.392 32.7757C14.6677 33.5 13.5812 33.5 13.219 32.7757C12.4947 32.0514 12.4947 30.9649 13.219 30.6027L14.6677 29.1541C15.392 28.4298 15.392 27.3433 14.6677 26.619L13.219 25.1703C12.1325 24.8082 12.1325 23.7217 12.8569 22.9973Z" fill="url(#paint0_linear_30_16299)"/>
<path fill-rule="evenodd" clip-rule="evenodd" d="M37.4846 22.9971C38.209 22.2728 39.2955 22.2728 39.6576 22.9971L41.1063 24.4457C41.8306 25.1701 42.9171 25.1701 43.6414 24.4457L45.0901 22.9971C45.8144 22.2728 46.9009 22.2728 47.263 22.9971C47.9874 23.7214 47.9874 24.8079 47.263 25.1701C46.5387 25.8944 46.5387 25.8944 45.8144 26.6187C45.0901 27.343 45.0901 28.4295 45.8144 29.1539L47.263 30.6025C47.9874 31.3268 47.9874 32.4133 47.263 32.7755C46.5387 33.4998 45.4522 33.4998 45.0901 32.7755L43.6414 31.3268C42.9171 30.6025 41.8306 30.6025 41.1063 31.3268L39.6576 32.7755C38.9333 33.4998 37.8468 33.4998 37.4846 32.7755C36.7603 32.0512 36.7603 30.9647 37.4846 30.6025L38.9333 29.516C39.6576 28.7917 39.6576 27.7052 38.9333 26.9809L37.4846 25.5322C36.7603 24.8079 36.7603 23.7214 37.4846 22.9971Z" fill="url(#paint1_linear_30_16299)"/>
<path fill-rule="evenodd" clip-rule="evenodd" d="M61.7486 22.9971C62.473 22.2728 63.5594 22.2728 63.9216 22.9971L65.3703 24.4457C66.0946 25.1701 67.1811 25.1701 67.9054 24.4457L69.354 22.9971C70.0784 22.2728 71.1648 22.2728 71.527 22.9971C72.2513 23.7214 72.2513 24.8079 71.527 25.1701C70.8027 25.8944 70.8027 25.8944 70.0783 26.6187C69.354 27.343 69.354 28.4295 70.0783 29.1539L71.527 30.6025C72.2513 31.3268 72.2513 32.4133 71.527 32.7755C70.8027 33.4998 69.7162 33.4998 69.354 32.7755L67.9054 31.3268C67.1811 30.6025 66.0946 30.6025 65.3703 31.3268L64.2838 33.1376C63.5594 33.862 62.473 33.862 62.1108 33.1376C61.3865 32.4133 61.3865 31.3268 62.1108 30.9647L63.5594 29.516C64.2838 28.7917 64.2838 27.7052 63.5594 26.9809L62.1108 25.5322C61.3865 24.8079 61.3865 23.7214 61.7486 22.9971Z" fill="url(#paint2_linear_30_16299)"/>
<path fill-rule="evenodd" clip-rule="evenodd" d="M86.3763 22.9971C87.1006 22.2728 88.1871 22.2728 88.5492 22.9971L89.9979 24.4457C90.7222 25.1701 91.8087 25.1701 92.533 24.4457L93.9817 22.9971C94.706 22.2728 95.7925 22.2728 96.1546 22.9971C96.879 23.7214 96.879 24.8079 96.1546 25.1701C95.4303 25.8944 95.4303 25.8944 94.706 26.6187C93.9817 27.343 93.9817 28.4295 94.706 29.1539L96.1546 30.6025C96.879 31.3268 96.879 32.4133 96.1546 32.7755C95.4303 33.4998 94.3438 33.4998 93.9817 32.7755L92.533 31.3268C91.8087 30.6025 90.7222 30.6025 89.9979 31.3268L88.5492 32.7755C87.8249 33.4998 86.7384 33.4998 86.3763 32.7755C85.6519 32.0512 85.6519 30.9647 86.3763 30.6025L87.8249 29.1539C88.5492 28.4295 88.5492 27.343 87.8249 26.6187L86.3763 25.1701C85.6519 24.8079 85.6519 23.7214 86.3763 22.9971Z" fill="url(#paint3_linear_30_16299)"/>
<path fill-rule="evenodd" clip-rule="evenodd" d="M111.003 22.9971C111.727 22.2728 112.814 22.2728 113.176 22.9971L114.624 24.4457C115.349 25.1701 116.435 25.1701 117.159 24.4457L118.608 22.9971C119.332 22.2728 120.419 22.2728 120.781 22.9971C121.505 23.7214 121.505 24.8079 120.781 25.1701C120.057 25.8944 120.057 25.8944 119.332 26.6187C118.608 27.343 118.608 28.4295 119.332 29.1539L120.781 30.6025C121.505 31.3268 121.505 32.4133 120.781 32.7755C120.057 33.4998 118.97 33.4998 118.608 32.7755L117.159 31.3268C116.435 30.6025 115.349 30.6025 114.624 31.3268L113.176 32.7755C112.451 33.4998 111.365 33.4998 111.003 32.7755C110.278 32.0512 110.278 30.9647 111.003 30.6025L112.451 29.1539C113.176 28.4295 113.176 27.343 112.451 26.6187L111.003 25.1701C110.278 24.8079 110.278 23.7214 111.003 22.9971Z" fill="url(#paint4_linear_30_16299)"/>
<path fill-rule="evenodd" clip-rule="evenodd" d="M0.544042 0.543487C1.26837 -0.180837 2.35485 -0.180837 2.71701 0.543487L4.16566 1.99214C4.88999 2.71646 5.97646 2.71646 6.70079 1.99214L8.14944 0.543487C8.87377 -0.180837 9.96025 -0.180837 10.3224 0.543487C11.0467 1.26781 11.0467 2.3543 10.3224 2.71646C10.3224 3.80295 9.96025 3.80295 9.23593 4.52727C8.5116 5.2516 8.5116 6.33808 9.23593 7.06241L10.6846 8.51106C11.4089 9.23538 11.4089 10.3219 10.6846 10.684C9.96026 11.4084 8.87376 11.4084 8.5116 10.684L7.06296 9.23538C6.33863 8.51106 5.25214 8.51106 4.52782 9.23538L3.07917 11.0462C2.35484 11.7705 1.26836 11.7705 0.906199 11.0462C0.181874 10.3219 0.181874 9.23538 0.906199 8.87322L2.35485 7.42457C3.07918 6.70024 3.07918 5.61376 2.35485 4.88943L0.906199 3.44079C0.181874 2.3543 0.18188 1.26781 0.544042 0.543487Z" fill="url(#paint5_linear_30_16299)"/>
<path fill-rule="evenodd" clip-rule="evenodd" d="M25.1712 0.543243C25.8955 -0.181081 26.982 -0.181081 27.3441 0.543243L28.7928 1.99189C29.5171 2.71622 30.6036 2.71622 31.3279 1.99189L32.7766 0.543243C33.8631 0.181081 34.5874 0.181081 35.3117 0.543243C36.036 1.26757 36.036 2.35405 35.3117 2.71622C34.5874 3.8027 34.5874 3.8027 33.8631 4.52703C33.1387 5.25135 33.1387 6.33784 33.8631 7.06216L35.3117 8.51081C36.036 9.23514 36.036 10.3216 35.3117 10.6838C34.5874 11.4081 33.5009 11.4081 33.1387 10.6838L31.6901 9.23514C30.9658 8.51081 29.8793 8.51081 29.155 9.23514L27.3441 11.0459C26.6198 11.7703 25.5333 11.7703 25.1712 11.0459C24.4468 10.3216 24.4468 9.23514 25.1712 8.87297L26.6198 7.42432C27.3441 6.7 27.3441 5.61351 26.6198 4.88919L25.1712 3.44054C24.4468 2.35405 24.4468 1.26757 25.1712 0.543243Z" fill="url(#paint6_linear_30_16299)"/>
<path fill-rule="evenodd" clip-rule="evenodd" d="M49.7976 0.543243C50.522 -0.181081 51.6084 -0.181081 51.9706 0.543243L53.4193 1.99189C54.1436 2.71622 55.2301 2.71622 55.9544 1.99189L57.403 0.543243C58.1274 -0.181081 59.2138 -0.181081 59.576 0.543243C60.3003 1.26757 60.3003 2.35405 59.576 2.71622C59.2138 3.8027 59.2139 3.8027 58.4895 4.52703C57.7652 5.25135 57.7652 6.33784 58.4895 7.06216L59.9382 8.51081C60.6625 9.23514 60.6625 10.3216 59.9382 11.0459C59.2139 11.7703 58.1274 11.7703 57.7652 11.0459L56.3166 9.5973C55.5922 8.87297 54.5057 8.87297 53.7814 9.5973L51.9706 11.0459C51.2463 11.7703 50.1598 11.7703 49.7976 11.0459C49.0733 10.3216 49.0733 9.23514 49.7976 8.87297L51.2463 7.42432C51.9706 6.7 51.9706 5.61351 51.2463 4.88919L49.7976 3.07838C49.0733 2.35405 49.0733 1.26757 49.7976 0.543243Z" fill="url(#paint7_linear_30_16299)"/>
<path fill-rule="evenodd" clip-rule="evenodd" d="M74.0621 0.543243C74.7864 -0.181081 75.8729 -0.181081 76.2351 0.543243L77.6837 1.99189C78.408 2.71622 79.4945 2.71622 80.2189 1.99189L81.6675 0.543243C82.3919 -0.181081 83.4783 -0.181081 83.8405 0.543243C84.5648 1.26757 84.5648 2.35405 83.8405 2.71622C83.8405 3.8027 83.4783 3.8027 82.754 4.52703C82.0297 5.25135 82.0297 6.33784 82.754 7.06216L84.2027 8.51081C84.927 9.23514 84.927 10.3216 84.2027 10.6838C83.4783 11.4081 82.3918 11.4081 82.0297 10.6838L80.581 9.23514C79.8567 8.51081 78.7702 8.51081 78.0459 9.23514L76.5973 11.0459C75.8729 11.7703 74.7864 11.7703 74.4243 11.0459C73.7 10.3216 73.7 9.23514 74.4243 8.87297L75.8729 7.42432C76.5972 6.7 76.5972 5.61351 75.8729 4.88919L74.4243 3.44054C73.7 2.35405 73.6999 1.26757 74.0621 0.543243Z" fill="url(#paint8_linear_30_16299)"/>
<path fill-rule="evenodd" clip-rule="evenodd" d="M98.6897 0.543243C99.4141 0.181081 100.501 0.181081 100.863 0.543243L102.311 1.99189C103.036 2.71622 104.122 2.71622 104.846 1.99189L106.295 0.543243C107.019 -0.181081 108.106 -0.181081 108.468 0.543243C109.192 1.26757 109.192 2.35405 108.468 2.71622C108.106 3.8027 108.106 3.8027 107.382 4.52703C106.657 5.25135 106.657 6.33784 107.382 7.06216L108.83 8.51081C109.555 9.23514 109.555 10.3216 108.83 10.6838C108.106 11.4081 107.019 11.4081 106.657 10.6838L105.209 9.23514C104.484 8.51081 103.398 8.51081 102.674 9.23514L100.863 11.0459C100.138 11.7703 99.0519 11.7703 98.6897 11.0459C97.9654 10.3216 97.9654 9.23514 98.6897 8.87297L100.138 7.42432C100.863 6.7 100.863 5.61351 100.138 4.88919L98.6897 3.44054C97.9654 2.35405 97.9654 1.26757 98.6897 0.543243Z" fill="url(#paint9_linear_30_16299)"/>
<path fill-rule="evenodd" clip-rule="evenodd" d="M123.318 0.543243C124.042 -0.181081 125.128 -0.181081 125.491 0.543243L126.939 1.99189C127.664 2.71622 128.75 2.71622 129.474 1.99189L130.923 0.543243C131.647 -0.181081 132.734 -0.181081 133.096 0.543243C133.82 1.26757 133.82 2.35405 133.096 2.71622C132.734 3.8027 132.734 3.8027 132.01 4.52703C131.285 5.25135 131.285 6.33784 132.01 7.06216L133.458 8.51081C134.183 9.23514 134.183 10.3216 133.458 10.6838C132.734 11.4081 131.647 11.4081 131.285 10.6838L129.474 9.23514C128.75 8.51081 127.664 8.51081 126.939 9.23514L125.491 11.0459C124.766 11.7703 123.68 11.7703 123.318 11.0459C122.593 10.3216 122.593 9.23514 123.318 8.87297L124.766 7.42432C125.491 6.7 125.491 5.61351 124.766 4.88919L123.318 3.44054C122.593 2.35405 122.593 1.26757 123.318 0.543243Z" fill="url(#paint10_linear_30_16299)"/>
<path fill-rule="evenodd" clip-rule="evenodd" d="M12.8562 67.9058C13.5806 67.1815 14.6671 67.1815 15.0292 67.9058L16.4779 69.3544C17.2022 70.0788 18.2887 70.0788 19.013 69.3544L20.4616 67.9058C21.186 67.1815 22.2725 67.1815 22.6346 67.9058C23.3589 68.6301 23.3589 69.7166 22.6346 70.0788C21.9103 70.8031 21.9103 70.8031 21.186 71.5274C20.4616 72.2517 20.4616 73.3382 21.186 74.0625L22.6346 75.5112C23.3589 76.2355 23.3589 77.322 22.6346 77.6842C21.9103 78.4085 20.8238 78.4085 20.4616 77.6842L19.013 76.2355C18.2887 75.5112 17.2022 75.5112 16.4779 76.2355L15.0292 77.6842C14.3049 78.4085 13.2184 78.4085 12.8562 77.6842C12.1319 76.9598 12.1319 75.8734 12.8562 75.5112L14.3049 74.0625C15.0292 73.3382 15.0292 72.2517 14.3049 71.5274L12.8562 70.0788C12.1319 69.3544 12.1319 68.268 12.8562 67.9058Z" fill="url(#paint11_linear_30_16299)"/>
<path fill-rule="evenodd" clip-rule="evenodd" d="M37.4827 67.9058C38.207 67.1815 39.2935 67.1815 39.6557 67.9058L41.1043 69.3544C41.8286 70.0788 42.9151 70.0788 43.6395 69.3544L45.0881 67.9058C45.8124 67.1815 46.8989 67.1815 47.2611 67.9058C47.9854 68.6301 47.9854 69.7166 47.2611 70.0788C46.5368 70.8031 46.5368 70.8031 45.8124 71.5274C45.0881 72.2517 45.0881 73.3382 45.8124 74.0625L47.2611 75.5112C47.9854 76.2355 47.9854 77.322 47.2611 77.6842C46.5368 78.4085 45.4503 78.4085 45.0881 77.6842L43.6395 76.2355C42.9151 75.5112 41.8286 75.5112 41.1043 76.2355L39.6557 77.6842C38.9314 78.4085 37.8449 78.4085 37.4827 77.6842C36.7584 76.9598 36.7584 75.8734 37.4827 75.5112L38.9314 74.0625C39.6557 73.3382 39.6557 72.2517 38.9314 71.5274L37.4827 70.0788C36.7584 69.3544 36.7584 68.268 37.4827 67.9058Z" fill="url(#paint12_linear_30_16299)"/>
<path fill-rule="evenodd" clip-rule="evenodd" d="M61.7486 67.9058C62.473 67.1815 63.5594 67.1815 63.9216 67.9058L65.3703 69.3544C66.0946 70.0788 67.1811 70.0788 67.9054 69.3544L69.354 67.9058C70.0784 67.1815 71.1648 67.1815 71.527 67.9058C72.2513 68.6301 72.2513 69.7166 71.527 70.0788C70.8027 70.8031 70.8027 70.8031 70.0783 71.5274C69.354 72.2517 69.354 73.3382 70.0783 74.0625L71.527 75.5112C72.2513 76.2355 72.2513 77.322 71.527 77.6842C70.8027 78.4085 69.7162 78.4085 69.354 77.6842L67.9054 76.2355C67.1811 75.5112 66.0946 75.5112 65.3703 76.2355L64.2838 78.0463C63.5594 78.7707 62.473 78.7707 62.1108 78.0463C61.3865 77.322 61.3865 76.2355 62.1108 75.8734L63.5594 74.4247C64.2838 73.7004 64.2838 72.6139 63.5594 71.8896L62.1108 70.4409C61.3865 69.3544 61.3865 68.268 61.7486 67.9058Z" fill="url(#paint13_linear_30_16299)"/>
<path fill-rule="evenodd" clip-rule="evenodd" d="M86.3748 67.9058C87.0991 67.1815 88.1856 67.1815 88.5478 67.9058L89.9964 69.3544C90.7207 70.0788 91.8072 70.0788 92.5316 69.3544L93.9802 67.9058C94.7045 67.1815 95.791 67.1815 96.1532 67.9058C96.8775 68.6301 96.8775 69.7166 96.1532 70.0788C95.4289 70.8031 95.4289 70.8031 94.7045 71.5274C93.9802 72.2517 93.9802 73.3382 94.7045 74.0625L96.1532 75.5112C96.8775 76.2355 96.8775 77.322 96.1532 77.6842C95.4289 78.4085 94.3424 78.4085 93.9802 77.6842L92.5316 76.2355C91.8072 75.5112 90.7207 75.5112 89.9964 76.2355L88.5478 77.6842C87.8234 78.4085 86.7369 78.4085 86.3748 77.6842C85.6505 76.9598 85.6505 75.8734 86.3748 75.5112L87.8234 74.0625C88.5478 73.3382 88.5478 72.2517 87.8234 71.5274L86.3748 70.0788C85.6505 69.3544 85.6505 68.268 86.3748 67.9058Z" fill="url(#paint14_linear_30_16299)"/>
<path fill-rule="evenodd" clip-rule="evenodd" d="M111.003 67.9058C111.727 67.1815 112.814 67.1815 113.176 67.9058L114.624 69.3544C115.349 70.0788 116.435 70.0788 117.159 69.3544L118.608 67.9058C119.332 67.1815 120.419 67.1815 120.781 67.9058C121.505 68.6301 121.505 69.7166 120.781 70.0788C120.057 70.8031 120.057 70.8031 119.332 71.5274C118.608 72.2517 118.608 73.3382 119.332 74.0625L120.781 75.5112C121.505 76.2355 121.505 77.322 120.781 77.6842C120.057 78.4085 118.97 78.4085 118.608 77.6842L117.159 76.2355C116.435 75.5112 115.349 75.5112 114.624 76.2355L113.176 77.6842C112.451 78.4085 111.365 78.4085 111.003 77.6842C110.278 76.9598 110.278 75.8734 111.003 75.5112L112.451 74.0625C113.176 73.3382 113.176 72.2517 112.451 71.5274L111.003 70.0788C110.278 69.3544 110.278 68.268 111.003 67.9058Z" fill="url(#paint15_linear_30_16299)"/>
<path fill-rule="evenodd" clip-rule="evenodd" d="M0.543243 45.451C1.26757 44.7266 2.35405 44.7266 2.71621 45.451L4.16487 46.8996C4.88919 47.6239 5.97567 47.6239 6.69999 46.8996L8.14864 45.451C8.87297 44.7266 9.95945 44.7266 10.3216 45.451C11.0459 46.1753 11.0459 47.2618 10.3216 47.6239C9.59729 48.3483 9.5973 48.3483 8.87297 49.0726C8.14865 49.7969 8.14865 50.8834 8.87297 51.6077L10.3216 53.0564C11.0459 53.7807 11.0459 54.8672 10.3216 55.2293C9.59729 55.9537 8.51081 55.9537 8.14864 55.2293L6.69999 53.7807C5.97567 53.0564 4.88919 53.0564 4.16487 53.7807L2.71621 55.2293C1.99189 55.9537 0.905406 55.9537 0.543243 55.2293C-0.181081 54.505 -0.181081 53.4185 0.543243 53.0564L1.99188 51.6077C2.71621 50.8834 2.71621 49.7969 1.99188 49.0726L0.543243 47.6239C0.181081 46.8996 0.181081 46.1753 0.543243 45.451Z" fill="url(#paint16_linear_30_16299)"/>
<path fill-rule="evenodd" clip-rule="evenodd" d="M25.1699 45.451C25.8942 44.7266 26.9807 44.7266 27.3428 45.451L28.7915 46.8996C29.5158 47.6239 30.6023 47.6239 31.3266 46.8996L32.7753 45.451C33.4996 44.7266 34.5861 44.7266 34.9482 45.451C35.6726 46.1753 35.6726 47.2618 34.9482 47.6239C34.2239 48.3483 34.2239 48.3483 33.4996 49.0726C32.7753 49.7969 32.7753 50.8834 33.4996 51.6077L34.9482 53.0564C35.6726 53.7807 35.6726 54.8672 34.9482 55.2293C34.2239 55.9537 33.1374 55.9537 32.7753 55.2293L31.6888 54.1428C30.9644 53.4185 29.878 53.4185 29.1536 54.1428L27.705 55.5915C26.9807 56.3158 25.8942 56.3158 25.532 55.5915C24.8077 54.8672 24.8077 53.7807 25.532 53.4185L26.9807 51.9699C27.705 51.2456 27.705 50.1591 26.9807 49.4347L25.532 47.9861C24.4455 46.8996 24.4455 46.1753 25.1699 45.451Z" fill="url(#paint17_linear_30_16299)"/>
<path fill-rule="evenodd" clip-rule="evenodd" d="M49.7976 45.451C50.522 44.7266 51.6084 44.7266 51.9706 45.451L53.4193 46.8996C54.1436 47.6239 55.2301 47.6239 55.9544 46.8996L57.403 45.451C58.1274 44.7266 59.2138 44.7266 59.576 45.451C60.3003 46.1753 60.3003 47.2618 59.576 47.6239C58.8517 48.3483 58.8517 48.3483 58.1274 49.0726C57.4031 49.7969 57.4031 50.8834 58.1274 51.6077L59.576 53.0564C60.3003 53.7807 60.3003 54.8672 59.576 55.2293C58.8517 55.9537 57.7652 55.9537 57.403 55.2293L55.9544 53.7807C55.2301 53.0564 54.1436 53.0564 53.4193 53.7807L51.9706 55.2293C51.2463 55.9537 50.1598 55.9537 49.7976 55.2293C49.0733 54.505 49.0733 53.4185 49.7976 53.0564L51.2463 51.6077C51.9706 50.8834 51.9706 49.7969 51.2463 49.0726L49.7976 47.6239C49.0733 46.8996 49.0733 46.1753 49.7976 45.451Z" fill="url(#paint18_linear_30_16299)"/>
<path fill-rule="evenodd" clip-rule="evenodd" d="M74.0613 45.451C74.7856 44.7266 75.8721 44.7266 76.2343 45.451L77.6829 46.8996C78.4073 47.6239 79.4938 47.6239 80.2181 46.8996L81.6667 45.451C82.3911 44.7266 83.4775 44.7266 83.8397 45.451C84.564 46.1753 84.564 47.2618 83.8397 47.6239C83.1154 48.3483 83.1154 48.3483 82.3911 49.0726C81.6667 49.7969 81.6667 50.8834 82.3911 51.6077L83.8397 53.0564C84.564 53.7807 84.564 54.8672 83.8397 55.2293C83.1154 55.9537 82.0289 55.9537 81.6667 55.2293L80.2181 53.7807C79.4938 53.0564 78.4073 53.0564 77.6829 53.7807L76.2343 55.2293C75.51 55.9537 74.4235 55.9537 74.0613 55.2293C73.337 54.505 73.337 53.4185 74.0613 53.0564L75.51 51.6077C76.2343 50.8834 76.2343 49.7969 75.51 49.0726L74.0613 47.6239C73.6991 46.8996 73.6991 46.1753 74.0613 45.451Z" fill="url(#paint19_linear_30_16299)"/>
<path fill-rule="evenodd" clip-rule="evenodd" d="M98.6897 45.451C99.4141 44.7266 100.501 44.7266 100.863 45.451L102.311 46.8996C103.036 47.6239 104.122 47.6239 104.846 46.8996L106.295 45.451C107.019 44.7266 108.106 44.7266 108.468 45.451C109.192 46.1753 109.192 47.2618 108.468 47.6239C107.744 48.3483 107.744 48.3483 107.019 49.0726C106.295 49.7969 106.295 50.8834 107.019 51.6077L108.468 53.0564C109.192 53.7807 109.192 54.8672 108.468 55.2293C107.744 55.9537 106.657 55.9537 106.295 55.2293L104.846 53.7807C104.122 53.0564 103.036 53.0564 102.311 53.7807L100.863 55.2293C100.138 55.9537 99.0519 55.9537 98.6897 55.2293C97.9654 54.505 97.9654 53.4185 98.6897 53.0564L100.138 51.6077C100.863 50.8834 100.863 49.7969 100.138 49.0726L98.6897 47.6239C97.9654 46.8996 97.9654 46.1753 98.6897 45.451Z" fill="url(#paint20_linear_30_16299)"/>
<path fill-rule="evenodd" clip-rule="evenodd" d="M123.316 45.451C124.04 44.7266 125.127 44.7266 125.489 45.451L126.937 46.8996C127.662 47.6239 128.748 47.6239 129.472 46.8996L130.921 45.451C131.645 44.7266 132.732 44.7266 133.094 45.451C133.818 46.1753 133.818 47.2618 133.094 47.6239C132.37 48.3483 132.37 48.3483 131.645 49.0726C130.921 49.7969 130.921 50.8834 131.645 51.6077L133.094 53.0564C133.818 53.7807 133.818 54.8672 133.094 55.2293C132.37 55.9537 131.283 55.9537 130.921 55.2293L129.472 54.1428C128.748 53.4185 127.662 53.4185 126.937 54.1428L125.489 55.5915C124.764 56.3158 123.678 56.3158 123.316 55.5915C122.591 54.8672 122.591 53.7807 123.316 53.4185L124.764 51.9699C125.489 51.2456 125.489 50.1591 124.764 49.4347L123.316 47.9861C122.591 46.8996 122.591 46.1753 123.316 45.451Z" fill="url(#paint21_linear_30_16299)"/>
<path fill-rule="evenodd" clip-rule="evenodd" d="M12.8569 112.451C13.5812 111.727 14.6677 111.727 15.0298 112.451L16.4785 113.9C17.2028 114.624 18.2893 114.624 19.0136 113.9L20.8244 112.451C21.5488 111.727 22.6352 111.727 22.9974 112.451C23.7217 113.175 23.7217 114.262 22.9974 114.624C22.2731 115.348 22.2731 115.348 21.5488 116.073C20.8244 116.797 20.8244 117.883 21.5488 118.608L22.9974 120.056C23.7217 120.781 23.7217 121.867 22.9974 122.229C22.2731 122.954 21.1866 122.954 20.8244 122.229L19.3758 120.781C18.6514 120.056 17.565 120.056 16.8406 120.781L15.392 122.229C14.6677 122.954 13.5812 122.954 13.219 122.229C12.4947 121.505 12.4947 120.419 13.219 120.056L14.6677 118.608C15.392 117.883 15.392 116.797 14.6677 116.073L13.219 114.624C12.1325 114.262 12.1325 113.175 12.8569 112.451Z" fill="url(#paint22_linear_30_16299)"/>
<path fill-rule="evenodd" clip-rule="evenodd" d="M37.4846 112.451C38.209 111.727 39.2955 111.727 39.6576 112.451L41.1063 113.9C41.8306 114.624 42.9171 114.624 43.6414 113.9L45.0901 112.451C45.8144 111.727 46.9009 111.727 47.263 112.451C47.9874 113.175 47.9874 114.262 47.263 114.624C46.5387 115.348 46.5387 115.348 45.8144 116.073C45.0901 116.797 45.0901 117.883 45.8144 118.608L47.263 120.056C47.9874 120.781 47.9874 121.867 47.263 122.229C46.5387 122.954 45.4522 122.954 45.0901 122.229L43.6414 120.781C42.9171 120.056 41.8306 120.056 41.1063 120.781L39.6576 122.229C38.9333 122.954 37.8468 122.954 37.4846 122.229C36.7603 121.505 36.7603 120.419 37.4846 120.056L38.9333 118.608C39.6576 117.883 39.6576 116.797 38.9333 116.073L37.4846 114.624C36.7603 114.262 36.7603 113.175 37.4846 112.451Z" fill="url(#paint23_linear_30_16299)"/>
<path fill-rule="evenodd" clip-rule="evenodd" d="M61.7486 112.451C62.473 111.727 63.5594 111.727 63.9216 112.451L65.3703 113.9C66.0946 114.624 67.1811 114.624 67.9054 113.9L69.354 112.451C70.0784 111.727 71.1648 111.727 71.527 112.451C72.2513 113.175 72.2513 114.262 71.527 114.624C70.8027 115.348 70.8027 115.348 70.0783 116.073C69.354 116.797 69.354 117.883 70.0783 118.608L71.527 120.056C72.2513 120.781 72.2513 121.867 71.527 122.229C70.8027 122.954 69.7162 122.954 69.354 122.229L67.9054 120.781C67.1811 120.056 66.0946 120.056 65.3703 120.781L64.2838 122.591C63.5594 123.316 62.473 123.316 62.1108 122.591C61.3865 121.867 61.3865 120.781 62.1108 120.419L63.5594 118.97C64.2838 118.246 64.2838 117.159 63.5594 116.435L62.1108 114.986C61.3865 114.262 61.3865 113.175 61.7486 112.451Z" fill="url(#paint24_linear_30_16299)"/>
<path fill-rule="evenodd" clip-rule="evenodd" d="M86.3763 112.451C87.1006 111.727 88.1871 111.727 88.5492 112.451L89.9979 113.9C90.7222 114.624 91.8087 114.624 92.533 113.9L93.9817 112.451C94.706 111.727 95.7925 111.727 96.1546 112.451C96.879 113.175 96.879 114.262 96.1546 114.624C95.4303 115.348 95.4303 115.348 94.706 116.073C93.9817 116.797 93.9817 117.883 94.706 118.608L96.1546 120.056C96.879 120.781 96.879 121.867 96.1546 122.229C95.4303 122.954 94.3438 122.954 93.9817 122.229L92.533 120.781C91.8087 120.056 90.7222 120.056 89.9979 120.781L88.5492 122.229C87.8249 122.954 86.7384 122.954 86.3763 122.229C85.6519 121.505 85.6519 120.419 86.3763 120.056L87.8249 118.608C88.5492 117.883 88.5492 116.797 87.8249 116.073L86.3763 114.624C85.6519 114.262 85.6519 113.175 86.3763 112.451Z" fill="url(#paint25_linear_30_16299)"/>
<path fill-rule="evenodd" clip-rule="evenodd" d="M111.003 112.451C111.727 111.727 112.814 111.727 113.176 112.451L114.624 113.9C115.349 114.624 116.435 114.624 117.159 113.9L118.608 112.451C119.332 111.727 120.419 111.727 120.781 112.451C121.505 113.175 121.505 114.262 120.781 114.624C120.057 115.348 120.057 115.348 119.332 116.073C118.608 116.797 118.608 117.883 119.332 118.608L120.781 120.056C121.505 120.781 121.505 121.867 120.781 122.229C120.057 122.954 118.97 122.954 118.608 122.229L117.159 120.781C116.435 120.056 115.349 120.056 114.624 120.781L113.176 122.229C112.451 122.954 111.365 122.954 111.003 122.229C110.278 121.505 110.278 120.419 111.003 120.056L112.451 118.608C113.176 117.883 113.176 116.797 112.451 116.073L111.003 114.624C110.278 114.262 110.278 113.175 111.003 112.451Z" fill="url(#paint26_linear_30_16299)"/>
<path fill-rule="evenodd" clip-rule="evenodd" d="M0.543243 89.9973C1.26757 89.273 2.35405 89.273 2.71621 89.9973L4.16487 91.446C4.88919 92.1703 5.97567 92.1703 6.69999 91.446L8.14864 89.9973C8.87297 89.273 9.95945 89.273 10.3216 89.9973C11.0459 90.7217 11.0459 91.8082 10.3216 92.1703C9.59729 92.8946 9.5973 92.8946 8.87297 93.619C8.14865 94.3433 8.14865 95.4298 8.87297 96.1541L10.3216 97.6028C11.0459 98.3271 11.0459 99.4136 10.3216 99.7757C9.59729 100.5 8.51081 100.5 8.14864 99.7757L6.69999 98.3271C5.97567 97.6028 4.88919 97.6028 4.16487 98.3271L2.71621 99.7757C1.99189 100.5 0.905406 100.5 0.543243 99.7757C-0.181081 99.0514 -0.181081 97.9649 0.543243 97.6028L1.99188 96.1541C2.71621 95.4298 2.71621 94.3433 1.99188 93.619L0.543243 92.1703C0.181081 91.8082 0.181081 90.7217 0.543243 89.9973Z" fill="url(#paint27_linear_30_16299)"/>
<path fill-rule="evenodd" clip-rule="evenodd" d="M25.1699 89.9971C25.8942 89.2728 26.9807 89.2728 27.3428 89.9971L28.7915 91.4458C29.5158 92.1701 30.6023 92.1701 31.3266 91.4458L32.7753 89.9971C33.4996 89.2728 34.5861 89.2728 34.9482 89.9971C35.6726 90.7214 35.6726 91.8079 34.9482 92.1701C34.2239 92.8944 34.2239 92.8944 33.4996 93.6187C32.7753 94.343 32.7753 95.4295 33.4996 96.1539L35.3104 97.9647C36.0347 98.689 36.0347 99.7755 35.3104 100.138C34.5861 100.862 33.4996 100.862 33.1374 100.138L31.6888 98.689C30.9644 97.9647 29.878 97.9647 29.1536 98.689L27.705 100.138C26.9807 100.862 25.8942 100.862 25.532 100.138C24.8077 99.4133 24.8077 98.3268 25.532 97.9647L26.9807 96.516C27.705 95.7917 27.705 94.7052 26.9807 93.9809L25.532 92.5322C24.4455 91.8079 24.4455 90.7214 25.1699 89.9971Z" fill="url(#paint28_linear_30_16299)"/>
<path fill-rule="evenodd" clip-rule="evenodd" d="M49.7976 89.9971C50.522 89.2728 51.6084 89.2728 51.9706 89.9971L53.4193 91.4458C54.1436 92.1701 55.2301 92.1701 55.9544 91.4458L57.403 89.9971C58.1274 89.2728 59.2138 89.2728 59.576 89.9971C60.3003 90.7214 60.3003 91.8079 59.576 92.1701C58.8517 92.8944 58.8517 92.8944 58.1274 93.6187C57.4031 94.343 57.4031 95.4295 58.1274 96.1539L59.576 97.6025C60.3003 98.3268 60.3003 99.4133 59.576 99.7755C58.8517 100.5 57.7652 100.5 57.403 99.7755L55.9544 98.3268C55.2301 97.6025 54.1436 97.6025 53.4193 98.3268L51.9706 99.7755C51.2463 100.5 50.1598 100.5 49.7976 99.7755C49.0733 99.0512 49.0733 97.9647 49.7976 97.6025L51.2463 96.1539C51.9706 95.4295 51.9706 94.343 51.2463 93.6187L49.7976 92.5322C49.0733 91.8079 49.0733 90.7214 49.7976 89.9971Z" fill="url(#paint29_linear_30_16299)"/>
<path fill-rule="evenodd" clip-rule="evenodd" d="M74.0613 89.9971C74.7856 89.2728 75.8721 89.2728 76.2343 89.9971L77.6829 91.4458C78.4073 92.1701 79.4938 92.1701 80.2181 91.4458L81.6667 89.9971C82.3911 89.2728 83.4775 89.2728 83.8397 89.9971C84.564 90.7214 84.564 91.8079 83.8397 92.1701C83.1154 92.8944 83.1154 92.8944 82.3911 93.6187C81.6667 94.343 81.6667 95.4295 82.3911 96.1539L83.8397 97.6025C84.564 98.3268 84.564 99.4133 83.8397 99.7755C83.1154 100.5 82.0289 100.5 81.6667 99.7755L80.2181 98.3268C79.4938 97.6025 78.4073 97.6025 77.6829 98.3268L76.2343 99.7755C75.51 100.5 74.4235 100.5 74.0613 99.7755C73.337 99.0512 73.337 97.9647 74.0613 97.6025L75.51 96.1539C76.2343 95.4295 76.2343 94.343 75.51 93.6187L74.0613 92.1701C73.6991 91.8079 73.6991 90.7214 74.0613 89.9971Z" fill="url(#paint30_linear_30_16299)"/>
<path fill-rule="evenodd" clip-rule="evenodd" d="M98.6897 89.9971C99.4141 89.2728 100.501 89.2728 100.863 89.9971L102.311 91.4458C103.036 92.1701 104.122 92.1701 104.846 91.4458L106.295 89.9971C107.019 89.2728 108.106 89.2728 108.468 89.9971C109.192 90.7214 109.192 91.8079 108.468 92.1701C107.744 92.8944 107.744 92.8944 107.019 93.6187C106.295 94.343 106.295 95.4295 107.019 96.1539L108.468 97.6025C109.192 98.3268 109.192 99.4133 108.468 99.7755C107.744 100.5 106.657 100.5 106.295 99.7755L104.846 98.3268C104.122 97.6025 103.036 97.6025 102.311 98.3268L100.863 99.7755C100.138 100.5 99.0519 100.5 98.6897 99.7755C97.9654 99.0512 97.9654 97.9647 98.6897 97.6025L100.138 96.1539C100.863 95.4295 100.863 94.343 100.138 93.6187L98.6897 92.1701C97.9654 91.8079 97.9654 90.7214 98.6897 89.9971Z" fill="url(#paint31_linear_30_16299)"/>
<path fill-rule="evenodd" clip-rule="evenodd" d="M123.316 89.9971C124.04 89.2728 125.127 89.2728 125.489 89.9971L126.937 91.4458C127.662 92.1701 128.748 92.1701 129.472 91.4458L130.921 89.9971C131.645 89.2728 132.732 89.2728 133.094 89.9971C133.818 90.7214 133.818 91.8079 133.094 92.1701C132.37 92.8944 132.37 92.8944 131.645 93.6187C130.921 94.343 130.921 95.4295 131.645 96.1539L133.094 97.6025C133.818 98.3268 133.818 99.4133 133.094 99.7755C132.37 100.5 131.283 100.5 130.921 99.7755L129.472 98.689C128.748 97.9647 127.662 97.9647 126.937 98.689L125.489 100.138C124.764 100.862 123.678 100.862 123.316 100.138C122.591 99.4133 122.591 98.3268 123.316 97.9647L124.764 96.516C125.489 95.7917 125.489 94.7052 124.764 93.9809L123.316 92.5322C122.591 91.8079 122.591 90.7214 123.316 89.9971Z" fill="url(#paint32_linear_30_16299)"/>
<path fill-rule="evenodd" clip-rule="evenodd" d="M0.544042 134.906C1.26837 134.181 2.35485 134.181 2.71701 134.906L4.16566 136.354C4.88999 137.079 5.97646 137.079 6.70079 136.354L8.14944 134.906C8.87377 134.181 9.96025 134.181 10.3224 134.906C11.0467 135.63 11.0467 136.717 10.3224 137.079C10.3224 137.803 9.96025 137.803 9.23593 138.527C8.5116 139.252 8.5116 140.338 9.23593 141.063L10.6846 142.511C11.4089 143.236 11.4089 144.322 10.6846 144.684C9.96026 145.408 8.87376 145.408 8.5116 144.684L7.06296 143.236C6.33863 142.511 5.25214 142.511 4.52782 143.236L3.07917 145.046C2.35484 145.771 1.26836 145.771 0.906199 145.046C0.181874 144.322 0.181874 143.236 0.906199 142.873L2.35485 141.425C3.07918 140.7 3.07918 139.614 2.35485 138.89L0.906199 137.441C0.181874 136.354 0.18188 135.63 0.544042 134.906Z" fill="url(#paint33_linear_30_16299)"/>
<path fill-rule="evenodd" clip-rule="evenodd" d="M25.1712 134.906C25.8955 134.181 26.982 134.181 27.3441 134.906L28.7928 136.354C29.5171 137.079 30.6036 137.079 31.3279 136.354L32.7766 134.906C33.5009 134.181 34.5874 134.181 34.9496 134.906C35.6739 135.63 35.6739 136.717 34.9496 137.079C34.2252 137.803 34.2252 137.803 33.5009 138.527C32.7766 139.252 32.7766 140.338 33.5009 141.063L34.9496 142.511C35.6739 143.236 35.6739 144.322 34.9496 144.684C34.2252 145.408 33.1387 145.408 32.7766 144.684L31.6901 143.598C30.9658 142.873 29.8793 142.873 29.155 143.598L27.3441 145.046C26.6198 145.771 25.5333 145.771 25.1712 145.046C24.4468 144.322 24.4468 143.236 25.1712 142.873L26.6198 141.425C27.3441 140.7 27.3441 139.614 26.6198 138.89L25.1712 137.441C24.4468 136.354 24.4468 135.63 25.1712 134.906Z" fill="url(#paint34_linear_30_16299)"/>
<path fill-rule="evenodd" clip-rule="evenodd" d="M49.7976 134.906C50.522 134.181 51.6084 134.181 51.9706 134.906L53.4193 136.354C54.1436 137.079 55.2301 137.079 55.9544 136.354L57.403 134.906C58.1274 134.181 59.2138 134.181 59.576 134.906C60.3003 135.63 60.3003 136.717 59.576 137.079C58.8517 137.803 58.8517 137.803 58.1274 138.527C57.4031 139.252 57.4031 140.338 58.1274 141.063L59.576 142.511C60.3003 143.236 60.3003 144.322 59.576 144.684C58.8517 145.408 57.7652 145.408 57.403 144.684L55.9544 143.236C55.2301 142.511 54.1436 142.511 53.4193 143.236L51.9706 145.046C51.2463 145.771 50.1598 145.771 49.7976 145.046C49.0733 144.322 49.0733 143.236 49.7976 142.873L51.2463 141.425C51.9706 140.7 51.9706 139.614 51.2463 138.89L49.7976 137.079C49.0733 136.354 49.0733 135.63 49.7976 134.906Z" fill="url(#paint35_linear_30_16299)"/>
<path fill-rule="evenodd" clip-rule="evenodd" d="M74.0621 134.906C74.7864 134.181 75.8729 134.181 76.2351 134.906L77.6837 136.354C78.408 137.079 79.4945 137.079 80.2189 136.354L81.6675 134.906C82.3919 134.181 83.4783 134.181 83.8405 134.906C84.5648 135.63 84.5648 136.717 83.8405 137.079C83.1162 137.803 83.1162 137.803 82.3918 138.527C81.6675 139.252 81.6675 140.338 82.3918 141.063L83.8405 142.511C84.5648 143.236 84.5648 144.322 83.8405 144.684C83.1162 145.408 82.0297 145.408 81.6675 144.684L80.2189 143.236C79.4945 142.511 78.408 142.511 77.6837 143.236L76.5972 145.046C75.8729 145.771 74.7864 145.771 74.4243 145.046C73.7 144.322 73.7 143.236 74.4243 142.873L75.8729 141.425C76.5972 140.7 76.5972 139.614 75.8729 138.89L74.4243 137.441C73.7 136.354 73.6999 135.63 74.0621 134.906Z" fill="url(#paint36_linear_30_16299)"/>
<path fill-rule="evenodd" clip-rule="evenodd" d="M98.6897 134.906C99.4141 134.181 100.501 134.181 100.863 134.906L102.311 136.354C103.036 137.079 104.122 137.079 104.846 136.354L106.295 134.906C107.019 134.181 108.106 134.181 108.468 134.906C109.192 135.63 109.192 136.717 108.468 137.079C107.744 137.803 107.744 137.803 107.019 138.527C106.295 139.252 106.295 140.338 107.019 141.063L108.468 142.511C109.192 143.236 109.192 144.322 108.468 144.684C107.744 145.408 106.657 145.408 106.295 144.684L104.846 143.236C104.122 142.511 103.036 142.511 102.311 143.236L100.863 145.046C100.138 145.771 99.0519 145.771 98.6897 145.046C97.9654 144.322 97.9654 143.236 98.6897 142.873L100.138 141.425C100.863 140.7 100.863 139.614 100.138 138.89L98.6897 137.441C97.9654 136.354 97.9654 135.63 98.6897 134.906Z" fill="url(#paint37_linear_30_16299)"/>
<path fill-rule="evenodd" clip-rule="evenodd" d="M123.318 134.906C124.042 134.181 125.128 134.181 125.491 134.906L126.939 136.354C127.664 137.079 128.75 137.079 129.474 136.354L130.923 134.906C131.647 134.181 132.734 134.181 133.096 134.906C133.82 135.63 133.82 136.717 133.096 137.079C132.372 137.803 132.372 137.803 131.647 138.527C130.923 139.252 130.923 140.338 131.647 141.063L133.096 142.511C133.82 143.236 133.82 144.322 133.096 144.684C132.372 145.408 131.285 145.408 130.923 144.684L129.474 143.598C128.75 142.873 127.664 142.873 126.939 143.598L125.491 145.046C124.766 145.771 123.68 145.771 123.318 145.046C122.593 144.322 122.593 143.236 123.318 142.873L124.766 141.425C125.491 140.7 125.491 139.614 124.766 138.89L123.318 137.441C122.593 136.354 122.593 135.63 123.318 134.906Z" fill="url(#paint38_linear_30_16299)"/>
</g>
<defs>
<linearGradient id="paint0_linear_30_16299" x1="12.3512" y1="27.8832" x2="23.541" y2="27.8832" gradientUnits="userSpaceOnUse">
<stop stop-color="#C72A16"/>
<stop offset="0.998" stop-color="#BA2244"/>
</linearGradient>
<linearGradient id="paint1_linear_30_16299" x1="36.9406" y1="27.883" x2="47.8066" y2="27.883" gradientUnits="userSpaceOnUse">
<stop stop-color="#C72A16"/>
<stop offset="0.998" stop-color="#BA2244"/>
</linearGradient>
<linearGradient id="paint2_linear_30_16299" x1="61.5099" y1="28.0639" x2="72.0706" y2="28.0639" gradientUnits="userSpaceOnUse">
<stop stop-color="#C72A16"/>
<stop offset="0.998" stop-color="#BA2244"/>
</linearGradient>
<linearGradient id="paint3_linear_30_16299" x1="85.8322" y1="27.883" x2="96.6982" y2="27.883" gradientUnits="userSpaceOnUse">
<stop stop-color="#C72A16"/>
<stop offset="0.998" stop-color="#BA2244"/>
</linearGradient>
<linearGradient id="paint4_linear_30_16299" x1="110.459" y1="27.883" x2="121.325" y2="27.883" gradientUnits="userSpaceOnUse">
<stop stop-color="#C72A16"/>
<stop offset="0.998" stop-color="#BA2244"/>
</linearGradient>
<linearGradient id="paint5_linear_30_16299" x1="0.305316" y1="5.79129" x2="11.2281" y2="5.79129" gradientUnits="userSpaceOnUse">
<stop stop-color="#C72A16"/>
<stop offset="0.998" stop-color="#BA2244"/>
</linearGradient>
<linearGradient id="paint6_linear_30_16299" x1="24.6271" y1="5.79105" x2="35.8553" y2="5.79105" gradientUnits="userSpaceOnUse">
<stop stop-color="#C72A16"/>
<stop offset="0.998" stop-color="#BA2244"/>
</linearGradient>
<linearGradient id="paint7_linear_30_16299" x1="49.2535" y1="5.79105" x2="60.4818" y2="5.79105" gradientUnits="userSpaceOnUse">
<stop stop-color="#C72A16"/>
<stop offset="0.998" stop-color="#BA2244"/>
</linearGradient>
<linearGradient id="paint8_linear_30_16299" x1="73.8234" y1="5.79105" x2="84.7462" y2="5.79105" gradientUnits="userSpaceOnUse">
<stop stop-color="#C72A16"/>
<stop offset="0.998" stop-color="#BA2244"/>
</linearGradient>
<linearGradient id="paint9_linear_30_16299" x1="98.1456" y1="5.79105" x2="109.374" y2="5.79105" gradientUnits="userSpaceOnUse">
<stop stop-color="#C72A16"/>
<stop offset="0.998" stop-color="#BA2244"/>
</linearGradient>
<linearGradient id="paint10_linear_30_16299" x1="122.774" y1="5.79105" x2="134.002" y2="5.79105" gradientUnits="userSpaceOnUse">
<stop stop-color="#C72A16"/>
<stop offset="0.998" stop-color="#BA2244"/>
</linearGradient>
<linearGradient id="paint11_linear_30_16299" x1="12.3122" y1="72.7917" x2="23.1782" y2="72.7917" gradientUnits="userSpaceOnUse">
<stop stop-color="#C72A16"/>
<stop offset="0.998" stop-color="#BA2244"/>
</linearGradient>
<linearGradient id="paint12_linear_30_16299" x1="36.9386" y1="72.7917" x2="47.8047" y2="72.7917" gradientUnits="userSpaceOnUse">
<stop stop-color="#C72A16"/>
<stop offset="0.998" stop-color="#BA2244"/>
</linearGradient>
<linearGradient id="paint13_linear_30_16299" x1="61.5099" y1="72.9726" x2="72.0706" y2="72.9726" gradientUnits="userSpaceOnUse">
<stop stop-color="#C72A16"/>
<stop offset="0.998" stop-color="#BA2244"/>
</linearGradient>
<linearGradient id="paint14_linear_30_16299" x1="85.8307" y1="72.7917" x2="96.6967" y2="72.7917" gradientUnits="userSpaceOnUse">
<stop stop-color="#C72A16"/>
<stop offset="0.998" stop-color="#BA2244"/>
</linearGradient>
<linearGradient id="paint15_linear_30_16299" x1="110.459" y1="72.7917" x2="121.325" y2="72.7917" gradientUnits="userSpaceOnUse">
<stop stop-color="#C72A16"/>
<stop offset="0.998" stop-color="#BA2244"/>
</linearGradient>
<linearGradient id="paint16_linear_30_16299" x1="-0.00083197" y1="50.3368" x2="10.8652" y2="50.3368" gradientUnits="userSpaceOnUse">
<stop stop-color="#C72A16"/>
<stop offset="0.998" stop-color="#BA2244"/>
</linearGradient>
<linearGradient id="paint17_linear_30_16299" x1="24.6642" y1="50.5178" x2="35.4918" y2="50.5178" gradientUnits="userSpaceOnUse">
<stop stop-color="#C72A16"/>
<stop offset="0.998" stop-color="#BA2244"/>
</linearGradient>
<linearGradient id="paint18_linear_30_16299" x1="49.2536" y1="50.3368" x2="60.1196" y2="50.3368" gradientUnits="userSpaceOnUse">
<stop stop-color="#C72A16"/>
<stop offset="0.998" stop-color="#BA2244"/>
</linearGradient>
<linearGradient id="paint19_linear_30_16299" x1="73.5172" y1="50.3368" x2="84.3833" y2="50.3368" gradientUnits="userSpaceOnUse">
<stop stop-color="#C72A16"/>
<stop offset="0.998" stop-color="#BA2244"/>
</linearGradient>
<linearGradient id="paint20_linear_30_16299" x1="98.1457" y1="50.3368" x2="109.012" y2="50.3368" gradientUnits="userSpaceOnUse">
<stop stop-color="#C72A16"/>
<stop offset="0.998" stop-color="#BA2244"/>
</linearGradient>
<linearGradient id="paint21_linear_30_16299" x1="122.772" y1="50.5178" x2="133.638" y2="50.5178" gradientUnits="userSpaceOnUse">
<stop stop-color="#C72A16"/>
<stop offset="0.998" stop-color="#BA2244"/>
</linearGradient>
<linearGradient id="paint22_linear_30_16299" x1="12.3512" y1="117.337" x2="23.541" y2="117.337" gradientUnits="userSpaceOnUse">
<stop stop-color="#C72A16"/>
<stop offset="0.998" stop-color="#BA2244"/>
</linearGradient>
<linearGradient id="paint23_linear_30_16299" x1="36.9406" y1="117.337" x2="47.8066" y2="117.337" gradientUnits="userSpaceOnUse">
<stop stop-color="#C72A16"/>
<stop offset="0.998" stop-color="#BA2244"/>
</linearGradient>
<linearGradient id="paint24_linear_30_16299" x1="61.5099" y1="117.518" x2="72.0706" y2="117.518" gradientUnits="userSpaceOnUse">
<stop stop-color="#C72A16"/>
<stop offset="0.998" stop-color="#BA2244"/>
</linearGradient>
<linearGradient id="paint25_linear_30_16299" x1="85.8322" y1="117.337" x2="96.6982" y2="117.337" gradientUnits="userSpaceOnUse">
<stop stop-color="#C72A16"/>
<stop offset="0.998" stop-color="#BA2244"/>
</linearGradient>
<linearGradient id="paint26_linear_30_16299" x1="110.459" y1="117.337" x2="121.325" y2="117.337" gradientUnits="userSpaceOnUse">
<stop stop-color="#C72A16"/>
<stop offset="0.998" stop-color="#BA2244"/>
</linearGradient>
<linearGradient id="paint27_linear_30_16299" x1="-0.00083197" y1="94.8832" x2="10.8652" y2="94.8832" gradientUnits="userSpaceOnUse">
<stop stop-color="#C72A16"/>
<stop offset="0.998" stop-color="#BA2244"/>
</linearGradient>
<linearGradient id="paint28_linear_30_16299" x1="24.6642" y1="95.0639" x2="35.854" y2="95.0639" gradientUnits="userSpaceOnUse">
<stop stop-color="#C72A16"/>
<stop offset="0.998" stop-color="#BA2244"/>
</linearGradient>
<linearGradient id="paint29_linear_30_16299" x1="49.2536" y1="94.883" x2="60.1196" y2="94.883" gradientUnits="userSpaceOnUse">
<stop stop-color="#C72A16"/>
<stop offset="0.998" stop-color="#BA2244"/>
</linearGradient>
<linearGradient id="paint30_linear_30_16299" x1="73.5172" y1="94.883" x2="84.3833" y2="94.883" gradientUnits="userSpaceOnUse">
<stop stop-color="#C72A16"/>
<stop offset="0.998" stop-color="#BA2244"/>
</linearGradient>
<linearGradient id="paint31_linear_30_16299" x1="98.1457" y1="94.883" x2="109.012" y2="94.883" gradientUnits="userSpaceOnUse">
<stop stop-color="#C72A16"/>
<stop offset="0.998" stop-color="#BA2244"/>
</linearGradient>
<linearGradient id="paint32_linear_30_16299" x1="122.772" y1="95.0639" x2="133.638" y2="95.0639" gradientUnits="userSpaceOnUse">
<stop stop-color="#C72A16"/>
<stop offset="0.998" stop-color="#BA2244"/>
</linearGradient>
<linearGradient id="paint33_linear_30_16299" x1="0.305316" y1="139.973" x2="11.2281" y2="139.973" gradientUnits="userSpaceOnUse">
<stop stop-color="#C72A16"/>
<stop offset="0.998" stop-color="#BA2244"/>
</linearGradient>
<linearGradient id="paint34_linear_30_16299" x1="24.6271" y1="139.973" x2="35.4931" y2="139.973" gradientUnits="userSpaceOnUse">
<stop stop-color="#C72A16"/>
<stop offset="0.998" stop-color="#BA2244"/>
</linearGradient>
<linearGradient id="paint35_linear_30_16299" x1="49.2536" y1="139.973" x2="60.1196" y2="139.973" gradientUnits="userSpaceOnUse">
<stop stop-color="#C72A16"/>
<stop offset="0.998" stop-color="#BA2244"/>
</linearGradient>
<linearGradient id="paint36_linear_30_16299" x1="73.8234" y1="139.973" x2="84.384" y2="139.973" gradientUnits="userSpaceOnUse">
<stop stop-color="#C72A16"/>
<stop offset="0.998" stop-color="#BA2244"/>
</linearGradient>
<linearGradient id="paint37_linear_30_16299" x1="98.1457" y1="139.973" x2="109.012" y2="139.973" gradientUnits="userSpaceOnUse">
<stop stop-color="#C72A16"/>
<stop offset="0.998" stop-color="#BA2244"/>
</linearGradient>
<linearGradient id="paint38_linear_30_16299" x1="122.774" y1="139.973" x2="133.64" y2="139.973" gradientUnits="userSpaceOnUse">
<stop stop-color="#C72A16"/>
<stop offset="0.998" stop-color="#BA2244"/>
</linearGradient>
</defs>
</svg>
