<svg width="61" height="32" viewBox="0 0 61 32" fill="none" xmlns="http://www.w3.org/2000/svg">
<g opacity="0.5">
<path d="M14.3759 0.609622L0.582805 14.4027C-0.194269 15.1798 -0.194269 16.5397 0.582806 17.3167L14.3759 31.1098C15.1529 31.8869 16.5128 31.8869 17.2899 31.1098L20.981 27.4187C21.7581 26.6416 21.7581 25.2818 20.981 24.5047L12.2389 15.7626L20.981 7.02049C21.7581 6.24342 21.7581 4.88354 20.981 4.10646L17.2899 0.415357C16.5128 -0.167449 15.1529 -0.167453 14.3759 0.609622Z" fill="url(#paint0_linear_30_16492)"/>
<path d="M34.1918 0.609622L20.3987 14.4027C19.6216 15.1798 19.6216 16.5397 20.3987 17.3167L34.1918 31.1098C34.9689 31.8869 36.3287 31.8869 37.1058 31.1098L40.7969 27.4187C41.574 26.6416 41.574 25.2818 40.7969 24.5047L32.0548 15.7626L40.7969 7.02049C41.574 6.24342 41.574 4.88354 40.7969 4.10646L37.1058 0.415357C36.3287 -0.167449 34.9689 -0.167453 34.1918 0.609622Z" fill="url(#paint1_linear_30_16492)"/>
<path d="M53.8119 0.609622L40.0188 14.4027C39.2418 15.1798 39.2418 16.5397 40.0188 17.3167L53.8119 31.1098C54.589 31.8869 55.9489 31.8869 56.726 31.1098L60.4171 27.4187C61.1941 26.6416 61.1941 25.2818 60.4171 24.5047L51.675 15.7626L60.4171 7.02049C61.1941 6.24342 61.1941 4.88354 60.4171 4.10646L56.726 0.415357C55.9489 -0.167449 54.589 -0.167453 53.8119 0.609622Z" fill="url(#paint2_linear_30_16492)"/>
</g>
<defs>
<linearGradient id="paint0_linear_30_16492" x1="7.55705" y1="24.1806" x2="24.19" y2="7.54755" gradientUnits="userSpaceOnUse">
<stop stop-color="#FF9100"/>
<stop offset="1" stop-color="#FF4D00"/>
</linearGradient>
<linearGradient id="paint1_linear_30_16492" x1="27.2834" y1="24.1806" x2="43.9163" y2="7.54755" gradientUnits="userSpaceOnUse">
<stop stop-color="#FF9100"/>
<stop offset="1" stop-color="#FF4D00"/>
</linearGradient>
<linearGradient id="paint2_linear_30_16492" x1="47.008" y1="24.1804" x2="63.641" y2="7.54774" gradientUnits="userSpaceOnUse">
<stop stop-color="#FF9100"/>
<stop offset="1" stop-color="#FF4D00"/>
</linearGradient>
</defs>
</svg>
