<svg width="145" height="157" viewBox="0 0 145 157" fill="none" xmlns="http://www.w3.org/2000/svg">
<g opacity="0.5">
<path fill-rule="evenodd" clip-rule="evenodd" d="M13.8642 24.7997C14.6453 24.0186 15.8169 24.0186 16.2075 24.7997L17.7697 26.3619C18.5508 27.143 19.7224 27.143 20.5035 26.3619L22.4562 24.7997C23.2373 24.0186 24.409 24.0186 24.7995 24.7997C25.5806 25.5808 25.5806 26.7524 24.7995 27.143C24.0184 27.9241 24.0184 27.9241 23.2373 28.7052C22.4562 29.4863 22.4562 30.6579 23.2373 31.439L24.7995 33.0012C25.5806 33.7823 25.5806 34.9539 24.7995 35.3445C24.0184 36.1256 22.8468 36.1256 22.4562 35.3445L20.894 33.7823C20.113 33.0012 18.9413 33.0012 18.1602 33.7823L16.598 35.3445C15.8169 36.1256 14.6453 36.1256 14.2548 35.3445C13.4737 34.5634 13.4737 33.3917 14.2548 33.0012L15.8169 31.439C16.598 30.6579 16.598 29.4863 15.8169 28.7052L14.2548 27.143C13.0831 26.7524 13.0831 25.5808 13.8642 24.7997Z" fill="url(#paint0_linear_30_16401)"/>
<path fill-rule="evenodd" clip-rule="evenodd" d="M40.4222 24.7997C41.2033 24.0186 42.375 24.0186 42.7655 24.7997L44.3277 26.3619C45.1088 27.143 46.2805 27.143 47.0616 26.3619L48.6237 24.7997C49.4048 24.0186 50.5765 24.0186 50.967 24.7997C51.7481 25.5808 51.7481 26.7524 50.967 27.143C50.186 27.9241 50.1859 27.9241 49.4049 28.7052C48.6238 29.4863 48.6238 30.6579 49.4049 31.439L50.967 33.0012C51.7481 33.7823 51.7481 34.9539 50.967 35.3445C50.186 36.1256 49.0143 36.1256 48.6237 35.3445L47.0616 33.7823C46.2805 33.0012 45.1088 33.0012 44.3277 33.7823L42.7655 35.3445C41.9844 36.1256 40.8128 36.1256 40.4222 35.3445C39.6412 34.5634 39.6412 33.3917 40.4222 33.0012L41.9844 31.8295C42.7655 31.0484 42.7655 29.8768 41.9844 29.0957L40.4222 27.5335C39.6412 26.7524 39.6412 25.5808 40.4222 24.7997Z" fill="url(#paint1_linear_30_16401)"/>
<path fill-rule="evenodd" clip-rule="evenodd" d="M66.5886 24.7997C67.3697 24.0186 68.5413 24.0186 68.9318 24.7997L70.494 26.3619C71.2751 27.143 72.4468 27.143 73.2279 26.3619L74.7901 24.7997C75.5712 24.0186 76.7428 24.0186 77.1333 24.7997C77.9144 25.5808 77.9144 26.7524 77.1333 27.143C76.3522 27.9241 76.3522 27.9241 75.5711 28.7052C74.79 29.4863 74.79 30.6579 75.5711 31.439L77.1333 33.0012C77.9144 33.7823 77.9144 34.9539 77.1333 35.3445C76.3522 36.1256 75.1806 36.1256 74.7901 35.3445L73.2279 33.7823C72.4468 33.0012 71.2751 33.0012 70.494 33.7823L69.3224 35.735C68.5413 36.5161 67.3697 36.5161 66.9791 35.735C66.198 34.9539 66.198 33.7823 66.9791 33.3917L68.5413 31.8295C69.3224 31.0484 69.3224 29.8768 68.5413 29.0957L66.9791 27.5335C66.198 26.7524 66.198 25.5808 66.5886 24.7997Z" fill="url(#paint2_linear_30_16401)"/>
<path fill-rule="evenodd" clip-rule="evenodd" d="M93.1459 24.7997C93.927 24.0186 95.0986 24.0186 95.4892 24.7997L97.0514 26.3619C97.8324 27.143 99.0041 27.143 99.7852 26.3619L101.347 24.7997C102.128 24.0186 103.3 24.0186 103.691 24.7997C104.472 25.5808 104.472 26.7524 103.691 27.143C102.91 27.9241 102.91 27.9241 102.128 28.7052C101.347 29.4863 101.347 30.6579 102.128 31.439L103.691 33.0012C104.472 33.7823 104.472 34.9539 103.691 35.3445C102.91 36.1256 101.738 36.1256 101.347 35.3445L99.7852 33.7823C99.0041 33.0012 97.8324 33.0012 97.0514 33.7823L95.4892 35.3445C94.7081 36.1256 93.5364 36.1256 93.1459 35.3445C92.3648 34.5634 92.3648 33.3917 93.1459 33.0012L94.7081 31.439C95.4892 30.6579 95.4892 29.4863 94.7081 28.7052L93.1459 27.143C92.3648 26.7524 92.3648 25.5808 93.1459 24.7997Z" fill="url(#paint3_linear_30_16401)"/>
<path fill-rule="evenodd" clip-rule="evenodd" d="M119.703 24.7997C120.484 24.0186 121.655 24.0186 122.046 24.7997L123.608 26.3619C124.389 27.143 125.561 27.143 126.342 26.3619L127.904 24.7997C128.685 24.0186 129.857 24.0186 130.247 24.7997C131.028 25.5808 131.028 26.7524 130.247 27.143C129.466 27.9241 129.466 27.9241 128.685 28.7052C127.904 29.4863 127.904 30.6579 128.685 31.439L130.247 33.0012C131.028 33.7823 131.028 34.9539 130.247 35.3445C129.466 36.1256 128.295 36.1256 127.904 35.3445L126.342 33.7823C125.561 33.0012 124.389 33.0012 123.608 33.7823L122.046 35.3445C121.265 36.1256 120.093 36.1256 119.703 35.3445C118.921 34.5634 118.921 33.3917 119.703 33.0012L121.265 31.439C122.046 30.6579 122.046 29.4863 121.265 28.7052L119.703 27.143C118.921 26.7524 118.921 25.5808 119.703 24.7997Z" fill="url(#paint4_linear_30_16401)"/>
<path fill-rule="evenodd" clip-rule="evenodd" d="M0.586613 0.585821C1.36771 -0.195274 2.53934 -0.195274 2.92989 0.585821L4.49209 2.14801C5.27318 2.92911 6.44481 2.92911 7.22591 2.14801L8.7881 0.585821C9.5692 -0.195274 10.7408 -0.195274 11.1314 0.585821C11.9125 1.36692 11.9125 2.53856 11.1314 2.92911C11.1314 4.10075 10.7408 4.10075 9.95974 4.88184C9.17865 5.66294 9.17865 6.83458 9.95974 7.61568L11.5219 9.17787C12.303 9.95896 12.303 11.1306 11.5219 11.5212C10.7408 12.3022 9.56919 12.3022 9.17865 11.5212L7.61647 9.95896C6.83537 9.17787 5.66372 9.17787 4.88263 9.95896L3.32043 11.9117C2.53934 12.6928 1.3677 12.6928 0.977155 11.9117C0.19606 11.1306 0.19606 9.95896 0.977155 9.56841L2.53935 8.00622C3.32045 7.22513 3.32045 6.05349 2.53935 5.27239L0.977155 3.7102C0.19606 2.53856 0.196066 1.36692 0.586613 0.585821Z" fill="url(#paint5_linear_30_16401)"/>
<path fill-rule="evenodd" clip-rule="evenodd" d="M27.1439 0.585821C27.925 -0.195274 29.0967 -0.195274 29.4872 0.585821L31.0494 2.14801C31.8305 2.92911 33.0021 2.92911 33.7832 2.14801L35.3454 0.585821C36.5171 0.195274 37.2982 0.195274 38.0793 0.585821C38.8603 1.36692 38.8603 2.53856 38.0793 2.92911C37.2982 4.10075 37.2982 4.10075 36.5171 4.88184C35.736 5.66294 35.736 6.83458 36.5171 7.61568L38.0793 9.17787C38.8603 9.95896 38.8603 11.1306 38.0793 11.5212C37.2982 12.3022 36.1265 12.3022 35.736 11.5212L34.1738 9.95896C33.3927 9.17787 32.221 9.17787 31.4399 9.95896L29.4872 11.9117C28.7061 12.6928 27.5345 12.6928 27.1439 11.9117C26.3628 11.1306 26.3628 9.95896 27.1439 9.56841L28.7061 8.00622C29.4872 7.22513 29.4872 6.05349 28.7061 5.27239L27.1439 3.7102C26.3628 2.53856 26.3628 1.36692 27.1439 0.585821Z" fill="url(#paint6_linear_30_16401)"/>
<path fill-rule="evenodd" clip-rule="evenodd" d="M53.7011 0.585821C54.4822 -0.195274 55.6538 -0.195274 56.0443 0.585821L57.6065 2.14801C58.3876 2.92911 59.5593 2.92911 60.3404 2.14801L61.9025 0.585821C62.6836 -0.195274 63.8553 -0.195274 64.2458 0.585821C65.0269 1.36692 65.0269 2.53856 64.2458 2.92911C63.8553 4.10075 63.8553 4.10075 63.0742 4.88184C62.2931 5.66294 62.2931 6.83458 63.0742 7.61568L64.6364 9.17787C65.4175 9.95896 65.4175 11.1306 64.6364 11.9117C63.8553 12.6928 62.6836 12.6928 62.2931 11.9117L60.7309 10.3495C59.9498 9.56841 58.7782 9.56841 57.9971 10.3495L56.0443 11.9117C55.2632 12.6928 54.0916 12.6928 53.7011 11.9117C52.92 11.1306 52.92 9.95896 53.7011 9.56841L55.2633 8.00622C56.0443 7.22513 56.0443 6.05349 55.2633 5.27239L53.7011 3.31965C52.92 2.53856 52.92 1.36692 53.7011 0.585821Z" fill="url(#paint7_linear_30_16401)"/>
<path fill-rule="evenodd" clip-rule="evenodd" d="M79.8669 0.585821C80.648 -0.195274 81.8196 -0.195274 82.2102 0.585821L83.7724 2.14801C84.5534 2.92911 85.7251 2.92911 86.5062 2.14801L88.0684 0.585821C88.8495 -0.195274 90.0211 -0.195274 90.4117 0.585821C91.1928 1.36692 91.1928 2.53856 90.4117 2.92911C90.4117 4.10075 90.0211 4.10075 89.24 4.88184C88.4589 5.66294 88.4589 6.83458 89.24 7.61568L90.8022 9.17787C91.5833 9.95896 91.5833 11.1306 90.8022 11.5212C90.0211 12.3022 88.8495 12.3022 88.4589 11.5212L86.8967 9.95896C86.1156 9.17787 84.944 9.17787 84.1629 9.95896L82.6007 11.9117C81.8196 12.6928 80.648 12.6928 80.2574 11.9117C79.4764 11.1306 79.4764 9.95896 80.2574 9.56841L81.8196 8.00622C82.6007 7.22513 82.6007 6.05349 81.8196 5.27239L80.2574 3.7102C79.4764 2.53856 79.4763 1.36692 79.8669 0.585821Z" fill="url(#paint8_linear_30_16401)"/>
<path fill-rule="evenodd" clip-rule="evenodd" d="M106.425 0.585821C107.206 0.195274 108.377 0.195274 108.768 0.585821L110.33 2.14801C111.111 2.92911 112.283 2.92911 113.064 2.14801L114.626 0.585821C115.407 -0.195274 116.579 -0.195274 116.969 0.585821C117.751 1.36692 117.751 2.53856 116.969 2.92911C116.579 4.10075 116.579 4.10075 115.798 4.88184C115.017 5.66294 115.017 6.83458 115.798 7.61568L117.36 9.17787C118.141 9.95896 118.141 11.1306 117.36 11.5212C116.579 12.3022 115.407 12.3022 115.017 11.5212L113.455 9.95896C112.673 9.17787 111.502 9.17787 110.721 9.95896L108.768 11.9117C107.987 12.6928 106.815 12.6928 106.425 11.9117C105.644 11.1306 105.644 9.95896 106.425 9.56841L107.987 8.00622C108.768 7.22513 108.768 6.05349 107.987 5.27239L106.425 3.7102C105.644 2.53856 105.644 1.36692 106.425 0.585821Z" fill="url(#paint9_linear_30_16401)"/>
<path fill-rule="evenodd" clip-rule="evenodd" d="M132.983 0.585821C133.764 -0.195274 134.936 -0.195274 135.327 0.585821L136.889 2.14801C137.67 2.92911 138.841 2.92911 139.623 2.14801L141.185 0.585821C141.966 -0.195274 143.138 -0.195274 143.528 0.585821C144.309 1.36692 144.309 2.53856 143.528 2.92911C143.138 4.10075 143.137 4.10075 142.356 4.88184C141.575 5.66294 141.575 6.83458 142.356 7.61568L143.919 9.17787C144.7 9.95896 144.7 11.1306 143.919 11.5212C143.137 12.3022 141.966 12.3022 141.575 11.5212L139.623 9.95896C138.841 9.17787 137.67 9.17787 136.889 9.95896L135.327 11.9117C134.545 12.6928 133.374 12.6928 132.983 11.9117C132.202 11.1306 132.202 9.95896 132.983 9.56841L134.545 8.00622C135.327 7.22513 135.327 6.05349 134.545 5.27239L132.983 3.7102C132.202 2.53856 132.202 1.36692 132.983 0.585821Z" fill="url(#paint10_linear_30_16401)"/>
<path fill-rule="evenodd" clip-rule="evenodd" d="M13.8641 73.2275C14.6452 72.4464 15.8169 72.4464 16.2074 73.2275L17.7696 74.7897C18.5507 75.5708 19.7224 75.5708 20.5035 74.7897L22.0656 73.2275C22.8467 72.4464 24.0184 72.4464 24.4089 73.2275C25.19 74.0086 25.19 75.1803 24.4089 75.5708C23.6278 76.3519 23.6278 76.3519 22.8467 77.133C22.0656 77.9141 22.0656 79.0858 22.8467 79.8668L24.4089 81.429C25.19 82.2101 25.19 83.3818 24.4089 83.7723C23.6278 84.5534 22.4562 84.5534 22.0656 83.7723L20.5035 82.2101C19.7224 81.429 18.5507 81.429 17.7696 82.2101L16.2074 83.7723C15.4263 84.5534 14.2547 84.5534 13.8641 83.7723C13.083 82.9912 13.083 81.8196 13.8641 81.429L15.4263 79.8668C16.2074 79.0858 16.2074 77.9141 15.4263 77.133L13.8641 75.5708C13.083 74.7897 13.083 73.6181 13.8641 73.2275Z" fill="url(#paint11_linear_30_16401)"/>
<path fill-rule="evenodd" clip-rule="evenodd" d="M40.4203 73.2275C41.2014 72.4464 42.373 72.4464 42.7636 73.2275L44.3258 74.7897C45.1069 75.5708 46.2785 75.5708 47.0596 74.7897L48.6218 73.2275C49.4029 72.4464 50.5745 72.4464 50.9651 73.2275C51.7462 74.0086 51.7462 75.1803 50.9651 75.5708C50.184 76.3519 50.184 76.3519 49.4029 77.133C48.6218 77.9141 48.6218 79.0858 49.4029 79.8668L50.9651 81.429C51.7462 82.2101 51.7462 83.3818 50.9651 83.7723C50.184 84.5534 49.0123 84.5534 48.6218 83.7723L47.0596 82.2101C46.2785 81.429 45.1069 81.429 44.3258 82.2101L42.7636 83.7723C41.9825 84.5534 40.8108 84.5534 40.4203 83.7723C39.6392 82.9912 39.6392 81.8196 40.4203 81.429L41.9825 79.8668C42.7636 79.0858 42.7636 77.9141 41.9825 77.133L40.4203 75.5708C39.6392 74.7897 39.6392 73.6181 40.4203 73.2275Z" fill="url(#paint12_linear_30_16401)"/>
<path fill-rule="evenodd" clip-rule="evenodd" d="M66.5886 73.2275C67.3697 72.4464 68.5413 72.4464 68.9318 73.2275L70.494 74.7897C71.2751 75.5708 72.4468 75.5708 73.2279 74.7897L74.7901 73.2275C75.5712 72.4464 76.7428 72.4464 77.1333 73.2275C77.9144 74.0086 77.9144 75.1803 77.1333 75.5708C76.3522 76.3519 76.3522 76.3519 75.5711 77.133C74.79 77.9141 74.79 79.0858 75.5711 79.8668L77.1333 81.429C77.9144 82.2101 77.9144 83.3818 77.1333 83.7723C76.3522 84.5534 75.1806 84.5534 74.7901 83.7723L73.2279 82.2101C72.4468 81.429 71.2751 81.429 70.494 82.2101L69.3224 84.1629C68.5413 84.944 67.3697 84.944 66.9791 84.1629C66.198 83.3818 66.198 82.2101 66.9791 81.8196L68.5413 80.2574C69.3224 79.4763 69.3224 78.3047 68.5413 77.5236L66.9791 75.9614C66.198 74.7897 66.198 73.6181 66.5886 73.2275Z" fill="url(#paint13_linear_30_16401)"/>
<path fill-rule="evenodd" clip-rule="evenodd" d="M93.1439 73.2275C93.925 72.4464 95.0967 72.4464 95.4872 73.2275L97.0494 74.7897C97.8305 75.5708 99.0022 75.5708 99.7833 74.7897L101.345 73.2275C102.127 72.4464 103.298 72.4464 103.689 73.2275C104.47 74.0086 104.47 75.1803 103.689 75.5708C102.908 76.3519 102.908 76.3519 102.127 77.133C101.345 77.9141 101.345 79.0858 102.127 79.8668L103.689 81.429C104.47 82.2101 104.47 83.3818 103.689 83.7723C102.908 84.5534 101.736 84.5534 101.345 83.7723L99.7833 82.2101C99.0022 81.429 97.8305 81.429 97.0494 82.2101L95.4872 83.7723C94.7061 84.5534 93.5345 84.5534 93.1439 83.7723C92.3628 82.9912 92.3628 81.8196 93.1439 81.429L94.7061 79.8668C95.4872 79.0858 95.4872 77.9141 94.7061 77.133L93.1439 75.5708C92.3628 74.7897 92.3628 73.6181 93.1439 73.2275Z" fill="url(#paint14_linear_30_16401)"/>
<path fill-rule="evenodd" clip-rule="evenodd" d="M119.703 73.2275C120.484 72.4464 121.655 72.4464 122.046 73.2275L123.608 74.7897C124.389 75.5708 125.561 75.5708 126.342 74.7897L127.904 73.2275C128.685 72.4464 129.857 72.4464 130.247 73.2275C131.028 74.0086 131.028 75.1803 130.247 75.5708C129.466 76.3519 129.466 76.3519 128.685 77.133C127.904 77.9141 127.904 79.0858 128.685 79.8668L130.247 81.429C131.028 82.2101 131.028 83.3818 130.247 83.7723C129.466 84.5534 128.295 84.5534 127.904 83.7723L126.342 82.2101C125.561 81.429 124.389 81.429 123.608 82.2101L122.046 83.7723C121.265 84.5534 120.093 84.5534 119.703 83.7723C118.921 82.9912 118.921 81.8196 119.703 81.429L121.265 79.8668C122.046 79.0858 122.046 77.9141 121.265 77.133L119.703 75.5708C118.921 74.7897 118.921 73.6181 119.703 73.2275Z" fill="url(#paint15_linear_30_16401)"/>
<path fill-rule="evenodd" clip-rule="evenodd" d="M0.585821 49.0138C1.36692 48.2327 2.53855 48.2327 2.9291 49.0138L4.4913 50.576C5.27239 51.3571 6.44402 51.3571 7.22512 50.576L8.78731 49.0138C9.56841 48.2327 10.74 48.2327 11.1306 49.0138C11.9117 49.7949 11.9117 50.9665 11.1306 51.3571C10.3495 52.1382 10.3495 52.1382 9.56841 52.9193C8.78732 53.7004 8.78732 54.872 9.56841 55.6531L11.1306 57.2153C11.9117 57.9964 11.9117 59.168 11.1306 59.5586C10.3495 60.3397 9.17786 60.3397 8.78731 59.5586L7.22512 57.9964C6.44402 57.2153 5.27239 57.2153 4.4913 57.9964L2.9291 59.5586C2.14801 60.3397 0.976369 60.3397 0.585821 59.5586C-0.195274 58.7775 -0.195274 57.6058 0.585821 57.2153L2.148 55.6531C2.9291 54.872 2.9291 53.7004 2.148 52.9193L0.585821 51.3571C0.195274 50.576 0.195274 49.7949 0.585821 49.0138Z" fill="url(#paint16_linear_30_16401)"/>
<path fill-rule="evenodd" clip-rule="evenodd" d="M27.143 49.0138C27.9241 48.2327 29.0957 48.2327 29.4863 49.0138L31.0485 50.576C31.8296 51.3571 33.0012 51.3571 33.7823 50.576L35.3445 49.0138C36.1256 48.2327 37.2972 48.2327 37.6878 49.0138C38.4689 49.7949 38.4689 50.9665 37.6878 51.3571C36.9067 52.1382 36.9067 52.1382 36.1256 52.9193C35.3445 53.7004 35.3445 54.872 36.1256 55.6531L37.6878 57.2153C38.4689 57.9964 38.4689 59.168 37.6878 59.5586C36.9067 60.3397 35.7351 60.3397 35.3445 59.5586L34.1729 58.3869C33.3918 57.6058 32.2201 57.6058 31.439 58.3869L29.8768 59.9491C29.0958 60.7302 27.9241 60.7302 27.5336 59.9491C26.7525 59.168 26.7525 57.9964 27.5336 57.6058L29.0957 56.0437C29.8768 55.2626 29.8768 54.0909 29.0957 53.3098L27.5336 51.7476C26.3619 50.576 26.3619 49.7949 27.143 49.0138Z" fill="url(#paint17_linear_30_16401)"/>
<path fill-rule="evenodd" clip-rule="evenodd" d="M53.7011 49.0138C54.4822 48.2327 55.6538 48.2327 56.0443 49.0138L57.6065 50.576C58.3876 51.3571 59.5593 51.3571 60.3404 50.576L61.9025 49.0138C62.6836 48.2327 63.8553 48.2327 64.2458 49.0138C65.0269 49.7949 65.0269 50.9665 64.2458 51.3571C63.4647 52.1382 63.4648 52.1382 62.6837 52.9193C61.9026 53.7004 61.9026 54.872 62.6837 55.6531L64.2458 57.2153C65.0269 57.9964 65.0269 59.168 64.2458 59.5586C63.4647 60.3397 62.2931 60.3397 61.9025 59.5586L60.3404 57.9964C59.5593 57.2153 58.3876 57.2153 57.6065 57.9964L56.0443 59.5586C55.2632 60.3397 54.0916 60.3397 53.7011 59.5586C52.92 58.7775 52.92 57.6058 53.7011 57.2153L55.2633 55.6531C56.0443 54.872 56.0443 53.7004 55.2633 52.9193L53.7011 51.3571C52.92 50.576 52.92 49.7949 53.7011 49.0138Z" fill="url(#paint18_linear_30_16401)"/>
<path fill-rule="evenodd" clip-rule="evenodd" d="M79.8666 49.0138C80.6477 48.2327 81.8193 48.2327 82.2099 49.0138L83.7721 50.576C84.5532 51.3571 85.7248 51.3571 86.5059 50.576L88.0681 49.0138C88.8492 48.2327 90.0208 48.2327 90.4114 49.0138C91.1925 49.7949 91.1925 50.9665 90.4114 51.3571C89.6303 52.1382 89.6303 52.1382 88.8492 52.9193C88.0681 53.7004 88.0681 54.872 88.8492 55.6531L90.4114 57.2153C91.1925 57.9964 91.1925 59.168 90.4114 59.5586C89.6303 60.3397 88.4587 60.3397 88.0681 59.5586L86.5059 57.9964C85.7248 57.2153 84.5532 57.2153 83.7721 57.9964L82.2099 59.5586C81.4288 60.3397 80.2571 60.3397 79.8666 59.5586C79.0855 58.7775 79.0855 57.6058 79.8666 57.2153L81.4288 55.6531C82.2099 54.872 82.2099 53.7004 81.4288 52.9193L79.8666 51.3571C79.476 50.576 79.476 49.7949 79.8666 49.0138Z" fill="url(#paint19_linear_30_16401)"/>
<path fill-rule="evenodd" clip-rule="evenodd" d="M106.425 49.0138C107.206 48.2327 108.377 48.2327 108.768 49.0138L110.33 50.576C111.111 51.3571 112.283 51.3571 113.064 50.576L114.626 49.0138C115.407 48.2327 116.579 48.2327 116.969 49.0138C117.751 49.7949 117.751 50.9665 116.969 51.3571C116.188 52.1382 116.188 52.1382 115.407 52.9193C114.626 53.7004 114.626 54.872 115.407 55.6531L116.969 57.2153C117.751 57.9964 117.751 59.168 116.969 59.5586C116.188 60.3397 115.017 60.3397 114.626 59.5586L113.064 57.9964C112.283 57.2153 111.111 57.2153 110.33 57.9964L108.768 59.5586C107.987 60.3397 106.815 60.3397 106.425 59.5586C105.644 58.7775 105.644 57.6058 106.425 57.2153L107.987 55.6531C108.768 54.872 108.768 53.7004 107.987 52.9193L106.425 51.3571C105.644 50.576 105.644 49.7949 106.425 49.0138Z" fill="url(#paint20_linear_30_16401)"/>
<path fill-rule="evenodd" clip-rule="evenodd" d="M132.981 49.0138C133.762 48.2327 134.934 48.2327 135.325 49.0138L136.887 50.576C137.668 51.3571 138.84 51.3571 139.621 50.576L141.183 49.0138C141.964 48.2327 143.136 48.2327 143.526 49.0138C144.307 49.7949 144.307 50.9665 143.526 51.3571C142.745 52.1382 142.745 52.1382 141.964 52.9193C141.183 53.7004 141.183 54.872 141.964 55.6531L143.526 57.2153C144.307 57.9964 144.307 59.168 143.526 59.5586C142.745 60.3397 141.573 60.3397 141.183 59.5586L139.621 58.3869C138.84 57.6058 137.668 57.6058 136.887 58.3869L135.325 59.9491C134.544 60.7302 133.372 60.7302 132.981 59.9491C132.2 59.168 132.2 57.9964 132.981 57.6058L134.543 56.0437C135.325 55.2626 135.325 54.0909 134.543 53.3098L132.981 51.7476C132.2 50.576 132.2 49.7949 132.981 49.0138Z" fill="url(#paint21_linear_30_16401)"/>
<path fill-rule="evenodd" clip-rule="evenodd" d="M13.8642 121.265C14.6453 120.484 15.8169 120.484 16.2075 121.265L17.7697 122.827C18.5508 123.608 19.7224 123.608 20.5035 122.827L22.4562 121.265C23.2373 120.484 24.409 120.484 24.7995 121.265C25.5806 122.046 25.5806 123.218 24.7995 123.608C24.0184 124.39 24.0184 124.39 23.2373 125.171C22.4562 125.952 22.4562 127.123 23.2373 127.904L24.7995 129.467C25.5806 130.248 25.5806 131.419 24.7995 131.81C24.0184 132.591 22.8468 132.591 22.4562 131.81L20.894 130.248C20.113 129.467 18.9413 129.467 18.1602 130.248L16.598 131.81C15.8169 132.591 14.6453 132.591 14.2548 131.81C13.4737 131.029 13.4737 129.857 14.2548 129.467L15.8169 127.904C16.598 127.123 16.598 125.952 15.8169 125.171L14.2548 123.608C13.0831 123.218 13.0831 122.046 13.8642 121.265Z" fill="url(#paint22_linear_30_16401)"/>
<path fill-rule="evenodd" clip-rule="evenodd" d="M40.4222 121.265C41.2033 120.484 42.375 120.484 42.7655 121.265L44.3277 122.827C45.1088 123.608 46.2805 123.608 47.0616 122.827L48.6237 121.265C49.4048 120.484 50.5765 120.484 50.967 121.265C51.7481 122.046 51.7481 123.218 50.967 123.608C50.186 124.39 50.1859 124.39 49.4049 125.171C48.6238 125.952 48.6238 127.123 49.4049 127.904L50.967 129.467C51.7481 130.248 51.7481 131.419 50.967 131.81C50.186 132.591 49.0143 132.591 48.6237 131.81L47.0616 130.248C46.2805 129.467 45.1088 129.467 44.3277 130.248L42.7655 131.81C41.9844 132.591 40.8128 132.591 40.4222 131.81C39.6412 131.029 39.6412 129.857 40.4222 129.467L41.9844 127.904C42.7655 127.123 42.7655 125.952 41.9844 125.171L40.4222 123.608C39.6412 123.218 39.6412 122.046 40.4222 121.265Z" fill="url(#paint23_linear_30_16401)"/>
<path fill-rule="evenodd" clip-rule="evenodd" d="M66.5886 121.265C67.3697 120.484 68.5413 120.484 68.9318 121.265L70.494 122.827C71.2751 123.608 72.4468 123.608 73.2279 122.827L74.7901 121.265C75.5712 120.484 76.7428 120.484 77.1333 121.265C77.9144 122.046 77.9144 123.218 77.1333 123.608C76.3522 124.39 76.3522 124.39 75.5711 125.171C74.79 125.952 74.79 127.123 75.5711 127.904L77.1333 129.467C77.9144 130.248 77.9144 131.419 77.1333 131.81C76.3522 132.591 75.1806 132.591 74.7901 131.81L73.2279 130.248C72.4468 129.467 71.2751 129.467 70.494 130.248L69.3224 132.2C68.5413 132.982 67.3697 132.982 66.9791 132.2C66.198 131.419 66.198 130.248 66.9791 129.857L68.5413 128.295C69.3224 127.514 69.3224 126.342 68.5413 125.561L66.9791 123.999C66.198 123.218 66.198 122.046 66.5886 121.265Z" fill="url(#paint24_linear_30_16401)"/>
<path fill-rule="evenodd" clip-rule="evenodd" d="M93.1459 121.265C93.927 120.484 95.0986 120.484 95.4892 121.265L97.0514 122.827C97.8324 123.608 99.0041 123.608 99.7852 122.827L101.347 121.265C102.128 120.484 103.3 120.484 103.691 121.265C104.472 122.046 104.472 123.218 103.691 123.608C102.91 124.39 102.91 124.39 102.128 125.171C101.347 125.952 101.347 127.123 102.128 127.904L103.691 129.467C104.472 130.248 104.472 131.419 103.691 131.81C102.91 132.591 101.738 132.591 101.347 131.81L99.7852 130.248C99.0041 129.467 97.8324 129.467 97.0514 130.248L95.4892 131.81C94.7081 132.591 93.5364 132.591 93.1459 131.81C92.3648 131.029 92.3648 129.857 93.1459 129.467L94.7081 127.904C95.4892 127.123 95.4892 125.952 94.7081 125.171L93.1459 123.608C92.3648 123.218 92.3648 122.046 93.1459 121.265Z" fill="url(#paint25_linear_30_16401)"/>
<path fill-rule="evenodd" clip-rule="evenodd" d="M119.703 121.265C120.484 120.484 121.655 120.484 122.046 121.265L123.608 122.827C124.389 123.608 125.561 123.608 126.342 122.827L127.904 121.265C128.685 120.484 129.857 120.484 130.247 121.265C131.028 122.046 131.028 123.218 130.247 123.608C129.466 124.39 129.466 124.39 128.685 125.171C127.904 125.952 127.904 127.123 128.685 127.904L130.247 129.467C131.028 130.248 131.028 131.419 130.247 131.81C129.466 132.591 128.295 132.591 127.904 131.81L126.342 130.248C125.561 129.467 124.389 129.467 123.608 130.248L122.046 131.81C121.265 132.591 120.093 132.591 119.703 131.81C118.921 131.029 118.921 129.857 119.703 129.467L121.265 127.904C122.046 127.123 122.046 125.952 121.265 125.171L119.703 123.608C118.921 123.218 118.921 122.046 119.703 121.265Z" fill="url(#paint26_linear_30_16401)"/>
<path fill-rule="evenodd" clip-rule="evenodd" d="M0.585821 97.0512C1.36692 96.2701 2.53855 96.2701 2.9291 97.0512L4.4913 98.6133C5.27239 99.3944 6.44402 99.3944 7.22512 98.6133L8.78731 97.0512C9.56841 96.2701 10.74 96.2701 11.1306 97.0512C11.9117 97.8322 11.9117 99.0039 11.1306 99.3944C10.3495 100.176 10.3495 100.176 9.56841 100.957C8.78732 101.738 8.78732 102.909 9.56841 103.69L11.1306 105.253C11.9117 106.034 11.9117 107.205 11.1306 107.596C10.3495 108.377 9.17786 108.377 8.78731 107.596L7.22512 106.034C6.44402 105.253 5.27239 105.253 4.4913 106.034L2.9291 107.596C2.14801 108.377 0.976369 108.377 0.585821 107.596C-0.195274 106.815 -0.195274 105.643 0.585821 105.253L2.148 103.69C2.9291 102.909 2.9291 101.738 2.148 100.957L0.585821 99.3944C0.195274 99.0039 0.195274 97.8322 0.585821 97.0512Z" fill="url(#paint27_linear_30_16401)"/>
<path fill-rule="evenodd" clip-rule="evenodd" d="M27.143 97.0512C27.9241 96.2701 29.0957 96.2701 29.4863 97.0512L31.0485 98.6133C31.8296 99.3944 33.0012 99.3944 33.7823 98.6133L35.3445 97.0512C36.1256 96.2701 37.2972 96.2701 37.6878 97.0512C38.4689 97.8322 38.4689 99.0039 37.6878 99.3944C36.9067 100.176 36.9067 100.176 36.1256 100.957C35.3445 101.738 35.3445 102.909 36.1256 103.69L38.0783 105.643C38.8594 106.424 38.8594 107.596 38.0783 107.986C37.2972 108.768 36.1256 108.768 35.7351 107.986L34.1729 106.424C33.3918 105.643 32.2201 105.643 31.439 106.424L29.8768 107.986C29.0958 108.768 27.9241 108.768 27.5336 107.986C26.7525 107.205 26.7525 106.034 27.5336 105.643L29.0957 104.081C29.8768 103.3 29.8768 102.128 29.0957 101.347L27.5336 99.785C26.3619 99.0039 26.3619 97.8322 27.143 97.0512Z" fill="url(#paint28_linear_30_16401)"/>
<path fill-rule="evenodd" clip-rule="evenodd" d="M53.7011 97.0512C54.4822 96.2701 55.6538 96.2701 56.0443 97.0512L57.6065 98.6133C58.3876 99.3944 59.5593 99.3944 60.3404 98.6133L61.9025 97.0512C62.6836 96.2701 63.8553 96.2701 64.2458 97.0512C65.0269 97.8322 65.0269 99.0039 64.2458 99.3944C63.4647 100.176 63.4648 100.176 62.6837 100.957C61.9026 101.738 61.9026 102.909 62.6837 103.69L64.2458 105.253C65.0269 106.034 65.0269 107.205 64.2458 107.596C63.4647 108.377 62.2931 108.377 61.9025 107.596L60.3404 106.034C59.5593 105.253 58.3876 105.253 57.6065 106.034L56.0443 107.596C55.2632 108.377 54.0916 108.377 53.7011 107.596C52.92 106.815 52.92 105.643 53.7011 105.253L55.2633 103.69C56.0443 102.909 56.0443 101.738 55.2633 100.957L53.7011 99.785C52.92 99.0039 52.92 97.8322 53.7011 97.0512Z" fill="url(#paint29_linear_30_16401)"/>
<path fill-rule="evenodd" clip-rule="evenodd" d="M79.8666 97.0512C80.6477 96.2701 81.8193 96.2701 82.2099 97.0512L83.7721 98.6133C84.5532 99.3944 85.7248 99.3944 86.5059 98.6133L88.0681 97.0512C88.8492 96.2701 90.0208 96.2701 90.4114 97.0512C91.1925 97.8322 91.1925 99.0039 90.4114 99.3944C89.6303 100.176 89.6303 100.176 88.8492 100.957C88.0681 101.738 88.0681 102.909 88.8492 103.69L90.4114 105.253C91.1925 106.034 91.1925 107.205 90.4114 107.596C89.6303 108.377 88.4587 108.377 88.0681 107.596L86.5059 106.034C85.7248 105.253 84.5532 105.253 83.7721 106.034L82.2099 107.596C81.4288 108.377 80.2571 108.377 79.8666 107.596C79.0855 106.815 79.0855 105.643 79.8666 105.253L81.4288 103.69C82.2099 102.909 82.2099 101.738 81.4288 100.957L79.8666 99.3944C79.476 99.0039 79.476 97.8322 79.8666 97.0512Z" fill="url(#paint30_linear_30_16401)"/>
<path fill-rule="evenodd" clip-rule="evenodd" d="M106.425 97.0512C107.206 96.2701 108.377 96.2701 108.768 97.0512L110.33 98.6133C111.111 99.3944 112.283 99.3944 113.064 98.6133L114.626 97.0512C115.407 96.2701 116.579 96.2701 116.969 97.0512C117.751 97.8322 117.751 99.0039 116.969 99.3944C116.188 100.176 116.188 100.176 115.407 100.957C114.626 101.738 114.626 102.909 115.407 103.69L116.969 105.253C117.751 106.034 117.751 107.205 116.969 107.596C116.188 108.377 115.017 108.377 114.626 107.596L113.064 106.034C112.283 105.253 111.111 105.253 110.33 106.034L108.768 107.596C107.987 108.377 106.815 108.377 106.425 107.596C105.644 106.815 105.644 105.643 106.425 105.253L107.987 103.69C108.768 102.909 108.768 101.738 107.987 100.957L106.425 99.3944C105.644 99.0039 105.644 97.8322 106.425 97.0512Z" fill="url(#paint31_linear_30_16401)"/>
<path fill-rule="evenodd" clip-rule="evenodd" d="M132.981 97.0512C133.762 96.2701 134.934 96.2701 135.325 97.0512L136.887 98.6133C137.668 99.3944 138.84 99.3944 139.621 98.6133L141.183 97.0512C141.964 96.2701 143.136 96.2701 143.526 97.0512C144.307 97.8322 144.307 99.0039 143.526 99.3944C142.745 100.176 142.745 100.176 141.964 100.957C141.183 101.738 141.183 102.909 141.964 103.69L143.526 105.253C144.307 106.034 144.307 107.205 143.526 107.596C142.745 108.377 141.573 108.377 141.183 107.596L139.621 106.424C138.84 105.643 137.668 105.643 136.887 106.424L135.325 107.986C134.544 108.768 133.372 108.768 132.981 107.986C132.2 107.205 132.2 106.034 132.981 105.643L134.543 104.081C135.325 103.3 135.325 102.128 134.543 101.347L132.981 99.785C132.2 99.0039 132.2 97.8322 132.981 97.0512Z" fill="url(#paint32_linear_30_16401)"/>
<path fill-rule="evenodd" clip-rule="evenodd" d="M0.586613 145.479C1.36771 144.698 2.53934 144.698 2.92989 145.479L4.49209 147.041C5.27318 147.822 6.44481 147.822 7.22591 147.041L8.7881 145.479C9.5692 144.698 10.7408 144.698 11.1314 145.479C11.9125 146.26 11.9125 147.432 11.1314 147.822C11.1314 148.603 10.7408 148.603 9.95974 149.384C9.17865 150.165 9.17865 151.337 9.95974 152.118L11.5219 153.68C12.303 154.461 12.303 155.633 11.5219 156.024C10.7408 156.805 9.56919 156.805 9.17865 156.024L7.61647 154.461C6.83537 153.68 5.66372 153.68 4.88263 154.461L3.32043 156.414C2.53934 157.195 1.3677 157.195 0.977155 156.414C0.19606 155.633 0.19606 154.461 0.977155 154.071L2.53935 152.509C3.32045 151.728 3.32045 150.556 2.53935 149.775L0.977155 148.213C0.19606 147.041 0.196066 146.26 0.586613 145.479Z" fill="url(#paint33_linear_30_16401)"/>
<path fill-rule="evenodd" clip-rule="evenodd" d="M27.1439 145.479C27.925 144.698 29.0967 144.698 29.4872 145.479L31.0494 147.041C31.8305 147.822 33.0021 147.822 33.7832 147.041L35.3454 145.479C36.1265 144.698 37.2982 144.698 37.6887 145.479C38.4698 146.26 38.4698 147.432 37.6887 147.822C36.9076 148.603 36.9076 148.603 36.1265 149.384C35.3454 150.165 35.3454 151.337 36.1265 152.118L37.6887 153.68C38.4698 154.461 38.4698 155.633 37.6887 156.024C36.9076 156.805 35.736 156.805 35.3454 156.024L34.1738 154.852C33.3927 154.071 32.221 154.071 31.4399 154.852L29.4872 156.414C28.7061 157.195 27.5345 157.195 27.1439 156.414C26.3628 155.633 26.3628 154.461 27.1439 154.071L28.7061 152.509C29.4872 151.728 29.4872 150.556 28.7061 149.775L27.1439 148.213C26.3628 147.041 26.3628 146.26 27.1439 145.479Z" fill="url(#paint34_linear_30_16401)"/>
<path fill-rule="evenodd" clip-rule="evenodd" d="M53.7011 145.479C54.4822 144.698 55.6538 144.698 56.0443 145.479L57.6065 147.041C58.3876 147.822 59.5593 147.822 60.3404 147.041L61.9025 145.479C62.6836 144.698 63.8553 144.698 64.2458 145.479C65.0269 146.26 65.0269 147.432 64.2458 147.822C63.4647 148.603 63.4648 148.603 62.6837 149.384C61.9026 150.165 61.9026 151.337 62.6837 152.118L64.2458 153.68C65.0269 154.461 65.0269 155.633 64.2458 156.024C63.4647 156.805 62.2931 156.805 61.9025 156.024L60.3404 154.461C59.5593 153.68 58.3876 153.68 57.6065 154.461L56.0443 156.414C55.2632 157.195 54.0916 157.195 53.7011 156.414C52.92 155.633 52.92 154.461 53.7011 154.071L55.2633 152.509C56.0443 151.728 56.0443 150.556 55.2633 149.775L53.7011 147.822C52.92 147.041 52.92 146.26 53.7011 145.479Z" fill="url(#paint35_linear_30_16401)"/>
<path fill-rule="evenodd" clip-rule="evenodd" d="M79.8669 145.479C80.648 144.698 81.8196 144.698 82.2102 145.479L83.7724 147.041C84.5534 147.822 85.7251 147.822 86.5062 147.041L88.0684 145.479C88.8495 144.698 90.0211 144.698 90.4117 145.479C91.1928 146.26 91.1928 147.432 90.4117 147.822C89.6306 148.603 89.6306 148.603 88.8495 149.384C88.0684 150.165 88.0684 151.337 88.8495 152.118L90.4117 153.68C91.1928 154.461 91.1928 155.633 90.4117 156.024C89.6306 156.805 88.4589 156.805 88.0684 156.024L86.5062 154.461C85.7251 153.68 84.5534 153.68 83.7724 154.461L82.6007 156.414C81.8196 157.195 80.648 157.195 80.2574 156.414C79.4764 155.633 79.4764 154.461 80.2574 154.071L81.8196 152.509C82.6007 151.728 82.6007 150.556 81.8196 149.775L80.2574 148.213C79.4764 147.041 79.4763 146.26 79.8669 145.479Z" fill="url(#paint36_linear_30_16401)"/>
<path fill-rule="evenodd" clip-rule="evenodd" d="M106.425 145.479C107.206 144.698 108.377 144.698 108.768 145.479L110.33 147.041C111.111 147.822 112.283 147.822 113.064 147.041L114.626 145.479C115.407 144.698 116.579 144.698 116.969 145.479C117.751 146.26 117.751 147.432 116.969 147.822C116.188 148.603 116.188 148.603 115.407 149.384C114.626 150.165 114.626 151.337 115.407 152.118L116.969 153.68C117.751 154.461 117.751 155.633 116.969 156.024C116.188 156.805 115.017 156.805 114.626 156.024L113.064 154.461C112.283 153.68 111.111 153.68 110.33 154.461L108.768 156.414C107.987 157.195 106.815 157.195 106.425 156.414C105.644 155.633 105.644 154.461 106.425 154.071L107.987 152.509C108.768 151.728 108.768 150.556 107.987 149.775L106.425 148.213C105.644 147.041 105.644 146.26 106.425 145.479Z" fill="url(#paint37_linear_30_16401)"/>
<path fill-rule="evenodd" clip-rule="evenodd" d="M132.983 145.479C133.764 144.698 134.936 144.698 135.327 145.479L136.889 147.041C137.67 147.822 138.841 147.822 139.623 147.041L141.185 145.479C141.966 144.698 143.138 144.698 143.528 145.479C144.309 146.26 144.309 147.432 143.528 147.822C142.747 148.603 142.747 148.603 141.966 149.384C141.185 150.165 141.185 151.337 141.966 152.118L143.528 153.68C144.309 154.461 144.309 155.633 143.528 156.024C142.747 156.805 141.575 156.805 141.185 156.024L139.623 154.852C138.841 154.071 137.67 154.071 136.889 154.852L135.327 156.414C134.545 157.195 133.374 157.195 132.983 156.414C132.202 155.633 132.202 154.461 132.983 154.071L134.545 152.509C135.327 151.728 135.327 150.556 134.545 149.775L132.983 148.213C132.202 147.041 132.202 146.26 132.983 145.479Z" fill="url(#paint38_linear_30_16401)"/>
</g>
<defs>
<linearGradient id="paint0_linear_30_16401" x1="15.0819" y1="25.9344" x2="23.3602" y2="34.4594" gradientUnits="userSpaceOnUse">
<stop stop-color="#FF9100"/>
<stop offset="1" stop-color="#FF4D00"/>
</linearGradient>
<linearGradient id="paint1_linear_30_16401" x1="41.5475" y1="25.9344" x2="49.8294" y2="34.2163" gradientUnits="userSpaceOnUse">
<stop stop-color="#FF9100"/>
<stop offset="1" stop-color="#FF4D00"/>
</linearGradient>
<linearGradient id="paint2_linear_30_16401" x1="67.995" y1="25.9917" x2="76.5369" y2="34.0258" gradientUnits="userSpaceOnUse">
<stop stop-color="#FF9100"/>
<stop offset="1" stop-color="#FF4D00"/>
</linearGradient>
<linearGradient id="paint3_linear_30_16401" x1="94.2711" y1="25.9344" x2="102.553" y2="34.2163" gradientUnits="userSpaceOnUse">
<stop stop-color="#FF9100"/>
<stop offset="1" stop-color="#FF4D00"/>
</linearGradient>
<linearGradient id="paint4_linear_30_16401" x1="120.828" y1="25.9344" x2="129.11" y2="34.2163" gradientUnits="userSpaceOnUse">
<stop stop-color="#FF9100"/>
<stop offset="1" stop-color="#FF4D00"/>
</linearGradient>
<linearGradient id="paint5_linear_30_16401" x1="2.05009" y1="1.83523" x2="10.8686" y2="10.1458" gradientUnits="userSpaceOnUse">
<stop stop-color="#FF9100"/>
<stop offset="1" stop-color="#FF4D00"/>
</linearGradient>
<linearGradient id="paint6_linear_30_16401" x1="28.3262" y1="1.83523" x2="37.1558" y2="10.3889" gradientUnits="userSpaceOnUse">
<stop stop-color="#FF9100"/>
<stop offset="1" stop-color="#FF4D00"/>
</linearGradient>
<linearGradient id="paint7_linear_30_16401" x1="54.8833" y1="1.83523" x2="63.7129" y2="10.3889" gradientUnits="userSpaceOnUse">
<stop stop-color="#FF9100"/>
<stop offset="1" stop-color="#FF4D00"/>
</linearGradient>
<linearGradient id="paint8_linear_30_16401" x1="81.3304" y1="1.83523" x2="90.1489" y2="10.1458" gradientUnits="userSpaceOnUse">
<stop stop-color="#FF9100"/>
<stop offset="1" stop-color="#FF4D00"/>
</linearGradient>
<linearGradient id="paint9_linear_30_16401" x1="107.607" y1="1.83523" x2="116.437" y2="10.3889" gradientUnits="userSpaceOnUse">
<stop stop-color="#FF9100"/>
<stop offset="1" stop-color="#FF4D00"/>
</linearGradient>
<linearGradient id="paint10_linear_30_16401" x1="134.166" y1="1.83523" x2="142.995" y2="10.3889" gradientUnits="userSpaceOnUse">
<stop stop-color="#FF9100"/>
<stop offset="1" stop-color="#FF4D00"/>
</linearGradient>
<linearGradient id="paint11_linear_30_16401" x1="14.9894" y1="74.3623" x2="23.2713" y2="82.6442" gradientUnits="userSpaceOnUse">
<stop stop-color="#FF9100"/>
<stop offset="1" stop-color="#FF4D00"/>
</linearGradient>
<linearGradient id="paint12_linear_30_16401" x1="41.5455" y1="74.3623" x2="49.8275" y2="82.6442" gradientUnits="userSpaceOnUse">
<stop stop-color="#FF9100"/>
<stop offset="1" stop-color="#FF4D00"/>
</linearGradient>
<linearGradient id="paint13_linear_30_16401" x1="67.995" y1="74.4196" x2="76.5369" y2="82.4537" gradientUnits="userSpaceOnUse">
<stop stop-color="#FF9100"/>
<stop offset="1" stop-color="#FF4D00"/>
</linearGradient>
<linearGradient id="paint14_linear_30_16401" x1="94.2692" y1="74.3623" x2="102.551" y2="82.6442" gradientUnits="userSpaceOnUse">
<stop stop-color="#FF9100"/>
<stop offset="1" stop-color="#FF4D00"/>
</linearGradient>
<linearGradient id="paint15_linear_30_16401" x1="120.828" y1="74.3623" x2="129.11" y2="82.6442" gradientUnits="userSpaceOnUse">
<stop stop-color="#FF9100"/>
<stop offset="1" stop-color="#FF4D00"/>
</linearGradient>
<linearGradient id="paint16_linear_30_16401" x1="1.71106" y1="50.1485" x2="9.99298" y2="58.4304" gradientUnits="userSpaceOnUse">
<stop stop-color="#FF9100"/>
<stop offset="1" stop-color="#FF4D00"/>
</linearGradient>
<linearGradient id="paint17_linear_30_16401" x1="28.3036" y1="50.2059" x2="36.856" y2="58.453" gradientUnits="userSpaceOnUse">
<stop stop-color="#FF9100"/>
<stop offset="1" stop-color="#FF4D00"/>
</linearGradient>
<linearGradient id="paint18_linear_30_16401" x1="54.8263" y1="50.1485" x2="63.1082" y2="58.4304" gradientUnits="userSpaceOnUse">
<stop stop-color="#FF9100"/>
<stop offset="1" stop-color="#FF4D00"/>
</linearGradient>
<linearGradient id="paint19_linear_30_16401" x1="80.9918" y1="50.1485" x2="89.2737" y2="58.4304" gradientUnits="userSpaceOnUse">
<stop stop-color="#FF9100"/>
<stop offset="1" stop-color="#FF4D00"/>
</linearGradient>
<linearGradient id="paint20_linear_30_16401" x1="107.55" y1="50.1485" x2="115.832" y2="58.4304" gradientUnits="userSpaceOnUse">
<stop stop-color="#FF9100"/>
<stop offset="1" stop-color="#FF4D00"/>
</linearGradient>
<linearGradient id="paint21_linear_30_16401" x1="134.107" y1="50.2059" x2="142.66" y2="58.4833" gradientUnits="userSpaceOnUse">
<stop stop-color="#FF9100"/>
<stop offset="1" stop-color="#FF4D00"/>
</linearGradient>
<linearGradient id="paint22_linear_30_16401" x1="15.0819" y1="122.4" x2="23.3602" y2="130.925" gradientUnits="userSpaceOnUse">
<stop stop-color="#FF9100"/>
<stop offset="1" stop-color="#FF4D00"/>
</linearGradient>
<linearGradient id="paint23_linear_30_16401" x1="41.5475" y1="122.4" x2="49.8294" y2="130.682" gradientUnits="userSpaceOnUse">
<stop stop-color="#FF9100"/>
<stop offset="1" stop-color="#FF4D00"/>
</linearGradient>
<linearGradient id="paint24_linear_30_16401" x1="67.995" y1="122.457" x2="76.5369" y2="130.491" gradientUnits="userSpaceOnUse">
<stop stop-color="#FF9100"/>
<stop offset="1" stop-color="#FF4D00"/>
</linearGradient>
<linearGradient id="paint25_linear_30_16401" x1="94.2711" y1="122.4" x2="102.553" y2="130.682" gradientUnits="userSpaceOnUse">
<stop stop-color="#FF9100"/>
<stop offset="1" stop-color="#FF4D00"/>
</linearGradient>
<linearGradient id="paint26_linear_30_16401" x1="120.828" y1="122.4" x2="129.11" y2="130.682" gradientUnits="userSpaceOnUse">
<stop stop-color="#FF9100"/>
<stop offset="1" stop-color="#FF4D00"/>
</linearGradient>
<linearGradient id="paint27_linear_30_16401" x1="1.71106" y1="98.1859" x2="9.99299" y2="106.468" gradientUnits="userSpaceOnUse">
<stop stop-color="#FF9100"/>
<stop offset="1" stop-color="#FF4D00"/>
</linearGradient>
<linearGradient id="paint28_linear_30_16401" x1="28.3607" y1="98.2432" x2="36.9186" y2="106.772" gradientUnits="userSpaceOnUse">
<stop stop-color="#FF9100"/>
<stop offset="1" stop-color="#FF4D00"/>
</linearGradient>
<linearGradient id="paint29_linear_30_16401" x1="54.8263" y1="98.1859" x2="63.1082" y2="106.468" gradientUnits="userSpaceOnUse">
<stop stop-color="#FF9100"/>
<stop offset="1" stop-color="#FF4D00"/>
</linearGradient>
<linearGradient id="paint30_linear_30_16401" x1="80.9918" y1="98.1859" x2="89.2738" y2="106.468" gradientUnits="userSpaceOnUse">
<stop stop-color="#FF9100"/>
<stop offset="1" stop-color="#FF4D00"/>
</linearGradient>
<linearGradient id="paint31_linear_30_16401" x1="107.55" y1="98.1859" x2="115.832" y2="106.468" gradientUnits="userSpaceOnUse">
<stop stop-color="#FF9100"/>
<stop offset="1" stop-color="#FF4D00"/>
</linearGradient>
<linearGradient id="paint32_linear_30_16401" x1="134.107" y1="98.2432" x2="142.66" y2="106.521" gradientUnits="userSpaceOnUse">
<stop stop-color="#FF9100"/>
<stop offset="1" stop-color="#FF4D00"/>
</linearGradient>
<linearGradient id="paint33_linear_30_16401" x1="2.05009" y1="146.671" x2="10.6048" y2="154.993" gradientUnits="userSpaceOnUse">
<stop stop-color="#FF9100"/>
<stop offset="1" stop-color="#FF4D00"/>
</linearGradient>
<linearGradient id="paint34_linear_30_16401" x1="28.2692" y1="146.671" x2="36.8226" y2="154.948" gradientUnits="userSpaceOnUse">
<stop stop-color="#FF9100"/>
<stop offset="1" stop-color="#FF4D00"/>
</linearGradient>
<linearGradient id="paint35_linear_30_16401" x1="54.8263" y1="146.671" x2="63.3797" y2="154.948" gradientUnits="userSpaceOnUse">
<stop stop-color="#FF9100"/>
<stop offset="1" stop-color="#FF4D00"/>
</linearGradient>
<linearGradient id="paint36_linear_30_16401" x1="81.2733" y1="146.671" x2="89.8153" y2="154.705" gradientUnits="userSpaceOnUse">
<stop stop-color="#FF9100"/>
<stop offset="1" stop-color="#FF4D00"/>
</linearGradient>
<linearGradient id="paint37_linear_30_16401" x1="107.55" y1="146.671" x2="116.103" y2="154.948" gradientUnits="userSpaceOnUse">
<stop stop-color="#FF9100"/>
<stop offset="1" stop-color="#FF4D00"/>
</linearGradient>
<linearGradient id="paint38_linear_30_16401" x1="134.109" y1="146.671" x2="142.662" y2="154.948" gradientUnits="userSpaceOnUse">
<stop stop-color="#FF9100"/>
<stop offset="1" stop-color="#FF4D00"/>
</linearGradient>
</defs>
</svg>
