<svg width="61" height="32" viewBox="0 0 61 32" fill="none" xmlns="http://www.w3.org/2000/svg">
<g opacity="0.5">
<path d="M46.6241 31.0825L60.4172 17.2894C61.1943 16.5124 61.1943 15.1525 60.4172 14.3754L46.6241 0.582317C45.8471 -0.194758 44.4872 -0.194758 43.7101 0.582317L40.019 4.27343C39.2419 5.0505 39.2419 6.41038 40.019 7.18746L48.7611 15.9296L40.019 24.6716C39.2419 25.4487 39.2419 26.8086 40.019 27.5857L43.7101 31.2768C44.4872 31.8596 45.8471 31.8596 46.6241 31.0825Z" fill="url(#paint0_linear_30_16496)"/>
<path d="M26.8082 31.0825L40.6013 17.2894C41.3784 16.5124 41.3784 15.1525 40.6013 14.3754L26.8082 0.582317C26.0311 -0.194758 24.6713 -0.194758 23.8942 0.582317L20.2031 4.27343C19.426 5.0505 19.426 6.41038 20.2031 7.18746L28.9452 15.9296L20.2031 24.6716C19.426 25.4487 19.426 26.8086 20.2031 27.5857L23.8942 31.2768C24.6713 31.8596 26.0311 31.8596 26.8082 31.0825Z" fill="url(#paint1_linear_30_16496)"/>
<path d="M7.18807 31.0825L20.9812 17.2894C21.7582 16.5124 21.7582 15.1525 20.9812 14.3754L7.18807 0.582317C6.41099 -0.194758 5.05111 -0.194758 4.27404 0.582317L0.582941 4.27343C-0.194134 5.0505 -0.194134 6.41038 0.582941 7.18746L9.32503 15.9296L0.58294 24.6716C-0.194135 25.4487 -0.194135 26.8086 0.58294 27.5857L4.27404 31.2768C5.05111 31.8596 6.41099 31.8596 7.18807 31.0825Z" fill="url(#paint2_linear_30_16496)"/>
</g>
<defs>
<linearGradient id="paint0_linear_30_16496" x1="53.4429" y1="7.5115" x2="36.81" y2="24.1446" gradientUnits="userSpaceOnUse">
<stop stop-color="#FF9100"/>
<stop offset="1" stop-color="#FF4D00"/>
</linearGradient>
<linearGradient id="paint1_linear_30_16496" x1="33.7166" y1="7.5115" x2="17.0837" y2="24.1446" gradientUnits="userSpaceOnUse">
<stop stop-color="#FF9100"/>
<stop offset="1" stop-color="#FF4D00"/>
</linearGradient>
<linearGradient id="paint2_linear_30_16496" x1="13.992" y1="7.51169" x2="-2.64095" y2="24.1444" gradientUnits="userSpaceOnUse">
<stop stop-color="#FF9100"/>
<stop offset="1" stop-color="#FF4D00"/>
</linearGradient>
</defs>
</svg>
