<svg width="91" height="91" viewBox="0 0 91 91" fill="none" xmlns="http://www.w3.org/2000/svg">
<path d="M67.4362 83.7129C67.8719 82.0443 67.5652 80.2525 66.5413 78.8004L55.6309 63.3249L61.7861 54.8275C62.0847 54.4152 62.5423 54.209 63 54.209C63.4577 54.209 63.9153 54.4152 64.2141 54.8275L83.4276 81.3521C84.1413 82.3373 83.4339 83.7129 82.2135 83.7129H67.4362Z" fill="black"/>
<path d="M37.1263 38.9238V31.1244H55.8145C56.6289 31.1244 57.3794 30.6843 57.7748 29.975C58.1703 29.2657 58.1488 28.3982 57.7186 27.7091L53.8046 21.4405L57.7186 15.1719C58.1489 14.4828 58.1704 13.6155 57.7748 12.906C57.3793 12.1966 56.629 11.7566 55.8145 11.7566H37.1263V9.52186C37.1263 8.28768 36.1222 7.28711 34.8837 7.28711C33.6452 7.28711 32.6411 8.28768 32.6411 9.52186V38.9238C33.9228 37.5214 35.815 37.4933 37.1263 38.9238Z" fill="url(#paint0_linear_30_10766)"/>
<path d="M22.9892 59.3633L28.3418 64.3521C28.7723 64.7533 29.3212 64.954 29.8702 64.954C30.4193 64.954 30.9681 64.7533 31.3986 64.3521L35.2809 60.7337L39.1625 64.3519C40.0236 65.1547 41.3584 65.1547 42.2195 64.3519L47.5713 59.3633L62.9996 81.3585C63.6947 82.3495 62.9862 83.7129 61.776 83.7129H43.9436H8.78456C7.57437 83.7129 6.86583 82.3495 7.56091 81.3585L22.9892 59.3633Z" fill="black"/>
<path d="M40.6671 59.7186L36.8027 56.0981C35.9455 55.2949 34.6167 55.2948 33.7593 56.0979L29.8939 59.7187L25.5937 55.7822L34.062 43.6486C34.3583 43.2241 34.8192 43.0117 35.2803 43.0117C35.7412 43.0117 36.2022 43.2241 36.4985 43.6486L44.9668 55.7822L40.6671 59.7186Z" fill="black"/>
<defs>
<linearGradient id="paint0_linear_30_10766" x1="32.6411" y1="23.1055" x2="58.0571" y2="23.1055" gradientUnits="userSpaceOnUse">
<stop stop-color="#6A11CB"/>
<stop offset="1" stop-color="#2575FC"/>
</linearGradient>
</defs>
</svg>
