<svg width="91" height="91" viewBox="0 0 91 91" fill="none" xmlns="http://www.w3.org/2000/svg">
<path d="M47.1809 37.9445V41.6424C47.1809 42.8168 47.4155 43.8022 47.8785 44.5698C48.5172 45.6292 49.5656 46.2364 50.756 46.2364C51.9222 46.2364 53.0812 45.6685 54.2003 44.5496L66.4161 32.336C69.0983 29.6544 69.0983 25.291 66.4161 22.6093L54.2003 10.3957C53.0812 9.27629 51.9222 8.70898 50.756 8.70898C48.9763 8.70898 47.1809 10.1298 47.1809 13.303V16.6613C29.8376 17.6854 15.4801 30.9927 13.3462 48.4152C13.2267 49.3882 13.7801 50.3197 14.6921 50.6805C14.9502 50.7827 15.2191 50.832 15.4845 50.832C16.1569 50.832 16.8091 50.5172 17.2244 49.9499C22.9479 42.1311 32.1375 37.4631 41.8065 37.4631C43.598 37.4631 45.3995 37.6247 47.1809 37.9445V37.9445Z" fill="url(#paint0_linear_30_10807)"/>
<path d="M76.3074 40.3196C75.3954 39.9582 74.3548 40.259 73.7751 41.0507C68.0522 48.8689 58.8625 53.537 49.1935 53.537C47.4021 53.537 45.6005 53.3754 43.8192 53.0555V49.3577C43.8192 46.1845 42.0232 44.7637 40.2441 44.7637C39.0778 44.7637 37.9189 45.3316 36.7992 46.451L24.5834 58.664C21.9018 61.3457 21.9018 65.709 24.5839 68.3912L36.7992 80.6043C37.9189 81.7237 39.0778 82.291 40.2441 82.291C42.0232 82.291 43.8192 80.8702 43.8192 77.697V74.3387C61.163 73.3146 75.52 60.0074 77.6538 42.5854C77.7733 41.6118 77.2199 40.6804 76.3074 40.3196V40.3196Z" fill="black"/>
<defs>
<linearGradient id="paint0_linear_30_10807" x1="13.3301" y1="29.7705" x2="68.4277" y2="29.7705" gradientUnits="userSpaceOnUse">
<stop stop-color="#6A11CB"/>
<stop offset="1" stop-color="#2575FC"/>
</linearGradient>
</defs>
</svg>
