<svg width="92" height="91" viewBox="0 0 92 91" fill="none" xmlns="http://www.w3.org/2000/svg">
<path d="M47.1089 53.498C51.2316 53.498 54.5737 50.1957 54.5737 46.1221C54.5737 42.0484 51.2316 38.7461 47.1089 38.7461C42.9862 38.7461 39.644 42.0484 39.644 46.1221C39.644 50.1957 42.9862 53.498 47.1089 53.498Z" fill="black"/>
<path d="M83.586 37.8164C81.7456 35.9753 78.7619 35.9753 76.9215 37.8164L57.5385 57.2077C56.9493 57.7971 56.1502 58.1284 55.317 58.1284H38.9008C38.0675 58.1284 37.2685 57.7973 36.6793 57.2077L17.2963 37.8164C15.4559 35.9753 12.4721 35.9753 10.6317 37.8164C8.79137 39.6576 8.79137 42.6426 10.6317 44.4838L32.9713 66.833V83.2593L61.2466 83.3574V66.833L83.5862 44.4838C85.4264 42.6426 85.4264 39.6576 83.586 37.8164V37.8164Z" fill="black"/>
<path d="M39.3021 24.0244L38.1984 30.4626C38.0556 31.2956 38.398 32.1375 39.0814 32.6345C39.7647 33.131 40.6708 33.1969 41.4188 32.8035L47.1977 29.7638L52.9766 32.8035C53.3014 32.9742 53.656 33.0586 54.0092 33.0586C54.4694 33.0586 54.9273 32.9156 55.3139 32.6346C55.9974 32.1378 56.3397 31.2958 56.1969 30.4628L55.0933 24.0246L59.7686 19.465C60.3736 18.875 60.5914 17.9926 60.3302 17.1888C60.0692 16.3848 59.3747 15.7989 58.5387 15.6775L52.0776 14.7381L49.1877 8.8803C48.8139 8.12236 48.0424 7.64258 47.1975 7.64258C46.3527 7.64258 45.5812 8.12236 45.2073 8.8803L42.3179 14.7379L35.8568 15.6773C35.0208 15.7987 34.3261 16.3846 34.0653 17.1886C33.8041 17.9925 34.0219 18.8749 34.6269 19.4648L39.3021 24.0244Z" fill="url(#paint0_linear_30_10817)"/>
<defs>
<linearGradient id="paint0_linear_30_10817" x1="33.9565" y1="20.3506" x2="60.439" y2="20.3506" gradientUnits="userSpaceOnUse">
<stop stop-color="#6A11CB"/>
<stop offset="1" stop-color="#2575FC"/>
</linearGradient>
</defs>
</svg>
