<svg width="91" height="91" viewBox="0 0 91 91" fill="none" xmlns="http://www.w3.org/2000/svg">
<path d="M82.2317 56.3117L74.1959 44.4349L82.2317 32.558C82.6073 31.9915 82.6986 31.2844 82.4799 30.6411C82.2592 29.9978 81.7539 29.493 81.1108 29.2801L54.8822 20.5557C53.9439 20.2382 52.9293 20.5961 52.3859 21.414L45.4998 31.7785L38.6137 21.414C38.0661 20.5919 37.0429 20.2361 36.1174 20.5557L9.88878 29.2801C9.24567 29.4931 8.74037 29.998 8.51967 30.6411C8.30101 31.2844 8.3923 31.9915 8.76805 32.5581L16.8038 44.435L8.76819 56.3117C8.39244 56.8782 8.30115 57.5855 8.51982 58.2288C8.74052 58.872 9.24581 59.3769 9.88892 59.5898L36.1175 68.3142C37.0406 68.6257 38.0674 68.278 38.6139 67.4559L45.4999 57.0914L52.386 67.4559C52.9329 68.2789 53.9603 68.6255 54.8824 68.3142L81.111 59.5898C81.7541 59.3768 82.2594 58.8719 82.4801 58.2288C82.6987 57.5855 82.6074 56.8784 82.2317 56.3117ZM45.4999 50.8611L26.2874 44.435L45.4999 38.0089L64.7124 44.435L45.4999 50.8611Z" fill="black"/>
<path d="M56.732 72.4952C53.8755 73.4534 50.6458 72.4142 48.9128 69.8137L45.4999 64.6949L42.0866 69.8137C40.3571 72.4092 37.1312 73.4579 34.2563 72.4906L15.9961 66.4051V79.653C15.9961 80.6302 16.6211 81.4968 17.5475 81.8048L44.7684 90.8774C44.8504 90.9061 44.9324 90.9284 45.0144 90.9461C45.0144 90.9461 45.0167 90.9461 45.0167 90.9484H45.0189C45.1786 90.9816 45.3403 90.9993 45.4999 90.9993C45.6706 90.9993 45.839 90.9794 46.0074 90.9417C46.0827 90.924 46.1558 90.904 46.229 90.8797L73.4522 81.805C74.3784 81.4968 75.0034 80.6302 75.0034 79.653V66.4054L56.732 72.4952Z" fill="black"/>
<path d="M51.5688 17.0557C50.8775 16.3644 50.8648 15.2583 51.5404 14.5826L58.8744 7.24867C59.55 6.57304 60.6561 6.58576 61.3474 7.27709C62.0388 7.96843 62.0515 9.07456 61.3759 9.75018L54.0419 17.0842C53.3663 17.7598 52.2601 17.7471 51.5688 17.0557Z" fill="url(#paint0_linear_30_10748)"/>
<path d="M43.7032 12.7961L43.7032 2.44047C43.7032 1.4872 44.4754 0.714946 45.4287 0.71495C46.382 0.714955 47.1542 1.48722 47.1542 2.44049L47.1543 12.7959C47.1543 13.7492 46.382 14.5215 45.4288 14.5215C44.4754 14.5215 43.7032 13.7494 43.7032 12.7961Z" fill="url(#paint1_linear_30_10748)"/>
<path d="M36.816 17.0842L29.482 9.75018C28.8064 9.07456 28.8191 7.96843 29.5105 7.27709C30.2018 6.58576 31.3079 6.57304 31.9836 7.24867L39.3175 14.5826C39.9932 15.2583 39.9804 16.3644 39.2891 17.0557C38.5978 17.7471 37.4916 17.7598 36.816 17.0842Z" fill="url(#paint2_linear_30_10748)"/>
<defs>
<linearGradient id="paint0_linear_30_10748" x1="55.2074" y1="10.9157" x2="57.7089" y2="13.4172" gradientUnits="userSpaceOnUse">
<stop stop-color="#6A11CB"/>
<stop offset="1" stop-color="#2575FC"/>
</linearGradient>
<linearGradient id="paint1_linear_30_10748" x1="41.6196" y1="3.80912" x2="49.2378" y2="11.4274" gradientUnits="userSpaceOnUse">
<stop stop-color="#6A11CB"/>
<stop offset="1" stop-color="#2575FC"/>
</linearGradient>
<linearGradient id="paint2_linear_30_10748" x1="29.5105" y1="7.27709" x2="39.2891" y2="17.0557" gradientUnits="userSpaceOnUse">
<stop stop-color="#6A11CB"/>
<stop offset="1" stop-color="#2575FC"/>
</linearGradient>
</defs>
</svg>
