<svg width="92" height="91" viewBox="0 0 92 91" fill="none" xmlns="http://www.w3.org/2000/svg">
<path d="M58.0131 41.5534C57.1842 38.5713 54.5354 36.4869 51.571 36.4869C49.9132 36.4869 48.3155 37.0358 47.02 37.998C45.7245 37.0358 44.1268 36.4869 42.4691 36.4869C39.507 36.4869 36.8626 38.5602 36.0359 41.5312C35.3782 43.8979 35.0159 50.111 45.8445 56.6397L47.02 57.3486L48.1933 56.6397C59.0285 50.1132 58.6708 43.9156 58.0131 41.5534V41.5534Z" fill="url(#paint0_linear_30_10783)"/>
<path d="M49.2956 25.3395V6.8692C48.5385 6.82475 47.7882 6.75391 47.0201 6.75391C46.2521 6.75391 45.5018 6.82475 44.7446 6.8692V25.3395C45.5016 25.2542 46.241 25.1095 47.0201 25.1095C47.7992 25.1095 48.5386 25.2542 49.2956 25.3395Z" fill="black"/>
<path d="M67.2695 43.3134C67.3548 44.0703 67.4995 44.8097 67.4995 45.5888C67.4995 46.368 67.3548 47.1074 67.2695 47.8643H85.7398C85.7842 47.1072 85.8551 46.3569 85.8551 45.5888C85.8551 44.8208 85.7842 44.0705 85.7398 43.3134H67.2695Z" fill="black"/>
<path d="M53.8467 7.39429V26.3676C59.6296 28.4298 64.1794 32.9795 66.2416 38.7625H85.2149C82.3744 22.9023 69.7068 10.2347 53.8467 7.39429V7.39429Z" fill="black"/>
<path d="M40.1934 26.3676V7.39429C24.3332 10.2347 11.6656 22.9023 8.8252 38.7625H27.7985C29.8607 32.9795 34.4105 28.4298 40.1934 26.3676Z" fill="black"/>
<path d="M26.7706 47.8643C26.6854 47.1074 26.5406 46.368 26.5406 45.5888C26.5406 44.8097 26.6854 44.0703 26.7706 43.3134H8.30035C8.2559 44.0705 8.18506 44.8208 8.18506 45.5888C8.18506 46.3569 8.2559 47.1072 8.30035 47.8643H26.7706Z" fill="black"/>
<path d="M66.2416 52.4153C64.1794 58.1982 59.6296 62.748 53.8467 64.8102V83.7835C69.7068 80.943 82.3744 68.2754 85.2149 52.4153H66.2416Z" fill="black"/>
<path d="M49.2956 65.8381C48.5386 65.9234 47.7992 66.0681 47.0201 66.0681C46.241 66.0681 45.5016 65.9234 44.7446 65.8381V84.3084C45.5018 84.3529 46.2521 84.4237 47.0201 84.4237C47.7882 84.4237 48.5385 84.3529 49.2956 84.3084V65.8381Z" fill="black"/>
<path d="M40.1934 83.7835V64.8102C34.4105 62.748 29.8607 58.1982 27.7985 52.4153H8.8252C11.6656 68.2754 24.3332 80.943 40.1934 83.7835Z" fill="black"/>
<defs>
<linearGradient id="paint0_linear_30_10783" x1="35.7607" y1="46.9178" x2="58.2876" y2="46.9178" gradientUnits="userSpaceOnUse">
<stop stop-color="#6A11CB"/>
<stop offset="1" stop-color="#2575FC"/>
</linearGradient>
</defs>
</svg>
