<svg width="24" height="24" viewBox="0 0 24 24" fill="none" xmlns="http://www.w3.org/2000/svg">
<path d="M11.6264 22.5602C5.19378 13.5053 4 12.5767 4 9.25008C4 4.69328 7.80517 1 12.5 1C17.1948 1 21 4.69328 21 9.25008C21 12.5767 19.8062 13.5034 13.3736 22.5565C13.2759 22.6931 13.1457 22.8047 12.994 22.8819C12.8423 22.9591 12.6737 22.9996 12.5024 23C12.3311 23.0004 12.1623 22.9606 12.0103 22.884C11.8582 22.8074 11.7275 22.6963 11.6292 22.5602L11.6273 22.5565L11.6264 22.5602ZM12.5 12.6876C13.4393 12.6876 14.3401 12.3254 15.0043 11.6808C15.6685 11.0361 16.0417 10.1618 16.0417 9.25008C16.0417 8.33839 15.6685 7.46404 15.0043 6.81937C14.3401 6.17471 13.4393 5.81254 12.5 5.81254C11.5607 5.81254 10.6599 6.17471 9.99566 6.81937C9.33147 7.46404 8.95833 8.33839 8.95833 9.25008C8.95833 10.1618 9.33147 11.0361 9.99566 11.6808C10.6599 12.3254 11.5607 12.6876 12.5 12.6876V12.6876Z" fill="url(#paint0_linear_30_10730)"/>
<defs>
<linearGradient id="paint0_linear_30_10730" x1="4" y1="12" x2="21" y2="12" gradientUnits="userSpaceOnUse">
<stop stop-color="#6A11CB"/>
<stop offset="1" stop-color="#2575FC"/>
</linearGradient>
</defs>
</svg>
