<svg width="393" height="383" viewBox="0 0 393 383" fill="none" xmlns="http://www.w3.org/2000/svg">
<path opacity="0.4" d="M166.7 1.64411C113.423 2.50726 30.9706 21.0785 7.247 68.7944C-1.05222 85.4505 -0.485444 109.956 0.634613 158.953C0.958484 173.357 1.51177 194.342 5.35774 220.385C13.3331 274.494 18.7714 311.326 39.3238 332.77C90.8329 386.501 276.911 384.95 356.367 288.21C399.712 235.436 406.379 160.356 366.745 98.3168C323.103 29.9932 238.046 0.484253 166.7 1.64411Z" fill="url(#paint0_linear_30_16232)"/>
<path d="M346.651 356.48L22.2393 353.675V361.969C22.2393 364.222 23.6562 366.137 25.5724 366.474L117.309 382.806C118.402 382.995 119.495 383.049 120.602 382.955L343.129 364.343C345.113 364.181 346.651 362.252 346.651 359.946V356.48Z" fill="#BFC8D6"/>
<path d="M227.264 343.196L21.0654 358.368C17.3814 358.638 14.3721 355.752 14.3721 351.922V198.47C14.3721 194.64 17.3679 191.538 21.0654 191.538H227.25C230.287 191.538 232.743 194.343 232.743 197.809V336.533C232.756 339.986 230.3 342.98 227.264 343.196Z" fill="#BFC8D6"/>
<path d="M230.543 343.195L24.3579 358.368C20.6739 358.638 17.6646 355.752 17.6646 351.921V198.47C17.6646 194.639 20.6604 191.537 24.3579 191.537H230.543C233.579 191.537 236.035 194.343 236.035 197.809V336.533C236.049 339.986 233.593 342.98 230.543 343.195Z" fill="white"/>
<path d="M224.133 333.418L32.0902 346.594C29.0944 346.797 26.6519 344.437 26.6519 341.308V206.953C26.6519 203.824 29.0944 201.275 32.0902 201.262L224.133 200.439C226.643 200.426 228.667 202.732 228.667 205.577V327.942C228.667 330.802 226.629 333.243 224.133 333.418Z" fill="#D8DEE8"/>
<path d="M134.731 195.731C134.731 197.161 133.664 198.321 132.356 198.321C131.047 198.321 129.98 197.175 129.98 195.745C129.98 194.315 131.047 193.155 132.356 193.155C133.678 193.155 134.731 194.302 134.731 195.731Z" fill="white"/>
<path opacity="0.48" d="M24.3582 358.368L229.504 343.276L230.543 343.196C231.933 343.088 233.202 342.4 234.173 341.361C219.41 340.552 210.247 335.319 204.323 329.911C192.448 319.041 194.499 308.332 181.692 301.184C165.715 292.27 153.151 303.558 141.033 292.432C133.678 285.675 137.295 280.644 128.254 270.556C118.241 259.376 111.709 263.138 101.642 253.077C88.9167 240.359 95.2727 230.46 84.315 221.33C71.0093 210.257 56.6644 220.507 44.0064 209.879C38.5411 205.294 35.5453 198.631 33.9799 191.551H24.3447C20.6607 191.551 17.6514 194.653 17.6514 198.483V351.935C17.6649 355.752 20.6742 358.638 24.3582 358.368Z" fill="white"/>
<path d="M240.259 342.359L22.2393 358.328L117.309 375.253C118.402 375.442 119.495 375.496 120.602 375.402L346.664 356.493L243.754 342.467C242.58 342.305 241.42 342.265 240.259 342.359Z" fill="url(#paint1_linear_30_16232)"/>
<path d="M54.0464 358.462L235.563 344.962L291.741 352.555L111.79 366.986L54.0464 358.462Z" fill="#D8DEE8"/>
<path d="M130.655 173.883L138.955 173.842C138.955 173.842 147.902 147.665 172.246 147.543L173.487 77.3315C122.059 77.5068 76.6768 106.22 56.0029 148.676L130.655 173.883Z" fill="url(#paint2_linear_30_16232)"/>
<path d="M229.868 204.997C225.658 228.059 204.458 246.199 178.481 247.008C172.084 247.21 164.635 243.407 164.635 243.407C164.635 243.407 157.793 243.784 156.633 243.326L116.095 305.54C134.933 313.969 156.228 318.11 178.494 316.828C243.241 313.147 294.157 264.824 299.811 206.656L229.868 204.997Z" fill="url(#paint3_linear_30_16232)"/>
<path d="M103.409 298.999L111.52 299.282L144.325 236.596C132.086 227.614 124.218 213.641 124.218 197.781C124.218 193.951 124.677 190.215 125.554 186.628L58.7422 161.637L50.6184 161.731C46.597 173.424 44.4243 185.872 44.4243 198.766C44.4108 241.438 68.04 278.189 103.409 298.999Z" fill="url(#paint4_linear_30_16232)"/>
<path d="M186.429 147.853C210.085 151.346 228.262 169.513 230.421 191.968L344.775 195.259C344.775 195.232 344.775 195.205 344.775 195.192C344.775 195.192 344.775 195.151 344.775 195.124C344.775 195.043 362.008 192.373 362.008 192.359C362.008 191.577 205.807 28.806 205.807 28.806L188.48 31.6248C188.48 31.6113 187.103 109.106 186.429 147.853Z" fill="url(#paint5_linear_30_16232)"/>
<path d="M138.847 173.883C147.133 159.52 162.53 149.378 180.438 147.543L181.679 77.3317C130.251 77.507 84.8687 106.22 64.1948 148.676L138.847 173.883Z" fill="url(#paint6_linear_30_16232)"/>
<path d="M238.047 204.997C233.836 228.059 212.636 246.199 186.659 247.008C178.913 247.251 171.518 245.916 164.798 243.326L124.26 305.54C143.098 313.969 164.393 318.11 186.659 316.829C251.406 313.147 302.322 264.824 307.976 206.656L238.047 204.997Z" fill="url(#paint7_linear_30_16232)"/>
<path d="M111.588 298.999L152.504 236.596C140.264 227.614 132.397 213.642 132.397 197.781C132.397 193.951 132.856 190.215 133.733 186.628L58.7971 161.731C54.7757 173.424 52.603 185.873 52.603 198.766C52.603 241.438 76.2322 278.189 111.588 298.999Z" fill="url(#paint8_radial_30_16232)"/>
<path d="M203.662 144.886C227.318 148.38 245.495 166.546 247.654 189.002L362.008 192.292C362.008 192.238 362.008 192.198 362.008 192.144C362.008 108.985 295.169 37.8154 205.713 28.658L203.662 144.886Z" fill="url(#paint9_linear_30_16232)"/>
<g opacity="0.3">
<path opacity="0.3" d="M171.031 245.309C168.899 244.769 166.821 244.108 164.81 243.326L124.272 305.54C143.111 313.969 164.406 318.11 186.672 316.829C204.66 315.804 221.582 311.326 236.764 304.165C221.448 301.858 207.764 296.1 196.833 286.511C184.391 275.573 176.321 260.36 171.031 245.309Z" fill="url(#paint10_linear_30_16232)"/>
</g>
<g opacity="0.3">
<path opacity="0.3" d="M157.429 105.195C152.612 96.3881 145.73 89.7257 138.011 84.6277C105.502 95.7542 78.7286 118.817 64.1948 148.69L138.847 173.896C144.029 164.914 152.005 157.577 161.626 152.897C163.57 134.205 165.783 120.475 157.429 105.195Z" fill="url(#paint11_linear_30_16232)"/>
</g>
<path d="M207.02 281.478C208.421 281.507 209.573 280.38 209.573 278.978V265.065C209.573 263.72 208.509 262.616 207.165 262.567L199.074 262.269C197.658 262.217 196.482 263.351 196.482 264.767V278.807C196.482 280.167 197.569 281.277 198.929 281.306L207.02 281.478Z" fill="white" stroke="white" stroke-linejoin="round"/>
<path d="M223.646 281.828C225.047 281.858 226.199 280.73 226.199 279.329V257.016C226.199 255.677 225.143 254.575 223.805 254.519L215.713 254.176C214.292 254.115 213.107 255.251 213.107 256.673V279.157C213.107 280.517 214.195 281.628 215.554 281.657L223.646 281.828Z" fill="white" stroke="white" stroke-linejoin="round"/>
<path d="M239.77 282.177C241.172 282.208 242.325 281.08 242.325 279.678V250.256C242.325 248.925 241.282 247.828 239.953 247.76L232.361 247.371C230.932 247.298 229.733 248.437 229.733 249.868V279.51C229.733 280.869 230.819 281.979 232.178 282.009L239.77 282.177Z" fill="white" stroke="white" stroke-linejoin="round"/>
<path d="M241.848 289.665C243.216 289.685 244.335 288.582 244.335 287.214C244.335 285.877 243.264 284.786 241.928 284.762L196.504 283.943C195.105 283.918 193.958 285.044 193.958 286.443V286.508C193.958 287.875 195.056 288.988 196.422 289.008L241.848 289.665Z" fill="white" stroke="white" stroke-linejoin="round"/>
<path d="M157.821 123.982L155.661 124.103C155.405 122.08 154.852 120.152 154.042 118.358L155.904 117.144C156.97 116.443 157.335 115.027 156.701 113.975L156.431 113.516C155.796 112.451 154.42 112.168 153.354 112.882L151.478 114.123C150.237 112.545 148.752 111.156 147.092 110.01L148.131 107.973C148.725 106.813 148.32 105.397 147.227 104.817L146.741 104.561C145.648 103.981 144.272 104.48 143.692 105.654L142.666 107.704C140.804 107.016 138.834 106.598 136.769 106.503L136.661 104.224C136.607 102.916 135.554 101.931 134.326 102.026L133.787 102.066C132.559 102.161 131.614 103.293 131.695 104.588L131.816 106.867C129.806 107.272 127.916 107.96 126.189 108.904L125.002 107.043C124.327 105.977 122.964 105.694 121.965 106.409L121.533 106.719C120.548 107.434 120.305 108.863 120.98 109.915L122.168 111.763C120.71 113.098 119.442 114.636 118.416 116.335L116.54 115.378C115.474 114.825 114.219 115.283 113.733 116.376L113.518 116.861C113.032 117.953 113.504 119.275 114.557 119.815L116.419 120.759C115.839 122.579 115.515 124.508 115.461 126.477L113.45 126.598C112.317 126.666 111.493 127.664 111.601 128.824L111.655 129.336C111.763 130.496 112.775 131.373 113.895 131.319L115.893 131.211C116.284 133.113 116.932 134.893 117.795 136.538L116.176 137.617C115.258 138.224 115.042 139.478 115.69 140.409L115.974 140.813C116.608 141.744 117.863 142.014 118.78 141.42L120.4 140.368C121.614 141.771 123.018 143.012 124.57 144.023L123.72 145.736C123.234 146.707 123.652 147.88 124.651 148.393L125.082 148.609C126.081 149.108 127.282 148.744 127.768 147.786L128.645 146.087C130.345 146.707 132.154 147.112 134.043 147.247L134.151 149.162C134.205 150.241 135.163 151.077 136.283 151.036L136.769 151.023C137.889 150.982 138.753 150.079 138.712 148.986L138.631 147.058C140.507 146.761 142.302 146.208 143.962 145.439L145.028 147.085C145.621 148.015 146.903 148.285 147.875 147.705L148.307 147.449C149.292 146.855 149.602 145.615 149.009 144.671L147.942 142.998C149.44 141.825 150.776 140.436 151.896 138.885L153.705 139.815C154.73 140.341 156.026 139.937 156.62 138.925L156.876 138.48C157.47 137.455 157.105 136.188 156.066 135.662L154.245 134.717C154.987 132.937 155.486 131.036 155.702 129.04L157.834 128.918C159.049 128.851 160.034 127.826 160.034 126.625V126.099C160.034 124.845 159.049 123.915 157.821 123.982ZM136.094 142.23C128.213 142.58 121.398 136.552 120.764 128.541C120.103 120.26 126.257 112.896 134.61 112.33C143.084 111.75 150.183 118.385 150.345 126.895C150.506 135.109 144.083 141.879 136.094 142.23Z" fill="white"/>
<path d="M271.675 89.0109C272.633 89.1053 273.403 89.9684 273.403 90.9395V94.2572C275.319 94.473 277.235 94.7967 279.151 95.2552C280.568 95.5924 281.972 95.9835 283.375 96.442C284.212 96.7118 284.778 97.5615 284.698 98.4381L284.293 102.592C284.185 103.698 283.092 104.345 282.066 103.887C281.148 103.482 280.204 103.131 279.232 102.835C277.545 102.322 275.764 101.999 273.902 101.837L273.416 101.796V111.291C278.409 112.694 282.08 114.568 284.441 116.928C286.803 119.275 287.977 122.215 287.977 125.722C287.977 129.525 286.681 132.573 284.063 134.866C281.445 137.172 277.761 138.48 273.011 138.75V142.405C273.011 143.376 272.242 144.131 271.284 144.091H271.257C270.299 144.05 269.516 143.227 269.516 142.256V138.642L268.747 138.601C266.52 138.507 264.388 138.278 262.337 137.914C260.826 137.657 259.355 137.307 257.911 136.902C257.034 136.646 256.44 135.823 256.521 134.933L257.007 129.592C257.114 128.433 258.275 127.758 259.368 128.203C260.65 128.702 261.946 129.134 263.255 129.484C265.306 130.024 267.37 130.375 269.476 130.523L269.503 119.963C264.712 118.776 261.122 117.023 258.761 114.69C256.386 112.356 255.198 109.362 255.198 105.721C255.198 101.958 256.494 99.0585 259.058 97.022C261.608 94.999 265.238 93.9875 269.934 93.9875V90.6023C269.934 89.6313 270.717 88.9165 271.675 89.0109ZM269.934 101.688C268.45 101.796 267.303 102.201 266.466 102.902C265.643 103.603 265.225 104.561 265.225 105.748C265.225 106.881 265.603 107.825 266.372 108.58C267.141 109.335 268.329 109.942 269.934 110.387V101.688ZM273.011 120.813V130.496C274.617 130.496 275.859 130.118 276.722 129.35C277.586 128.581 278.018 127.488 278.018 126.086C278.018 124.805 277.613 123.739 276.817 122.903C276.007 122.053 274.752 121.352 273.011 120.813Z" fill="white"/>
<path d="M271.594 154.314C250.758 154.314 233.809 137.374 233.809 116.551C233.809 95.7273 250.758 78.788 271.594 78.788C292.43 78.788 309.379 95.7273 309.379 116.551C309.379 137.374 292.43 154.314 271.594 154.314ZM271.594 81.809C252.432 81.809 236.832 97.3996 236.832 116.551C236.832 135.702 252.432 151.293 271.594 151.293C290.757 151.293 306.356 135.702 306.356 116.551C306.356 97.3996 290.757 81.809 271.594 81.809Z" fill="white"/>
<path d="M101.129 251.903C86.555 251.903 73.6001 240.143 73.6001 224.984C73.6001 208.962 87.837 197.7 103.747 200.438C118.119 202.92 127.768 216.042 126.513 229.327C125.325 241.991 114.408 251.903 101.129 251.903ZM103.626 202.677C89.119 200.29 76.1641 210.594 76.0966 225.186C76.0291 239.064 87.81 249.934 101.21 250.015C113.517 250.096 123.652 240.939 124.718 229.165C125.838 216.878 116.85 204.848 103.626 202.677Z" fill="white"/>
<path d="M108.86 218.177C108.578 222.532 104.866 225.756 100.443 225.424C95.8735 225.079 92.1858 221.093 92.3329 216.442C92.4921 211.718 96.5596 208.347 101.264 208.987C105.81 209.602 109.154 213.736 108.86 218.177Z" fill="white"/>
<path d="M102.297 240.169C108.477 240.209 112.909 233.983 107.578 230.857C105.749 229.784 103.616 229.099 101.269 228.957C98.6376 228.797 96.0956 229.335 93.8288 230.393C87.8127 233.2 91.962 240.103 98.6006 240.146L102.297 240.169Z" fill="white"/>
<path d="M38.838 270.3C42.9943 272.296 47.1777 274.116 51.361 275.762C45.7203 263.111 41.4425 250.097 38.5546 236.947C28.3391 248.991 18.9873 262.086 10.6611 276.153C15.0739 273.955 19.4731 271.743 23.8724 269.504C24.4662 294.373 36.6114 316.424 52.5351 331.624C68.5397 347.066 88.3364 355.657 106.082 359.137C142.828 366.163 168.022 353.229 167.833 353.54C138.995 357.95 113.625 352.029 94.5035 342.912C75.2061 333.687 62.1298 321.252 53.8306 310.005C37.4345 286.767 38.9864 270.111 38.838 270.3Z" fill="url(#paint12_linear_30_16232)"/>
<path d="M357.501 97.9122C353.331 95.9296 349.148 94.1224 344.964 92.4905C350.646 105.128 354.95 118.129 357.892 131.265C368.067 119.208 377.365 106.072 385.664 91.978C381.251 94.1899 376.866 96.4152 372.48 98.6674C371.805 73.7979 359.606 51.7876 343.628 36.6286C327.57 21.2402 307.746 12.7032 289.987 9.27753C253.214 2.35884 228.06 15.3735 228.262 15.0633C257.087 10.5722 282.471 16.412 301.633 25.4616C320.971 34.6325 334.074 47.0268 342.414 58.2478C358.85 81.4584 357.352 98.1145 357.501 97.9122Z" fill="url(#paint13_radial_30_16232)"/>
<path d="M194.661 64.1415L59.3095 64.1146L57.1503 64.0606C53.5203 63.9662 50.5649 61.4037 50.5649 58.3422V5.21809C50.5649 2.14312 53.5203 -0.190079 57.1503 0.0122221L59.2015 0.120116L191.436 9.03483C194.634 9.21016 197.63 9.84403 197.63 12.7032V56.6159L194.661 64.1415Z" fill="url(#paint14_linear_30_16232)"/>
<path opacity="0.67" d="M176.605 25.2861L74.167 20.7276V14.4023L176.605 19.2576V25.2861Z" fill="url(#paint15_linear_30_16232)"/>
<path opacity="0.67" d="M176.605 37.3569L74.167 33.3918V27.053L176.605 31.3283V37.3569Z" fill="url(#paint16_linear_30_16232)"/>
<path opacity="0.67" d="M176.605 49.4277L74.167 46.0425V39.7172L176.605 43.3991V49.4277Z" fill="url(#paint17_linear_30_16232)"/>
<path d="M214.147 67.8639L60.227 64.0606C56.5969 63.9662 53.6416 61.4037 53.6416 58.3423V5.21809C53.6416 2.14312 56.5969 -0.190079 60.227 0.0122221L194.917 7.21413C198.116 7.38945 200.693 9.84404 200.693 12.7167V56.6294L214.147 67.8639Z" fill="url(#paint18_linear_30_16232)"/>
<path opacity="0.67" d="M179.682 25.2861L77.2437 20.7276V14.4023L179.682 19.2576V25.2861Z" fill="white"/>
<path opacity="0.67" d="M179.682 37.3569L77.2437 33.3918V27.053L179.682 31.3283V37.3569Z" fill="white"/>
<path opacity="0.67" d="M179.682 49.4277L77.2437 46.0425V39.7172L179.682 43.3991V49.4277Z" fill="white"/>
<defs>
<linearGradient id="paint0_linear_30_16232" x1="0" y1="184.936" x2="393" y2="184.936" gradientUnits="userSpaceOnUse">
<stop stop-color="#6A11CB"/>
<stop offset="1" stop-color="#2575FC"/>
</linearGradient>
<linearGradient id="paint1_linear_30_16232" x1="22.233" y1="358.876" x2="346.647" y2="358.876" gradientUnits="userSpaceOnUse">
<stop offset="0.494" stop-color="#EBEFF2"/>
<stop offset="1" stop-color="white"/>
</linearGradient>
<linearGradient id="paint2_linear_30_16232" x1="109.594" y1="66.3884" x2="134.874" y2="295.051" gradientUnits="userSpaceOnUse">
<stop stop-color="#311944"/>
<stop offset="1" stop-color="#893976"/>
</linearGradient>
<linearGradient id="paint3_linear_30_16232" x1="203.389" y1="246.906" x2="302.059" y2="446.317" gradientUnits="userSpaceOnUse">
<stop stop-color="#311944"/>
<stop offset="1" stop-color="#893976"/>
</linearGradient>
<linearGradient id="paint4_linear_30_16232" x1="46.7857" y1="163.009" x2="191.758" y2="349.511" gradientUnits="userSpaceOnUse">
<stop stop-color="#311944"/>
<stop offset="1" stop-color="#893976"/>
</linearGradient>
<linearGradient id="paint5_linear_30_16232" x1="186.415" y1="111.982" x2="362.013" y2="111.982" gradientUnits="userSpaceOnUse">
<stop stop-color="#7E0F01"/>
<stop offset="0.998" stop-color="#BA2244"/>
</linearGradient>
<linearGradient id="paint6_linear_30_16232" x1="122.845" y1="173.606" x2="122.845" y2="77.2561" gradientUnits="userSpaceOnUse">
<stop stop-color="#FFD328"/>
<stop offset="1" stop-color="#FFA700"/>
</linearGradient>
<linearGradient id="paint7_linear_30_16232" x1="189.449" y1="261.136" x2="362.344" y2="286.839" gradientUnits="userSpaceOnUse">
<stop offset="0.00359712" stop-color="#EF70E6"/>
<stop offset="1" stop-color="#5B25ED"/>
</linearGradient>
<radialGradient id="paint8_radial_30_16232" cx="0" cy="0" r="1" gradientUnits="userSpaceOnUse" gradientTransform="translate(100.789 195.192) scale(39.5355 107.917)">
<stop stop-color="#5B2AA4"/>
<stop offset="0.9944" stop-color="#481A72"/>
</radialGradient>
<linearGradient id="paint9_linear_30_16232" x1="203.649" y1="110.425" x2="362.013" y2="110.425" gradientUnits="userSpaceOnUse">
<stop stop-color="#C72A16"/>
<stop offset="0.998" stop-color="#BA2244"/>
</linearGradient>
<linearGradient id="paint10_linear_30_16232" x1="164.117" y1="271.757" x2="260.97" y2="467.496" gradientUnits="userSpaceOnUse">
<stop offset="0.00359712" stop-color="#E38DDD"/>
<stop offset="1" stop-color="#9571F6"/>
</linearGradient>
<linearGradient id="paint11_linear_30_16232" x1="113.733" y1="173.64" x2="113.733" y2="84.5579" gradientUnits="userSpaceOnUse">
<stop stop-color="#FFD328"/>
<stop offset="1" stop-color="#FFA700"/>
</linearGradient>
<linearGradient id="paint12_linear_30_16232" x1="10.6491" y1="299.051" x2="167.839" y2="299.051" gradientUnits="userSpaceOnUse">
<stop stop-color="#C72A16"/>
<stop offset="0.998" stop-color="#BA2244"/>
</linearGradient>
<radialGradient id="paint13_radial_30_16232" cx="0" cy="0" r="1" gradientUnits="userSpaceOnUse" gradientTransform="translate(304.182 37.4786) scale(62.2917 97.4998)">
<stop stop-color="#5B2AA4"/>
<stop offset="0.9944" stop-color="#481A72"/>
</radialGradient>
<linearGradient id="paint14_linear_30_16232" x1="108.606" y1="95.0005" x2="115.495" y2="66.3472" gradientUnits="userSpaceOnUse">
<stop stop-color="#311944"/>
<stop offset="1" stop-color="#893976"/>
</linearGradient>
<linearGradient id="paint15_linear_30_16232" x1="107.283" y1="95.0396" x2="114.307" y2="65.8295" gradientUnits="userSpaceOnUse">
<stop stop-color="#311944"/>
<stop offset="1" stop-color="#893976"/>
</linearGradient>
<linearGradient id="paint16_linear_30_16232" x1="110.097" y1="95.7165" x2="117.121" y2="66.5065" gradientUnits="userSpaceOnUse">
<stop stop-color="#311944"/>
<stop offset="1" stop-color="#893976"/>
</linearGradient>
<linearGradient id="paint17_linear_30_16232" x1="112.911" y1="96.3933" x2="119.934" y2="67.1834" gradientUnits="userSpaceOnUse">
<stop stop-color="#311944"/>
<stop offset="1" stop-color="#893976"/>
</linearGradient>
<linearGradient id="paint18_linear_30_16232" x1="166.013" y1="81.7228" x2="-68.58" y2="-197.683" gradientUnits="userSpaceOnUse">
<stop stop-color="#FAB82A"/>
<stop offset="0.9964" stop-color="#F74726"/>
</linearGradient>
</defs>
</svg>
