<svg width="593" height="304" viewBox="0 0 593 304" fill="none" xmlns="http://www.w3.org/2000/svg">
<g clip-path="url(#clip0_30_10943)">
<path opacity="0.4" d="M297.042 282.677C373.529 282.677 435.533 220.555 435.533 143.923C435.533 67.2903 373.529 5.1676 297.042 5.1676C220.556 5.1676 158.551 67.2903 158.551 143.923C158.551 220.555 220.556 282.677 297.042 282.677Z" fill="url(#paint0_linear_30_10943)"/>
<path opacity="0.3" d="M193.118 48.1979C200.871 40.4295 200.871 27.8344 193.118 20.066C185.364 12.2976 172.793 12.2976 165.039 20.066C157.286 27.8344 157.286 40.4295 165.039 48.1979C172.793 55.9663 185.364 55.9663 193.118 48.1979Z" fill="url(#paint1_linear_30_10943)"/>
<path opacity="0.3" d="M482.07 111.738C497.797 102.824 503.334 82.8239 494.437 67.0666C485.54 51.3093 465.578 45.7619 449.85 54.676C434.123 63.5902 428.586 83.5903 437.483 99.3476C446.381 115.105 466.343 120.652 482.07 111.738Z" fill="url(#paint2_linear_30_10943)"/>
<path opacity="0.3" d="M68.2784 66.3527C71.7141 62.9105 71.7141 57.3295 68.2784 53.8873C64.8427 50.445 59.2723 50.445 55.8366 53.8873C52.4009 57.3295 52.4009 62.9105 55.8366 66.3527C59.2723 69.795 64.8427 69.795 68.2784 66.3527Z" fill="url(#paint3_linear_30_10943)"/>
<path fill-rule="evenodd" clip-rule="evenodd" d="M233.514 168.428C233.514 168.428 241.376 170.496 248.84 178.373L255.193 171.61C255.193 171.61 251.381 162.938 240.026 158.482L233.514 168.428Z" fill="url(#paint4_linear_30_10943)"/>
<path fill-rule="evenodd" clip-rule="evenodd" d="M60.7974 139.229C60.7974 139.229 67.5472 125.624 81.3645 120.134L92.9584 138.115C92.9584 138.115 82.8733 142.093 76.6 152.277L60.7974 139.229Z" fill="url(#paint5_linear_30_10943)"/>
<path fill-rule="evenodd" clip-rule="evenodd" d="M380.105 42.8002C380.105 42.8002 386.855 29.1952 400.672 23.7054L412.266 41.6863C412.266 41.6863 402.181 45.6644 395.908 55.8482L380.105 42.8002Z" fill="url(#paint6_linear_30_10943)"/>
<path fill-rule="evenodd" clip-rule="evenodd" d="M19.5835 294.93L22.6805 303.045L575.691 303.204L577.756 294.93H19.5835Z" fill="#603F80"/>
<path fill-rule="evenodd" clip-rule="evenodd" d="M0.684082 282.439L593.4 278.381L510.575 187.841L86.9233 192.296L0.684082 282.439Z" fill="url(#paint7_radial_30_10943)"/>
<path fill-rule="evenodd" clip-rule="evenodd" d="M0.684082 282.439L4.33694 294.93H590.383L593.4 278.381L0.684082 282.439Z" fill="url(#paint8_radial_30_10943)"/>
<path opacity="0.4" fill-rule="evenodd" clip-rule="evenodd" d="M20.7748 261.435L572.198 255.149L593.4 278.381L0.684082 282.439L20.7748 261.435Z" fill="url(#paint9_radial_30_10943)"/>
<path opacity="0.4" fill-rule="evenodd" clip-rule="evenodd" d="M556.792 238.282L27.0483 254.831L30.7806 250.933L554.41 235.736L556.792 238.282Z" fill="url(#paint10_linear_30_10943)"/>
<path opacity="0.4" fill-rule="evenodd" clip-rule="evenodd" d="M549.407 230.326H50.5537L52.7772 227.939L548.375 229.133L549.407 230.326Z" fill="url(#paint11_linear_30_10943)"/>
<path fill-rule="evenodd" clip-rule="evenodd" d="M528.76 207.731L267.66 211.391L263.055 218.79L533.207 212.505L528.76 207.731Z" fill="#B9CCCC"/>
<path opacity="0.2" fill-rule="evenodd" clip-rule="evenodd" d="M39.1978 294.93L42.3742 282.121L86.5261 277.904L209.135 259.287H227.002L143.384 272.255L72.8676 282.439V294.93H39.1978Z" fill="#9A7EB3"/>
<path opacity="0.2" fill-rule="evenodd" clip-rule="evenodd" d="M107.093 294.93L109.317 281.643L118.131 278.381L175.942 273.21L235.261 259.287L267.184 258.65H284.495L255.352 259.287L235.261 260.162L176.101 274.165L146.798 277.506L122.499 281.564L119.402 294.93H107.093Z" fill="#9A7EB3"/>
<path opacity="0.2" fill-rule="evenodd" clip-rule="evenodd" d="M76.0441 203.594L133.696 202.241H149.657L281.636 199.775L331.188 191.341L358.267 189.432H365.096L328.25 194.365L281.636 201.127L277.11 203.037L131.631 203.275L72.8677 206.458L76.0441 203.594Z" fill="#9A8EC5"/>
<path opacity="0.2" fill-rule="evenodd" clip-rule="evenodd" d="M367.717 294.93L375.658 279.893L387.252 276.79L441.171 264.458L525.504 255.706H548.374L514.784 259.048L441.171 265.652L382.487 279.734L375.023 294.93H367.717Z" fill="#9A7EB3"/>
<path opacity="0.2" fill-rule="evenodd" clip-rule="evenodd" d="M353.185 294.93L351.438 280.052L359.22 274.483L427.989 263.583L471.427 257.616L506.685 256.104L487.388 255.706L454.909 259.366L401.625 266.686L354.773 273.687L326.503 280.211L341.115 294.93H353.185Z" fill="#9A7EB3"/>
<path opacity="0.2" fill-rule="evenodd" clip-rule="evenodd" d="M389.237 294.93L395.114 279.734L450.939 266.686H458.245L462.612 266.288L572.198 255.149L572.674 255.706L461.183 267.72L456.101 268.118L451.177 267.64L399.719 279.734L390.667 294.93H389.237Z" fill="#9A7EB3"/>
<path opacity="0.2" fill-rule="evenodd" clip-rule="evenodd" d="M230.338 245.204L260.037 242.817L305.936 238.362L324.995 231.361L336.033 230.326L346.753 230.008L325.55 233.27L320.627 233.668L305.38 239.078L249.317 244.17L230.338 245.204Z" fill="#9A7EB3"/>
<path opacity="0.8" fill-rule="evenodd" clip-rule="evenodd" d="M132.425 265.731L59.7651 266.208L114.796 205.981L177.054 202.639L132.425 265.731Z" fill="#9C84B8"/>
<path fill-rule="evenodd" clip-rule="evenodd" d="M132.743 264.935L60.1621 265.413L115.193 205.105L177.451 201.843L132.743 264.935Z" fill="url(#paint12_linear_30_10943)"/>
<path opacity="0.8" fill-rule="evenodd" clip-rule="evenodd" d="M112.255 218.869L119.64 211.55L158.869 210.277L152.833 217.517L112.255 218.869Z" fill="#C6B8D6"/>
<path opacity="0.8" fill-rule="evenodd" clip-rule="evenodd" d="M493.343 270.027L565.924 270.425L510.893 210.197L448.715 206.856L493.343 270.027Z" fill="#9C84B8"/>
<path fill-rule="evenodd" clip-rule="evenodd" d="M492.946 269.152L565.606 269.63L509.384 205.264L448.318 206.06L492.946 269.152Z" fill="url(#paint13_linear_30_10943)"/>
<path opacity="0.8" fill-rule="evenodd" clip-rule="evenodd" d="M541.704 256.343L506.684 213.539L466.9 214.573L496.837 255.149L541.704 256.343Z" fill="#C6B8D6"/>
<path opacity="0.8" fill-rule="evenodd" clip-rule="evenodd" d="M496.837 248.068L529.634 278.699L532.651 296.442L512.799 295.328L496.837 248.068Z" fill="#9C84B8"/>
<path opacity="0.8" d="M210.009 253.16C209.85 253.001 209.135 252.683 207.944 252.365C204.371 251.41 196.827 250.296 190.553 251.012C188.568 251.251 186.345 253.16 184.201 253.797C184.201 253.797 182.374 254.115 180.468 254.274C179.039 254.354 177.848 254.274 177.848 254.274C177.848 254.274 178.086 253.638 178.483 252.683C178.801 251.808 179.277 250.614 179.912 249.341V249.262C179.992 249.023 180.071 248.864 180.23 248.625C180.23 248.546 180.309 248.466 180.309 248.387C180.389 248.148 180.548 247.989 180.627 247.75C180.706 247.671 180.706 247.511 180.786 247.432C180.865 247.273 180.945 247.114 181.024 246.955C181.104 246.875 181.104 246.716 181.183 246.636C181.262 246.477 181.342 246.318 181.501 246.159C181.58 246.079 181.58 246 181.659 245.92C181.818 245.682 181.977 245.443 182.056 245.204C182.136 245.125 182.136 245.045 182.215 244.965C182.374 244.727 182.453 244.568 182.612 244.329C182.692 244.249 182.692 244.17 182.771 244.17C182.93 243.931 183.089 243.613 183.327 243.374C183.327 243.374 183.327 243.295 183.406 243.295C183.565 243.056 183.724 242.817 183.962 242.579L184.042 242.499C184.439 241.942 184.836 241.385 185.312 240.908C185.55 240.669 185.789 240.351 186.027 240.112C186.186 239.953 186.424 239.714 186.583 239.555C186.583 239.555 188.886 240.112 190.156 240.112C191.427 240.192 198.177 238.282 200.241 236.293C200.241 236.293 200.241 235.657 199.844 235.1C199.844 235.1 199.606 234.304 198.256 234.145L197.462 234.225C196.588 234.304 195.08 234.543 193.889 234.702C193.094 234.782 192.221 234.861 191.506 234.941C188.886 235.1 183.803 234.941 183.327 235.02C182.851 235.1 179.436 237.168 179.436 237.168C179.436 237.168 173.401 236.293 170.304 236.85L168.716 237.487C168.716 237.487 163.157 237.407 159.504 237.805C159.345 237.805 159.186 237.805 159.107 237.885C158.154 238.044 156.486 238.203 154.739 238.601C154.66 238.601 154.422 238.68 154.263 238.68C154.263 238.68 146.163 239.078 141.081 240.271C141.081 240.271 141.24 240.271 141.637 240.192C140.207 240.51 139.175 240.828 138.937 241.306C138.937 241.385 138.857 241.385 138.857 241.465C138.857 241.544 138.857 241.544 138.778 241.624C138.063 243.852 136.237 252.842 134.649 256.979C134.331 257.775 134.093 258.332 133.775 258.73C133.458 259.207 132.822 259.764 132.108 260.321C131.393 260.241 130.916 260.241 130.916 260.241C128.693 261.992 124.008 264.458 124.008 264.458C124.008 264.458 116.305 264.299 115.987 264.458C115.749 264.538 114.796 265.492 113.605 266.527L112.652 267.402C112.255 267.72 111.858 268.118 111.461 268.357C110.111 269.391 104.791 272.175 101.614 273.846L101.138 274.085L99.2319 275.04C99.2319 275.04 95.579 275.437 93.9114 275.756C93.6732 275.756 93.5144 275.835 93.4349 275.835C93.2761 275.835 93.1173 275.915 93.1173 275.915C92.8791 276.074 93.1173 277.983 93.1173 277.983C92.2438 278.381 91.3703 278.779 90.4968 279.177L90.2585 279.256C67.9443 289.281 51.3477 303.045 51.3477 303.045H106.061H137.905L141.399 294.93H128.693L130.758 281.564H136.316L135.919 279.893C135.919 279.416 138.699 277.188 140.207 275.835C140.763 275.358 141.081 274.96 141.16 274.881C141.24 274.403 140.287 272.414 140.287 272.414C144.019 268.197 149.498 265.572 149.498 265.572C149.419 265.333 149.26 265.174 149.101 264.935L152.516 264.538C159.266 263.981 171.654 263.583 173.639 263.424C175.704 263.185 183.486 259.287 188.489 257.536C189.521 257.218 190.395 256.9 191.109 256.82C194.603 256.184 203.735 256.422 207.309 256.502C207.706 256.502 207.865 256.502 207.865 256.502C207.865 256.502 207.706 256.502 207.547 256.502C207.944 256.502 208.262 256.502 208.421 256.502C208.579 256.502 208.659 256.502 208.738 256.502C209.373 256.422 210.485 253.956 210.009 253.16Z" fill="#9C84B8"/>
<path opacity="0.8" fill-rule="evenodd" clip-rule="evenodd" d="M152.119 275.517L150.61 277.904H239.47L257.973 215.528L192.142 218.074L152.119 275.517Z" fill="#9C84B8"/>
<path fill-rule="evenodd" clip-rule="evenodd" d="M152.119 275.517V272.653L188.886 214.255L257.973 213.141L257.417 216.323L238.438 275.517H152.119Z" fill="url(#paint14_linear_30_10943)"/>
<path fill-rule="evenodd" clip-rule="evenodd" d="M257.973 213.141L257.417 216.323L238.438 275.517H152.119V272.653L238.438 273.448L257.973 213.141Z" fill="url(#paint15_linear_30_10943)"/>
<path fill-rule="evenodd" clip-rule="evenodd" d="M254.876 210.038L234.229 269.232H154.263L152.119 264.14L165.063 245.602L185.233 216.721L188.886 211.55L254.876 210.038Z" fill="url(#paint16_linear_30_10943)"/>
<path fill-rule="evenodd" clip-rule="evenodd" d="M254.876 210.038L234.785 266.765L152.119 264.14L154.263 269.232H234.229L254.876 213.141V210.038Z" fill="url(#paint17_radial_30_10943)"/>
<path opacity="0.8" fill-rule="evenodd" clip-rule="evenodd" d="M237.882 210.436L234.944 214.653L199.13 216.164L202.386 211.868L237.882 210.436Z" fill="#9C84B8"/>
<path opacity="0.8" fill-rule="evenodd" clip-rule="evenodd" d="M234.785 266.765L234.229 269.232H154.263L152.119 264.14L234.785 266.765Z" fill="#9C84B8"/>
<path fill-rule="evenodd" clip-rule="evenodd" d="M237.723 209.083V210.436H236.453L235.976 210.834L236.294 212.107L234.944 214.334L199.368 215.448V214.653L219.777 212.425L237.723 209.083Z" fill="url(#paint18_radial_30_10943)"/>
<path fill-rule="evenodd" clip-rule="evenodd" d="M202.783 210.038L237.723 209.083L235.817 210.595V212.107L234.626 213.698L199.368 214.653L201.353 212.345L200.956 211.55L202.783 210.038Z" fill="url(#paint19_radial_30_10943)"/>
<path opacity="0.8" fill-rule="evenodd" clip-rule="evenodd" d="M200.957 211.55L235.818 210.595L237.723 209.083L202.783 210.038L200.957 211.55Z" fill="url(#paint20_linear_30_10943)"/>
<path opacity="0.8" fill-rule="evenodd" clip-rule="evenodd" d="M200.957 211.55L235.818 210.595V212.107L201.354 212.345L200.957 211.55Z" fill="#9C84B8"/>
<path opacity="0.8" d="M225.415 229.769L197.304 256.741L237.962 257.457L237.565 260.4L242.647 260.56L242.329 263.344L275.681 262.31L284.496 233.35L225.415 229.769Z" fill="#9C84B8"/>
<path fill-rule="evenodd" clip-rule="evenodd" d="M283.542 226.587L283.145 230.724L274.252 260.559L182.136 251.967L180.945 249.182L283.542 226.587Z" fill="url(#paint21_linear_30_10943)"/>
<path fill-rule="evenodd" clip-rule="evenodd" d="M180.945 249.182L206.197 219.426L283.542 226.587L273.854 257.059L180.945 249.182Z" fill="url(#paint22_radial_30_10943)"/>
<path opacity="0.5" d="M187.457 247.352L207.944 221.256L280.128 227.382L271.155 254.274L187.457 247.352Z" fill="#79FFFF"/>
<path fill-rule="evenodd" clip-rule="evenodd" d="M264.246 232.236C264.087 233.588 261.228 234.384 257.814 234.066C254.399 233.747 251.699 232.395 251.779 231.122C251.937 229.769 254.796 228.974 258.211 229.292C261.625 229.61 264.325 230.963 264.246 232.236Z" fill="#26F1FF"/>
<path d="M187.457 247.352L194.524 238.282C194.524 238.282 219.618 226.825 222.397 226.985C225.176 227.144 240.582 251.728 240.582 251.728L187.457 247.352Z" fill="url(#paint23_linear_30_10943)"/>
<path d="M280.128 227.382C277.984 226.905 247.57 252.206 247.57 252.206L271.155 254.274L280.128 227.382Z" fill="url(#paint24_linear_30_10943)"/>
<path d="M223.747 250.376C223.747 250.376 248.126 238.839 252.017 239.396C255.988 239.953 262.34 253.558 262.34 253.558L223.747 250.376Z" fill="#8379E3"/>
<path d="M462.056 184.579L445.38 202.878L441.25 191.262L440.139 188.079C430.292 191.103 418.539 188.398 416.792 187.284C415.283 186.329 413.775 182.908 413.298 181.953C413.219 181.794 413.219 181.635 413.219 181.635L412.583 181.317C412.583 181.317 411.234 183.385 409.804 183.942C408.375 184.579 396.146 184.101 395.749 183.942C395.272 183.783 394.875 183.624 394.319 181.714C393.684 179.805 394.319 176.463 394.319 176.463C394.319 176.463 391.222 175.827 390.746 175.19C390.269 174.554 388.84 167.552 388.84 167.552C388.84 167.552 387.728 167.155 387.252 166.757C386.775 166.359 385.584 161.347 385.664 159.835C385.743 158.403 386.299 157.607 386.299 157.607C385.664 156.971 384.631 152.277 384.631 152.277C384.631 152.277 378.834 151.879 377.167 150.526C375.499 149.174 376.77 144.241 377.167 143.764C377.484 143.366 381.137 142.013 382.408 141.456L382.884 141.297C382.805 138.91 392.81 128.329 397.337 127.533C401.863 126.737 427.91 130.875 431.165 132.625C434.342 134.455 453.797 170.098 453.797 170.098L462.056 184.579Z" fill="url(#paint25_linear_30_10943)"/>
<path opacity="0.5" d="M384.631 152.356C384.631 152.356 385.346 156.334 386.299 157.687C386.299 157.687 396.146 159.835 404.246 159.676L407.66 154.823L399.64 152.356H384.631Z" fill="url(#paint26_linear_30_10943)"/>
<path opacity="0.6" d="M443.474 177.1L441.33 191.262L440.218 188.079C430.371 191.102 418.619 188.397 416.872 187.284C415.363 186.329 413.854 182.908 413.377 181.953L415.045 172.008L409.725 154.186C409.725 154.186 420.127 169.939 426.639 172.724C433.151 175.588 441.568 174.633 441.568 174.633L443.474 177.1Z" fill="url(#paint27_linear_30_10943)"/>
<path d="M425.13 137.478C425.13 137.478 420.366 142.013 419.254 142.013C418.142 142.013 396.304 137.478 396.304 137.478L395.272 137.558L399.64 135.33L398.051 131.432C398.051 131.432 400.513 133.978 401.228 135.41L404.96 135.887L406.548 132.943L405.992 136.444L420.445 139.229C420.445 139.229 423.86 138.513 425.13 137.478Z" fill="url(#paint28_linear_30_10943)"/>
<path d="M384.631 152.356C384.631 152.356 392.572 152.754 397.019 150.924C397.019 150.924 405.437 151.481 409.646 154.107C409.646 154.107 416.792 170.894 420.286 174.076C421.319 175.031 428.307 176.543 432.357 175.111C432.357 175.111 428.069 177.1 423.145 176.384L420.684 175.906L415.125 185.135L413.219 181.476L412.584 181.157C412.584 181.157 411.154 183.306 410.122 183.624C410.122 183.624 411.313 179.327 410.36 177.02C410.36 177.02 399.163 177.975 394.24 176.861L394.319 176.225C394.319 176.225 404.484 177.179 409.407 175.906C409.407 175.906 410.837 173.281 409.169 168.666C409.169 168.666 395.352 169.382 388.84 167.393C388.84 167.393 399.402 168.905 406.946 167.95C406.946 167.95 407.581 164.768 406.39 160.631C406.39 160.631 390.825 159.835 386.22 157.766L386.378 157.528C386.378 157.528 393.684 159.198 403.213 159.039C403.213 159.039 404.166 162.858 403.213 159.039C403.213 159.039 396.225 155.459 384.87 152.754L384.631 152.356Z" fill="url(#paint29_linear_30_10943)"/>
<path opacity="0.6" d="M409.645 154.107C405.834 152.038 397.019 150.924 397.019 150.924C392.81 152.993 384.631 152.356 384.631 152.356C384.631 152.356 378.834 151.958 377.167 150.606C375.499 149.253 376.77 144.321 377.167 143.843C377.484 143.445 381.137 142.093 382.408 141.536L382.884 141.377L395.034 137.637L395.669 137.558C392.413 140.82 395.034 149.253 395.034 149.253C407.025 151.799 409.486 154.027 409.645 154.107Z" fill="url(#paint30_linear_30_10943)"/>
<path opacity="0.76" d="M412.584 181.317C412.584 181.317 413.775 178.293 414.013 176.622C414.251 174.952 413.775 172.724 413.775 172.724L409.407 176.145C409.407 176.145 413.695 172.724 413.854 170.974C414.092 168.905 414.489 166.598 412.981 165.166L409.248 168.905L405.596 168.269L406.946 168.109C406.946 168.109 410.122 167.632 412.822 164.37C412.822 164.37 412.742 160.392 411.075 158.164L406.39 160.869L396.702 160.074C396.702 160.074 403.849 160.71 406.231 159.755C407.74 159.199 409.09 158.323 409.645 157.846C410.122 157.448 409.645 154.266 409.645 154.266C409.645 154.266 415.125 160.074 414.807 160.074C416.951 164.529 418.46 172.565 420.207 174.315L420.604 176.145L415.045 185.374L413.14 181.714L412.584 181.317Z" fill="url(#paint31_linear_30_10943)"/>
<path opacity="0.76" d="M437.121 188.795C437.121 188.795 441.727 175.986 446.253 171.928C446.253 171.928 442.918 174.952 440.456 188.875L440.139 188.079L437.121 188.795Z" fill="url(#paint32_linear_30_10943)"/>
<path fill-rule="evenodd" clip-rule="evenodd" d="M534.478 303.045H461.024C461.024 303.045 458.324 293.18 458.006 291.827C457.688 290.475 460.865 285.622 460.865 278.541C460.865 271.778 450.224 230.724 448.953 226.348L448.874 226.189L448.795 226.03C448.477 225.314 449.35 223.245 449.35 223.245C449.35 223.245 442.362 209.72 442.362 208.924C442.362 208.129 444.745 203.594 444.745 203.594L440.298 192.376C440.059 187.761 441.648 181.476 443.474 176.941C444.586 174.156 445.856 172.087 446.889 171.451C447.048 171.371 447.127 171.292 447.286 171.292C449.986 170.496 456.18 172.008 456.18 172.008L463.168 183.465L464.359 185.454C464.359 185.454 475 188.636 475.397 189.352C475.873 190.148 482.623 207.97 482.623 207.97H490.008L488.341 213.778C503.587 239.317 528.76 289.838 528.76 289.838L531.46 292.862L534.478 303.045Z" fill="url(#paint33_linear_30_10943)"/>
<path fill-rule="evenodd" clip-rule="evenodd" d="M534.478 303.045H461.024C461.024 303.045 458.324 293.18 458.006 291.827C457.688 290.475 460.865 285.622 460.865 278.541C460.865 271.778 450.224 230.724 448.953 226.348L448.874 226.189L448.795 226.03C448.477 225.314 449.35 223.245 449.35 223.245C449.35 223.245 442.362 209.72 442.362 208.924C442.362 208.129 444.745 203.594 444.745 203.594L440.298 192.376C440.059 187.761 441.648 181.476 443.474 176.941C444.586 174.156 445.856 172.087 446.889 171.451C447.048 171.371 447.127 171.292 447.286 171.292C449.986 170.496 456.18 172.008 456.18 172.008L463.168 183.465L464.359 185.454C464.359 185.454 475 188.636 475.397 189.352C475.873 190.148 482.623 207.97 482.623 207.97H490.008L488.341 213.778C503.587 239.317 528.76 289.838 528.76 289.838L531.46 292.862L534.478 303.045Z" fill="url(#paint34_radial_30_10943)"/>
<path d="M419.254 142.013L426.56 141.297C426.56 141.297 431.721 139.388 431.88 133.182C431.88 133.182 414.648 127.613 398.607 127.931L401.546 135.012L405.04 135.967L406.548 132.545L406.072 136.523L420.525 139.308C420.525 139.308 423.145 138.672 425.21 137.558C425.13 137.478 421.001 141.377 419.254 142.013Z" fill="#FFAC90"/>
<path d="M395.828 137.558C395.828 137.558 392.095 141.377 395.192 149.253C395.192 149.253 409.248 152.038 415.204 155.459C415.204 155.459 421.08 152.515 422.192 145.912C422.271 145.832 417.189 141.218 395.828 137.558Z" fill="#FFAC90"/>
<path d="M377.723 143.445C377.723 143.445 383.043 141.615 385.028 141.695C386.22 141.774 386.537 147.026 385.664 148.855C384.79 150.685 377.723 150.844 377.723 150.844C377.723 150.844 376.452 149.571 376.69 146.946C377.008 144.32 377.723 143.445 377.723 143.445Z" fill="#FF9884"/>
<path d="M378.437 143.286C378.437 143.286 375.976 145.832 378.199 150.924H377.802C377.802 150.924 375.261 148.299 377.643 143.445L378.437 143.286Z" fill="#FFC9BF"/>
<path d="M382.725 142.013C382.725 142.013 384.552 141.536 385.505 142.252C386.458 142.968 386.061 147.185 385.425 148.617C384.79 150.049 382.249 150.447 382.249 150.447C382.249 150.447 385.187 150.288 386.14 148.537C387.093 146.787 386.299 142.013 385.584 141.695C384.79 141.456 382.725 142.013 382.725 142.013Z" fill="#D95879"/>
<path d="M406.389 160.79C406.389 160.79 404.881 162.301 405.198 164.529C405.436 166.757 406.945 168.109 406.945 168.109C406.945 168.109 407.819 165.961 406.389 160.79Z" fill="#FFAC90"/>
<path d="M409.248 169.701C409.248 169.701 408.216 172.883 409.725 175.429C409.646 175.429 410.519 172.247 409.248 169.701Z" fill="#FFAC90"/>
<path d="M410.519 177.736C410.519 177.736 408.136 180.68 409.804 183.942L410.122 183.783C410.122 183.783 411.948 181.476 410.519 177.736Z" fill="#FFAC90"/>
<path opacity="0.5" d="M531.54 292.782L518.834 303.204C518.834 303.204 525.504 296.283 528.84 289.759L531.54 292.782Z" fill="#8B8695"/>
<path opacity="0.5" d="M449.35 223.245C449.35 223.245 442.362 209.72 442.362 208.924L446.253 212.823C446.253 212.823 448.874 204.389 452.924 197.547C456.894 190.864 462.215 188.477 462.532 188.397C456.259 192.694 452.05 207.253 452.05 207.253L451.892 213.061L449.35 223.245Z" fill="#8B8695"/>
<path opacity="0.5" d="M492.232 263.185C491.914 263.424 486.673 267.004 483.02 269.948C479.209 272.971 469.044 288.486 468.727 290.554C468.409 292.464 470.871 301.852 471.109 303.125H461.024C461.024 303.125 458.324 293.259 458.006 291.907C457.689 290.554 460.865 285.701 460.865 278.62C460.865 271.778 449.827 229.531 448.874 226.189L463.724 271.38C463.724 271.38 466.741 270.107 469.521 264.935C472.221 260.003 475.476 252.922 475.715 252.365C475.556 253.081 472.538 264.299 471.665 266.527C470.791 268.754 458.165 291.509 458.006 291.827C458.165 291.668 459.991 299.226 461.024 298.431C466.185 292.702 476.668 271.619 481.988 269.152C486.276 267.322 491.914 263.265 492.232 263.185Z" fill="#8B8695"/>
<path opacity="0.5" d="M463.247 183.306C462.929 183.465 457.847 186.249 456.259 187.761C454.591 189.352 444.824 203.514 444.824 203.514L440.377 192.296C440.139 187.682 441.727 181.396 443.553 176.861L443.871 176.543L451.177 191.978C451.177 191.978 454.512 188 456.338 186.488C458.244 185.056 462.929 183.385 463.247 183.306Z" fill="url(#paint35_linear_30_10943)"/>
<path opacity="0.5" d="M482.702 207.89C482.702 207.89 474.285 209.959 469.679 212.425C465.073 214.812 461.023 219.029 460.626 218.949C460.229 218.87 463.961 208.845 468.011 204.389C472.061 199.934 478.335 196.513 478.335 196.513L482.702 207.89Z" fill="#8B8695"/>
<path opacity="0.5" d="M488.42 213.698C488.42 213.698 484.847 213.3 482.703 213.698C480.558 214.096 471.188 223.882 468.488 228.894C465.788 233.907 463.247 249.182 463.247 249.182C463.247 249.182 467.615 233.588 471.109 228.815C474.603 224.041 484.529 217.119 485.879 216.642C487.229 216.164 490.326 216.721 490.326 216.721L488.42 213.698Z" fill="#8B8695"/>
<path opacity="0.5" d="M488.42 213.698C488.42 213.698 484.052 212.982 482.702 213.698C481.353 214.414 470.791 224.12 469.044 227.939C467.297 231.758 464.756 244.25 464.756 244.25C464.756 244.25 467.694 232.872 471.744 228.019C475.794 223.166 483.973 216.88 485.879 216.721C487.785 216.562 490.326 216.801 490.326 216.801L488.42 213.698Z" fill="#8B8695"/>
<path opacity="0.8" d="M490.167 207.89H482.782L471.267 213.539L464.835 237.009L464.279 244.249C464.279 244.249 467.615 231.599 469.203 227.939C470.712 224.28 480.4 214.016 482.861 213.698C485.323 213.38 488.579 213.698 488.579 213.698L490.167 207.89Z" fill="#B5ABCA"/>
<path opacity="0.8" d="M475.476 189.193L466.741 198.422L463.247 212.186C463.247 212.186 465.312 203.912 478.414 196.513L475.476 189.193Z" fill="#B5ABCA"/>
<path opacity="0.5" d="M480.002 200.73C480.002 200.73 473.173 202.241 469.6 204.628C466.026 207.015 461.42 216.483 461.42 216.483C461.42 216.483 464.835 207.492 468.885 203.514C473.014 199.536 478.414 196.433 478.414 196.433L480.002 200.73Z" fill="#8B8695"/>
<path opacity="0.5" d="M449.35 223.245L446.253 216.483V212.823C446.253 212.823 450.224 201.605 456.021 197.149L451.733 208.526L451.971 212.902L449.35 223.245Z" fill="url(#paint36_linear_30_10943)"/>
<path opacity="0.5" d="M458.244 263.742L462.056 274.244L463.803 271.459C463.803 271.459 470.314 267.084 473.729 260.241C473.729 260.241 472.22 265.89 470.87 268.516C469.441 271.221 458.959 288.883 458.959 288.883C458.959 288.883 460.944 282.518 461.023 278.62C460.944 274.721 458.244 263.742 458.244 263.742Z" fill="url(#paint37_linear_30_10943)"/>
<path opacity="0.8" d="M471.665 270.505L474.603 274.483L480.003 270.505L494.455 261.276L490.167 244.25L483.1 240.749L471.665 270.505Z" fill="#B5ABCA"/>
<path opacity="0.8" d="M213.741 239.715C213.662 239.715 213.582 239.715 213.423 239.715C213.265 239.715 213.026 239.715 212.709 239.715H212.788C212.709 239.715 212.629 239.715 212.47 239.715C212.391 239.715 212.312 239.715 212.232 239.715C208.579 239.635 199.527 239.396 196.033 240.033C195.318 240.192 194.444 240.431 193.412 240.749C188.409 242.499 180.706 246.398 178.562 246.636C177.133 246.795 170.145 247.034 163.872 247.352L183.009 219.983C183.883 220.063 184.439 220.142 184.439 220.142C184.439 220.142 187.853 218.153 188.33 218.074C188.806 217.994 193.889 218.233 196.509 217.994C197.224 217.915 198.097 217.835 198.891 217.756C200.162 217.596 201.591 217.437 202.465 217.278L203.259 217.199C204.609 217.437 204.847 218.153 204.847 218.153C205.244 218.79 205.244 219.347 205.244 219.347C203.259 221.336 196.43 223.245 195.159 223.166C193.889 223.086 191.586 222.609 191.586 222.609C191.427 222.768 191.189 223.007 191.03 223.166C190.792 223.404 190.553 223.643 190.315 223.961C189.918 224.518 189.442 224.996 189.045 225.553L188.965 225.632C188.806 225.871 188.647 226.11 188.409 226.348C188.409 226.348 188.409 226.428 188.33 226.428C188.171 226.666 188.012 226.985 187.853 227.223C187.853 227.303 187.774 227.383 187.695 227.383C187.615 227.621 187.456 227.78 187.298 228.019C187.218 228.099 187.218 228.178 187.139 228.258C186.98 228.496 186.821 228.735 186.742 228.974C186.662 229.053 186.662 229.133 186.583 229.212C186.503 229.372 186.424 229.531 186.265 229.69C186.186 229.769 186.186 229.928 186.106 230.008C186.027 230.167 185.948 230.326 185.868 230.485C185.789 230.565 185.789 230.724 185.709 230.804C185.63 231.042 185.471 231.201 185.392 231.44C185.312 231.52 185.312 231.599 185.312 231.679C185.233 231.917 185.074 232.077 184.995 232.315V232.395C184.359 233.747 183.883 234.861 183.565 235.736C183.168 236.691 182.93 237.328 182.93 237.328C182.93 237.328 184.121 237.407 185.551 237.328C187.377 237.169 189.203 236.85 189.203 236.85C191.347 236.214 193.571 234.304 195.556 234.066C201.75 233.35 209.294 234.463 212.947 235.418C214.138 235.736 214.932 236.055 215.012 236.214C215.647 237.169 214.535 239.635 213.741 239.715Z" fill="#9C84B8"/>
<path d="M224.699 195.001C223.905 195.16 210.167 193.967 205.562 195.717C204.767 196.035 203.814 196.592 202.782 197.388C197.382 201.366 188.965 210.436 186.741 210.993C184.041 211.629 162.68 212.902 159.583 214.732C159.107 214.971 158.63 215.528 158.074 216.244C155.057 220.222 151.483 229.849 151.483 229.849C149.657 226.507 132.266 216.085 132.266 216.085C132.266 216.085 133.219 215.05 134.569 213.38C137.507 209.799 142.351 203.514 143.701 199.615C144.019 198.74 144.336 197.388 144.654 195.637C146.401 186.011 148.307 165.245 149.101 159.994C149.101 159.835 149.18 159.755 149.18 159.596C149.18 159.437 149.26 159.357 149.26 159.198C149.26 159.119 149.26 159.119 149.26 159.119C150.054 155.22 164.427 153.709 166.333 152.833C168.239 152.038 169.986 151.64 171.098 151.242C171.971 150.844 179.277 150.526 181.5 150.367L183.247 148.935C186.583 147.742 193.094 149.651 193.094 149.651C193.094 149.651 196.747 144.957 197.303 144.798C197.859 144.559 203.338 145.116 206.197 144.639C209.056 144.161 213.503 142.809 213.503 142.809C215.726 143.843 215.726 147.901 215.726 147.901C213.503 152.436 206.197 156.891 204.847 156.732C203.497 156.573 200.956 155.379 200.956 155.379C200.718 155.857 200.559 156.255 200.32 156.732C196.271 166.2 193.491 179.884 192.3 186.488C191.903 188.795 191.665 190.227 191.665 190.227C191.665 190.227 196.191 190.546 198.494 189.034C200.797 187.522 203.259 183.067 205.323 182.589C212.073 180.919 220.252 183.465 224.143 185.613C225.414 186.329 226.288 187.045 226.367 187.443C226.764 189.113 225.573 194.842 224.699 195.001Z" fill="url(#paint38_linear_30_10943)"/>
<path d="M215.567 147.821C213.344 152.356 206.038 156.812 204.688 156.652C203.338 156.493 200.797 155.3 200.797 155.3C200.797 155.3 201.988 153.629 202.623 151.322C202.623 151.322 203.179 152.993 202.941 154.107L208.023 153.788C207.944 153.788 212.55 151.958 215.567 147.821Z" fill="url(#paint39_linear_30_10943)"/>
<path d="M191.506 190.148L189.997 194.365L198.335 188.954C198.335 188.954 193.65 190.705 191.506 190.148Z" fill="url(#paint40_linear_30_10943)"/>
<path opacity="0.6" d="M149.18 159.119C149.18 159.198 149.18 159.278 149.101 159.517C149.18 159.358 149.18 159.198 149.18 159.119Z" fill="url(#paint41_linear_30_10943)"/>
<path opacity="0.6" d="M223.984 185.533C223.349 185.374 211.12 183.067 207.467 186.249C203.814 189.432 202.861 197.07 202.782 197.388C197.382 201.366 188.965 210.436 186.741 210.993C184.041 211.629 162.68 212.902 159.583 214.732C159.107 214.971 158.63 215.528 158.074 216.244L134.569 213.38C137.507 209.799 142.351 203.514 143.701 199.615C144.019 198.74 144.336 197.388 144.654 195.637C151.563 197.706 172.765 198.979 177.847 197.149C183.882 194.921 193.729 164.609 193.729 164.609C193.729 164.609 202.067 153.709 203.497 149.571C203.497 149.571 202.226 145.116 197.303 144.798C197.859 144.559 203.338 145.116 206.197 144.639C209.055 144.161 213.502 142.809 213.502 142.809C215.726 143.843 215.726 147.901 215.726 147.901C213.502 152.436 206.197 156.891 204.847 156.732C203.497 156.573 200.956 155.379 200.956 155.379C195.159 168.03 191.665 190.227 191.665 190.227C191.665 190.227 196.191 190.546 198.494 189.034L189.282 195.08C189.6 195.001 186.821 199.456 190.95 197.547C195.317 195.637 198.494 188.954 198.494 188.954C200.797 187.443 203.258 182.987 205.323 182.51C211.914 180.759 220.093 183.305 223.984 185.533Z" fill="url(#paint42_linear_30_10943)"/>
<path opacity="0.6" d="M158.948 162.54L159.424 159.358C159.424 159.358 159.345 156.812 159.424 156.255C159.504 155.698 162.601 155.459 162.601 155.459L166.254 152.754L162.124 154.982C162.124 154.982 158.392 155.857 157.995 156.334C157.518 156.812 158.868 159.278 158.868 159.278L158.948 162.54Z" fill="url(#paint43_linear_30_10943)"/>
<path opacity="0.6" d="M169.271 164.37L170.621 160.79C170.621 160.79 170.462 158.801 170.621 158.005C170.78 157.289 174.671 156.016 174.671 156.016C174.671 156.016 178.8 152.117 181.421 150.367C181.421 150.367 176.339 152.754 172.209 156.255C172.209 156.255 169.033 157.528 168.874 158.085C168.715 158.641 169.986 160.869 169.986 160.869L169.271 164.37Z" fill="url(#paint44_linear_30_10943)"/>
<path opacity="0.6" d="M193.015 149.572C193.015 149.572 188.329 156.175 186.979 157.369C185.709 158.562 183.088 158.96 182.135 160.233C181.183 161.506 181.659 163.574 181.659 163.574L180.071 167.632C180.071 167.632 180.944 164.211 180.944 163.574C180.944 162.938 180.547 161.108 180.785 159.994C181.024 158.88 184.359 158.403 186.106 156.732C187.774 155.061 192.141 149.492 192.141 149.492L193.015 149.572Z" fill="url(#paint45_linear_30_10943)"/>
<path d="M174.592 155.936C174.592 155.936 177.768 157.369 181.5 157.369C185.233 157.369 192.141 149.412 192.141 149.412C192.141 149.412 186.821 147.742 183.089 148.776L174.592 155.936Z" fill="#FFAC90"/>
<path d="M162.601 155.459C162.601 155.459 163.871 157.05 168 156.573C172.13 156.095 181.341 150.288 181.341 150.288C181.341 150.288 174.909 150.049 170.939 151.163C171.018 151.163 164.665 153.55 162.601 155.459Z" fill="#FFAC90"/>
<path d="M151.483 156.573C151.483 156.573 155.533 155.539 159.663 155.618L162.124 154.982L165.698 152.913C165.698 152.913 157.042 153.868 151.483 156.573Z" fill="#FFAC90"/>
<path opacity="0.5" d="M186.979 157.369C186.979 157.369 189.997 159.198 194.285 158.482C198.573 157.766 203.497 149.492 203.497 149.492C203.497 149.492 202.941 145.753 197.303 144.718L186.979 157.369Z" fill="#FFAC90"/>
<path d="M225.493 187.92C225.493 187.92 218.902 187.363 216.917 187.92C214.932 188.477 215.091 193.171 215.885 193.967C216.758 194.762 224.382 195.001 224.382 195.001C224.382 195.001 226.605 191.819 225.493 187.92Z" fill="#FFAC90"/>
<path d="M224.858 187.841C224.858 187.841 225.891 190.943 223.905 195.001H224.699C224.699 195.001 226.605 191.5 225.414 187.92L224.858 187.841Z" fill="#FFD4CC"/>
<path d="M224.223 187.84C224.223 187.84 218.347 187.522 216.52 188.397C214.217 189.511 215.647 193.171 216.441 193.967C217.235 194.762 223.746 195.001 223.746 195.001C223.746 195.001 216.52 194.683 215.647 194.126C214.773 193.569 214.456 189.034 215.964 188.159C217.711 187.124 224.223 187.84 224.223 187.84Z" fill="#F57F7F"/>
<path d="M208.579 144.002C208.579 144.002 207.15 144.639 207.467 144.877C208.5 145.832 211.676 146.548 215.091 144.957C215.091 144.957 214.535 143.286 213.344 142.65C213.344 142.729 210.644 143.445 208.579 144.002Z" fill="#FF9884"/>
<path d="M212.549 142.968C212.549 142.968 213.899 143.207 214.693 145.196L215.09 145.037C215.09 145.037 214.773 143.207 213.343 142.729L212.549 142.968Z" fill="#FFD4CC"/>
<path d="M208.579 144.002C208.579 144.002 207.626 144.48 207.706 144.877C207.865 145.196 208.5 146.23 212.947 145.753C212.947 145.753 211.517 146.15 209.532 145.912C207.547 145.673 207.229 144.877 207.309 144.718C207.388 144.559 208.579 144.002 208.579 144.002Z" fill="#D95879"/>
<path opacity="0.6" d="M200.162 156.652C196.112 166.12 193.332 179.805 192.141 186.408L189.997 194.365L183.406 199.297C183.406 199.297 191.268 167.711 193.65 164.529C196.032 161.267 200.162 156.652 200.162 156.652Z" fill="url(#paint46_linear_30_10943)"/>
<path d="M192.221 149.412L186.979 157.369L193.015 149.572L192.221 149.412Z" fill="url(#paint47_linear_30_10943)"/>
<path d="M181.421 150.288L172.527 155.857L174.592 155.936L181.421 150.288Z" fill="url(#paint48_linear_30_10943)"/>
<path opacity="0.76" d="M163.871 213.539C163.871 213.539 155.771 204.389 144.098 203.514C144.098 203.514 157.201 207.015 160.139 214.414L163.871 213.539Z" fill="url(#paint49_linear_30_10943)"/>
<path fill-rule="evenodd" clip-rule="evenodd" d="M150.61 231.758C150.61 231.758 151.642 236.453 151.563 237.566C151.563 237.885 151.166 238.68 150.53 239.794C148.863 242.897 145.845 248.068 145.845 249.262C145.845 250.853 146.322 257.218 146.48 258.252C146.56 258.968 142.431 260.639 139.413 262.151C137.904 262.867 136.713 263.583 136.316 263.981C135.204 265.413 121.784 303.125 121.784 303.125H54.4443C54.4443 303.125 72.391 271.141 96.5316 247.273C97.5639 246.239 98.5963 245.284 99.5492 244.329C99.5492 244.329 99.311 239.953 99.5492 239.476C99.7874 238.998 106.22 237.407 106.22 237.407L107.411 236.055C107.649 235.816 107.887 235.498 108.205 235.18L108.761 234.543C112.175 230.804 117.972 224.2 119.402 221.893C121.546 218.472 124.007 213.141 124.325 212.823C124.722 212.505 133.06 212.823 133.06 212.823C133.06 212.823 138.142 207.015 140.604 202.957C140.604 202.957 152.436 203.753 157.995 210.754C159.107 212.186 160.06 213.857 160.536 215.846C160.536 215.926 154.66 221.972 150.61 231.758Z" fill="url(#paint50_radial_30_10943)"/>
<path opacity="0.2" fill-rule="evenodd" clip-rule="evenodd" d="M158.154 157.687C158.154 157.687 152.913 192.455 153.945 192.376C155.057 192.296 159.345 158.562 159.345 158.562L158.154 157.687Z" fill="url(#paint51_linear_30_10943)"/>
<path opacity="0.2" fill-rule="evenodd" clip-rule="evenodd" d="M169.668 160.233C169.668 160.233 161.489 191.739 162.124 192.296C162.759 192.853 170.621 160.71 170.621 160.71L169.668 160.233Z" fill="url(#paint52_linear_30_10943)"/>
<path opacity="0.2" fill-rule="evenodd" clip-rule="evenodd" d="M180.944 162.54C180.944 162.54 167.365 192.614 167.842 193.489C168.398 194.365 181.659 163.574 181.659 163.574L180.944 162.54Z" fill="url(#paint53_linear_30_10943)"/>
<path opacity="0.5" d="M139.413 262.071C137.904 262.787 136.713 263.503 136.316 263.901C135.204 265.333 121.784 303.045 121.784 303.045C121.784 303.045 120.593 294.85 118.607 293.18C116.622 291.509 108.681 284.587 103.123 283.553C103.123 283.553 108.046 284.428 111.143 284.905C114.319 285.383 126.469 289.838 126.469 289.838L134.41 262.946V261.116C134.41 261.116 130.598 257.616 129.09 256.979C127.581 256.343 112.572 258.093 101.931 260.082C91.6081 261.992 81.6818 269.709 81.126 270.186C81.6818 269.63 89.7817 261.514 95.8962 258.332C102.328 254.99 129.09 251.569 132.107 252.922C135.284 254.433 139.413 262.071 139.413 262.071Z" fill="#8B8695"/>
<path opacity="0.5" d="M96.4521 247.193C96.4521 247.193 102.805 246.636 110.746 247.193C118.687 247.75 127.263 248.228 127.66 247.989C128.057 247.671 124.166 243.533 116.225 242.26C108.284 240.987 99.4697 244.249 99.4697 244.249L96.4521 247.193Z" fill="#8B8695"/>
<path opacity="0.5" d="M106.22 237.407C106.22 237.407 112.652 235.975 118.211 237.407C118.211 237.407 114.24 234.623 108.761 234.623L106.22 237.407Z" fill="#8B8695"/>
<path opacity="0.5" d="M145.925 249.262C145.925 250.853 146.401 257.218 146.56 258.252C146.56 258.252 143.94 246.716 140.366 238.044C136.872 229.372 134.728 227.223 134.49 225.95C134.252 224.757 146.163 231.679 150.61 239.794C148.942 242.897 145.925 248.068 145.925 249.262Z" fill="#8B8695"/>
<path opacity="0.5" d="M160.536 215.926C160.536 215.926 154.66 221.972 150.61 231.758C150.61 231.758 143.622 218.869 142.51 217.915C141.398 217.039 133.06 212.902 133.06 212.902L134.489 212.266C134.489 212.266 144.575 217.199 148.783 223.007L157.995 210.754C159.186 212.186 160.059 213.937 160.536 215.926Z" fill="#8B8695"/>
<path opacity="0.5" d="M145.925 249.262C145.925 249.262 140.287 234.941 136.237 229.372C136.237 229.372 144.019 243.136 146.481 258.252L145.925 249.262Z" fill="#8B8695"/>
<path opacity="0.5" d="M136.316 263.981L134.49 261.196C134.49 261.196 131.631 257.854 129.169 257.059C126.787 256.263 99.7876 257.059 99.7876 257.059C99.7876 257.059 127.66 251.728 132.107 253.081C136.634 254.433 139.334 262.151 139.334 262.151L136.316 263.981Z" fill="#8B8695"/>
<path opacity="0.5" d="M150.61 231.758C150.61 231.758 143.781 218.71 142.51 217.915C141.24 217.119 137.269 215.05 137.269 215.05C137.269 215.05 140.366 216.005 144.654 218.869C148.942 221.734 151.96 228.417 151.96 228.417L150.61 231.758Z" fill="#8B8695"/>
<path opacity="0.8" d="M99.5493 239.396C99.5493 239.396 100.502 238.362 106.22 238.282C111.937 238.203 120.672 240.112 120.672 240.112L122.896 243.772C122.896 243.772 112.89 239.476 99.5493 244.249V239.396Z" fill="#B5ABCA"/>
<path opacity="0.8" d="M124.404 212.902C124.404 212.902 130.439 215.051 137.348 219.188C144.257 223.325 146.877 231.758 146.877 231.758L145.686 233.509C145.686 233.509 130.837 217.994 120.751 219.665L124.404 212.902Z" fill="#B5ABCA"/>
<path opacity="0.8" d="M83.4292 265.015C83.4292 265.015 92.4025 258.809 96.4524 257.457C100.741 256.025 116.067 253.001 116.067 253.001C116.067 253.001 114.637 249.898 112.652 249.103C110.667 248.387 96.4524 249.103 96.4524 249.103C96.4524 249.103 86.6056 259.923 83.4292 265.015Z" fill="#B5ABCA"/>
<path opacity="0.8" d="M103.123 283.632C103.123 283.632 110.587 291.35 112.175 294.93C113.763 298.51 113.605 303.125 113.605 303.125H121.704C121.704 303.125 120.91 296.442 118.528 293.259C116.305 290.077 106.855 284.189 103.123 283.632Z" fill="#B5ABCA"/>
<path opacity="0.8" fill-rule="evenodd" clip-rule="evenodd" d="M374.467 223.564L385.584 244.409L450.939 242.897L428.148 227.064L374.467 223.564Z" fill="#9C84B8"/>
<path fill-rule="evenodd" clip-rule="evenodd" d="M374.467 223.564L375.102 213.38L432.436 224.041L447.445 229.69L444.109 240.828L385.584 241.942L374.467 223.564Z" fill="url(#paint54_linear_30_10943)"/>
<path fill-rule="evenodd" clip-rule="evenodd" d="M375.102 213.38L386.14 229.928L447.445 229.69L425.766 212.266L375.102 213.38Z" fill="url(#paint55_radial_30_10943)"/>
<path fill-rule="evenodd" clip-rule="evenodd" d="M385.584 241.942L386.14 229.928L447.444 229.69L444.109 240.828L385.584 241.942Z" fill="url(#paint56_radial_30_10943)"/>
<path fill-rule="evenodd" clip-rule="evenodd" d="M379.708 215.13L389.952 211.391L434.421 222.45L432.039 227.701L389.555 228.178L379.708 215.13Z" fill="#70134A"/>
<path fill-rule="evenodd" clip-rule="evenodd" d="M377.485 210.356L377.167 198.581H422.272L438.551 212.266L437.122 224.837L390.19 225.234L377.485 210.356Z" fill="url(#paint57_linear_30_10943)"/>
<path fill-rule="evenodd" clip-rule="evenodd" d="M377.167 198.581L390.746 212.505L438.551 212.266L422.272 198.581H377.167Z" fill="url(#paint58_radial_30_10943)"/>
<path fill-rule="evenodd" clip-rule="evenodd" d="M390.19 225.234L390.746 212.504L438.551 212.266L437.121 224.836L390.19 225.234Z" fill="url(#paint59_radial_30_10943)"/>
<path fill-rule="evenodd" clip-rule="evenodd" d="M377.167 198.581C377.167 198.581 387.967 210.356 393.208 211.391C398.449 212.505 435.772 211.709 436.407 211.391C437.042 211.072 422.272 198.581 422.272 198.581L438.63 212.266L390.746 212.505L377.167 198.581Z" fill="#FF8934"/>
<path fill-rule="evenodd" clip-rule="evenodd" d="M422.59 237.646C422.59 239.555 421.081 241.067 419.175 241.067C417.269 241.067 415.76 239.555 415.76 237.646C415.76 235.737 417.269 234.225 419.175 234.225C421.001 234.225 422.59 235.737 422.59 237.646Z" fill="#1A0040"/>
<path fill-rule="evenodd" clip-rule="evenodd" d="M416.951 238.521C416.951 238.521 416.634 235.18 419.175 234.941C421.716 234.702 422.589 237.009 422.589 237.009L425.21 242.977C425.21 242.977 423.701 244.488 421.795 244.25L416.951 238.521Z" fill="url(#paint60_linear_30_10943)"/>
<path fill-rule="evenodd" clip-rule="evenodd" d="M421.795 244.249C421.795 244.249 421.636 241.306 423.304 241.306C424.972 241.306 425.21 242.976 425.21 242.976C425.21 242.976 424.336 245.204 421.795 244.249Z" fill="#1A0040"/>
<g opacity="0.8">
<path opacity="0.8" d="M306.73 303.443L305.221 302.966C305.459 302.091 311.415 281.802 322.056 279.654C362.158 271.698 368.114 267.402 370.973 265.413C373.593 263.503 374.308 263.344 389.316 263.822C440.933 265.492 447.524 259.207 448.318 257.297C448.636 256.502 448.318 255.547 447.286 254.592C444.506 252.046 440.536 252.206 436.327 252.285C432.595 252.365 428.783 252.524 425.607 250.694C423.78 249.66 421.477 244.249 421.08 243.136L422.51 242.499C423.542 244.965 425.369 248.705 426.401 249.262C429.18 250.853 432.754 250.694 436.248 250.614C440.615 250.455 445.062 250.376 448.318 253.319C449.827 254.752 450.383 256.343 449.747 257.854C447.286 263.901 425.766 266.606 389.158 265.413C374.228 264.935 373.99 265.094 371.767 266.686C368.829 268.834 362.714 273.21 322.215 281.245C312.686 283.155 306.73 303.204 306.73 303.443Z" fill="#9C84B8"/>
</g>
<path d="M305.936 304H305.857C305.46 303.92 305.142 303.523 305.142 303.125C305.221 302.329 307.842 283.791 317.768 279.575C319.992 278.62 324.121 277.824 329.442 276.87C344.291 274.085 367.241 269.789 376.611 256.104C361.92 250.535 360.094 245.522 360.65 242.579C361.523 238.044 368.908 235.418 374.705 236.214C379.867 236.93 382.726 240.033 382.329 244.647C382.011 248.705 380.82 252.206 379.073 255.308C382.884 256.661 387.57 258.093 393.367 259.446C429.18 268.277 446.73 262.946 449.827 257.138C450.542 255.865 450.383 254.672 449.351 253.717C446.571 251.171 442.601 251.33 438.392 251.41C434.66 251.49 430.848 251.649 427.672 249.819C425.845 248.784 423.145 243.772 422.828 243.215C422.589 242.817 422.748 242.34 423.145 242.101C423.542 241.863 424.019 242.022 424.257 242.42C425.289 244.409 427.433 247.75 428.466 248.387C431.245 249.978 434.819 249.819 438.313 249.739C442.68 249.58 447.127 249.5 450.383 252.444C451.892 253.876 452.209 255.865 451.177 257.775C448.318 263.105 432.516 270.584 392.97 260.878C387.093 259.446 382.249 258.014 378.199 256.581C368.67 270.982 345.085 275.437 329.759 278.302C324.598 279.256 320.548 280.052 318.404 280.927C309.271 284.826 306.73 303.045 306.73 303.204C306.651 303.682 306.333 304 305.936 304ZM372.323 237.566C367.399 237.566 362.635 239.874 362.079 242.817C361.761 244.409 362.397 249.103 377.405 254.672C379.152 251.728 380.343 248.307 380.661 244.409C381.058 239.396 376.929 238.044 374.388 237.725C373.673 237.646 373.038 237.566 372.323 237.566Z" fill="url(#paint61_linear_30_10943)"/>
<path fill-rule="evenodd" clip-rule="evenodd" d="M388.602 209.083L390.746 212.584H399.878C399.878 212.504 391.302 211.152 388.602 209.083Z" fill="#FFB25B"/>
<path opacity="0.8" d="M296.883 211.47C324.469 211.47 346.832 207.694 346.832 203.037C346.832 198.379 324.469 194.603 296.883 194.603C269.297 194.603 246.935 198.379 246.935 203.037C246.935 207.694 269.297 211.47 296.883 211.47Z" fill="#9C84B8"/>
<path fill-rule="evenodd" clip-rule="evenodd" d="M257.099 196.513L258.37 200.968C258.37 200.968 272.981 207.731 300.219 207.731C327.456 207.731 338.891 199.934 338.891 199.934L339.765 194.444C339.765 194.444 302.839 205.185 257.099 196.513Z" fill="url(#paint62_linear_30_10943)"/>
<path fill-rule="evenodd" clip-rule="evenodd" d="M257.099 196.513C257.099 196.513 272.425 203.275 298.392 203.275C324.359 203.275 339.844 194.444 339.844 194.444C317.927 187.602 277.031 188.397 257.099 196.513Z" fill="url(#paint63_radial_30_10943)"/>
<path opacity="0.3" fill-rule="evenodd" clip-rule="evenodd" d="M273.616 195.558L273.696 201.127L278.381 201.843V196.274L273.616 195.558Z" fill="#9A6FBB"/>
<path opacity="0.6" fill-rule="evenodd" clip-rule="evenodd" d="M280.048 191.262L280.922 202.241C280.922 202.241 299.504 204.787 312.845 202.4L313.798 190.227C313.718 190.227 297.121 188.716 280.048 191.262Z" fill="#9A6FBB"/>
<path opacity="0.3" fill-rule="evenodd" clip-rule="evenodd" d="M313.718 196.274V202.241L317.53 201.843L317.292 196.672L313.718 196.274Z" fill="#9A6FBB"/>
<path fill-rule="evenodd" clip-rule="evenodd" d="M296.169 47.8126C296.169 47.8126 295.931 52.0294 297.122 52.9046C298.313 53.7797 302.522 53.6206 302.522 53.6206C302.522 53.6206 299.345 49.4834 296.169 47.8126Z" fill="#F7F2FF"/>
<path fill-rule="evenodd" clip-rule="evenodd" d="M287.275 136.285L289.975 140.502C289.975 140.502 296.169 143.286 301.966 141.854L305.698 136.046L287.275 136.285Z" fill="url(#paint64_radial_30_10943)"/>
<path fill-rule="evenodd" clip-rule="evenodd" d="M321.898 66.6686H296.169H270.44C266.152 120.85 285.131 135.728 285.131 135.728C290.848 137.558 296.169 137.16 296.169 137.16C296.169 137.16 301.489 137.558 307.207 135.728C307.207 135.728 326.186 120.85 321.898 66.6686Z" fill="url(#paint65_radial_30_10943)"/>
<path fill-rule="evenodd" clip-rule="evenodd" d="M270.44 66.6686C270.44 66.6686 294.104 61.6563 321.898 66.6686C321.898 66.6686 303.077 71.8401 270.44 66.6686Z" fill="url(#paint66_linear_30_10943)"/>
<path fill-rule="evenodd" clip-rule="evenodd" d="M274.887 62.0542V65.9527C274.887 65.9527 280.604 67.8622 296.169 67.8622C311.733 67.8622 317.133 65.9527 317.133 65.9527V62.1338H274.887V62.0542Z" fill="url(#paint67_radial_30_10943)"/>
<path opacity="0.8" fill-rule="evenodd" clip-rule="evenodd" d="M274.887 63.1681C274.887 63.1681 281.557 65.714 297.439 66.6688C313.401 67.6235 317.133 64.9184 317.133 64.9184V62.0542H274.808V63.1681H274.887Z" fill="#9A63B3"/>
<path fill-rule="evenodd" clip-rule="evenodd" d="M320.945 61.0198C310.383 64.9979 296.169 64.441 296.169 64.441C296.169 64.441 280.843 64.441 271.393 61.0198C271.393 61.0198 272.267 43.9937 273.775 38.2653C275.284 32.5369 296.169 19.6479 296.169 19.6479C296.169 19.6479 317.054 32.5369 318.563 38.2653C320.151 43.9142 320.945 61.0198 320.945 61.0198Z" fill="url(#paint68_radial_30_10943)"/>
<path fill-rule="evenodd" clip-rule="evenodd" d="M318.562 38.1857C295.692 43.5163 273.696 38.1857 273.696 38.1857C275.205 32.4573 296.089 19.5684 296.089 19.5684C296.089 19.5684 317.054 32.4573 318.562 38.1857Z" fill="url(#paint69_radial_30_10943)"/>
<path fill-rule="evenodd" clip-rule="evenodd" d="M276.951 123.237L278.381 126.26C278.381 126.26 273.695 147.423 278.381 168.03L277.745 168.348C277.745 168.428 269.09 155.061 276.951 123.237Z" fill="#AE193B"/>
<path fill-rule="evenodd" clip-rule="evenodd" d="M270.996 100.721C270.996 100.721 266.152 108.279 254.399 113.292C254.399 113.292 251.302 148.458 274.887 168.507H277.746C277.746 168.507 270.996 147.105 276.952 123.396C276.952 123.237 272.743 113.371 270.996 100.721Z" fill="url(#paint70_linear_30_10943)"/>
<path fill-rule="evenodd" clip-rule="evenodd" d="M315.148 123.237L313.718 126.26C313.718 126.26 318.403 147.423 313.718 168.03L314.354 168.348C314.433 168.428 323.089 155.061 315.148 123.237Z" fill="#AE193B"/>
<path fill-rule="evenodd" clip-rule="evenodd" d="M321.103 100.721C321.103 100.721 325.947 108.279 337.7 113.292C337.7 113.292 340.797 148.458 317.212 168.507H314.354C314.354 168.507 321.103 147.105 315.148 123.396C315.148 123.237 319.356 113.371 321.103 100.721Z" fill="url(#paint71_linear_30_10943)"/>
<path fill-rule="evenodd" clip-rule="evenodd" d="M296.486 103.903H300.218L301.886 119.656H294.898L296.486 103.903Z" fill="url(#paint72_linear_30_10943)"/>
<path fill-rule="evenodd" clip-rule="evenodd" d="M294.898 119.657L298.392 172.406H300.218L301.886 119.657H294.898Z" fill="#AE193B"/>
<path opacity="0.8" d="M301.976 99.3572C308.153 96.3094 310.694 88.8217 307.652 82.6329C304.61 76.4441 297.136 73.8978 290.959 76.9457C284.782 79.9935 282.241 87.4812 285.283 93.67C288.325 99.8588 295.799 102.405 301.976 99.3572Z" fill="#BD63B3"/>
<path d="M296.486 98.9705C303.372 98.9705 308.954 93.3781 308.954 86.4794C308.954 79.5807 303.372 73.9883 296.486 73.9883C289.601 73.9883 284.019 79.5807 284.019 86.4794C284.019 93.3781 289.601 98.9705 296.486 98.9705Z" fill="url(#paint73_radial_30_10943)"/>
<path d="M296.486 95.7881C301.618 95.7881 305.777 91.6205 305.777 86.4794C305.777 81.3384 301.618 77.1708 296.486 77.1708C291.355 77.1708 287.195 81.3384 287.195 86.4794C287.195 91.6205 291.355 95.7881 296.486 95.7881Z" fill="url(#paint74_radial_30_10943)"/>
<path d="M296.486 94.8334C301.091 94.8334 304.825 91.0932 304.825 86.4794C304.825 81.8657 301.091 78.1255 296.486 78.1255C291.882 78.1255 288.148 81.8657 288.148 86.4794C288.148 91.0932 291.882 94.8334 296.486 94.8334Z" fill="url(#paint75_radial_30_10943)"/>
<path fill-rule="evenodd" clip-rule="evenodd" d="M270.043 73.3518C270.043 73.3518 267.343 74.227 266.787 76.216C266.231 78.2051 269.805 80.5919 269.805 80.5919L270.043 73.3518Z" fill="url(#paint76_radial_30_10943)"/>
<path fill-rule="evenodd" clip-rule="evenodd" d="M322.294 72.6357C322.294 72.6357 324.597 73.3518 325.392 74.943C326.186 76.5342 322.533 79.5576 322.533 79.5576L322.294 72.6357Z" fill="url(#paint77_radial_30_10943)"/>
<path fill-rule="evenodd" clip-rule="evenodd" d="M296.169 19.5684C296.169 19.5684 310.622 31.5821 313.163 39.2996C313.163 39.2996 306.572 40.8908 297.757 40.5725L296.169 19.5684Z" fill="white"/>
<path opacity="0.5" fill-rule="evenodd" clip-rule="evenodd" d="M307.604 40.1748V63.8841C307.604 63.8841 314.195 62.9293 318.642 61.7359L317.212 38.504C317.133 38.504 313.162 39.2996 307.604 40.1748Z" fill="white"/>
<path opacity="0.5" fill-rule="evenodd" clip-rule="evenodd" d="M272.425 61.3381L274.887 38.504L277.587 38.9814L276.316 62.3724L272.425 61.3381Z" fill="#79FFFF"/>
<path fill-rule="evenodd" clip-rule="evenodd" d="M294.819 40.5725C294.819 40.5725 308.636 40.6521 318.642 38.1857C318.562 38.1857 312.13 42.0046 294.819 40.5725Z" fill="#F7F2FF"/>
<path fill-rule="evenodd" clip-rule="evenodd" d="M303.474 76.0569L302.283 79.2393C302.283 79.2393 304.348 80.8305 304.904 82.74L307.921 81.6262C308.08 81.6262 307.048 78.5233 303.474 76.0569Z" fill="white"/>
<path fill-rule="evenodd" clip-rule="evenodd" d="M300.219 78.0459L301.966 75.1817L300.616 74.6248L298.948 77.489L300.219 78.0459Z" fill="white"/>
<path d="M300.695 83.2175C301.178 83.2175 301.569 82.8257 301.569 82.3423C301.569 81.859 301.178 81.4672 300.695 81.4672C300.213 81.4672 299.822 81.859 299.822 82.3423C299.822 82.8257 300.213 83.2175 300.695 83.2175Z" fill="white"/>
<path fill-rule="evenodd" clip-rule="evenodd" d="M288.307 88.1502C288.307 88.1502 290.451 85.7634 293.786 86.8772C297.122 87.9911 297.519 94.7538 297.519 94.7538C297.519 94.7538 290.292 95.8676 288.307 88.1502Z" fill="#86B0FF"/>
<path opacity="0.8" fill-rule="evenodd" clip-rule="evenodd" d="M294.104 68.9759C294.104 68.9759 297.201 69.4532 306.571 70.0897C315.942 70.7262 317.133 90.7757 313.718 111.223C310.78 129.045 305.46 132.704 306.651 133.261C307.842 133.818 315.862 120.452 318.483 103.903C321.024 87.3545 319.515 70.0897 319.833 68.9759C320.15 67.7824 321.897 66.6686 321.897 66.6686C321.897 66.6686 313.48 69.0554 294.104 68.9759Z" fill="url(#paint78_linear_30_10943)"/>
<path opacity="0.5" fill-rule="evenodd" clip-rule="evenodd" d="M271.393 97.7772C271.393 97.7772 273.855 125.544 286.084 135.33L292.516 136.205C292.516 136.126 276.952 124.749 271.393 97.7772Z" fill="url(#paint79_linear_30_10943)"/>
<path opacity="0.8" fill-rule="evenodd" clip-rule="evenodd" d="M300.219 103.903L305.777 136.126L301.33 137.001L301.886 119.656L300.219 103.903Z" fill="#BD63B3"/>
<path opacity="0.8" fill-rule="evenodd" clip-rule="evenodd" d="M337.7 113.212L317.371 150.765H315.783C315.783 150.765 316.418 136.683 313.718 126.26C313.718 126.26 318.88 116.394 321.103 100.641C321.103 100.721 326.106 107.881 337.7 113.212Z" fill="#9A63B3"/>
<path fill-rule="evenodd" clip-rule="evenodd" d="M272.743 44.2324C272.743 44.2324 298.392 51.2338 319.595 44.2324L320.389 52.5068C320.389 52.5068 302.998 57.8374 271.869 52.5068L272.743 44.2324Z" fill="url(#paint80_radial_30_10943)"/>
<path opacity="0.8" fill-rule="evenodd" clip-rule="evenodd" d="M268.296 103.903C268.296 103.903 275.681 119.179 275.681 128.647L277.428 131.829L278.381 126.34C278.381 126.34 273.061 115.201 270.996 100.721L268.296 103.903Z" fill="#BD63B3"/>
<path fill-rule="evenodd" clip-rule="evenodd" d="M317.927 83.2174C317.927 83.2174 315.069 89.9006 317.927 93.1626C317.927 93.1626 320.865 89.4232 317.927 83.2174Z" fill="white"/>
<path fill-rule="evenodd" clip-rule="evenodd" d="M317.927 206.458L317.53 201.843L324.994 200.729V205.105C324.994 205.185 319.436 206.299 317.927 206.458Z" fill="white"/>
<path opacity="0.8" d="M327.535 272.175C343.543 272.175 356.52 268.186 356.52 263.265C356.52 258.343 343.543 254.354 327.535 254.354C311.528 254.354 298.551 258.343 298.551 263.265C298.551 268.186 311.528 272.175 327.535 272.175Z" fill="#9C84B8"/>
<path fill-rule="evenodd" clip-rule="evenodd" d="M346.752 239.078C346.752 239.078 350.326 238.441 351.279 238.362C353.105 238.203 356.996 240.51 358.267 242.499L348.341 244.886L346.752 239.078Z" fill="white"/>
<path fill-rule="evenodd" clip-rule="evenodd" d="M345.879 252.285C345.879 252.285 349.373 253.16 352.152 250.614C354.932 248.068 354.058 244.886 354.058 244.886H355.567L355.091 248.944L351.358 255.07L345.879 256.343L343.338 255.865L345.879 252.285Z" fill="white"/>
<path fill-rule="evenodd" clip-rule="evenodd" d="M348.817 241.783C348.817 241.783 351.835 240.351 353.105 240.033C354.376 239.714 357.711 240.828 358.584 242.897C359.458 244.965 357.076 251.489 353.74 254.513C350.326 257.536 345.561 258.173 345.561 258.173V259.525C345.561 259.525 342.623 261.514 340.479 261.037L343.973 253.956C343.973 253.956 347.864 254.752 349.849 253.876C354.058 252.046 354.693 247.989 354.852 246.398C355.011 244.806 352.867 244.329 352.867 244.329L349.611 245.363C349.611 245.363 349.929 247.989 349.214 248.864C348.579 249.739 346.514 250.853 346.514 250.853C346.514 250.853 348.817 244.329 348.817 241.783Z" fill="url(#paint81_radial_30_10943)"/>
<path fill-rule="evenodd" clip-rule="evenodd" d="M348.817 239.317L322.374 240.112L295.93 239.317C295.93 239.317 295.136 252.444 307.206 264.299C307.206 264.299 311.653 267.083 322.374 267.083C333.094 267.083 337.541 264.299 337.541 264.299C349.611 252.444 348.817 239.317 348.817 239.317Z" fill="url(#paint82_radial_30_10943)"/>
<path fill-rule="evenodd" clip-rule="evenodd" d="M348.818 239.317C348.818 242.022 336.986 246.398 322.374 246.398C307.763 246.398 295.931 242.022 295.931 239.317C295.931 236.612 307.763 231.758 322.374 231.758C336.986 231.758 348.818 236.612 348.818 239.317Z" fill="white"/>
<path fill-rule="evenodd" clip-rule="evenodd" d="M343.338 239.237C343.338 240.033 342.067 240.988 339.844 241.942C339.447 242.101 338.971 242.26 338.494 242.42C334.603 243.772 328.806 244.886 322.215 244.886C318.959 244.886 315.862 244.647 313.083 244.17C309.668 243.613 306.73 242.817 304.665 241.942C302.442 241.067 301.171 240.033 301.171 239.237C301.171 237.089 310.621 233.27 322.215 233.27C333.968 233.27 343.338 237.089 343.338 239.237Z" fill="url(#paint83_radial_30_10943)"/>
<path fill-rule="evenodd" clip-rule="evenodd" d="M339.923 241.942C339.526 242.101 339.05 242.26 338.573 242.42C334.682 243.772 328.885 244.886 322.294 244.886C319.038 244.886 315.941 244.647 313.162 244.17C309.747 243.613 306.809 242.817 304.745 241.942C308.477 240.271 314.988 238.76 322.294 238.76C329.679 238.76 336.191 240.271 339.923 241.942Z" fill="url(#paint84_radial_30_10943)"/>
<path opacity="0.5" fill-rule="evenodd" clip-rule="evenodd" d="M297.757 242.976C297.757 242.976 298.71 255.468 307.524 262.708L310.542 263.344C310.542 263.344 305.539 256.502 304.745 245.841L297.757 242.976Z" fill="#79FFFF"/>
<path fill-rule="evenodd" clip-rule="evenodd" d="M336.032 245.045C336.032 245.045 342.782 249.023 345.641 242.101L336.032 245.045Z" fill="white"/>
<path fill-rule="evenodd" clip-rule="evenodd" d="M339.923 251.33C338.415 252.444 333.888 261.912 335.397 263.106C336.906 264.299 340.559 260.48 340.876 256.263C341.194 252.047 340.717 250.694 339.923 251.33Z" fill="white"/>
<path opacity="0.8" fill-rule="evenodd" clip-rule="evenodd" d="M343.338 239.237C343.338 240.033 342.067 240.987 339.844 241.942C339.447 242.101 338.971 242.26 338.494 242.42C338.256 242.34 330.156 238.123 318.562 239.953C313.877 240.669 313.083 244.09 313.083 244.09C309.668 243.533 306.73 242.738 304.665 241.863C302.442 240.987 301.171 239.953 301.171 239.158C301.171 237.009 310.621 233.19 322.215 233.19C333.968 233.27 343.338 237.089 343.338 239.237Z" fill="#B584B8"/>
<path fill-rule="evenodd" clip-rule="evenodd" d="M329.044 255.945C329.044 259.923 323.724 264.14 317.212 264.14C310.7 264.14 305.38 258.332 305.38 254.274C305.38 250.296 310.7 251.171 317.212 251.171C323.724 251.251 329.044 251.967 329.044 255.945Z" fill="url(#paint85_radial_30_10943)"/>
<path fill-rule="evenodd" clip-rule="evenodd" d="M347.309 132.227C347.309 132.227 353.9 138.274 360.014 141.058L356.758 151.004C356.758 151.004 345.244 147.662 341.273 140.183L347.309 132.227Z" fill="url(#paint86_linear_30_10943)"/>
<path fill-rule="evenodd" clip-rule="evenodd" d="M179.992 102.63C179.992 102.63 167.683 97.6976 157.44 103.983L154.025 95.629C154.025 95.629 172.766 86.3999 181.421 95.3904L179.992 102.63Z" fill="url(#paint87_linear_30_10943)"/>
<path opacity="0.8" fill-rule="evenodd" clip-rule="evenodd" d="M363.111 221.972C363.111 222.848 342.703 223.484 317.53 223.484C292.357 223.484 271.949 222.768 271.949 221.972C271.949 221.097 292.357 220.461 317.53 220.461C342.624 220.381 363.111 221.097 363.111 221.972Z" fill="#9C84B8"/>
<path fill-rule="evenodd" clip-rule="evenodd" d="M275.602 218.869L274.728 219.108L274.887 219.744L276.555 220.142V218.631L275.602 218.869Z" fill="url(#paint88_radial_30_10943)"/>
<path fill-rule="evenodd" clip-rule="evenodd" d="M349.294 213.459L355.488 213.38C355.488 213.38 356.997 215.369 355.964 216.96L349.532 217.835L349.294 213.459Z" fill="url(#paint89_linear_30_10943)"/>
<path fill-rule="evenodd" clip-rule="evenodd" d="M282.431 216.562L282.669 221.574L276.555 220.301V218.312L282.431 216.562Z" fill="url(#paint90_linear_30_10943)"/>
<path fill-rule="evenodd" clip-rule="evenodd" d="M282.431 216.562C282.431 216.562 289.816 213.857 302.918 215.21L303.316 221.018C303.316 221.018 289.895 223.882 282.669 221.495L282.431 216.562Z" fill="url(#paint91_linear_30_10943)"/>
<path fill-rule="evenodd" clip-rule="evenodd" d="M302.918 215.289L348.817 212.505C348.817 212.505 350.644 215.21 349.373 219.108L303.395 221.097L302.918 215.289Z" fill="url(#paint92_linear_30_10943)"/>
<path fill-rule="evenodd" clip-rule="evenodd" d="M346.912 219.188V221.097C346.912 221.097 342.862 223.086 335.953 223.007C329.044 222.848 325.074 221.813 320.309 221.972L319.356 221.336C319.356 221.336 320.309 221.336 324.359 220.938C324.359 220.938 340.956 221.415 345.562 219.824L345.482 219.188H346.912Z" fill="url(#paint93_linear_30_10943)"/>
<path fill-rule="evenodd" clip-rule="evenodd" d="M341.432 212.902C341.432 212.902 342.624 216.005 341.512 219.347L338.018 219.506C338.018 219.506 338.494 216.005 337.938 213.061L341.432 212.902Z" fill="url(#paint94_radial_30_10943)"/>
<path opacity="0.4" fill-rule="evenodd" clip-rule="evenodd" d="M304.745 219.506L349.294 217.039C349.294 217.039 349.453 218.153 348.976 218.79L304.666 220.381L304.745 219.506Z" fill="url(#paint95_radial_30_10943)"/>
<path fill-rule="evenodd" clip-rule="evenodd" d="M500.729 128.647C500.729 130.238 499.458 131.511 497.87 131.511C496.282 131.511 495.011 130.238 495.011 128.647C495.011 127.056 496.282 125.783 497.87 125.783C499.458 125.703 500.729 127.056 500.729 128.647Z" fill="url(#paint96_linear_30_10943)"/>
<path fill-rule="evenodd" clip-rule="evenodd" d="M156.725 54.8935C156.725 56.4847 155.454 57.7577 153.866 57.7577C152.278 57.7577 151.007 56.4847 151.007 54.8935C151.007 53.3023 152.278 52.0293 153.866 52.0293C155.454 52.0293 156.725 53.3023 156.725 54.8935Z" fill="url(#paint97_linear_30_10943)"/>
<path d="M86.6058 110.507C87.8338 110.507 88.8293 109.509 88.8293 108.279C88.8293 107.049 87.8338 106.051 86.6058 106.051C85.3778 106.051 84.3823 107.049 84.3823 108.279C84.3823 109.509 85.3778 110.507 86.6058 110.507Z" fill="url(#paint98_linear_30_10943)"/>
<path d="M442.918 44.2323C444.146 44.2323 445.142 43.2349 445.142 42.0046C445.142 40.7742 444.146 39.7769 442.918 39.7769C441.69 39.7769 440.695 40.7742 440.695 42.0046C440.695 43.2349 441.69 44.2323 442.918 44.2323Z" fill="#26F1FF"/>
<path fill-rule="evenodd" clip-rule="evenodd" d="M132.981 120.134C132.981 121.407 131.949 122.362 130.758 122.362C129.567 122.362 128.534 121.327 128.534 120.134C128.534 118.861 129.567 117.906 130.758 117.906C131.949 117.906 132.981 118.861 132.981 120.134Z" fill="url(#paint99_linear_30_10943)"/>
<path fill-rule="evenodd" clip-rule="evenodd" d="M491.199 131.511C491.199 132.068 490.723 132.545 490.167 132.545C489.611 132.545 489.135 132.068 489.135 131.511C489.135 130.954 489.611 130.477 490.167 130.477C490.723 130.397 491.199 130.875 491.199 131.511Z" fill="url(#paint100_linear_30_10943)"/>
<path d="M398.052 207.333C398.369 207.651 398.608 207.969 398.766 208.208C398.925 208.447 399.005 208.686 399.005 208.845C399.005 209.004 399.005 209.163 398.925 209.322C398.846 209.402 398.766 209.561 398.687 209.64C398.608 209.72 398.449 209.799 398.369 209.799C398.211 209.799 398.131 209.879 398.052 209.879C397.972 209.879 397.893 209.879 397.814 209.879C397.734 209.879 397.575 209.879 397.496 209.799C397.337 209.799 397.258 209.72 397.099 209.72C396.94 209.64 396.781 209.64 396.543 209.561C395.908 208.845 395.59 208.526 394.955 207.89C395.352 208.129 395.669 208.288 395.987 208.367C396.225 208.447 396.464 208.447 396.622 208.447C396.861 208.447 397.019 208.367 397.019 208.129C397.019 207.97 396.781 207.651 396.543 207.413C396.305 207.174 396.067 207.015 395.669 206.697C395.272 206.458 394.796 206.14 394.319 205.901C393.922 205.662 393.525 205.503 393.208 205.264C392.811 205.026 392.493 204.787 392.096 204.628C391.778 204.389 391.381 204.151 391.064 203.912C390.746 203.673 390.428 203.355 390.111 203.037C389.714 202.639 389.476 202.321 389.317 202.082C389.158 201.843 388.999 201.605 388.999 201.366C388.999 201.207 389.078 201.048 389.237 200.968C389.396 200.889 389.634 200.809 389.952 200.809C390.19 200.809 390.508 200.809 390.905 200.889C391.302 200.968 391.699 201.048 392.175 201.127C392.652 201.684 392.89 201.923 393.367 202.559C393.128 202.4 392.811 202.321 392.572 202.241C392.334 202.161 392.175 202.082 391.937 202.082C391.778 202.082 391.62 202.002 391.461 202.002C391.302 202.002 391.223 202.002 391.143 202.002C390.984 202.002 390.905 202.002 390.825 202.082C390.746 202.162 390.746 202.241 390.746 202.321C390.746 202.4 390.825 202.559 390.905 202.639C390.984 202.798 391.064 202.878 391.222 203.037C391.461 203.275 391.699 203.434 391.937 203.673C392.255 203.832 392.493 204.071 392.89 204.23C393.208 204.389 393.605 204.628 394.002 204.787C394.399 204.946 394.875 205.185 395.272 205.424C395.669 205.662 396.146 205.98 396.622 206.299C397.178 206.458 397.575 206.856 398.052 207.333Z" fill="white"/>
<path d="M398.925 201.923C398.687 201.923 398.369 201.923 398.052 201.923C397.734 201.923 397.417 201.923 397.099 201.923C397.417 202.241 397.734 202.639 398.131 203.037C398.528 203.435 398.925 203.832 399.322 204.23C399.719 204.628 400.196 205.105 400.593 205.503C401.069 205.901 401.466 206.378 401.943 206.776C402.419 207.253 402.975 207.731 403.452 208.208C403.928 208.686 404.405 209.083 404.881 209.481C403.928 209.481 403.452 209.481 402.578 209.481C401.943 208.765 401.228 207.97 400.434 207.174C399.64 206.378 398.846 205.503 397.972 204.707C397.417 204.151 396.94 203.673 396.384 203.196C395.908 202.718 395.431 202.241 394.955 201.843C394.637 201.843 394.32 201.843 394.081 201.843C393.843 201.843 393.605 201.843 393.367 201.843C392.89 201.366 392.652 201.127 392.255 200.729C392.493 200.729 392.731 200.729 393.049 200.729C393.367 200.729 393.605 200.729 394.002 200.729C394.32 200.729 394.637 200.729 395.034 200.729C395.431 200.729 395.749 200.729 396.146 200.729C396.464 200.729 396.861 200.729 397.178 200.729C397.496 200.729 397.814 200.729 398.052 200.729C398.29 201.286 398.449 201.525 398.925 201.923Z" fill="white"/>
<path d="M413.06 209.561C412.742 209.322 412.425 209.004 412.028 208.765C411.71 208.447 411.313 208.208 410.916 207.89C410.519 207.89 410.201 207.89 409.804 207.81C409.407 207.81 409.09 207.81 408.772 207.81C408.693 207.81 408.693 207.81 408.613 207.81C408.931 208.129 409.169 208.447 409.407 208.686C409.645 209.004 409.963 209.242 410.201 209.561C408.931 209.561 408.295 209.561 407.104 209.561C406.151 208.129 404.96 206.537 403.769 205.026C402.578 203.514 401.307 202.082 400.354 200.809C401.784 200.809 402.499 200.809 403.928 200.809C405.437 202.002 407.422 203.434 409.566 204.946C411.71 206.458 414.013 208.049 416.078 209.402C414.887 209.481 414.251 209.561 413.06 209.561ZM403.61 202.162C404.166 202.878 404.881 203.594 405.516 204.389C406.231 205.185 406.946 205.98 407.66 206.776C407.819 206.776 408.057 206.776 408.216 206.776C408.375 206.776 408.613 206.776 408.772 206.776C409.09 206.776 409.248 206.776 409.566 206.776C408.534 205.98 407.501 205.185 406.469 204.389C405.516 203.673 404.563 202.878 403.61 202.162Z" fill="white"/>
<path d="M415.919 203.116C416.236 203.355 416.554 203.673 416.792 203.991C417.03 204.31 417.269 204.548 417.427 204.867C417.586 205.105 417.666 205.424 417.666 205.662C417.666 205.901 417.507 206.14 417.269 206.299C418.38 206.935 419.492 207.492 420.604 208.049C421.716 208.606 422.748 209.083 423.78 209.481C422.907 209.481 422.43 209.561 421.398 209.561C419.492 208.526 418.38 207.89 416.157 206.617C416.792 207.174 417.428 207.651 418.063 208.129C418.698 208.606 419.254 209.083 419.81 209.481C418.698 209.481 418.142 209.481 416.951 209.481C416.157 208.606 415.204 207.731 414.172 206.697C413.139 205.742 412.028 204.708 410.916 203.753C410.281 203.196 409.645 202.639 409.089 202.162C408.534 201.684 407.978 201.207 407.422 200.729C407.74 200.65 408.137 200.65 408.534 200.65C408.931 200.65 409.248 200.65 409.487 200.65C409.645 200.65 409.884 200.65 410.201 200.65C410.519 200.65 410.837 200.729 411.154 200.729C411.472 200.809 411.869 200.889 412.266 200.968C412.663 201.048 413.06 201.207 413.457 201.366C413.854 201.525 414.251 201.764 414.728 202.002C415.204 202.241 415.442 202.718 415.919 203.116ZM414.886 205.583C415.125 205.503 415.283 205.503 415.363 205.424C415.442 205.344 415.522 205.264 415.522 205.105C415.522 205.026 415.522 204.867 415.442 204.787C415.363 204.628 415.363 204.548 415.283 204.389C415.125 204.071 414.807 203.832 414.489 203.514C414.489 203.514 414.41 203.435 414.331 203.355C414.251 203.275 414.092 203.116 413.854 203.037C413.695 202.878 413.457 202.719 413.219 202.559C412.981 202.4 412.742 202.241 412.425 202.082C412.107 201.923 411.869 201.843 411.551 201.684C411.234 201.605 410.916 201.525 410.598 201.446C411.154 202.002 411.789 202.639 412.425 203.275C413.139 203.912 413.854 204.628 414.648 205.264C414.648 205.424 414.728 205.503 414.886 205.583Z" fill="white"/>
<path d="M418.54 201.843C418.46 201.843 418.301 201.843 418.143 201.843C417.984 201.843 417.825 201.843 417.666 201.843C418.063 202.162 418.46 202.559 418.937 202.957C419.413 203.355 419.89 203.832 420.445 204.23C421.001 204.707 421.557 205.185 422.113 205.583C422.669 206.06 423.225 206.537 423.701 206.935C424.337 207.413 424.892 207.89 425.369 208.288C425.845 208.686 426.322 209.083 426.719 209.402C426.163 209.402 425.925 209.402 425.21 209.402C424.575 208.845 423.781 208.129 422.828 207.333C421.875 206.537 420.843 205.662 419.81 204.787C419.175 204.23 418.46 203.673 417.825 203.196C417.19 202.718 416.634 202.241 416.157 201.764C415.919 201.764 415.681 201.764 415.443 201.764C415.204 201.764 414.966 201.764 414.807 201.764C414.251 201.286 414.013 201.048 413.616 200.729C413.854 200.729 414.093 200.729 414.331 200.729C414.569 200.729 414.807 200.729 415.046 200.729C415.284 200.729 415.522 200.729 415.76 200.729C415.999 200.729 416.237 200.729 416.396 200.729C416.554 200.729 416.793 200.729 416.872 200.729C417.031 200.729 417.11 200.729 417.269 200.729C417.825 201.207 418.063 201.366 418.54 201.843Z" fill="white"/>
</g>
<defs>
<linearGradient id="paint0_linear_30_10943" x1="158.551" y1="143.923" x2="435.533" y2="143.923" gradientUnits="userSpaceOnUse">
<stop stop-color="#6A11CB"/>
<stop offset="1" stop-color="#2575FC"/>
</linearGradient>
<linearGradient id="paint1_linear_30_10943" x1="165.039" y1="48.1979" x2="193.171" y2="20.1196" gradientUnits="userSpaceOnUse">
<stop stop-color="#6A11CB"/>
<stop offset="1" stop-color="#2575FC"/>
</linearGradient>
<linearGradient id="paint2_linear_30_10943" x1="437.483" y1="99.3476" x2="494.489" y2="67.1596" gradientUnits="userSpaceOnUse">
<stop stop-color="#6A11CB"/>
<stop offset="1" stop-color="#2575FC"/>
</linearGradient>
<linearGradient id="paint3_linear_30_10943" x1="55.8366" y1="66.3527" x2="68.3021" y2="53.911" gradientUnits="userSpaceOnUse">
<stop stop-color="#6A11CB"/>
<stop offset="1" stop-color="#2575FC"/>
</linearGradient>
<linearGradient id="paint4_linear_30_10943" x1="244.374" y1="178.368" x2="244.374" y2="158.479" gradientUnits="userSpaceOnUse">
<stop stop-color="#FF3434"/>
<stop offset="0.998" stop-color="#E00047"/>
</linearGradient>
<linearGradient id="paint5_linear_30_10943" x1="76.8526" y1="152.184" x2="76.8526" y2="120.109" gradientUnits="userSpaceOnUse">
<stop stop-color="#FFD328"/>
<stop offset="1" stop-color="#FFA700"/>
</linearGradient>
<linearGradient id="paint6_linear_30_10943" x1="396.204" y1="55.7957" x2="396.204" y2="23.7199" gradientUnits="userSpaceOnUse">
<stop stop-color="#FF3434"/>
<stop offset="0.998" stop-color="#E00047"/>
</linearGradient>
<radialGradient id="paint7_radial_30_10943" cx="0" cy="0" r="1" gradientUnits="userSpaceOnUse" gradientTransform="translate(297.042 235.144) scale(213.79 168.939)">
<stop stop-color="#EBD7E3"/>
<stop offset="0.9829" stop-color="#BDAFD2"/>
</radialGradient>
<radialGradient id="paint8_radial_30_10943" cx="0" cy="0" r="1" gradientUnits="userSpaceOnUse" gradientTransform="translate(297.042 286.652) scale(209.694 165.702)">
<stop stop-color="#8177A1"/>
<stop offset="0.9829" stop-color="#775BA3"/>
</radialGradient>
<radialGradient id="paint9_radial_30_10943" cx="0" cy="0" r="1" gradientUnits="userSpaceOnUse" gradientTransform="translate(297.042 268.783) scale(209.784 210.183)">
<stop offset="0.0111732" stop-color="white"/>
<stop offset="0.9829" stop-color="#BDAFD2"/>
</radialGradient>
<linearGradient id="paint10_linear_30_10943" x1="27.0687" y1="245.297" x2="556.757" y2="245.297" gradientUnits="userSpaceOnUse">
<stop offset="0.0111732" stop-color="white"/>
<stop offset="0.9829" stop-color="#BDAFD2"/>
</linearGradient>
<linearGradient id="paint11_linear_30_10943" x1="50.5547" y1="229.125" x2="549.424" y2="229.125" gradientUnits="userSpaceOnUse">
<stop offset="0.0171145" stop-color="#BDAFD2"/>
<stop offset="0.9888" stop-color="white"/>
</linearGradient>
<linearGradient id="paint12_linear_30_10943" x1="118.791" y1="265.376" x2="118.791" y2="201.808" gradientUnits="userSpaceOnUse">
<stop offset="0.0171145" stop-color="#E2DCEB"/>
<stop offset="1" stop-color="white"/>
</linearGradient>
<linearGradient id="paint13_linear_30_10943" x1="506.944" y1="269.617" x2="506.944" y2="205.237" gradientUnits="userSpaceOnUse">
<stop offset="0.0171145" stop-color="#E2DCEB"/>
<stop offset="1" stop-color="white"/>
</linearGradient>
<linearGradient id="paint14_linear_30_10943" x1="205.059" y1="275.556" x2="205.059" y2="213.139" gradientUnits="userSpaceOnUse">
<stop stop-color="#FF8647"/>
<stop offset="1" stop-color="#FFB934"/>
</linearGradient>
<linearGradient id="paint15_linear_30_10943" x1="152.155" y1="244.347" x2="257.963" y2="244.347" gradientUnits="userSpaceOnUse">
<stop stop-color="#C72A16"/>
<stop offset="0.998" stop-color="#BA2244"/>
</linearGradient>
<linearGradient id="paint16_linear_30_10943" x1="203.501" y1="269.244" x2="203.501" y2="210.013" gradientUnits="userSpaceOnUse">
<stop offset="0.0171145" stop-color="#E2DCEB"/>
<stop offset="1" stop-color="white"/>
</linearGradient>
<radialGradient id="paint17_radial_30_10943" cx="0" cy="0" r="1" gradientUnits="userSpaceOnUse" gradientTransform="translate(158.38 243.033) scale(48.1279 48.2196)">
<stop stop-color="#EBD7E3"/>
<stop offset="0.9829" stop-color="#BDAFD2"/>
</radialGradient>
<radialGradient id="paint18_radial_30_10943" cx="0" cy="0" r="1" gradientUnits="userSpaceOnUse" gradientTransform="translate(218.557 212.257) scale(13.7292 13.7554)">
<stop stop-color="#AEA8C2"/>
<stop offset="0.9829" stop-color="#8C74B1"/>
</radialGradient>
<radialGradient id="paint19_radial_30_10943" cx="0" cy="0" r="1" gradientUnits="userSpaceOnUse" gradientTransform="translate(218.557 211.847) scale(13.6845 13.7106)">
<stop stop-color="#DDBCD0"/>
<stop offset="0.9829" stop-color="#A794C3"/>
</radialGradient>
<linearGradient id="paint20_linear_30_10943" x1="200.99" y1="210.287" x2="237.708" y2="210.287" gradientUnits="userSpaceOnUse">
<stop/>
<stop offset="0.08447" stop-color="#1C1104"/>
<stop offset="0.3434" stop-color="#6B4310"/>
<stop offset="0.5735" stop-color="#AB6A1A"/>
<stop offset="0.7663" stop-color="#D88721"/>
<stop offset="0.9144" stop-color="#F59825"/>
<stop offset="1" stop-color="#FF9F27"/>
</linearGradient>
<linearGradient id="paint21_linear_30_10943" x1="182.318" y1="234.636" x2="281.958" y2="243.824" gradientUnits="userSpaceOnUse">
<stop stop-color="#603082"/>
<stop offset="0.9944" stop-color="#2A0E51"/>
</linearGradient>
<radialGradient id="paint22_radial_30_10943" cx="0" cy="0" r="1" gradientUnits="userSpaceOnUse" gradientTransform="translate(238.619 223.328) rotate(5.28847) scale(41.6079 36.3148)">
<stop stop-color="#5178FE"/>
<stop offset="0.9944" stop-color="#713592"/>
</radialGradient>
<linearGradient id="paint23_linear_30_10943" x1="214.004" y1="249.83" x2="216.168" y2="226.453" gradientUnits="userSpaceOnUse">
<stop offset="0.00558661" stop-color="#9059B0"/>
<stop offset="1" stop-color="#778DFB"/>
</linearGradient>
<linearGradient id="paint24_linear_30_10943" x1="262.561" y1="253.581" x2="265.115" y2="225.991" gradientUnits="userSpaceOnUse">
<stop offset="0.00558661" stop-color="#9059B0"/>
<stop offset="1" stop-color="#778DFB"/>
</linearGradient>
<linearGradient id="paint25_linear_30_10943" x1="376.413" y1="165.151" x2="462.056" y2="165.151" gradientUnits="userSpaceOnUse">
<stop stop-color="#FF7C7C"/>
<stop offset="0.984" stop-color="#FFB88E"/>
</linearGradient>
<linearGradient id="paint26_linear_30_10943" x1="384.669" y1="156.011" x2="407.74" y2="156.011" gradientUnits="userSpaceOnUse">
<stop stop-color="#FFEADB"/>
<stop offset="0.9944" stop-color="#EA90B6"/>
</linearGradient>
<linearGradient id="paint27_linear_30_10943" x1="409.661" y1="172.689" x2="443.466" y2="172.689" gradientUnits="userSpaceOnUse">
<stop offset="0.00558659" stop-color="#C27CB6"/>
<stop offset="1" stop-color="#FFEADB"/>
</linearGradient>
<linearGradient id="paint28_linear_30_10943" x1="410.147" y1="142.037" x2="410.147" y2="131.485" gradientUnits="userSpaceOnUse">
<stop stop-color="#CF6074"/>
<stop offset="1" stop-color="#F36059"/>
</linearGradient>
<linearGradient id="paint29_linear_30_10943" x1="408.492" y1="185.247" x2="408.492" y2="150.931" gradientUnits="userSpaceOnUse">
<stop stop-color="#DD575C"/>
<stop offset="1" stop-color="#CF4F74"/>
</linearGradient>
<linearGradient id="paint30_linear_30_10943" x1="376.413" y1="145.841" x2="409.661" y2="145.841" gradientUnits="userSpaceOnUse">
<stop stop-color="#FFEADB"/>
<stop offset="0.9944" stop-color="#C27CB6"/>
</linearGradient>
<linearGradient id="paint31_linear_30_10943" x1="408.688" y1="185.247" x2="408.688" y2="154.131" gradientUnits="userSpaceOnUse">
<stop stop-color="#F0CCD3"/>
<stop offset="1" stop-color="#A45CBB"/>
</linearGradient>
<linearGradient id="paint32_linear_30_10943" x1="441.726" y1="188.886" x2="441.726" y2="171.976" gradientUnits="userSpaceOnUse">
<stop stop-color="#A45CBB"/>
<stop offset="1" stop-color="#F0CCD3"/>
</linearGradient>
<linearGradient id="paint33_linear_30_10943" x1="487.409" y1="303.062" x2="487.409" y2="170.957" gradientUnits="userSpaceOnUse">
<stop stop-color="#5F2C95"/>
<stop offset="1" stop-color="#6456C0"/>
</linearGradient>
<radialGradient id="paint34_radial_30_10943" cx="0" cy="0" r="1" gradientUnits="userSpaceOnUse" gradientTransform="translate(485.712 203.233) scale(37.2809 103.764)">
<stop stop-color="#5B2AA4"/>
<stop offset="0.9944" stop-color="#481A72"/>
</radialGradient>
<linearGradient id="paint35_linear_30_10943" x1="440.34" y1="190.049" x2="463.215" y2="190.049" gradientUnits="userSpaceOnUse">
<stop stop-color="#755CBB"/>
<stop offset="1" stop-color="#CCCCFF"/>
</linearGradient>
<linearGradient id="paint36_linear_30_10943" x1="446.301" y1="210.196" x2="456.074" y2="210.196" gradientUnits="userSpaceOnUse">
<stop stop-color="#755CBB"/>
<stop offset="1" stop-color="#CCCCFF"/>
</linearGradient>
<linearGradient id="paint37_linear_30_10943" x1="458.239" y1="274.51" x2="473.676" y2="274.51" gradientUnits="userSpaceOnUse">
<stop stop-color="#755CBB"/>
<stop offset="1" stop-color="#CCCCFF"/>
</linearGradient>
<linearGradient id="paint38_linear_30_10943" x1="179.3" y1="229.77" x2="179.3" y2="142.714" gradientUnits="userSpaceOnUse">
<stop offset="0.0159875" stop-color="#FFB88E"/>
<stop offset="1" stop-color="#FF7C7C"/>
</linearGradient>
<linearGradient id="paint39_linear_30_10943" x1="208.154" y1="156.665" x2="208.154" y2="147.838" gradientUnits="userSpaceOnUse">
<stop stop-color="#DD575C"/>
<stop offset="1" stop-color="#CF4F74"/>
</linearGradient>
<linearGradient id="paint40_linear_30_10943" x1="194.146" y1="194.347" x2="194.146" y2="188.923" gradientUnits="userSpaceOnUse">
<stop stop-color="#DD575C"/>
<stop offset="1" stop-color="#CF4F74"/>
</linearGradient>
<linearGradient id="paint41_linear_30_10943" x1="149.125" y1="159.279" x2="149.188" y2="159.279" gradientUnits="userSpaceOnUse">
<stop offset="0.00558659" stop-color="#C27CB6"/>
<stop offset="1" stop-color="#FFEADB"/>
</linearGradient>
<linearGradient id="paint42_linear_30_10943" x1="179.241" y1="216.181" x2="179.241" y2="142.714" gradientUnits="userSpaceOnUse">
<stop offset="0.00558659" stop-color="#DB95B6"/>
<stop offset="1" stop-color="#FFEADB"/>
</linearGradient>
<linearGradient id="paint43_linear_30_10943" x1="157.905" y1="157.649" x2="166.268" y2="157.649" gradientUnits="userSpaceOnUse">
<stop offset="0.00558659" stop-color="#C27CB6"/>
<stop offset="1" stop-color="#FFEADB"/>
</linearGradient>
<linearGradient id="paint44_linear_30_10943" x1="168.795" y1="157.314" x2="181.393" y2="157.314" gradientUnits="userSpaceOnUse">
<stop offset="0.00558659" stop-color="#C27CB6"/>
<stop offset="1" stop-color="#FFEADB"/>
</linearGradient>
<linearGradient id="paint45_linear_30_10943" x1="180.142" y1="158.492" x2="192.983" y2="158.492" gradientUnits="userSpaceOnUse">
<stop offset="0.00558659" stop-color="#C27CB6"/>
<stop offset="1" stop-color="#FFEADB"/>
</linearGradient>
<linearGradient id="paint46_linear_30_10943" x1="191.78" y1="199.306" x2="191.78" y2="156.677" gradientUnits="userSpaceOnUse">
<stop stop-color="#FFEADB"/>
<stop offset="0.9944" stop-color="#C27CB6"/>
</linearGradient>
<linearGradient id="paint47_linear_30_10943" x1="189.973" y1="157.395" x2="189.973" y2="149.421" gradientUnits="userSpaceOnUse">
<stop stop-color="#DD575C"/>
<stop offset="1" stop-color="#CF4F74"/>
</linearGradient>
<linearGradient id="paint48_linear_30_10943" x1="176.969" y1="155.956" x2="176.969" y2="150.28" gradientUnits="userSpaceOnUse">
<stop stop-color="#DD575C"/>
<stop offset="1" stop-color="#CF4F74"/>
</linearGradient>
<linearGradient id="paint49_linear_30_10943" x1="153.972" y1="214.437" x2="153.972" y2="203.514" gradientUnits="userSpaceOnUse">
<stop stop-color="#A45CBB"/>
<stop offset="1" stop-color="#F0CCD3"/>
</linearGradient>
<radialGradient id="paint50_radial_30_10943" cx="0" cy="0" r="1" gradientUnits="userSpaceOnUse" gradientTransform="translate(105.616 227.374) scale(41.9854 78.7499)">
<stop stop-color="#5B2AA4"/>
<stop offset="0.9944" stop-color="#481A72"/>
</radialGradient>
<linearGradient id="paint51_linear_30_10943" x1="153.822" y1="174.981" x2="159.401" y2="174.981" gradientUnits="userSpaceOnUse">
<stop offset="0.00558659" stop-color="#DB95B6"/>
<stop offset="1" stop-color="#FFEADB"/>
</linearGradient>
<linearGradient id="paint52_linear_30_10943" x1="162.049" y1="176.281" x2="170.613" y2="176.281" gradientUnits="userSpaceOnUse">
<stop offset="0.00558659" stop-color="#DB95B6"/>
<stop offset="1" stop-color="#FFEADB"/>
</linearGradient>
<linearGradient id="paint53_linear_30_10943" x1="167.839" y1="178.025" x2="181.697" y2="178.025" gradientUnits="userSpaceOnUse">
<stop offset="0.00558659" stop-color="#DB95B6"/>
<stop offset="1" stop-color="#FFEADB"/>
</linearGradient>
<linearGradient id="paint54_linear_30_10943" x1="374.44" y1="227.637" x2="447.456" y2="227.637" gradientUnits="userSpaceOnUse">
<stop stop-color="#603082"/>
<stop offset="0.9944" stop-color="#2A0E51"/>
</linearGradient>
<radialGradient id="paint55_radial_30_10943" cx="0" cy="0" r="1" gradientUnits="userSpaceOnUse" gradientTransform="translate(415.687 226.155) scale(26.4569 26.5074)">
<stop stop-color="#FF477E"/>
<stop offset="0.9944" stop-color="#9162AA"/>
</radialGradient>
<radialGradient id="paint56_radial_30_10943" cx="0" cy="0" r="1" gradientUnits="userSpaceOnUse" gradientTransform="translate(419.625 230.023) scale(21.9255 21.9673)">
<stop stop-color="#471371"/>
<stop offset="0.9944" stop-color="#20003B"/>
</radialGradient>
<linearGradient id="paint57_linear_30_10943" x1="377.186" y1="211.93" x2="438.583" y2="211.93" gradientUnits="userSpaceOnUse">
<stop stop-color="#FF3434"/>
<stop offset="0.998" stop-color="#E00047"/>
</linearGradient>
<radialGradient id="paint58_radial_30_10943" cx="0" cy="0" r="1" gradientUnits="userSpaceOnUse" gradientTransform="translate(407.885 205.571) scale(22.2576 22.3)">
<stop stop-color="#FF8427"/>
<stop offset="0.998" stop-color="#FF3347"/>
</radialGradient>
<radialGradient id="paint59_radial_30_10943" cx="0" cy="0" r="1" gradientUnits="userSpaceOnUse" gradientTransform="translate(414.369 218.772) scale(17.723 17.7567)">
<stop stop-color="#FF3434"/>
<stop offset="0.998" stop-color="#E00047"/>
</radialGradient>
<linearGradient id="paint60_linear_30_10943" x1="416.905" y1="239.6" x2="425.193" y2="239.6" gradientUnits="userSpaceOnUse">
<stop offset="0.00558659" stop-color="#2A0E51"/>
<stop offset="1" stop-color="#603082"/>
</linearGradient>
<linearGradient id="paint61_linear_30_10943" x1="305.134" y1="269.994" x2="451.703" y2="269.994" gradientUnits="userSpaceOnUse">
<stop offset="0.00558659" stop-color="#2A0E51"/>
<stop offset="1" stop-color="#603082"/>
</linearGradient>
<linearGradient id="paint62_linear_30_10943" x1="257.114" y1="201.104" x2="339.801" y2="201.104" gradientUnits="userSpaceOnUse">
<stop stop-color="#603082"/>
<stop offset="0.9944" stop-color="#2A0E51"/>
</linearGradient>
<radialGradient id="paint63_radial_30_10943" cx="0" cy="0" r="1" gradientUnits="userSpaceOnUse" gradientTransform="translate(298.457 196.558) scale(29.6176 29.6741)">
<stop stop-color="#8363DA"/>
<stop offset="0.9944" stop-color="#9162AA"/>
</radialGradient>
<radialGradient id="paint64_radial_30_10943" cx="0" cy="0" r="1" gradientUnits="userSpaceOnUse" gradientTransform="translate(299.279 139.535) scale(5.6898 7.56475)">
<stop stop-color="#AEA8C2"/>
<stop offset="0.9829" stop-color="#8C74B1"/>
</radialGradient>
<radialGradient id="paint65_radial_30_10943" cx="0" cy="0" r="1" gradientUnits="userSpaceOnUse" gradientTransform="translate(306.057 85.9622) scale(31.0982 50.9643)">
<stop stop-color="#FFB934"/>
<stop offset="0.8436" stop-color="#FF8647"/>
<stop offset="0.986" stop-color="#FF86A4"/>
</radialGradient>
<linearGradient id="paint66_linear_30_10943" x1="270.449" y1="66.6895" x2="321.904" y2="66.6895" gradientUnits="userSpaceOnUse">
<stop stop-color="#FF7527"/>
<stop offset="0.998" stop-color="#E03347"/>
</linearGradient>
<radialGradient id="paint67_radial_30_10943" cx="0" cy="0" r="1" gradientUnits="userSpaceOnUse" gradientTransform="translate(302.342 65.1907) scale(12.1369 16.1363)">
<stop stop-color="#AEA8C2"/>
<stop offset="0.9829" stop-color="#8C74B1"/>
</radialGradient>
<radialGradient id="paint68_radial_30_10943" cx="0" cy="0" r="1" gradientUnits="userSpaceOnUse" gradientTransform="translate(303.595 44.2049) scale(21.4812 28.5599)">
<stop stop-color="#DDBCD0"/>
<stop offset="0.9829" stop-color="#A794C3"/>
</radialGradient>
<radialGradient id="paint69_radial_30_10943" cx="0" cy="0" r="1" gradientUnits="userSpaceOnUse" gradientTransform="translate(302.88 31.1028) scale(14.7894 19.6629)">
<stop stop-color="#EBD7E3"/>
<stop offset="0.9829" stop-color="#BDAFD2"/>
</radialGradient>
<linearGradient id="paint70_linear_30_10943" x1="266.002" y1="168.424" x2="266.002" y2="100.687" gradientUnits="userSpaceOnUse">
<stop stop-color="#FF3434"/>
<stop offset="0.998" stop-color="#E00047"/>
</linearGradient>
<linearGradient id="paint71_linear_30_10943" x1="326.131" y1="168.424" x2="326.131" y2="100.687" gradientUnits="userSpaceOnUse">
<stop stop-color="#FF3434"/>
<stop offset="0.998" stop-color="#E00047"/>
</linearGradient>
<linearGradient id="paint72_linear_30_10943" x1="298.367" y1="119.673" x2="298.367" y2="103.922" gradientUnits="userSpaceOnUse">
<stop offset="0.00198414" stop-color="#FF3347"/>
<stop offset="1" stop-color="#FF8427"/>
</linearGradient>
<radialGradient id="paint73_radial_30_10943" cx="0" cy="0" r="1" gradientUnits="userSpaceOnUse" gradientTransform="translate(304.346 78.2432) scale(11.493 15.2803)">
<stop stop-color="#DDBCD0"/>
<stop offset="0.9829" stop-color="#A794C3"/>
</radialGradient>
<radialGradient id="paint74_radial_30_10943" cx="0" cy="0" r="1" gradientUnits="userSpaceOnUse" gradientTransform="translate(296.902 95.1317) scale(8.52141 11.3294)">
<stop stop-color="#AEA8C2"/>
<stop offset="0.9829" stop-color="#8C74B1"/>
</radialGradient>
<radialGradient id="paint75_radial_30_10943" cx="0" cy="0" r="1" gradientUnits="userSpaceOnUse" gradientTransform="translate(295.661 92.4998) scale(7.71239 10.2538)">
<stop stop-color="#5178FE"/>
<stop offset="0.9944" stop-color="#713592"/>
</radialGradient>
<radialGradient id="paint76_radial_30_10943" cx="0" cy="0" r="1" gradientUnits="userSpaceOnUse" gradientTransform="translate(268.863 77.3853) scale(2.80382 3.72775)">
<stop stop-color="#5178FE"/>
<stop offset="0.9944" stop-color="#713592"/>
</radialGradient>
<radialGradient id="paint77_radial_30_10943" cx="0" cy="0" r="1" gradientUnits="userSpaceOnUse" gradientTransform="translate(324.346 76.4295) scale(2.66429 3.54213)">
<stop stop-color="#5178FE"/>
<stop offset="0.9944" stop-color="#713592"/>
</radialGradient>
<linearGradient id="paint78_linear_30_10943" x1="307.991" y1="133.264" x2="307.991" y2="66.6583" gradientUnits="userSpaceOnUse">
<stop/>
<stop offset="0.08447" stop-color="#1C1104"/>
<stop offset="0.3434" stop-color="#6B4310"/>
<stop offset="0.5735" stop-color="#AB6A1A"/>
<stop offset="0.7663" stop-color="#D88721"/>
<stop offset="0.9144" stop-color="#F59825"/>
<stop offset="1" stop-color="#FF9F27"/>
</linearGradient>
<linearGradient id="paint79_linear_30_10943" x1="281.94" y1="136.147" x2="281.94" y2="97.758" gradientUnits="userSpaceOnUse">
<stop offset="0.0167598" stop-color="#599FDC"/>
<stop offset="0.111" stop-color="#5597D2"/>
<stop offset="0.2741" stop-color="#4983B5"/>
<stop offset="0.4864" stop-color="#376288"/>
<stop offset="0.7397" stop-color="#1D3448"/>
<stop offset="1"/>
</linearGradient>
<radialGradient id="paint80_radial_30_10943" cx="0" cy="0" r="1" gradientUnits="userSpaceOnUse" gradientTransform="translate(296.178 49.5578) scale(17.5497 17.5831)">
<stop stop-color="#8363DA"/>
<stop offset="0.9944" stop-color="#9162AA"/>
</radialGradient>
<radialGradient id="paint81_radial_30_10943" cx="0" cy="0" r="1" gradientUnits="userSpaceOnUse" gradientTransform="translate(349.593 250.614) scale(9.88424 9.90308)">
<stop stop-color="#EBD7E3"/>
<stop offset="0.9829" stop-color="#BDAFD2"/>
</radialGradient>
<radialGradient id="paint82_radial_30_10943" cx="0" cy="0" r="1" gradientUnits="userSpaceOnUse" gradientTransform="translate(322.35 253.205) scale(21.1129 21.1531)">
<stop stop-color="#EBD7E3"/>
<stop offset="0.9829" stop-color="#BDAFD2"/>
</radialGradient>
<radialGradient id="paint83_radial_30_10943" cx="0" cy="0" r="1" gradientUnits="userSpaceOnUse" gradientTransform="translate(322.347 239.087) scale(15.4224 15.4518)">
<stop stop-color="#EBD7E3"/>
<stop offset="0.9829" stop-color="#BDAFD2"/>
</radialGradient>
<radialGradient id="paint84_radial_30_10943" cx="0" cy="0" r="1" gradientUnits="userSpaceOnUse" gradientTransform="translate(322.351 241.81) scale(12.6088 12.6328)">
<stop stop-color="#C75929"/>
<stop offset="0.9944" stop-color="#743568"/>
</radialGradient>
<radialGradient id="paint85_radial_30_10943" cx="0" cy="0" r="1" gradientUnits="userSpaceOnUse" gradientTransform="translate(315.884 253.825) scale(9.55 9.56822)">
<stop stop-color="#00FFFF"/>
<stop offset="0.9944" stop-color="#26A9FF"/>
</radialGradient>
<linearGradient id="paint86_linear_30_10943" x1="350.609" y1="151.063" x2="350.609" y2="132.261" gradientUnits="userSpaceOnUse">
<stop stop-color="#FFD328"/>
<stop offset="1" stop-color="#FFA700"/>
</linearGradient>
<linearGradient id="paint87_linear_30_10943" x1="153.979" y1="97.7582" x2="181.393" y2="97.7577" gradientUnits="userSpaceOnUse">
<stop stop-color="#00FFFF"/>
<stop offset="0.9944" stop-color="#26A9FF"/>
</linearGradient>
<radialGradient id="paint88_radial_30_10943" cx="0" cy="0" r="1" gradientUnits="userSpaceOnUse" gradientTransform="translate(276.22 219.715) rotate(89.4853) scale(0.746168 0.744756)">
<stop stop-color="#AEA8C2"/>
<stop offset="0.9829" stop-color="#8C74B1"/>
</radialGradient>
<linearGradient id="paint89_linear_30_10943" x1="352.785" y1="213.403" x2="352.824" y2="217.777" gradientUnits="userSpaceOnUse">
<stop stop-color="#FF3434"/>
<stop offset="0.998" stop-color="#E00047"/>
</linearGradient>
<linearGradient id="paint90_linear_30_10943" x1="279.583" y1="216.626" x2="279.627" y2="221.567" gradientUnits="userSpaceOnUse">
<stop stop-color="#603082"/>
<stop offset="0.9944" stop-color="#2A0E51"/>
</linearGradient>
<linearGradient id="paint91_linear_30_10943" x1="292.878" y1="214.911" x2="292.946" y2="222.476" gradientUnits="userSpaceOnUse">
<stop stop-color="#FF3434"/>
<stop offset="0.998" stop-color="#E00047"/>
</linearGradient>
<linearGradient id="paint92_linear_30_10943" x1="326.343" y1="212.673" x2="326.417" y2="220.863" gradientUnits="userSpaceOnUse">
<stop stop-color="#603082"/>
<stop offset="0.9944" stop-color="#2A0E51"/>
</linearGradient>
<linearGradient id="paint93_linear_30_10943" x1="333.131" y1="219.287" x2="333.165" y2="223.026" gradientUnits="userSpaceOnUse">
<stop stop-color="#603082"/>
<stop offset="0.9944" stop-color="#2A0E51"/>
</linearGradient>
<radialGradient id="paint94_radial_30_10943" cx="0" cy="0" r="1" gradientUnits="userSpaceOnUse" gradientTransform="translate(341.183 216.615) rotate(89.4853) scale(3.38648 2.79868)">
<stop stop-color="#EBD7E3"/>
<stop offset="0.9829" stop-color="#BDAFD2"/>
</radialGradient>
<radialGradient id="paint95_radial_30_10943" cx="0" cy="0" r="1" gradientUnits="userSpaceOnUse" gradientTransform="translate(326.98 218.739) rotate(89.4853) scale(15.8785 15.8483)">
<stop stop-color="#C0A9B1"/>
<stop offset="0.1064" stop-color="#B6A0A7"/>
<stop offset="0.2905" stop-color="#99878D"/>
<stop offset="0.53" stop-color="#6C5F63"/>
<stop offset="0.8126" stop-color="#2D282A"/>
<stop offset="1"/>
</radialGradient>
<linearGradient id="paint96_linear_30_10943" x1="497.875" y1="131.485" x2="497.875" y2="125.738" gradientUnits="userSpaceOnUse">
<stop stop-color="#FF3434"/>
<stop offset="0.998" stop-color="#E00047"/>
</linearGradient>
<linearGradient id="paint97_linear_30_10943" x1="150.954" y1="54.8769" x2="156.691" y2="54.8769" gradientUnits="userSpaceOnUse">
<stop stop-color="#FFB934"/>
<stop offset="1" stop-color="#FF8647"/>
</linearGradient>
<linearGradient id="paint98_linear_30_10943" x1="86.5832" y1="110.523" x2="86.5832" y2="106.056" gradientUnits="userSpaceOnUse">
<stop stop-color="#FF3434"/>
<stop offset="0.998" stop-color="#E00047"/>
</linearGradient>
<linearGradient id="paint99_linear_30_10943" x1="128.519" y1="120.109" x2="132.978" y2="120.109" gradientUnits="userSpaceOnUse">
<stop stop-color="#5F2C95"/>
<stop offset="1" stop-color="#6456C0"/>
</linearGradient>
<linearGradient id="paint100_linear_30_10943" x1="489.091" y1="131.485" x2="491.195" y2="131.485" gradientUnits="userSpaceOnUse">
<stop stop-color="#5F2C95"/>
<stop offset="1" stop-color="#6456C0"/>
</linearGradient>
<clipPath id="clip0_30_10943">
<rect width="593" height="304" fill="white"/>
</clipPath>
</defs>
</svg>
