<svg width="146" height="158" viewBox="0 0 146 158" fill="none" xmlns="http://www.w3.org/2000/svg">
<g opacity="0.5">
<path fill-rule="evenodd" clip-rule="evenodd" d="M14.4651 24.9578C15.2511 24.1717 16.4303 24.1717 16.8233 24.9578L18.3954 26.5299C19.1815 27.316 20.3606 27.316 21.1467 26.5299L23.1118 24.9578C23.8979 24.1717 25.077 24.1717 25.4701 24.9578C26.2561 25.7438 26.2561 26.9229 25.4701 27.316C24.684 28.1021 24.684 28.1021 23.8979 28.8881C23.1119 29.6742 23.1119 30.8533 23.8979 31.6394L25.4701 33.2115C26.2561 33.9976 26.2561 35.1767 25.4701 35.5697C24.684 36.3558 23.5049 36.3558 23.1118 35.5697L21.5397 33.9976C20.7536 33.2115 19.5745 33.2115 18.7885 33.9976L17.2163 35.5697C16.4303 36.3558 15.2512 36.3558 14.8581 35.5697C14.072 34.7836 14.072 33.6045 14.8581 33.2115L16.4303 31.6394C17.2163 30.8533 17.2163 29.6742 16.4303 28.8881L14.8581 27.316C13.679 26.9229 13.679 25.7438 14.4651 24.9578Z" fill="url(#paint0_linear_30_18822)"/>
<path fill-rule="evenodd" clip-rule="evenodd" d="M41.1923 24.9578C41.9784 24.1717 43.1575 24.1717 43.5506 24.9578L45.1227 26.5299C45.9088 27.316 47.0879 27.316 47.874 26.5299L49.4461 24.9578C50.2321 24.1717 51.4113 24.1717 51.8043 24.9578C52.5904 25.7438 52.5904 26.9229 51.8043 27.316C51.0182 28.102 51.0182 28.102 50.2322 28.8881C49.4461 29.6742 49.4461 30.8533 50.2322 31.6394L51.8043 33.2115C52.5904 33.9976 52.5904 35.1767 51.8043 35.5697C51.0182 36.3558 49.8391 36.3558 49.4461 35.5697L47.874 33.9976C47.0879 33.2115 45.9088 33.2115 45.1227 33.9976L43.5506 35.5697C42.7645 36.3558 41.5854 36.3558 41.1923 35.5697C40.4063 34.7836 40.4063 33.6045 41.1923 33.2115L42.7645 32.0324C43.5506 31.2463 43.5506 30.0672 42.7645 29.2811L41.1923 27.709C40.4063 26.9229 40.4063 25.7438 41.1923 24.9578Z" fill="url(#paint1_linear_30_18822)"/>
<path fill-rule="evenodd" clip-rule="evenodd" d="M67.525 24.9578C68.3111 24.1717 69.4902 24.1717 69.8832 24.9578L71.4554 26.5299C72.2414 27.316 73.4205 27.316 74.2066 26.5299L75.7787 24.9578C76.5648 24.1717 77.7439 24.1717 78.1369 24.9578C78.923 25.7438 78.923 26.9229 78.1369 27.316C77.3509 28.102 77.3509 28.102 76.5648 28.8881C75.7787 29.6742 75.7787 30.8533 76.5648 31.6394L78.1369 33.2115C78.923 33.9976 78.923 35.1767 78.1369 35.5697C77.3509 36.3558 76.1718 36.3558 75.7787 35.5697L74.2066 33.9976C73.4205 33.2115 72.2414 33.2115 71.4554 33.9976L70.2762 35.9627C69.4902 36.7488 68.3111 36.7488 67.918 35.9627C67.132 35.1767 67.132 33.9976 67.918 33.6045L69.4902 32.0324C70.2763 31.2463 70.2763 30.0672 69.4902 29.2811L67.918 27.709C67.132 26.9229 67.132 25.7438 67.525 24.9578Z" fill="url(#paint2_linear_30_18822)"/>
<path fill-rule="evenodd" clip-rule="evenodd" d="M94.2519 24.9578C95.038 24.1717 96.2171 24.1717 96.6101 24.9578L98.1823 26.5299C98.9683 27.316 100.147 27.316 100.934 26.5299L102.506 24.9578C103.292 24.1717 104.471 24.1717 104.864 24.9578C105.65 25.7438 105.65 26.9229 104.864 27.316C104.078 28.102 104.078 28.102 103.292 28.8881C102.506 29.6742 102.506 30.8533 103.292 31.6394L104.864 33.2115C105.65 33.9976 105.65 35.1767 104.864 35.5697C104.078 36.3558 102.899 36.3558 102.506 35.5697L100.934 33.9976C100.147 33.2115 98.9683 33.2115 98.1823 33.9976L96.6101 35.5697C95.824 36.3558 94.6449 36.3558 94.2519 35.5697C93.4658 34.7836 93.4658 33.6045 94.2519 33.2115L95.8241 31.6394C96.6101 30.8533 96.6101 29.6742 95.8241 28.8881L94.2519 27.316C93.4658 26.9229 93.4658 25.7438 94.2519 24.9578Z" fill="url(#paint3_linear_30_18822)"/>
<path fill-rule="evenodd" clip-rule="evenodd" d="M120.977 24.9578C121.764 24.1717 122.943 24.1717 123.336 24.9578L124.908 26.5299C125.694 27.316 126.873 27.316 127.659 26.5299L129.231 24.9578C130.017 24.1717 131.196 24.1717 131.589 24.9578C132.375 25.7438 132.375 26.9229 131.589 27.316C130.803 28.102 130.803 28.102 130.017 28.8881C129.231 29.6742 129.231 30.8533 130.017 31.6394L131.589 33.2115C132.375 33.9976 132.375 35.1767 131.589 35.5697C130.803 36.3558 129.624 36.3558 129.231 35.5697L127.659 33.9976C126.873 33.2115 125.694 33.2115 124.908 33.9976L123.336 35.5697C122.55 36.3558 121.371 36.3558 120.977 35.5697C120.191 34.7836 120.191 33.6045 120.977 33.2115L122.55 31.6394C123.336 30.8533 123.336 29.6742 122.55 28.8881L120.977 27.316C120.191 26.9229 120.191 25.7438 120.977 24.9578Z" fill="url(#paint4_linear_30_18822)"/>
<path fill-rule="evenodd" clip-rule="evenodd" d="M1.10241 0.589553C1.88848 -0.196518 3.06758 -0.196518 3.46061 0.589553L5.03276 2.16169C5.81883 2.94776 6.99792 2.94776 7.78399 2.16169L9.35614 0.589553C10.1422 -0.196518 11.3213 -0.196518 11.7143 0.589553C12.5004 1.37562 12.5004 2.55473 11.7143 2.94776C11.7143 4.12687 11.3213 4.12687 10.5352 4.91294C9.74917 5.69901 9.74917 6.87811 10.5352 7.66418L12.1074 9.23632C12.8935 10.0224 12.8935 11.2015 12.1074 11.5945C11.3213 12.3806 10.1422 12.3806 9.74917 11.5945L8.17704 10.0224C7.39096 9.23632 6.21186 9.23632 5.42579 10.0224L3.85364 11.9876C3.06757 12.7736 1.88847 12.7736 1.49544 11.9876C0.709366 11.2015 0.709366 10.0224 1.49544 9.62936L3.06758 8.05722C3.85365 7.27115 3.85365 6.09204 3.06758 5.30597L1.49544 3.73383C0.709366 2.55473 0.709372 1.37562 1.10241 0.589553Z" fill="url(#paint5_linear_30_18822)"/>
<path fill-rule="evenodd" clip-rule="evenodd" d="M27.8293 0.589553C28.6154 -0.196518 29.7945 -0.196518 30.1875 0.589553L31.7596 2.16169C32.5457 2.94776 33.7248 2.94776 34.5109 2.16169L36.083 0.589553C37.2621 0.196518 38.0482 0.196518 38.8343 0.589553C39.6203 1.37562 39.6203 2.55473 38.8343 2.94776C38.0482 4.12687 38.0482 4.12687 37.2621 4.91294C36.4761 5.69901 36.4761 6.87811 37.2621 7.66418L38.8343 9.23632C39.6203 10.0224 39.6203 11.2015 38.8343 11.5945C38.0482 12.3806 36.8691 12.3806 36.4761 11.5945L34.9039 10.0224C34.1179 9.23632 32.9387 9.23632 32.1527 10.0224L30.1875 11.9876C29.4014 12.7736 28.2223 12.7736 27.8293 11.9876C27.0432 11.2015 27.0432 10.0224 27.8293 9.62936L29.4014 8.05722C30.1875 7.27115 30.1875 6.09204 29.4014 5.30597L27.8293 3.73383C27.0432 2.55473 27.0432 1.37562 27.8293 0.589553Z" fill="url(#paint6_linear_30_18822)"/>
<path fill-rule="evenodd" clip-rule="evenodd" d="M54.5549 0.589553C55.341 -0.196518 56.5201 -0.196518 56.9131 0.589553L58.4852 2.16169C59.2713 2.94776 60.4504 2.94776 61.2365 2.16169L62.8086 0.589553C63.5947 -0.196518 64.7738 -0.196518 65.1668 0.589553C65.9529 1.37562 65.9529 2.55473 65.1668 2.94776C64.7738 4.12687 64.7738 4.12687 63.9877 4.91294C63.2017 5.69901 63.2017 6.87811 63.9877 7.66418L65.5599 9.23632C66.3459 10.0224 66.3459 11.2015 65.5599 11.9876C64.7738 12.7736 63.5947 12.7736 63.2016 11.9876L61.6295 10.4154C60.8435 9.62936 59.6643 9.62936 58.8783 10.4154L56.9131 11.9876C56.127 12.7736 54.9479 12.7736 54.5549 11.9876C53.7688 11.2015 53.7688 10.0224 54.5549 9.62936L56.127 8.05722C56.9131 7.27115 56.9131 6.09204 56.127 5.30597L54.5549 3.3408C53.7688 2.55473 53.7688 1.37562 54.5549 0.589553Z" fill="url(#paint7_linear_30_18822)"/>
<path fill-rule="evenodd" clip-rule="evenodd" d="M80.8878 0.589553C81.6739 -0.196518 82.853 -0.196518 83.246 0.589553L84.8181 2.16169C85.6042 2.94776 86.7833 2.94776 87.5694 2.16169L89.1416 0.589553C89.9276 -0.196518 91.1067 -0.196518 91.4998 0.589553C92.2858 1.37562 92.2858 2.55473 91.4998 2.94776C91.4998 4.12687 91.1067 4.12687 90.3206 4.91294C89.5346 5.69901 89.5346 6.87811 90.3206 7.66418L91.8928 9.23632C92.6789 10.0224 92.6789 11.2015 91.8928 11.5945C91.1067 12.3806 89.9276 12.3806 89.5346 11.5945L87.9624 10.0224C87.1764 9.23632 85.9973 9.23632 85.2112 10.0224L83.6391 11.9876C82.853 12.7736 81.6739 12.7736 81.2809 11.9876C80.4948 11.2015 80.4948 10.0224 81.2809 9.62936L82.853 8.05722C83.639 7.27115 83.639 6.09204 82.853 5.30597L81.2809 3.73383C80.4948 2.55473 80.4948 1.37562 80.8878 0.589553Z" fill="url(#paint8_linear_30_18822)"/>
<path fill-rule="evenodd" clip-rule="evenodd" d="M107.615 0.589553C108.401 0.196518 109.58 0.196518 109.973 0.589553L111.545 2.16169C112.331 2.94776 113.51 2.94776 114.296 2.16169L115.868 0.589553C116.655 -0.196518 117.834 -0.196518 118.227 0.589553C119.013 1.37562 119.013 2.55473 118.227 2.94776C117.834 4.12687 117.834 4.12687 117.048 4.91294C116.261 5.69901 116.261 6.87811 117.048 7.66418L118.62 9.23632C119.406 10.0224 119.406 11.2015 118.62 11.5945C117.834 12.3806 116.654 12.3806 116.261 11.5945L114.689 10.0224C113.903 9.23632 112.724 9.23632 111.938 10.0224L109.973 11.9876C109.187 12.7736 108.008 12.7736 107.615 11.9876C106.829 11.2015 106.829 10.0224 107.615 9.62936L109.187 8.05722C109.973 7.27115 109.973 6.09204 109.187 5.30597L107.615 3.73383C106.829 2.55473 106.829 1.37562 107.615 0.589553Z" fill="url(#paint9_linear_30_18822)"/>
<path fill-rule="evenodd" clip-rule="evenodd" d="M134.342 0.589553C135.128 -0.196518 136.307 -0.196518 136.7 0.589553L138.273 2.16169C139.059 2.94776 140.238 2.94776 141.024 2.16169L142.596 0.589553C143.382 -0.196518 144.561 -0.196518 144.954 0.589553C145.74 1.37562 145.74 2.55473 144.954 2.94776C144.561 4.12687 144.561 4.12687 143.775 4.91294C142.989 5.69901 142.989 6.87811 143.775 7.66418L145.347 9.23632C146.133 10.0224 146.133 11.2015 145.347 11.5945C144.561 12.3806 143.382 12.3806 142.989 11.5945L141.024 10.0224C140.238 9.23632 139.059 9.23632 138.273 10.0224L136.7 11.9876C135.914 12.7736 134.735 12.7736 134.342 11.9876C133.556 11.2015 133.556 10.0224 134.342 9.62936L135.914 8.05722C136.7 7.27115 136.7 6.09204 135.914 5.30597L134.342 3.73383C133.556 2.55473 133.556 1.37562 134.342 0.589553Z" fill="url(#paint10_linear_30_18822)"/>
<path fill-rule="evenodd" clip-rule="evenodd" d="M14.4646 73.694C15.2506 72.9079 16.4297 72.9079 16.8228 73.694L18.3949 75.2661C19.181 76.0522 20.3601 76.0522 21.1462 75.2661L22.7183 73.694C23.5044 72.9079 24.6835 72.9079 25.0765 73.694C25.8626 74.48 25.8626 75.6591 25.0765 76.0522C24.2904 76.8383 24.2904 76.8383 23.5044 77.6243C22.7183 78.4104 22.7183 79.5895 23.5044 80.3756L25.0765 81.9477C25.8626 82.7338 25.8626 83.9129 25.0765 84.3059C24.2904 85.092 23.1113 85.092 22.7183 84.3059L21.1462 82.7338C20.3601 81.9477 19.181 81.9477 18.3949 82.7338L16.8228 84.3059C16.0367 85.092 14.8576 85.092 14.4646 84.3059C13.6785 83.5198 13.6785 82.3407 14.4646 81.9477L16.0367 80.3756C16.8228 79.5895 16.8228 78.4104 16.0367 77.6243L14.4646 76.0522C13.6785 75.2661 13.6785 74.087 14.4646 73.694Z" fill="url(#paint11_linear_30_18822)"/>
<path fill-rule="evenodd" clip-rule="evenodd" d="M41.1899 73.694C41.976 72.9079 43.1551 72.9079 43.5481 73.694L45.1202 75.2661C45.9063 76.0522 47.0854 76.0522 47.8715 75.2661L49.4436 73.694C50.2297 72.9079 51.4088 72.9079 51.8019 73.694C52.5879 74.48 52.5879 75.6591 51.8019 76.0522C51.0158 76.8382 51.0158 76.8382 50.2297 77.6243C49.4436 78.4104 49.4436 79.5895 50.2297 80.3755L51.8019 81.9477C52.5879 82.7338 52.5879 83.9129 51.8019 84.3059C51.0158 85.092 49.8367 85.092 49.4436 84.3059L47.8715 82.7338C47.0854 81.9477 45.9063 81.9477 45.1202 82.7338L43.5481 84.3059C42.762 85.092 41.5829 85.092 41.1899 84.3059C40.4038 83.5198 40.4038 82.3407 41.1899 81.9477L42.762 80.3755C43.5481 79.5895 43.5481 78.4104 42.762 77.6243L41.1899 76.0522C40.4038 75.2661 40.4038 74.087 41.1899 73.694Z" fill="url(#paint12_linear_30_18822)"/>
<path fill-rule="evenodd" clip-rule="evenodd" d="M67.5245 73.694C68.3106 72.9079 69.4897 72.9079 69.8827 73.694L71.4549 75.2661C72.2409 76.0522 73.42 76.0522 74.2061 75.2661L75.7783 73.694C76.5643 72.9079 77.7434 72.9079 78.1365 73.694C78.9225 74.48 78.9225 75.6591 78.1365 76.0522C77.3504 76.8382 77.3504 76.8382 76.5643 77.6243C75.7782 78.4104 75.7782 79.5895 76.5643 80.3755L78.1365 81.9477C78.9225 82.7338 78.9225 83.9129 78.1365 84.3059C77.3504 85.092 76.1713 85.092 75.7783 84.3059L74.2061 82.7338C73.42 81.9477 72.2409 81.9477 71.4549 82.7338L70.2758 84.6989C69.4897 85.485 68.3106 85.485 67.9176 84.6989C67.1315 83.9129 67.1315 82.7338 67.9176 82.3407L69.4897 80.7686C70.2758 79.9825 70.2758 78.8034 69.4897 78.0173L67.9176 76.4452C67.1315 75.2661 67.1315 74.087 67.5245 73.694Z" fill="url(#paint13_linear_30_18822)"/>
<path fill-rule="evenodd" clip-rule="evenodd" d="M94.2497 73.694C95.0358 72.9079 96.2149 72.9079 96.6079 73.694L98.1801 75.2661C98.9661 76.0522 100.145 76.0522 100.931 75.2661L102.503 73.694C103.29 72.9079 104.469 72.9079 104.862 73.694C105.648 74.48 105.648 75.6591 104.862 76.0522C104.076 76.8382 104.076 76.8382 103.29 77.6243C102.503 78.4104 102.503 79.5895 103.29 80.3755L104.862 81.9477C105.648 82.7338 105.648 83.9129 104.862 84.3059C104.076 85.092 102.896 85.092 102.503 84.3059L100.931 82.7338C100.145 81.9477 98.9661 81.9477 98.1801 82.7338L96.6079 84.3059C95.8218 85.092 94.6427 85.092 94.2497 84.3059C93.4636 83.5198 93.4636 82.3407 94.2497 81.9477L95.8219 80.3755C96.6079 79.5895 96.6079 78.4104 95.8219 77.6243L94.2497 76.0522C93.4636 75.2661 93.4636 74.087 94.2497 73.694Z" fill="url(#paint14_linear_30_18822)"/>
<path fill-rule="evenodd" clip-rule="evenodd" d="M120.977 73.694C121.763 72.9079 122.942 72.9079 123.335 73.694L124.908 75.2661C125.694 76.0522 126.873 76.0522 127.659 75.2661L129.231 73.694C130.017 72.9079 131.196 72.9079 131.589 73.694C132.375 74.48 132.375 75.6591 131.589 76.0522C130.803 76.8382 130.803 76.8382 130.017 77.6243C129.231 78.4104 129.231 79.5895 130.017 80.3755L131.589 81.9477C132.375 82.7338 132.375 83.9129 131.589 84.3059C130.803 85.092 129.624 85.092 129.231 84.3059L127.659 82.7338C126.873 81.9477 125.694 81.9477 124.908 82.7338L123.335 84.3059C122.549 85.092 121.37 85.092 120.977 84.3059C120.191 83.5198 120.191 82.3407 120.977 81.9477L122.549 80.3755C123.335 79.5895 123.335 78.4104 122.549 77.6243L120.977 76.0522C120.191 75.2661 120.191 74.087 120.977 73.694Z" fill="url(#paint15_linear_30_18822)"/>
<path fill-rule="evenodd" clip-rule="evenodd" d="M1.10176 49.326C1.88783 48.5399 3.06693 48.5399 3.45996 49.326L5.03211 50.8981C5.81818 51.6842 6.99727 51.6842 7.78334 50.8981L9.35549 49.326C10.1416 48.5399 11.3207 48.5399 11.7137 49.326C12.4998 50.1121 12.4998 51.2912 11.7137 51.6842C10.9276 52.4703 10.9276 52.4703 10.1416 53.2563C9.35549 54.0424 9.35549 55.2215 10.1416 56.0076L11.7137 57.5797C12.4998 58.3658 12.4998 59.5449 11.7137 59.9379C10.9276 60.724 9.74853 60.724 9.35549 59.9379L7.78334 58.3658C6.99727 57.5797 5.81818 57.5797 5.03211 58.3658L3.45996 59.9379C2.67389 60.724 1.49479 60.724 1.10176 59.9379C0.31569 59.1519 0.31569 57.9728 1.10176 57.5797L2.67389 56.0076C3.45996 55.2215 3.45996 54.0424 2.67389 53.2563L1.10176 51.6842C0.708725 50.8981 0.708725 50.1121 1.10176 49.326Z" fill="url(#paint16_linear_30_18822)"/>
<path fill-rule="evenodd" clip-rule="evenodd" d="M27.8281 49.326C28.6142 48.5399 29.7933 48.5399 30.1863 49.326L31.7585 50.8981C32.5445 51.6842 33.7236 51.6842 34.5097 50.8981L36.0818 49.326C36.8679 48.5399 38.047 48.5399 38.4401 49.326C39.2261 50.112 39.2261 51.2911 38.4401 51.6842C37.654 52.4703 37.654 52.4703 36.8679 53.2563C36.0819 54.0424 36.0819 55.2215 36.8679 56.0076L38.4401 57.5797C39.2261 58.3658 39.2261 59.5449 38.4401 59.9379C37.654 60.724 36.4749 60.724 36.0818 59.9379L34.9027 58.7588C34.1167 57.9727 32.9376 57.9727 32.1515 58.7588L30.5794 60.331C29.7933 61.117 28.6142 61.117 28.2211 60.331C27.4351 59.5449 27.4351 58.3658 28.2211 57.9727L29.7933 56.4006C30.5794 55.6145 30.5794 54.4354 29.7933 53.6494L28.2211 52.0772C27.042 50.8981 27.042 50.112 27.8281 49.326Z" fill="url(#paint17_linear_30_18822)"/>
<path fill-rule="evenodd" clip-rule="evenodd" d="M54.5551 49.326C55.3412 48.5399 56.5203 48.5399 56.9133 49.326L58.4855 50.8981C59.2715 51.6842 60.4506 51.6842 61.2367 50.8981L62.8089 49.326C63.5949 48.5399 64.774 48.5399 65.1671 49.326C65.9531 50.112 65.9531 51.2911 65.1671 51.6842C64.381 52.4703 64.381 52.4703 63.5949 53.2563C62.8089 54.0424 62.8089 55.2215 63.5949 56.0076L65.1671 57.5797C65.9531 58.3658 65.9531 59.5449 65.1671 59.9379C64.381 60.724 63.2019 60.724 62.8089 59.9379L61.2367 58.3658C60.4506 57.5797 59.2715 57.5797 58.4855 58.3658L56.9133 59.9379C56.1273 60.724 54.9482 60.724 54.5551 59.9379C53.7691 59.1518 53.7691 57.9727 54.5551 57.5797L56.1273 56.0076C56.9133 55.2215 56.9133 54.0424 56.1273 53.2563L54.5551 51.6842C53.7691 50.8981 53.7691 50.112 54.5551 49.326Z" fill="url(#paint18_linear_30_18822)"/>
<path fill-rule="evenodd" clip-rule="evenodd" d="M80.8874 49.326C81.6735 48.5399 82.8526 48.5399 83.2456 49.326L84.8178 50.8981C85.6038 51.6842 86.7829 51.6842 87.569 50.8981L89.1412 49.326C89.9272 48.5399 91.1063 48.5399 91.4994 49.326C92.2854 50.112 92.2854 51.2911 91.4994 51.6842C90.7133 52.4703 90.7133 52.4703 89.9272 53.2563C89.1412 54.0424 89.1412 55.2215 89.9272 56.0076L91.4994 57.5797C92.2854 58.3658 92.2854 59.5449 91.4994 59.9379C90.7133 60.724 89.5342 60.724 89.1412 59.9379L87.569 58.3658C86.7829 57.5797 85.6038 57.5797 84.8178 58.3658L83.2456 59.9379C82.4596 60.724 81.2804 60.724 80.8874 59.9379C80.1013 59.1518 80.1013 57.9727 80.8874 57.5797L82.4596 56.0076C83.2456 55.2215 83.2456 54.0424 82.4596 53.2563L80.8874 51.6842C80.4944 50.8981 80.4944 50.112 80.8874 49.326Z" fill="url(#paint19_linear_30_18822)"/>
<path fill-rule="evenodd" clip-rule="evenodd" d="M107.615 49.326C108.401 48.5399 109.58 48.5399 109.973 49.326L111.545 50.8981C112.331 51.6842 113.51 51.6842 114.297 50.8981L115.869 49.326C116.655 48.5399 117.834 48.5399 118.227 49.326C119.013 50.112 119.013 51.2911 118.227 51.6842C117.441 52.4703 117.441 52.4703 116.655 53.2563C115.869 54.0424 115.869 55.2215 116.655 56.0076L118.227 57.5797C119.013 58.3658 119.013 59.5449 118.227 59.9379C117.441 60.724 116.262 60.724 115.869 59.9379L114.297 58.3658C113.51 57.5797 112.331 57.5797 111.545 58.3658L109.973 59.9379C109.187 60.724 108.008 60.724 107.615 59.9379C106.829 59.1518 106.829 57.9727 107.615 57.5797L109.187 56.0076C109.973 55.2215 109.973 54.0424 109.187 53.2563L107.615 51.6842C106.829 50.8981 106.829 50.112 107.615 49.326Z" fill="url(#paint20_linear_30_18822)"/>
<path fill-rule="evenodd" clip-rule="evenodd" d="M134.341 49.326C135.127 48.5399 136.306 48.5399 136.699 49.326L138.271 50.8981C139.057 51.6842 140.236 51.6842 141.022 50.8981L142.594 49.326C143.38 48.5399 144.559 48.5399 144.952 49.326C145.739 50.112 145.739 51.2911 144.952 51.6842C144.166 52.4703 144.166 52.4703 143.38 53.2563C142.594 54.0424 142.594 55.2215 143.38 56.0076L144.952 57.5797C145.739 58.3658 145.739 59.5449 144.952 59.9379C144.166 60.724 142.987 60.724 142.594 59.9379L141.022 58.7588C140.236 57.9727 139.057 57.9727 138.271 58.7588L136.699 60.331C135.913 61.117 134.734 61.117 134.341 60.331C133.554 59.5449 133.554 58.3658 134.341 57.9727L135.913 56.4006C136.699 55.6145 136.699 54.4354 135.913 53.6494L134.341 52.0772C133.554 50.8981 133.554 50.112 134.341 49.326Z" fill="url(#paint21_linear_30_18822)"/>
<path fill-rule="evenodd" clip-rule="evenodd" d="M14.4651 122.037C15.2511 121.251 16.4303 121.251 16.8233 122.037L18.3954 123.61C19.1815 124.396 20.3606 124.396 21.1467 123.61L23.1118 122.037C23.8979 121.251 25.077 121.251 25.4701 122.037C26.2561 122.824 26.2561 124.003 25.4701 124.396C24.684 125.182 24.684 125.182 23.8979 125.968C23.1119 126.754 23.1119 127.933 23.8979 128.719L25.4701 130.291C26.2561 131.077 26.2561 132.256 25.4701 132.649C24.684 133.436 23.5049 133.436 23.1118 132.649L21.5397 131.077C20.7536 130.291 19.5745 130.291 18.7885 131.077L17.2163 132.649C16.4303 133.436 15.2512 133.436 14.8581 132.649C14.072 131.863 14.072 130.684 14.8581 130.291L16.4303 128.719C17.2163 127.933 17.2163 126.754 16.4303 125.968L14.8581 124.396C13.679 124.003 13.679 122.824 14.4651 122.037Z" fill="url(#paint22_linear_30_18822)"/>
<path fill-rule="evenodd" clip-rule="evenodd" d="M41.1923 122.037C41.9784 121.251 43.1575 121.251 43.5506 122.037L45.1227 123.61C45.9088 124.396 47.0879 124.396 47.874 123.61L49.4461 122.037C50.2321 121.251 51.4113 121.251 51.8043 122.037C52.5904 122.824 52.5904 124.003 51.8043 124.396C51.0182 125.182 51.0182 125.182 50.2322 125.968C49.4461 126.754 49.4461 127.933 50.2322 128.719L51.8043 130.291C52.5904 131.077 52.5904 132.256 51.8043 132.649C51.0182 133.435 49.8391 133.435 49.4461 132.649L47.874 131.077C47.0879 130.291 45.9088 130.291 45.1227 131.077L43.5506 132.649C42.7645 133.435 41.5854 133.435 41.1923 132.649C40.4063 131.863 40.4063 130.684 41.1923 130.291L42.7645 128.719C43.5506 127.933 43.5506 126.754 42.7645 125.968L41.1923 124.396C40.4063 124.003 40.4063 122.824 41.1923 122.037Z" fill="url(#paint23_linear_30_18822)"/>
<path fill-rule="evenodd" clip-rule="evenodd" d="M67.525 122.037C68.3111 121.251 69.4902 121.251 69.8832 122.037L71.4554 123.61C72.2414 124.396 73.4205 124.396 74.2066 123.61L75.7787 122.037C76.5648 121.251 77.7439 121.251 78.1369 122.037C78.923 122.824 78.923 124.003 78.1369 124.396C77.3509 125.182 77.3509 125.182 76.5648 125.968C75.7787 126.754 75.7787 127.933 76.5648 128.719L78.1369 130.291C78.923 131.077 78.923 132.256 78.1369 132.649C77.3509 133.435 76.1718 133.435 75.7787 132.649L74.2066 131.077C73.4205 130.291 72.2414 130.291 71.4554 131.077L70.2762 133.042C69.4902 133.829 68.3111 133.829 67.918 133.042C67.132 132.256 67.132 131.077 67.918 130.684L69.4902 129.112C70.2763 128.326 70.2763 127.147 69.4902 126.361L67.918 124.789C67.132 124.003 67.132 122.824 67.525 122.037Z" fill="url(#paint24_linear_30_18822)"/>
<path fill-rule="evenodd" clip-rule="evenodd" d="M94.2519 122.037C95.038 121.251 96.2171 121.251 96.6101 122.037L98.1823 123.61C98.9683 124.396 100.147 124.396 100.934 123.61L102.506 122.037C103.292 121.251 104.471 121.251 104.864 122.037C105.65 122.824 105.65 124.003 104.864 124.396C104.078 125.182 104.078 125.182 103.292 125.968C102.506 126.754 102.506 127.933 103.292 128.719L104.864 130.291C105.65 131.077 105.65 132.256 104.864 132.649C104.078 133.435 102.899 133.435 102.506 132.649L100.934 131.077C100.147 130.291 98.9683 130.291 98.1823 131.077L96.6101 132.649C95.824 133.435 94.6449 133.435 94.2519 132.649C93.4658 131.863 93.4658 130.684 94.2519 130.291L95.8241 128.719C96.6101 127.933 96.6101 126.754 95.8241 125.968L94.2519 124.396C93.4658 124.003 93.4658 122.824 94.2519 122.037Z" fill="url(#paint25_linear_30_18822)"/>
<path fill-rule="evenodd" clip-rule="evenodd" d="M120.977 122.037C121.764 121.251 122.943 121.251 123.336 122.037L124.908 123.61C125.694 124.396 126.873 124.396 127.659 123.61L129.231 122.037C130.017 121.251 131.196 121.251 131.589 122.037C132.375 122.824 132.375 124.003 131.589 124.396C130.803 125.182 130.803 125.182 130.017 125.968C129.231 126.754 129.231 127.933 130.017 128.719L131.589 130.291C132.375 131.077 132.375 132.256 131.589 132.649C130.803 133.435 129.624 133.435 129.231 132.649L127.659 131.077C126.873 130.291 125.694 130.291 124.908 131.077L123.336 132.649C122.55 133.435 121.371 133.435 120.977 132.649C120.191 131.863 120.191 130.684 120.977 130.291L122.55 128.719C123.336 127.933 123.336 126.754 122.55 125.968L120.977 124.396C120.191 124.003 120.191 122.824 120.977 122.037Z" fill="url(#paint26_linear_30_18822)"/>
<path fill-rule="evenodd" clip-rule="evenodd" d="M1.10176 97.6693C1.88783 96.8832 3.06693 96.8832 3.45996 97.6693L5.03211 99.2414C5.81818 100.027 6.99727 100.027 7.78334 99.2414L9.35549 97.6693C10.1416 96.8832 11.3207 96.8832 11.7137 97.6693C12.4998 98.4553 12.4998 99.6344 11.7137 100.027C10.9276 100.814 10.9276 100.814 10.1416 101.6C9.35549 102.386 9.35549 103.565 10.1416 104.351L11.7137 105.923C12.4998 106.709 12.4998 107.888 11.7137 108.281C10.9276 109.067 9.74853 109.067 9.35549 108.281L7.78334 106.709C6.99727 105.923 5.81818 105.923 5.03211 106.709L3.45996 108.281C2.67389 109.067 1.49479 109.067 1.10176 108.281C0.31569 107.495 0.31569 106.316 1.10176 105.923L2.67389 104.351C3.45996 103.565 3.45996 102.386 2.67389 101.6L1.10176 100.027C0.708725 99.6344 0.708725 98.4553 1.10176 97.6693Z" fill="url(#paint27_linear_30_18822)"/>
<path fill-rule="evenodd" clip-rule="evenodd" d="M27.8281 97.6693C28.6142 96.8832 29.7933 96.8832 30.1863 97.6693L31.7585 99.2414C32.5445 100.027 33.7236 100.027 34.5097 99.2414L36.0818 97.6693C36.8679 96.8832 38.047 96.8832 38.4401 97.6693C39.2261 98.4553 39.2261 99.6344 38.4401 100.027C37.654 100.814 37.654 100.814 36.8679 101.6C36.0819 102.386 36.0819 103.565 36.8679 104.351L38.8331 106.316C39.6192 107.102 39.6192 108.281 38.8331 108.674C38.047 109.46 36.8679 109.46 36.4749 108.674L34.9027 107.102C34.1167 106.316 32.9376 106.316 32.1515 107.102L30.5794 108.674C29.7933 109.46 28.6142 109.46 28.2211 108.674C27.4351 107.888 27.4351 106.709 28.2211 106.316L29.7933 104.744C30.5794 103.958 30.5794 102.779 29.7933 101.993L28.2211 100.421C27.042 99.6344 27.042 98.4553 27.8281 97.6693Z" fill="url(#paint28_linear_30_18822)"/>
<path fill-rule="evenodd" clip-rule="evenodd" d="M54.5551 97.6693C55.3412 96.8832 56.5203 96.8832 56.9133 97.6693L58.4855 99.2414C59.2715 100.027 60.4506 100.027 61.2367 99.2414L62.8089 97.6693C63.5949 96.8832 64.774 96.8832 65.1671 97.6693C65.9531 98.4553 65.9531 99.6344 65.1671 100.027C64.381 100.814 64.381 100.814 63.5949 101.6C62.8089 102.386 62.8089 103.565 63.5949 104.351L65.1671 105.923C65.9531 106.709 65.9531 107.888 65.1671 108.281C64.381 109.067 63.2019 109.067 62.8089 108.281L61.2367 106.709C60.4506 105.923 59.2715 105.923 58.4855 106.709L56.9133 108.281C56.1273 109.067 54.9482 109.067 54.5551 108.281C53.7691 107.495 53.7691 106.316 54.5551 105.923L56.1273 104.351C56.9133 103.565 56.9133 102.386 56.1273 101.6L54.5551 100.421C53.7691 99.6344 53.7691 98.4553 54.5551 97.6693Z" fill="url(#paint29_linear_30_18822)"/>
<path fill-rule="evenodd" clip-rule="evenodd" d="M80.8874 97.6693C81.6735 96.8832 82.8526 96.8832 83.2456 97.6693L84.8178 99.2414C85.6038 100.027 86.7829 100.027 87.569 99.2414L89.1412 97.6693C89.9272 96.8832 91.1063 96.8832 91.4994 97.6693C92.2854 98.4553 92.2854 99.6344 91.4994 100.027C90.7133 100.814 90.7133 100.814 89.9272 101.6C89.1412 102.386 89.1412 103.565 89.9272 104.351L91.4994 105.923C92.2854 106.709 92.2854 107.888 91.4994 108.281C90.7133 109.067 89.5342 109.067 89.1412 108.281L87.569 106.709C86.7829 105.923 85.6038 105.923 84.8178 106.709L83.2456 108.281C82.4596 109.067 81.2804 109.067 80.8874 108.281C80.1013 107.495 80.1013 106.316 80.8874 105.923L82.4596 104.351C83.2456 103.565 83.2456 102.386 82.4596 101.6L80.8874 100.027C80.4944 99.6344 80.4944 98.4553 80.8874 97.6693Z" fill="url(#paint30_linear_30_18822)"/>
<path fill-rule="evenodd" clip-rule="evenodd" d="M107.615 97.6693C108.401 96.8832 109.58 96.8832 109.973 97.6693L111.545 99.2414C112.331 100.027 113.51 100.027 114.297 99.2414L115.869 97.6693C116.655 96.8832 117.834 96.8832 118.227 97.6693C119.013 98.4553 119.013 99.6344 118.227 100.027C117.441 100.814 117.441 100.814 116.655 101.6C115.869 102.386 115.869 103.565 116.655 104.351L118.227 105.923C119.013 106.709 119.013 107.888 118.227 108.281C117.441 109.067 116.262 109.067 115.869 108.281L114.297 106.709C113.51 105.923 112.331 105.923 111.545 106.709L109.973 108.281C109.187 109.067 108.008 109.067 107.615 108.281C106.829 107.495 106.829 106.316 107.615 105.923L109.187 104.351C109.973 103.565 109.973 102.386 109.187 101.6L107.615 100.027C106.829 99.6344 106.829 98.4553 107.615 97.6693Z" fill="url(#paint31_linear_30_18822)"/>
<path fill-rule="evenodd" clip-rule="evenodd" d="M134.341 97.6693C135.127 96.8832 136.306 96.8832 136.699 97.6693L138.271 99.2414C139.057 100.027 140.236 100.027 141.022 99.2414L142.594 97.6693C143.38 96.8832 144.559 96.8832 144.952 97.6693C145.739 98.4553 145.739 99.6344 144.952 100.027C144.166 100.814 144.166 100.814 143.38 101.6C142.594 102.386 142.594 103.565 143.38 104.351L144.952 105.923C145.739 106.709 145.739 107.888 144.952 108.281C144.166 109.067 142.987 109.067 142.594 108.281L141.022 107.102C140.236 106.316 139.057 106.316 138.271 107.102L136.699 108.674C135.913 109.46 134.734 109.46 134.341 108.674C133.554 107.888 133.554 106.709 134.341 106.316L135.913 104.744C136.699 103.958 136.699 102.779 135.913 101.993L134.341 100.421C133.554 99.6344 133.554 98.4553 134.341 97.6693Z" fill="url(#paint32_linear_30_18822)"/>
<path fill-rule="evenodd" clip-rule="evenodd" d="M1.10241 146.405C1.88848 145.619 3.06758 145.619 3.46061 146.405L5.03276 147.978C5.81883 148.764 6.99792 148.764 7.78399 147.978L9.35614 146.405C10.1422 145.619 11.3213 145.619 11.7143 146.405C12.5004 147.192 12.5004 148.371 11.7143 148.764C11.7143 149.55 11.3213 149.55 10.5352 150.336C9.74917 151.122 9.74917 152.301 10.5352 153.087L12.1074 154.659C12.8935 155.445 12.8935 156.624 12.1074 157.017C11.3213 157.803 10.1422 157.803 9.74917 157.017L8.17704 155.445C7.39096 154.659 6.21186 154.659 5.42579 155.445L3.85364 157.41C3.06757 158.197 1.88847 158.197 1.49544 157.41C0.709366 156.624 0.709366 155.445 1.49544 155.052L3.06758 153.48C3.85365 152.694 3.85365 151.515 3.06758 150.729L1.49544 149.157C0.709366 147.978 0.709372 147.192 1.10241 146.405Z" fill="url(#paint33_linear_30_18822)"/>
<path fill-rule="evenodd" clip-rule="evenodd" d="M27.8293 146.405C28.6154 145.619 29.7945 145.619 30.1875 146.405L31.7596 147.978C32.5457 148.764 33.7248 148.764 34.5109 147.978L36.083 146.405C36.8691 145.619 38.0482 145.619 38.4412 146.405C39.2273 147.192 39.2273 148.371 38.4412 148.764C37.6552 149.55 37.6552 149.55 36.8691 150.336C36.083 151.122 36.083 152.301 36.8691 153.087L38.4412 154.659C39.2273 155.445 39.2273 156.624 38.4412 157.017C37.6552 157.803 36.4761 157.803 36.083 157.017L34.9039 155.838C34.1179 155.052 32.9387 155.052 32.1527 155.838L30.1875 157.41C29.4014 158.196 28.2223 158.196 27.8293 157.41C27.0432 156.624 27.0432 155.445 27.8293 155.052L29.4014 153.48C30.1875 152.694 30.1875 151.515 29.4014 150.729L27.8293 149.157C27.0432 147.978 27.0432 147.192 27.8293 146.405Z" fill="url(#paint34_linear_30_18822)"/>
<path fill-rule="evenodd" clip-rule="evenodd" d="M54.5549 146.405C55.341 145.619 56.5201 145.619 56.9131 146.405L58.4852 147.978C59.2713 148.764 60.4504 148.764 61.2365 147.978L62.8086 146.405C63.5947 145.619 64.7738 145.619 65.1668 146.405C65.9529 147.192 65.9529 148.371 65.1668 148.764C64.3807 149.55 64.3808 149.55 63.5947 150.336C62.8086 151.122 62.8086 152.301 63.5947 153.087L65.1668 154.659C65.9529 155.445 65.9529 156.624 65.1668 157.017C64.3807 157.803 63.2017 157.803 62.8086 157.017L61.2365 155.445C60.4504 154.659 59.2713 154.659 58.4852 155.445L56.9131 157.41C56.127 158.196 54.9479 158.196 54.5549 157.41C53.7688 156.624 53.7688 155.445 54.5549 155.052L56.127 153.48C56.9131 152.694 56.9131 151.515 56.127 150.729L54.5549 148.764C53.7688 147.978 53.7688 147.192 54.5549 146.405Z" fill="url(#paint35_linear_30_18822)"/>
<path fill-rule="evenodd" clip-rule="evenodd" d="M80.8878 146.405C81.6739 145.619 82.853 145.619 83.246 146.405L84.8181 147.978C85.6042 148.764 86.7833 148.764 87.5694 147.978L89.1416 146.405C89.9276 145.619 91.1067 145.619 91.4998 146.405C92.2858 147.192 92.2858 148.371 91.4998 148.764C90.7137 149.55 90.7137 149.55 89.9276 150.336C89.1415 151.122 89.1415 152.301 89.9276 153.087L91.4998 154.659C92.2858 155.445 92.2858 156.624 91.4998 157.017C90.7137 157.803 89.5346 157.803 89.1416 157.017L87.5694 155.445C86.7833 154.659 85.6042 154.659 84.8181 155.445L83.6391 157.41C82.853 158.196 81.6739 158.196 81.2809 157.41C80.4948 156.624 80.4948 155.445 81.2809 155.052L82.853 153.48C83.639 152.694 83.639 151.515 82.853 150.729L81.2809 149.157C80.4948 147.978 80.4948 147.192 80.8878 146.405Z" fill="url(#paint36_linear_30_18822)"/>
<path fill-rule="evenodd" clip-rule="evenodd" d="M107.615 146.405C108.401 145.619 109.58 145.619 109.973 146.405L111.545 147.978C112.331 148.764 113.51 148.764 114.296 147.978L115.868 146.405C116.655 145.619 117.834 145.619 118.227 146.405C119.013 147.192 119.013 148.371 118.227 148.764C117.441 149.55 117.441 149.55 116.655 150.336C115.868 151.122 115.868 152.301 116.655 153.087L118.227 154.659C119.013 155.445 119.013 156.624 118.227 157.017C117.441 157.803 116.261 157.803 115.868 157.017L114.296 155.445C113.51 154.659 112.331 154.659 111.545 155.445L109.973 157.41C109.187 158.196 108.008 158.196 107.615 157.41C106.829 156.624 106.829 155.445 107.615 155.052L109.187 153.48C109.973 152.694 109.973 151.515 109.187 150.729L107.615 149.157C106.829 147.978 106.829 147.192 107.615 146.405Z" fill="url(#paint37_linear_30_18822)"/>
<path fill-rule="evenodd" clip-rule="evenodd" d="M134.342 146.405C135.128 145.619 136.307 145.619 136.7 146.405L138.273 147.978C139.059 148.764 140.238 148.764 141.024 147.978L142.596 146.405C143.382 145.619 144.561 145.619 144.954 146.405C145.74 147.192 145.74 148.371 144.954 148.764C144.168 149.55 144.168 149.55 143.382 150.336C142.596 151.122 142.596 152.301 143.382 153.087L144.954 154.659C145.74 155.445 145.74 156.624 144.954 157.017C144.168 157.803 142.989 157.803 142.596 157.017L141.024 155.838C140.238 155.052 139.059 155.052 138.273 155.838L136.7 157.41C135.914 158.196 134.735 158.196 134.342 157.41C133.556 156.624 133.556 155.445 134.342 155.052L135.914 153.48C136.7 152.694 136.7 151.515 135.914 150.729L134.342 149.157C133.556 147.978 133.556 147.192 134.342 146.405Z" fill="url(#paint38_linear_30_18822)"/>
</g>
<defs>
<linearGradient id="paint0_linear_30_18822" x1="13.9172" y1="30.2637" x2="26.0596" y2="30.2637" gradientUnits="userSpaceOnUse">
<stop stop-color="#6A11CB"/>
<stop offset="1" stop-color="#2575FC"/>
</linearGradient>
<linearGradient id="paint1_linear_30_18822" x1="40.6028" y1="30.2637" x2="52.3939" y2="30.2637" gradientUnits="userSpaceOnUse">
<stop stop-color="#6A11CB"/>
<stop offset="1" stop-color="#2575FC"/>
</linearGradient>
<linearGradient id="paint2_linear_30_18822" x1="67.2668" y1="30.4603" x2="78.7265" y2="30.4603" gradientUnits="userSpaceOnUse">
<stop stop-color="#6A11CB"/>
<stop offset="1" stop-color="#2575FC"/>
</linearGradient>
<linearGradient id="paint3_linear_30_18822" x1="93.6624" y1="30.2637" x2="105.453" y2="30.2637" gradientUnits="userSpaceOnUse">
<stop stop-color="#6A11CB"/>
<stop offset="1" stop-color="#2575FC"/>
</linearGradient>
<linearGradient id="paint4_linear_30_18822" x1="120.388" y1="30.2637" x2="132.179" y2="30.2637" gradientUnits="userSpaceOnUse">
<stop stop-color="#6A11CB"/>
<stop offset="1" stop-color="#2575FC"/>
</linearGradient>
<linearGradient id="paint5_linear_30_18822" x1="0.844238" y1="6.28856" x2="12.6969" y2="6.28856" gradientUnits="userSpaceOnUse">
<stop stop-color="#6A11CB"/>
<stop offset="1" stop-color="#2575FC"/>
</linearGradient>
<linearGradient id="paint6_linear_30_18822" x1="27.2397" y1="6.28856" x2="39.4238" y2="6.28856" gradientUnits="userSpaceOnUse">
<stop stop-color="#6A11CB"/>
<stop offset="1" stop-color="#2575FC"/>
</linearGradient>
<linearGradient id="paint7_linear_30_18822" x1="53.9653" y1="6.28856" x2="66.1494" y2="6.28856" gradientUnits="userSpaceOnUse">
<stop stop-color="#6A11CB"/>
<stop offset="1" stop-color="#2575FC"/>
</linearGradient>
<linearGradient id="paint8_linear_30_18822" x1="80.6296" y1="6.28856" x2="92.4823" y2="6.28856" gradientUnits="userSpaceOnUse">
<stop stop-color="#6A11CB"/>
<stop offset="1" stop-color="#2575FC"/>
</linearGradient>
<linearGradient id="paint9_linear_30_18822" x1="107.025" y1="6.28856" x2="119.209" y2="6.28856" gradientUnits="userSpaceOnUse">
<stop stop-color="#6A11CB"/>
<stop offset="1" stop-color="#2575FC"/>
</linearGradient>
<linearGradient id="paint10_linear_30_18822" x1="133.753" y1="6.28856" x2="145.937" y2="6.28856" gradientUnits="userSpaceOnUse">
<stop stop-color="#6A11CB"/>
<stop offset="1" stop-color="#2575FC"/>
</linearGradient>
<linearGradient id="paint11_linear_30_18822" x1="13.875" y1="78.9999" x2="25.6661" y2="78.9999" gradientUnits="userSpaceOnUse">
<stop stop-color="#6A11CB"/>
<stop offset="1" stop-color="#2575FC"/>
</linearGradient>
<linearGradient id="paint12_linear_30_18822" x1="40.6003" y1="78.9999" x2="52.3914" y2="78.9999" gradientUnits="userSpaceOnUse">
<stop stop-color="#6A11CB"/>
<stop offset="1" stop-color="#2575FC"/>
</linearGradient>
<linearGradient id="paint13_linear_30_18822" x1="67.2664" y1="79.1964" x2="78.726" y2="79.1964" gradientUnits="userSpaceOnUse">
<stop stop-color="#6A11CB"/>
<stop offset="1" stop-color="#2575FC"/>
</linearGradient>
<linearGradient id="paint14_linear_30_18822" x1="93.6602" y1="78.9999" x2="105.451" y2="78.9999" gradientUnits="userSpaceOnUse">
<stop stop-color="#6A11CB"/>
<stop offset="1" stop-color="#2575FC"/>
</linearGradient>
<linearGradient id="paint15_linear_30_18822" x1="120.388" y1="78.9999" x2="132.179" y2="78.9999" gradientUnits="userSpaceOnUse">
<stop stop-color="#6A11CB"/>
<stop offset="1" stop-color="#2575FC"/>
</linearGradient>
<linearGradient id="paint16_linear_30_18822" x1="0.512207" y1="54.632" x2="12.3032" y2="54.632" gradientUnits="userSpaceOnUse">
<stop stop-color="#6A11CB"/>
<stop offset="1" stop-color="#2575FC"/>
</linearGradient>
<linearGradient id="paint17_linear_30_18822" x1="27.2803" y1="54.8285" x2="39.0296" y2="54.8285" gradientUnits="userSpaceOnUse">
<stop stop-color="#6A11CB"/>
<stop offset="1" stop-color="#2575FC"/>
</linearGradient>
<linearGradient id="paint18_linear_30_18822" x1="53.9656" y1="54.6319" x2="65.7566" y2="54.6319" gradientUnits="userSpaceOnUse">
<stop stop-color="#6A11CB"/>
<stop offset="1" stop-color="#2575FC"/>
</linearGradient>
<linearGradient id="paint19_linear_30_18822" x1="80.2979" y1="54.6319" x2="92.0889" y2="54.6319" gradientUnits="userSpaceOnUse">
<stop stop-color="#6A11CB"/>
<stop offset="1" stop-color="#2575FC"/>
</linearGradient>
<linearGradient id="paint20_linear_30_18822" x1="107.025" y1="54.6319" x2="118.816" y2="54.6319" gradientUnits="userSpaceOnUse">
<stop stop-color="#6A11CB"/>
<stop offset="1" stop-color="#2575FC"/>
</linearGradient>
<linearGradient id="paint21_linear_30_18822" x1="133.751" y1="54.8285" x2="145.542" y2="54.8285" gradientUnits="userSpaceOnUse">
<stop stop-color="#6A11CB"/>
<stop offset="1" stop-color="#2575FC"/>
</linearGradient>
<linearGradient id="paint22_linear_30_18822" x1="13.9172" y1="127.343" x2="26.0596" y2="127.343" gradientUnits="userSpaceOnUse">
<stop stop-color="#6A11CB"/>
<stop offset="1" stop-color="#2575FC"/>
</linearGradient>
<linearGradient id="paint23_linear_30_18822" x1="40.6028" y1="127.343" x2="52.3939" y2="127.343" gradientUnits="userSpaceOnUse">
<stop stop-color="#6A11CB"/>
<stop offset="1" stop-color="#2575FC"/>
</linearGradient>
<linearGradient id="paint24_linear_30_18822" x1="67.2668" y1="127.54" x2="78.7265" y2="127.54" gradientUnits="userSpaceOnUse">
<stop stop-color="#6A11CB"/>
<stop offset="1" stop-color="#2575FC"/>
</linearGradient>
<linearGradient id="paint25_linear_30_18822" x1="93.6624" y1="127.343" x2="105.453" y2="127.343" gradientUnits="userSpaceOnUse">
<stop stop-color="#6A11CB"/>
<stop offset="1" stop-color="#2575FC"/>
</linearGradient>
<linearGradient id="paint26_linear_30_18822" x1="120.388" y1="127.343" x2="132.179" y2="127.343" gradientUnits="userSpaceOnUse">
<stop stop-color="#6A11CB"/>
<stop offset="1" stop-color="#2575FC"/>
</linearGradient>
<linearGradient id="paint27_linear_30_18822" x1="0.512207" y1="102.975" x2="12.3032" y2="102.975" gradientUnits="userSpaceOnUse">
<stop stop-color="#6A11CB"/>
<stop offset="1" stop-color="#2575FC"/>
</linearGradient>
<linearGradient id="paint28_linear_30_18822" x1="27.2803" y1="103.172" x2="39.4227" y2="103.172" gradientUnits="userSpaceOnUse">
<stop stop-color="#6A11CB"/>
<stop offset="1" stop-color="#2575FC"/>
</linearGradient>
<linearGradient id="paint29_linear_30_18822" x1="53.9656" y1="102.975" x2="65.7566" y2="102.975" gradientUnits="userSpaceOnUse">
<stop stop-color="#6A11CB"/>
<stop offset="1" stop-color="#2575FC"/>
</linearGradient>
<linearGradient id="paint30_linear_30_18822" x1="80.2979" y1="102.975" x2="92.0889" y2="102.975" gradientUnits="userSpaceOnUse">
<stop stop-color="#6A11CB"/>
<stop offset="1" stop-color="#2575FC"/>
</linearGradient>
<linearGradient id="paint31_linear_30_18822" x1="107.025" y1="102.975" x2="118.816" y2="102.975" gradientUnits="userSpaceOnUse">
<stop stop-color="#6A11CB"/>
<stop offset="1" stop-color="#2575FC"/>
</linearGradient>
<linearGradient id="paint32_linear_30_18822" x1="133.751" y1="103.172" x2="145.542" y2="103.172" gradientUnits="userSpaceOnUse">
<stop stop-color="#6A11CB"/>
<stop offset="1" stop-color="#2575FC"/>
</linearGradient>
<linearGradient id="paint33_linear_30_18822" x1="0.844238" y1="151.908" x2="12.6969" y2="151.908" gradientUnits="userSpaceOnUse">
<stop stop-color="#6A11CB"/>
<stop offset="1" stop-color="#2575FC"/>
</linearGradient>
<linearGradient id="paint34_linear_30_18822" x1="27.2397" y1="151.908" x2="39.0308" y2="151.908" gradientUnits="userSpaceOnUse">
<stop stop-color="#6A11CB"/>
<stop offset="1" stop-color="#2575FC"/>
</linearGradient>
<linearGradient id="paint35_linear_30_18822" x1="53.9653" y1="151.908" x2="65.7564" y2="151.908" gradientUnits="userSpaceOnUse">
<stop stop-color="#6A11CB"/>
<stop offset="1" stop-color="#2575FC"/>
</linearGradient>
<linearGradient id="paint36_linear_30_18822" x1="80.6296" y1="151.908" x2="92.0893" y2="151.908" gradientUnits="userSpaceOnUse">
<stop stop-color="#6A11CB"/>
<stop offset="1" stop-color="#2575FC"/>
</linearGradient>
<linearGradient id="paint37_linear_30_18822" x1="107.025" y1="151.908" x2="118.816" y2="151.908" gradientUnits="userSpaceOnUse">
<stop stop-color="#6A11CB"/>
<stop offset="1" stop-color="#2575FC"/>
</linearGradient>
<linearGradient id="paint38_linear_30_18822" x1="133.753" y1="151.908" x2="145.544" y2="151.908" gradientUnits="userSpaceOnUse">
<stop stop-color="#6A11CB"/>
<stop offset="1" stop-color="#2575FC"/>
</linearGradient>
</defs>
</svg>
