<svg width="90" height="47" viewBox="0 0 90 47" fill="none" xmlns="http://www.w3.org/2000/svg">
<g opacity="0.5">
<path d="M68.7899 45.8596L89.1401 25.5094C90.2866 24.3629 90.2866 22.3566 89.1401 21.2101L68.7899 0.859867C67.6435 -0.286624 65.6371 -0.286624 64.4906 0.859867L59.0447 6.3057C57.8983 7.45219 57.8983 9.45855 59.0447 10.605L71.9428 23.5031L59.0447 36.4011C57.8983 37.5476 57.8983 39.5539 59.0447 40.7004L64.4906 46.1463C65.6371 47.0061 67.6434 47.0061 68.7899 45.8596Z" fill="url(#paint0_linear_30_18818)"/>
<path d="M39.5543 45.8596L59.9045 25.5094C61.051 24.3629 61.051 22.3566 59.9045 21.2101L39.5543 0.859867C38.4079 -0.286624 36.4015 -0.286624 35.255 0.859867L29.8091 6.3057C28.6627 7.45219 28.6627 9.45855 29.8091 10.605L42.7072 23.5031L29.8091 36.4011C28.6627 37.5476 28.6627 39.5539 29.8091 40.7004L35.255 46.1463C36.4015 47.0061 38.4079 47.0061 39.5543 45.8596Z" fill="url(#paint1_linear_30_18818)"/>
<path d="M10.6051 45.8596L30.9553 25.5094C32.1018 24.3629 32.1018 22.3566 30.9553 21.2101L10.6051 0.859867C9.45859 -0.286624 7.45223 -0.286624 6.30574 0.859867L0.85993 6.3057C-0.28656 7.45219 -0.28656 9.45855 0.85993 10.605L13.758 23.5031L0.859928 36.4011C-0.286562 37.5476 -0.286562 39.5539 0.859928 40.7004L6.30574 46.1463C7.45223 47.0061 9.45859 47.0061 10.6051 45.8596Z" fill="url(#paint2_linear_30_18818)"/>
</g>
<defs>
<linearGradient id="paint0_linear_30_18818" x1="85.328" y1="6.8287" x2="54.5833" y2="27.7475" gradientUnits="userSpaceOnUse">
<stop stop-color="#FF9100"/>
<stop offset="1" stop-color="#FF4D00"/>
</linearGradient>
<linearGradient id="paint1_linear_30_18818" x1="56.0924" y1="6.8287" x2="25.3477" y2="27.7475" gradientUnits="userSpaceOnUse">
<stop stop-color="#FF9100"/>
<stop offset="1" stop-color="#FF4D00"/>
</linearGradient>
<linearGradient id="paint2_linear_30_18818" x1="27.1432" y1="6.8287" x2="-3.6015" y2="27.7475" gradientUnits="userSpaceOnUse">
<stop stop-color="#FF9100"/>
<stop offset="1" stop-color="#FF4D00"/>
</linearGradient>
</defs>
</svg>
