<svg width="133" height="84" viewBox="0 0 133 84" fill="none" xmlns="http://www.w3.org/2000/svg">
<g opacity="0.5">
<path d="M128.881 44.6028L114.489 26.8746C113.635 25.7964 111.9 25.9092 110.487 26.9605L95.5484 38.3985L86.2802 27.1399C85.4261 26.0616 83.6911 26.1745 82.2784 27.2258L67.3398 38.6638L58.3375 27.4751C57.4834 26.3969 55.7484 26.5097 54.3357 27.561L39.3971 38.999L30.5344 27.2779C29.6105 26.4659 27.6795 26.2426 26.5326 27.3638L2.78178 45.3059C1.36903 46.3572 0.950002 47.9544 1.80404 49.0327L5.68214 53.7518C6.53618 54.83 8.27118 54.7172 9.68393 53.6659L24.5527 42.4941L33.555 53.6828C34.017 54.0888 34.7448 54.5648 35.3464 54.4384C36.2139 54.382 36.8155 54.2556 37.5568 53.5969L52.4256 42.4251L61.4279 53.6138C61.8899 54.0198 62.6177 54.4957 63.2193 54.3694C64.0868 54.3129 64.6884 54.1866 65.4297 53.5278L80.2985 42.356L89.3008 53.5447C89.7628 53.9508 90.4906 54.4267 91.0922 54.3004C91.9597 54.2439 92.5613 54.1176 93.3026 53.4588L108.171 42.287L117.579 53.0133C118.433 54.0915 120.168 53.9786 121.581 52.9273L127.904 48.3296C129.05 47.2084 129.469 45.6112 128.881 44.6028Z" fill="url(#paint0_radial_30_18345)"/>
</g>
<defs>
<radialGradient id="paint0_radial_30_18345" cx="0" cy="0" r="1" gradientUnits="userSpaceOnUse" gradientTransform="translate(67.9348 27.9533) rotate(14.7332) scale(48.7705 42.8003)">
<stop stop-color="#5B2AA4"/>
<stop offset="0.9944" stop-color="#481A72"/>
</radialGradient>
</defs>
</svg>
