<svg width="29" height="116" viewBox="0 0 29 116" fill="none" xmlns="http://www.w3.org/2000/svg">
<g opacity="0.5">
<path fill-rule="evenodd" clip-rule="evenodd" d="M0.471789 104.84C-0.156937 104.212 -0.156937 103.269 0.471789 102.954L1.72922 101.697C2.35795 101.068 2.35795 100.125 1.72922 99.4962L0.471789 98.2388C-0.156937 97.6101 -0.156937 96.667 0.471789 96.3526C1.10052 95.7239 2.04358 95.7239 2.35794 96.3526C2.98667 96.9813 2.98669 96.9813 3.61542 97.6101C4.24415 98.2388 5.18723 98.2388 5.81595 97.6101L7.07339 96.3526C7.70211 95.7239 8.64522 95.7239 8.95958 96.3526C9.58831 96.9813 9.58831 97.9244 8.95958 98.2388L7.70215 99.4962C7.07342 100.125 7.07342 101.068 7.70215 101.697L8.95958 102.954C9.58831 103.583 9.58831 104.526 8.95958 104.84C8.33086 105.469 7.38775 105.469 7.07339 104.84L5.81595 103.583C5.18723 102.954 4.24415 102.954 3.61542 103.583L2.67232 104.84C2.04359 105.469 1.10052 105.469 0.471789 104.84Z" fill="url(#paint0_linear_30_18916)"/>
<path fill-rule="evenodd" clip-rule="evenodd" d="M0.471545 83.4643C-0.157182 82.8356 -0.157182 81.8925 0.471545 81.5781L1.72898 80.3206C2.3577 79.6919 2.3577 78.7488 1.72898 78.1201L0.471545 76.8627C-0.157182 76.2339 -0.157182 75.2908 0.471545 74.9765C1.10027 74.3477 2.04333 74.3477 2.35769 74.9765C2.98642 75.6052 2.98645 75.6052 3.61518 76.2339C4.2439 76.8627 5.18698 76.8627 5.81571 76.2339L7.07314 74.9765C7.70187 74.3477 8.64498 74.3477 8.95934 74.9765C9.58807 75.6052 9.58807 76.5483 8.95934 76.8627L7.70191 78.1201C7.07318 78.7488 7.07318 79.6919 7.70191 80.3206L8.95934 81.5781C9.58807 82.2068 9.58807 83.1499 8.95934 83.4643C8.33061 84.093 7.38751 84.093 7.07314 83.4643L5.81571 82.2068C5.18698 81.5781 4.2439 81.5781 3.61518 82.2068L2.35769 83.4643C2.04333 84.093 1.10027 84.093 0.471545 83.4643Z" fill="url(#paint1_linear_30_18916)"/>
<path fill-rule="evenodd" clip-rule="evenodd" d="M0.471545 62.4013C-0.157182 61.7726 -0.157182 60.8295 0.471545 60.5151L1.72898 59.2577C2.3577 58.629 2.3577 57.6859 1.72898 57.0571L0.471545 55.7997C-0.157182 55.171 -0.157182 54.2279 0.471545 53.9135C1.10027 53.2848 2.04333 53.2848 2.35769 53.9135C2.98642 54.5422 2.98645 54.5422 3.61518 55.171C4.2439 55.7997 5.18698 55.7997 5.81571 55.171L7.07314 53.9135C7.70187 53.2848 8.64498 53.2848 8.95934 53.9135C9.58807 54.5422 9.58807 55.4853 8.95934 55.7997L7.70191 57.0571C7.07318 57.6859 7.07318 58.629 7.70191 59.2577L8.95934 60.5151C9.58807 61.1439 9.58807 62.087 8.95934 62.4013C8.33061 63.03 7.38751 63.03 7.07314 62.4013L5.81571 61.1439C5.18698 60.5151 4.2439 60.5151 3.61518 61.1439L2.67208 62.4013C2.04335 62.7157 1.10027 62.7157 0.471545 62.4013Z" fill="url(#paint2_linear_30_18916)"/>
<path fill-rule="evenodd" clip-rule="evenodd" d="M0.471545 41.0253C-0.157182 40.3965 -0.157182 39.4534 0.471545 39.1391L1.72898 37.8816C2.3577 37.2529 2.3577 36.3098 1.72898 35.6811L0.471545 34.4236C-0.157182 33.7949 -0.157182 32.8518 0.471545 32.5374C1.10027 31.9087 2.04333 31.9087 2.35769 32.5374C2.98642 33.1662 2.98645 33.1662 3.61518 33.7949C4.2439 34.4236 5.18698 34.4236 5.81571 33.7949L7.07314 32.5374C7.70187 31.9087 8.64498 31.9087 8.95934 32.5374C9.58807 33.1662 9.58807 34.1093 8.95934 34.4236L7.70191 35.6811C7.07318 36.3098 7.07318 37.2529 7.70191 37.8816L8.95934 39.1391C9.58807 39.7678 9.58807 40.7109 8.95934 41.0253C8.33061 41.654 7.38751 41.654 7.07314 41.0253L5.81571 39.7678C5.18698 39.1391 4.2439 39.1391 3.61518 39.7678L2.35769 41.0253C2.04333 41.654 1.10027 41.654 0.471545 41.0253Z" fill="url(#paint3_linear_30_18916)"/>
<path fill-rule="evenodd" clip-rule="evenodd" d="M0.471545 19.6477C-0.157182 19.0189 -0.157182 18.0758 0.471545 17.7615L1.72898 16.504C2.3577 15.8753 2.3577 14.9322 1.72898 14.3035L0.471545 13.046C-0.157182 12.4173 -0.157182 11.4742 0.471545 11.1599C1.10027 10.5311 2.04333 10.5311 2.35769 11.1599C2.98642 11.7886 2.98645 11.7886 3.61518 12.4173C4.2439 13.046 5.18698 13.046 5.81571 12.4173L7.07314 11.1599C7.70187 10.5311 8.64498 10.5311 8.95934 11.1599C9.58807 11.7886 9.58807 12.7317 8.95934 13.046L7.70191 14.3035C7.07318 14.9322 7.07318 15.8753 7.70191 16.504L8.95934 17.7615C9.58807 18.3902 9.58807 19.3333 8.95934 19.6477C8.33061 20.2764 7.38751 20.2764 7.07314 19.6477L5.81571 18.3902C5.18698 17.7615 4.2439 17.7615 3.61518 18.3902L2.35769 19.6477C2.04333 20.2764 1.10027 20.2764 0.471545 19.6477Z" fill="url(#paint4_linear_30_18916)"/>
<path fill-rule="evenodd" clip-rule="evenodd" d="M19.962 115.528C19.3333 114.899 19.3333 113.956 19.962 113.642L21.2195 112.385C21.8482 111.756 21.8482 110.813 21.2195 110.184L19.962 108.927C19.3333 108.298 19.3333 107.355 19.962 107.04C20.5907 106.412 21.5339 106.412 21.8482 107.04C22.4769 107.669 22.4769 107.669 23.1057 108.298C23.7344 108.927 24.6775 108.927 25.3062 108.298L26.5637 107.04C27.1924 106.412 28.1355 106.412 28.4498 107.04C29.0785 107.669 29.0785 108.612 28.4498 108.927L27.1924 110.184C26.5637 110.813 26.5637 111.756 27.1924 112.385L28.4498 113.642C29.0785 114.271 29.0785 115.214 28.4498 115.528C27.8211 116.157 26.878 116.157 26.5637 115.528L25.3062 114.271C24.6775 113.642 23.7344 113.642 23.1057 114.271L21.8482 115.528C21.5339 115.843 20.5907 115.843 19.962 115.528Z" fill="url(#paint5_linear_30_18916)"/>
<path fill-rule="evenodd" clip-rule="evenodd" d="M19.9618 94.1521C19.3331 93.5234 19.3331 92.5803 19.9618 92.2659L21.2192 91.0085C21.8479 90.3797 21.8479 89.4366 21.2192 88.8079L19.9618 87.5505C19.3331 86.9217 19.3331 85.9786 19.9618 85.6643C20.5905 85.0355 21.5336 85.0355 21.848 85.6643C22.4767 86.293 22.4767 86.293 23.1054 86.9217C23.7341 87.5505 24.6772 87.5505 25.3059 86.9217L26.5634 85.6643C27.1922 85.0355 28.1352 85.0355 28.4496 85.6643C29.0783 86.293 29.0783 87.2361 28.4496 87.5505L27.1921 88.8079C26.5634 89.4366 26.5634 90.3797 27.1921 91.0085L28.4496 92.2659C29.0783 92.8946 29.0783 93.8377 28.4496 94.1521C27.8208 94.7808 26.8778 94.7808 26.5634 94.1521L25.3059 92.8946C24.6772 92.2659 23.7341 92.2659 23.1054 92.8946L21.848 94.1521C21.5336 94.7808 20.5905 94.7808 19.9618 94.1521Z" fill="url(#paint6_linear_30_18916)"/>
<path fill-rule="evenodd" clip-rule="evenodd" d="M19.9618 72.7745C19.3331 72.1457 19.3331 71.2026 19.9618 70.8883L21.2192 69.6308C21.8479 69.0021 21.8479 68.059 21.2192 67.4303L19.9618 66.1728C19.3331 65.5441 19.3331 64.601 19.9618 64.2867C20.5905 63.6579 21.5336 63.6579 21.848 64.2867C22.4767 64.9154 22.4767 64.9154 23.1054 65.5441C23.7341 66.1728 24.6772 66.1728 25.3059 65.5441L26.5634 64.2867C27.1922 63.6579 28.1352 63.6579 28.4496 64.2867C29.0783 64.9154 29.0783 65.8585 28.4496 66.1728L27.1921 67.4303C26.5634 68.059 26.5634 69.0021 27.1921 69.6308L28.4496 70.8883C29.0783 71.517 29.0783 72.4601 28.4496 72.7745C27.8208 73.4032 26.8778 73.4032 26.5634 72.7745L25.3059 71.517C24.6772 70.8883 23.7341 70.8883 23.1054 71.517L21.848 72.7745C21.5336 73.4032 20.5905 73.4032 19.9618 72.7745Z" fill="url(#paint7_linear_30_18916)"/>
<path fill-rule="evenodd" clip-rule="evenodd" d="M19.9618 51.7131C19.3331 51.0843 19.3331 50.1412 19.9618 49.8269L21.2192 48.5694C21.8479 47.9407 21.8479 46.9976 21.2192 46.3689L19.9618 45.1114C19.3331 44.4827 19.3331 43.5396 19.9618 43.2252C20.5905 42.5965 21.5336 42.5965 21.848 43.2252C22.4767 43.854 22.4767 43.854 23.1054 44.4827C23.7341 45.1114 24.6772 45.1114 25.3059 44.4827L26.5634 43.2252C27.1922 42.5965 28.1352 42.5965 28.4496 43.2252C29.0783 43.854 29.0783 44.7971 28.4496 45.1114L27.1921 46.3689C26.5634 46.9976 26.5634 47.9407 27.1921 48.5694L28.4496 49.8269C29.0783 50.4556 29.0783 51.3987 28.4496 51.7131C27.8208 52.3418 26.8778 52.3418 26.5634 51.7131L25.3059 50.4556C24.6772 49.8269 23.7341 49.8269 23.1054 50.4556L21.848 51.7131C21.5336 52.0274 20.5905 52.0274 19.9618 51.7131Z" fill="url(#paint8_linear_30_18916)"/>
<path fill-rule="evenodd" clip-rule="evenodd" d="M19.9618 30.3354C19.3331 29.7067 19.3331 28.7636 19.9618 28.4493L21.2192 27.1918C21.8479 26.5631 21.8479 25.62 21.2192 24.9913L19.9618 23.7338C19.3331 23.1051 19.3331 22.162 19.9618 21.8476C20.5905 21.2189 21.5336 21.2189 21.848 21.8476C22.4767 22.4764 22.4767 22.4764 23.1054 23.1051C23.7341 23.7338 24.6772 23.7338 25.3059 23.1051L26.5634 21.8476C27.1922 21.2189 28.1352 21.2189 28.4496 21.8476C29.0783 22.4764 29.0783 23.4194 28.4496 23.7338L27.1921 24.9913C26.5634 25.62 26.5634 26.5631 27.1921 27.1918L28.4496 28.4493C29.0783 29.078 29.0783 30.0211 28.4496 30.3354C27.8208 30.9642 26.8778 30.9642 26.5634 30.3354L25.3059 29.078C24.6772 28.4493 23.7341 28.4493 23.1054 29.078L21.848 30.3354C21.5336 30.9642 20.5905 30.9642 19.9618 30.3354Z" fill="url(#paint9_linear_30_18916)"/>
<path fill-rule="evenodd" clip-rule="evenodd" d="M19.9618 8.95936C19.3331 8.33064 19.3331 7.38755 19.9618 7.07319L21.2192 5.81573C21.8479 5.18701 21.8479 4.24391 21.2192 3.61519L19.9618 2.35774C19.3331 1.72902 19.3331 0.785919 19.9618 0.471557C20.5905 -0.157169 21.5336 -0.157169 21.848 0.471557C22.4767 1.10028 22.4767 1.10029 23.1054 1.72901C23.7341 2.35774 24.6772 2.35774 25.3059 1.72901L26.5634 0.471557C27.1922 -0.157169 28.1352 -0.157169 28.4496 0.471557C29.0783 1.10028 29.0783 2.04338 28.4496 2.35774L27.1921 3.61519C26.5634 4.24391 26.5634 5.18701 27.1921 5.81573L28.4496 7.07319C29.0783 7.70192 29.0783 8.645 28.4496 8.95936C27.8208 9.58809 26.8778 9.58809 26.5634 8.95936L25.3059 7.70191C24.6772 7.07318 23.7341 7.07318 23.1054 7.70191L21.848 8.95936C21.5336 9.58809 20.5905 9.58809 19.9618 8.95936Z" fill="url(#paint10_linear_30_18916)"/>
</g>
<defs>
<linearGradient id="paint0_linear_30_18916" x1="4.7128" y1="105.313" x2="4.7128" y2="95.8808" gradientUnits="userSpaceOnUse">
<stop stop-color="#C72A16"/>
<stop offset="0.998" stop-color="#BA2244"/>
</linearGradient>
<linearGradient id="paint1_linear_30_18916" x1="4.71256" y1="83.9365" x2="4.71256" y2="74.5047" gradientUnits="userSpaceOnUse">
<stop stop-color="#C72A16"/>
<stop offset="0.998" stop-color="#BA2244"/>
</linearGradient>
<linearGradient id="paint2_linear_30_18916" x1="4.71256" y1="62.8736" x2="4.71256" y2="53.4417" gradientUnits="userSpaceOnUse">
<stop stop-color="#C72A16"/>
<stop offset="0.998" stop-color="#BA2244"/>
</linearGradient>
<linearGradient id="paint3_linear_30_18916" x1="4.71256" y1="41.4975" x2="4.71256" y2="32.0656" gradientUnits="userSpaceOnUse">
<stop stop-color="#C72A16"/>
<stop offset="0.998" stop-color="#BA2244"/>
</linearGradient>
<linearGradient id="paint4_linear_30_18916" x1="4.71256" y1="20.1199" x2="4.71256" y2="10.688" gradientUnits="userSpaceOnUse">
<stop stop-color="#C72A16"/>
<stop offset="0.998" stop-color="#BA2244"/>
</linearGradient>
<linearGradient id="paint5_linear_30_18916" x1="24.203" y1="116" x2="24.203" y2="106.569" gradientUnits="userSpaceOnUse">
<stop stop-color="#C72A16"/>
<stop offset="0.998" stop-color="#BA2244"/>
</linearGradient>
<linearGradient id="paint6_linear_30_18916" x1="24.2028" y1="94.6243" x2="24.2028" y2="85.1925" gradientUnits="userSpaceOnUse">
<stop stop-color="#C72A16"/>
<stop offset="0.998" stop-color="#BA2244"/>
</linearGradient>
<linearGradient id="paint7_linear_30_18916" x1="24.2028" y1="73.2467" x2="24.2028" y2="63.8148" gradientUnits="userSpaceOnUse">
<stop stop-color="#C72A16"/>
<stop offset="0.998" stop-color="#BA2244"/>
</linearGradient>
<linearGradient id="paint8_linear_30_18916" x1="24.2028" y1="52.1853" x2="24.2028" y2="42.7534" gradientUnits="userSpaceOnUse">
<stop stop-color="#C72A16"/>
<stop offset="0.998" stop-color="#BA2244"/>
</linearGradient>
<linearGradient id="paint9_linear_30_18916" x1="24.2028" y1="30.8077" x2="24.2028" y2="21.3758" gradientUnits="userSpaceOnUse">
<stop stop-color="#C72A16"/>
<stop offset="0.998" stop-color="#BA2244"/>
</linearGradient>
<linearGradient id="paint10_linear_30_18916" x1="24.2028" y1="9.43163" x2="24.2028" y2="-0.000262166" gradientUnits="userSpaceOnUse">
<stop stop-color="#C72A16"/>
<stop offset="0.998" stop-color="#BA2244"/>
</linearGradient>
</defs>
</svg>
