<svg width="173" height="32" viewBox="0 0 173 32" fill="none" xmlns="http://www.w3.org/2000/svg">
<g opacity="0.5" clip-path="url(#clip0_30_18802)">
<path d="M158.502 31.3604L172.367 17.6004C173.313 16.6404 173.313 15.3604 172.367 14.7204L158.502 0.64041C157.557 -0.319591 156.296 -0.319591 155.666 0.640409L151.885 4.48041C150.939 5.44041 150.939 6.72041 151.885 7.36041L160.708 16.0004L151.885 24.9604C150.939 25.9204 150.939 27.2004 151.885 27.8404L155.666 31.6804C156.611 32.3204 157.872 32.3204 158.502 31.3604Z" fill="url(#paint0_linear_30_18802)"/>
<path d="M137.076 31.3604L150.626 17.6004C151.572 16.6404 151.572 15.3604 150.626 14.7204L136.761 0.64041C135.816 -0.319591 134.555 -0.319591 133.925 0.640409L130.144 4.48041C129.198 5.44041 129.198 6.72041 130.144 7.36041L139.282 16.0004L130.459 24.9604C129.514 25.9204 129.514 27.2004 130.459 27.8404L134.24 31.6804C134.871 32.3204 136.131 32.3204 137.076 31.3604Z" fill="url(#paint1_linear_30_18802)"/>
<path d="M115.333 31.3601L129.198 17.2801C130.143 16.3201 130.143 15.0401 129.198 14.4001L115.333 0.320097C114.387 -0.639903 113.127 -0.639903 112.497 0.320097L108.715 4.1601C107.77 5.1201 107.77 6.4001 108.715 7.0401L117.539 16.0001L108.715 24.9601C107.77 25.9201 107.77 27.2001 108.715 27.8401L112.497 31.6801C113.127 32.3201 114.387 32.3201 115.333 31.3601Z" fill="url(#paint2_linear_30_18802)"/>
<path d="M93.5898 31.3601L107.455 17.2801C108.4 16.3201 108.4 15.0401 107.455 14.4001L93.5898 0.320097C92.6445 -0.639903 91.384 -0.639903 90.7538 0.320097L86.9723 4.1601C86.027 5.1201 86.027 6.4001 86.9723 7.0401L95.7957 16.0001L86.9723 24.9601C86.027 25.9201 86.027 27.2001 86.9723 27.8401L90.7538 31.6801C91.6991 32.3201 92.9596 32.3201 93.5898 31.3601Z" fill="url(#paint3_linear_30_18802)"/>
<path d="M72.1621 31.3604L86.0273 17.2804C86.9727 16.3204 86.9727 15.0404 86.0273 14.4004L72.1621 0.64041C71.2167 -0.319591 69.9563 -0.319591 69.326 0.64041L65.5446 4.48041C64.5993 5.44041 64.5993 6.72041 65.5446 7.36041L74.3679 16.0004L65.5446 24.9604C64.5993 25.9204 64.5993 27.2004 65.5446 27.8404L69.0109 31.3604C69.9563 32.3204 71.2167 32.3204 72.1621 31.3604Z" fill="url(#paint4_linear_30_18802)"/>
<path d="M50.4192 31.3601L64.2844 17.2801C65.2297 16.3201 65.2297 15.0401 64.2844 14.4001L50.4192 0.320097C49.4738 -0.639903 48.2134 -0.639903 47.5831 0.320097L43.8017 4.1601C42.8563 5.1201 42.8563 6.4001 43.8017 7.0401L52.625 16.0001L43.8017 24.9601C42.8563 25.9201 42.8563 27.2001 43.8017 27.8401L47.5831 31.6801C48.2134 32.3201 49.4738 32.3201 50.4192 31.3601Z" fill="url(#paint5_linear_30_18802)"/>
<path d="M28.6753 31.3601L42.5405 17.2801C43.4858 16.3201 43.4859 15.0401 42.5405 14.4001L28.6753 0.320097C27.7299 -0.639903 26.4694 -0.639903 25.8392 0.320097L22.0578 4.1601C21.1124 5.1201 21.1124 6.4001 22.0578 7.0401L30.8811 16.0001L22.0578 24.9601C21.1124 25.9201 21.1124 27.2001 22.0578 27.8401L25.8392 31.6801C26.7846 32.3201 28.045 32.3201 28.6753 31.3601Z" fill="url(#paint6_linear_30_18802)"/>
<path d="M6.93234 31.3601L20.7976 17.2801C21.7429 16.3201 21.7429 15.0401 20.7976 14.4001L6.93234 0.320097C5.98698 -0.639903 4.72652 -0.639903 4.09628 0.320097L0.31485 4.1601C-0.315388 5.1201 -0.315392 6.4001 0.629964 7.3601L9.13817 16.0001L0.314849 24.9601C-0.315389 25.6001 -0.315393 26.8801 0.629964 27.8401L4.41139 31.6801C5.04163 32.3201 6.3021 32.3201 6.93234 31.3601Z" fill="url(#paint7_linear_30_18802)"/>
</g>
<defs>
<linearGradient id="paint0_linear_30_18802" x1="151.238" y1="15.9981" x2="173.094" y2="15.9981" gradientUnits="userSpaceOnUse">
<stop stop-color="#FFD328"/>
<stop offset="1" stop-color="#FFA700"/>
</linearGradient>
<linearGradient id="paint1_linear_30_18802" x1="129.497" y1="15.9981" x2="151.353" y2="15.9981" gradientUnits="userSpaceOnUse">
<stop stop-color="#FFD328"/>
<stop offset="1" stop-color="#FFA700"/>
</linearGradient>
<linearGradient id="paint2_linear_30_18802" x1="108.069" y1="15.8376" x2="129.924" y2="15.8376" gradientUnits="userSpaceOnUse">
<stop stop-color="#FFD328"/>
<stop offset="1" stop-color="#FFA700"/>
</linearGradient>
<linearGradient id="paint3_linear_30_18802" x1="86.3261" y1="15.8376" x2="108.181" y2="15.8376" gradientUnits="userSpaceOnUse">
<stop stop-color="#FFD328"/>
<stop offset="1" stop-color="#FFA700"/>
</linearGradient>
<linearGradient id="paint4_linear_30_18802" x1="64.8984" y1="15.9752" x2="86.7535" y2="15.9752" gradientUnits="userSpaceOnUse">
<stop stop-color="#FFD328"/>
<stop offset="1" stop-color="#FFA700"/>
</linearGradient>
<linearGradient id="paint5_linear_30_18802" x1="43.1555" y1="15.8376" x2="65.0105" y2="15.8376" gradientUnits="userSpaceOnUse">
<stop stop-color="#FFD328"/>
<stop offset="1" stop-color="#FFA700"/>
</linearGradient>
<linearGradient id="paint6_linear_30_18802" x1="21.4115" y1="15.8376" x2="43.2666" y2="15.8376" gradientUnits="userSpaceOnUse">
<stop stop-color="#FFD328"/>
<stop offset="1" stop-color="#FFA700"/>
</linearGradient>
<linearGradient id="paint7_linear_30_18802" x1="-0.0623882" y1="15.8376" x2="21.5235" y2="15.8376" gradientUnits="userSpaceOnUse">
<stop stop-color="#FFD328"/>
<stop offset="1" stop-color="#FFA700"/>
</linearGradient>
<clipPath id="clip0_30_18802">
<rect width="32" height="173" fill="white" transform="translate(173) rotate(90)"/>
</clipPath>
</defs>
</svg>
