<svg width="46" height="46" viewBox="0 0 46 46" fill="none" xmlns="http://www.w3.org/2000/svg">
<path opacity="0.5" d="M44.5836 28.577L34.2514 21.1907L41.4138 11.1717C42.533 9.60617 42.1759 7.45848 40.6104 6.33934L33.7223 1.41516C32.1568 0.296031 30.0091 0.653106 28.89 2.21859L21.5037 12.5508L11.1715 5.16448C9.60606 4.04535 7.45837 4.40242 6.33923 5.96791L1.41505 12.856C0.295915 14.4215 0.652998 16.5692 2.21848 17.6883L12.5507 25.0746L5.16437 35.4068C4.04524 36.9723 4.40232 39.12 5.9678 40.2391L12.8559 45.1633C14.4214 46.2824 16.5691 45.9253 17.6882 44.3599L25.5222 33.4015L35.8543 40.7878C37.4198 41.9069 39.5675 41.5498 40.6866 39.9843L45.387 33.4093C46.193 31.62 46.149 29.6961 44.5836 28.577Z" fill="url(#paint0_linear_30_18915)"/>
<defs>
<linearGradient id="paint0_linear_30_18915" x1="3.88266" y1="9.39796" x2="42.7107" y2="37.1554" gradientUnits="userSpaceOnUse">
<stop stop-color="#C72A16"/>
<stop offset="0.998" stop-color="#BA2244"/>
</linearGradient>
</defs>
</svg>
