<svg width="218" height="63" viewBox="0 0 218 63" fill="none" xmlns="http://www.w3.org/2000/svg">
<path fill-rule="evenodd" clip-rule="evenodd" d="M15.7998 39.5V52L25.6998 45.1L15.7998 39.5Z" fill="#C5D8F0"/>
<path fill-rule="evenodd" clip-rule="evenodd" d="M35.3998 50.8004L45.2998 45.1004L35.5998 39.4004L25.6998 45.1004L15.8998 50.8004H15.7998V62.1004L25.4998 56.5004L35.3998 50.8004Z" fill="url(#paint0_linear_67_8197)"/>
<path fill-rule="evenodd" clip-rule="evenodd" d="M35.6 39.4001L35.8 39.5001L45.3 45.1001V33.7001L33.4 26.6001L23.5 32.3001L35.6 39.4001Z" fill="url(#paint1_linear_67_8197)"/>
<path fill-rule="evenodd" clip-rule="evenodd" d="M16.5 5.7C23.2 9.7 29.2 13.3 35.9 17.2L45.3 11.8V11.3L36 5.8L33.1 4.1L26.3 0L16.5 5.7Z" fill="url(#paint2_linear_67_8197)"/>
<path fill-rule="evenodd" clip-rule="evenodd" d="M15.7998 17.5V28.4V28.8L25.4998 23.2L15.7998 17.5Z" fill="#C5D8F0"/>
<path fill-rule="evenodd" clip-rule="evenodd" d="M6.2 42.7001L6 42.9001V56.5L12.3 60.1L15.8 62.2001V50.8V48.5V38.3L6.2 42.7001Z" fill="url(#paint3_linear_67_8197)"/>
<path fill-rule="evenodd" clip-rule="evenodd" d="M6.3 36.1L15.8 29.4C15.8 24.9 15.8 20.3 15.8 15.8L6.5 22.3L6 22.6V35.9001L6.3 36.1Z" fill="url(#paint4_linear_67_8197)"/>
<path fill-rule="evenodd" clip-rule="evenodd" d="M0 26.5L7.2 22.4L26.1 11.5L16.4 5.69995L7.8 10.6L7.1 11L0 15.3V26.5Z" fill="url(#paint5_linear_67_8197)"/>
<path fill-rule="evenodd" clip-rule="evenodd" d="M25.9 33.7L35.8 28L45.3 22.5V11.2L36 16.6L26.1 22.3L16.2 28L15.9 28.2L9.7 31.7999L6.4 33.7L6 33.9L0.1 37.2999H0V48.5999L6 45.2L6.1 45.0999L9.6 43.0999L15.8 39.5L15.9 39.4L25.9 33.7Z" fill="url(#paint6_linear_67_8197)"/>
<path fill-rule="evenodd" clip-rule="evenodd" d="M56.8 45.1V33.3C56.8 28.4 59.3 26 62.9 26C63.7 26 64.5 26.1 65.2 26.3V21.6C64.6 21.4 63.8 21.3 63.1 21.3C60.1 21.3 57.9 22.6001 56.5 25.2001V21.9H52V45.1H56.8ZM78.8 41.4001C76.6 41.4001 74.8 40.6 73.4 39.1C72 37.6 71.3 35.7 71.3 33.5C71.3 31.3 72 29.4 73.4 28C74.8 26.5 76.6 25.7001 78.8 25.7001C81 25.7001 82.8 26.5 84.2 28C85.6 29.4 86.3 31.3 86.3 33.5C86.3 35.7 85.6 37.6 84.2 39.1C82.8 40.6 81 41.4001 78.8 41.4001ZM86.1 25.2001C84 22.7001 81.4 21.4 78.2 21.4C74.8 21.4 72.1 22.5 69.9 24.8C67.7 27.1 66.6 29.9 66.6 33.5C66.6 37.1 67.7 39.9 69.9 42.3C72.1 44.6 74.8 45.8 78.2 45.8C81.4 45.8 84 44.6 86.1 42.1V45.3H90.7V21.9H86.1V25.2001ZM100.8 21.9H96.1V45.1H100.8V21.9ZM111.7 45.1V32.4001C111.7 28.4001 114.2 25.7001 117.7 25.7001C121 25.7001 123.3 28.1001 123.3 32.4001V45.2001H128.1V31C128.1 27.9 127.1 25.5 125.4 23.9C123.6 22.2 121.5 21.4 118.9 21.4C115.5 21.4 112.9 22.9 111.5 25.3V22H106.9V45.2001H111.7V45.1ZM142 45.1L147.9 28.6L153.9 45.1H158L165.8 21.9H160.8L155.8 38.6L149.6 21.9H146.2L140.2 38.6L135 21.9H130L138 45.1H142ZM179.3 41.4001C177.1 41.4001 175.2 40.6 173.9 39.1C172.5 37.6 171.8 35.7 171.8 33.5C171.8 31.3 172.5 29.4 173.9 28C175.3 26.5 177.1 25.7001 179.3 25.7001C181.5 25.7001 183.2 26.5 184.7 28C186.1 29.4 186.8 31.3 186.8 33.5C186.8 35.7 186.1 37.6 184.7 39.1C183.3 40.6 181.5 41.4001 179.3 41.4001ZM186.5 25.2001C184.4 22.7001 181.8 21.4 178.6 21.4C175.3 21.4 172.5 22.5 170.3 24.8C168.1 27.1 167 29.9 167 33.5C167 37.1 168.1 39.9 170.3 42.3C172.5 44.6 175.3 45.8 178.6 45.8C181.8 45.8 184.4 44.6 186.5 42.1V45.3H191.1V21.9H186.5V25.2001ZM200.9 54.1H205.9L206.4 52.8L217.3 21.9H212.3L206.5 38.2001L199.5 21.9H194L204.2 44.6L200.9 54.1Z" fill="black"/>
<path fill-rule="evenodd" clip-rule="evenodd" d="M98.4998 18.9C100.3 18.9 101.7 17.5 101.7 15.7C101.7 13.9 100.3 12.5 98.4998 12.5C96.5998 12.5 95.2998 13.9 95.2998 15.7C95.2998 17.5 96.5998 18.9 98.4998 18.9Z" fill="url(#paint7_linear_67_8197)"/>
<path d="M53.7 57.3H54.4V52.4H56V51.7H52V52.4H53.6V57.3H53.7ZM58.2 57.4C58.8 57.4 59.3 57.1 59.5 56.6V57.2H60.3V52.7H59.5V55.2C59.5 56 59.1 56.6 58.3 56.6C57.5 56.6 57.1 56.1 57.1 55.2V52.7H56.4V55.2C56.3 56.7 57 57.4 58.2 57.4ZM61.5 57.3H62.3V56.1C62.3 55.5 62.3 54.9 62.3 54.8C62.3 53.9 62.7 53.6 63.3 53.6C63.6 53.6 63.8 53.7 64 53.8L64.3 53.1C64.1 53 63.8 52.8 63.5 52.8C63 52.8 62.5 53.1 62.3 53.5V52.9H61.5V57.3ZM65.1 57.3H65.8V54.8C65.8 54 66.4 53.4 67.2 53.4C68.1 53.4 68.6 53.9 68.6 54.8V57.3H69.3V54.8C69.3 53.5 68.6 52.7 67.4 52.7C66.8 52.7 66.2 53 65.9 53.5V52.8H65.2L65.1 57.3ZM73 57.3H73.8V51.7H73V57.3ZM77.1 57.4C77.4 57.4 77.7 57.3 78.1 57.1C78.4 57 78.6 56.8 78.8 56.5V57.3H79.6V51.6H78.8V53.5C78.5 53 77.8 52.7 77.2 52.7C76 52.7 74.9 53.7 74.9 55C74.8 56.4 75.8 57.4 77.1 57.4ZM77.1 56.7C76.2 56.7 75.5 55.9 75.5 55C75.5 54.1 76.2 53.4 77.1 53.4C78.1 53.4 78.7 54.2 78.7 55C78.8 56 78.1 56.7 77.1 56.7ZM82.9 57.4C83.9 57.4 84.6 56.9 85 56.1L84.4 55.8C84.1 56.4 83.6 56.8 82.9 56.8C81.9 56.8 81.3 56.3 81.2 55.4H85.2V55C85.2 53.6 84.2 52.7 82.9 52.7C81.6 52.7 80.6 53.7 80.6 55.1C80.5 56.4 81.5 57.4 82.9 57.4ZM82.8 53.4C83.7 53.4 84.2 53.9 84.4 54.7H81.2C81.5 53.9 82.1 53.4 82.8 53.4ZM88.3 57.4C88.6 57.4 88.9 57.3 89.3 57.1C89.6 57 89.8 56.8 90 56.5V57.3H90.8V52.8H90V53.5C89.7 53 89 52.7 88.4 52.7C87.2 52.7 86.1 53.7 86.1 55C86.1 56.4 87.1 57.4 88.3 57.4ZM88.4 56.7C87.5 56.7 86.8 55.9 86.8 55C86.8 54.1 87.6 53.4 88.4 53.4C89.4 53.4 90 54.2 90 55C90.1 56 89.4 56.7 88.4 56.7ZM93.5 57.4C94.7 57.4 95.3 56.6 95.3 56C95.3 55.1 94.5 54.9 93.7 54.7C93.1 54.6 92.5 54.4 92.5 54C92.5 53.7 92.8 53.3 93.5 53.3C94 53.3 94.3 53.5 94.6 53.8L95.2 53.4C94.8 52.9 94.2 52.6 93.5 52.6C92.5 52.6 91.8 53.2 91.8 53.9C91.8 54.8 92.6 55 93.4 55.2C94 55.3 94.6 55.5 94.6 55.9C94.6 56.3 94.3 56.7 93.6 56.7C93.1 56.7 92.6 56.4 92.4 56L91.7 56.4C92 57.1 92.7 57.4 93.5 57.4ZM98.8 57.3H99.6V51.7H98.8V57.3ZM100.8 57.3H101.5V54.8C101.5 54 102.1 53.4 102.9 53.4C103.8 53.4 104.2 53.9 104.2 54.8V57.3H105V54.8C105 53.5 104.2 52.7 103.1 52.7C102.4 52.7 101.9 53 101.5 53.5V52.8H100.8V57.3ZM105.7 53.4H106.5V55.5C106.5 56.9 106.8 57.2 108.1 57.2H108.2V56.5C107.3 56.5 107.1 56.4 107.1 55.5V53.4H108.2V52.8H107.1V51.4L106.4 51.9V52.8H105.6V53.4H105.7ZM111.3 57.4C112.6 57.4 113.6 56.4 113.6 55C113.6 53.7 112.6 52.7 111.3 52.7C110 52.7 109 53.7 109 55C109 56.4 110 57.4 111.3 57.4ZM111.3 56.7C110.4 56.7 109.7 55.9 109.7 55C109.7 54.1 110.4 53.4 111.3 53.4C112.2 53.4 112.9 54.2 112.9 55C113 56 112.2 56.7 111.3 56.7ZM117.2 57.3H118V55.4H119.2L120.3 57.3H121.1L119.9 55.2C120.6 54.9 121.1 54.3 121.1 53.6C121.1 52.6 120.3 51.7 119.1 51.7H117.3V57.3H117.2ZM118.9 52.3C119.7 52.3 120.2 52.8 120.2 53.5C120.2 54 119.8 54.7 118.9 54.7H117.9V52.4L118.9 52.3ZM124 57.4C125 57.4 125.7 56.9 126.1 56.1L125.5 55.8C125.2 56.4 124.7 56.8 124 56.8C123.1 56.8 122.4 56.3 122.4 55.4H126.3V55C126.3 53.6 125.3 52.7 124 52.7C122.7 52.7 121.7 53.7 121.7 55.1C121.6 56.4 122.6 57.4 124 57.4ZM124 53.4C124.9 53.4 125.4 53.9 125.6 54.7H122.4C122.6 53.9 123.2 53.4 124 53.4ZM129.5 57.4C129.8 57.4 130.1 57.3 130.5 57.1C130.8 57 131 56.8 131.2 56.5V57.3H132V52.8H131.2V53.5C130.9 53 130.2 52.7 129.6 52.7C128.4 52.7 127.3 53.7 127.3 55C127.2 56.4 128.2 57.4 129.5 57.4ZM129.5 56.7C128.6 56.7 127.9 55.9 127.9 55C127.9 54.1 128.6 53.4 129.5 53.4C130.5 53.4 131.1 54.2 131.1 55C131.2 56 130.5 56.7 129.5 56.7ZM133.1 57.3H133.9V51.6H133.1V57.3ZM137.5 57.3H140.6V56.6H138.3V51.7H137.5V57.3ZM141.7 57.3H142.5V52.8H141.7V57.3ZM141.5 51.7C141.5 52 141.7 52.2 142 52.2C142.3 52.2 142.5 52 142.5 51.7C142.5 51.4 142.4 51.2 142 51.2C141.7 51.2 141.5 51.4 141.5 51.7ZM143.4 53.4H144.2V57.2H145V53.4H146V52.8H145V52.7C145 51.7 145.1 51.6 146 51.6V51H145.9C144.6 51 144.2 51.4 144.2 52.8V52.9H143.4V53.4ZM148.9 57.4C149.9 57.4 150.6 56.9 151 56.1L150.4 55.8C150.1 56.4 149.6 56.8 148.9 56.8C148 56.8 147.3 56.3 147.3 55.4H151.2V55C151.2 53.6 150.2 52.7 148.9 52.7C147.6 52.7 146.6 53.7 146.6 55.1C146.5 56.4 147.4 57.4 148.9 57.4ZM148.8 53.4C149.7 53.4 150.2 53.9 150.4 54.7H147.2C147.4 53.9 148.1 53.4 148.8 53.4ZM154.7 57.3H155.5V55.6H156.5C157.7 55.6 158.6 54.8 158.6 53.7C158.6 52.6 157.8 51.7 156.5 51.7H154.7V57.3ZM156.4 52.3C157.2 52.3 157.7 52.8 157.7 53.6C157.7 54.3 157.2 54.8 156.4 54.8H155.4V52.3H156.4ZM159.5 57.3H160.3V56.1C160.3 55.5 160.3 54.9 160.3 54.8C160.3 53.9 160.7 53.6 161.3 53.6C161.6 53.6 161.8 53.7 162 53.8L162.3 53.1C162 53 161.8 52.8 161.4 52.8C160.9 52.8 160.4 53.1 160.2 53.5V52.9H159.4V57.3H159.5ZM165.1 57.4C166.4 57.4 167.4 56.4 167.4 55C167.4 53.7 166.4 52.7 165.1 52.7C163.8 52.7 162.8 53.7 162.8 55C162.8 56.4 163.8 57.4 165.1 57.4ZM165.1 56.7C164.2 56.7 163.5 55.9 163.5 55C163.5 54.1 164.2 53.4 165.1 53.4C166 53.4 166.7 54.2 166.7 55C166.7 56 166 56.7 165.1 56.7ZM170.7 57.4C171 57.4 171.3 57.3 171.6 57.1C171.9 57 172.2 56.8 172.4 56.5V57.3H173.2V51.6H172.4V53.5C172.1 53 171.4 52.7 170.8 52.7C169.5 52.7 168.5 53.7 168.5 55C168.3 56.4 169.3 57.4 170.7 57.4ZM170.7 56.7C169.8 56.7 169.1 55.9 169.1 55C169.1 54.1 169.9 53.4 170.7 53.4C171.6 53.4 172.3 54.2 172.3 55C172.4 56 171.6 56.7 170.7 56.7ZM176.1 57.4C176.7 57.4 177.2 57.1 177.5 56.6V57.2H178.2V52.7H177.5V55.2C177.5 56 177 56.6 176.3 56.6C175.4 56.6 175.1 56.1 175.1 55.2V52.7H174.3V55.2C174.2 56.7 174.9 57.4 176.1 57.4ZM181.6 57.4C182.6 57.4 183.4 56.8 183.7 56L183.1 55.7C182.8 56.2 182.3 56.7 181.6 56.7C180.6 56.7 180 55.9 180 55C180 54.1 180.7 53.4 181.6 53.4C182.3 53.4 182.8 53.7 183 54.4L183.7 54.1C183.4 53.3 182.5 52.7 181.6 52.7C180.3 52.7 179.2 53.7 179.2 55C179.2 56.3 180.2 57.4 181.6 57.4ZM184.4 53.4H185.2V55.5C185.2 56.9 185.6 57.2 186.9 57.2H187V56.5C186.1 56.5 186 56.4 186 55.5V53.4H187V52.8H186V51.4L185.2 51.9V52.8H184.4V53.4ZM189.6 57.4C190.8 57.4 191.4 56.6 191.4 56C191.4 55.1 190.6 54.9 189.8 54.7C189.2 54.6 188.6 54.4 188.6 54C188.6 53.7 188.9 53.3 189.6 53.3C190.1 53.3 190.4 53.5 190.7 53.8L191.3 53.4C190.9 52.9 190.3 52.6 189.6 52.6C188.6 52.6 188 53.2 188 53.9C188 54.8 188.8 55 189.5 55.2C190.1 55.3 190.7 55.5 190.7 55.9C190.7 56.3 190.4 56.7 189.7 56.7C189.2 56.7 188.7 56.4 188.5 56L187.9 56.4C188.1 57.1 188.8 57.4 189.6 57.4Z" fill="#373435"/>
<defs>
<linearGradient id="paint0_linear_67_8197" x1="41.9998" y1="37.5" x2="10.4998" y2="56.5" gradientUnits="userSpaceOnUse">
<stop offset="0.133081" stop-color="#1B9DFC"/>
<stop offset="0.735592" stop-color="#495AFF"/>
</linearGradient>
<linearGradient id="paint1_linear_67_8197" x1="26.5" y1="31.0005" x2="46.5" y2="42.0005" gradientUnits="userSpaceOnUse">
<stop stop-color="#1B9DFC"/>
<stop offset="1" stop-color="#495AFF"/>
</linearGradient>
<linearGradient id="paint2_linear_67_8197" x1="25" y1="7.5" x2="53.5" y2="28" gradientUnits="userSpaceOnUse">
<stop offset="0.260417" stop-color="#2575FC"/>
<stop offset="1" stop-color="#6A11CB"/>
</linearGradient>
<linearGradient id="paint3_linear_67_8197" x1="10" y1="67.0002" x2="10" y2="24.0002" gradientUnits="userSpaceOnUse">
<stop stop-color="#2575FC"/>
<stop offset="0.998603" stop-color="#6A11CB"/>
</linearGradient>
<linearGradient id="paint4_linear_67_8197" x1="11" y1="52.0002" x2="11" y2="17.5002" gradientUnits="userSpaceOnUse">
<stop offset="0.317708" stop-color="#6A11CB"/>
<stop offset="1" stop-color="#2575FC"/>
</linearGradient>
<linearGradient id="paint5_linear_67_8197" x1="-5.5" y1="26.9998" x2="72" y2="-19.0002" gradientUnits="userSpaceOnUse">
<stop stop-color="#1B9DFC"/>
<stop offset="1" stop-color="#6A11CB"/>
</linearGradient>
<linearGradient id="paint6_linear_67_8197" x1="155.5" y1="-43.0002" x2="-12" y2="48.9997" gradientUnits="userSpaceOnUse">
<stop stop-color="#6A11CB"/>
<stop offset="1" stop-color="#2575FC"/>
</linearGradient>
<linearGradient id="paint7_linear_67_8197" x1="95.2998" y1="15.7" x2="101.7" y2="15.7" gradientUnits="userSpaceOnUse">
<stop stop-color="#6A11CB"/>
<stop offset="1" stop-color="#2575FC"/>
</linearGradient>
</defs>
</svg>
