<svg width="20" height="22" viewBox="0 0 20 22" fill="none" xmlns="http://www.w3.org/2000/svg">
<path d="M17.0312 0.562988H16.257C16.3033 0.790285 16.3281 1.02536 16.3281 1.26611C16.3281 2.42927 15.3819 3.37549 14.2188 3.37549H5.78125C4.61809 3.37549 3.67188 2.42927 3.67188 1.26611C3.67188 1.02536 3.69667 0.790285 3.74303 0.562988H2.96875C1.80559 0.562988 0.859375 1.50921 0.859375 2.67236V19.6411C0.859375 20.8043 1.80559 21.7505 2.96875 21.7505H17.0312C18.1944 21.7505 19.1406 20.8043 19.1406 19.6411V2.67236C19.1406 1.50921 18.1944 0.562988 17.0312 0.562988ZM7.89062 17.438H5.07812C4.68948 17.438 4.375 17.1235 4.375 16.7349C4.375 16.3462 4.68948 16.0317 5.07812 16.0317H7.89062C8.27927 16.0317 8.59375 16.3462 8.59375 16.7349C8.59375 17.1235 8.27927 17.438 7.89062 17.438ZM7.89062 12.5161H5.07812C4.68948 12.5161 4.375 12.2016 4.375 11.813C4.375 11.4243 4.68948 11.1099 5.07812 11.1099H7.89062C8.27927 11.1099 8.59375 11.4243 8.59375 11.813C8.59375 12.2016 8.27927 12.5161 7.89062 12.5161ZM7.89062 7.59424H5.07812C4.68948 7.59424 4.375 7.27975 4.375 6.89111C4.375 6.50247 4.68948 6.18799 5.07812 6.18799H7.89062C8.27927 6.18799 8.59375 6.50247 8.59375 6.89111C8.59375 7.27975 8.27927 7.59424 7.89062 7.59424ZM14.7159 17.644C14.9905 17.9186 14.9905 18.3636 14.7159 18.6383C14.5785 18.7756 14.3986 18.8443 14.2188 18.8443C14.0389 18.8443 13.8589 18.7756 13.7216 18.6383L12.8125 17.7291L11.9034 18.6383C11.766 18.7756 11.5861 18.8443 11.4062 18.8443C11.2264 18.8443 11.0464 18.7756 10.9091 18.6383C10.6345 18.3636 10.6345 17.9186 10.9091 17.644L11.8182 16.7349L10.9091 15.8257C10.6345 15.5511 10.6345 15.1061 10.9091 14.8315C11.1837 14.5568 11.6287 14.5568 11.9034 14.8315L12.8125 15.7406L13.7216 14.8315C13.9963 14.5568 14.4413 14.5568 14.7159 14.8315C14.9905 15.1061 14.9905 15.5511 14.7159 15.8257L13.8068 16.7349L14.7159 17.644ZM15.419 10.9038L13.3096 13.0132C13.1723 13.1506 12.9924 13.2192 12.8125 13.2192C12.6326 13.2192 12.4527 13.1506 12.3154 13.0132L10.9091 11.607C10.6345 11.3323 10.6345 10.8873 10.9091 10.6127C11.1838 10.3381 11.6288 10.3381 11.9034 10.6127L12.8125 11.5218L14.4248 9.90958C14.6994 9.63494 15.1444 9.63494 15.419 9.90958C15.6937 10.1842 15.6937 10.6292 15.419 10.9038ZM15.419 6.6851L13.3096 8.79447C13.1723 8.93182 12.9924 9.00049 12.8125 9.00049C12.6326 9.00049 12.4527 8.93182 12.3154 8.79447L10.9091 7.38822C10.6345 7.11358 10.6345 6.6686 10.9091 6.39396C11.1838 6.11932 11.6288 6.11932 11.9034 6.39396L12.8125 7.3031L14.4248 5.69083C14.6994 5.41619 15.1444 5.41619 15.419 5.69083C15.6937 5.96547 15.6937 6.41046 15.419 6.6851Z" fill="url(#paint0_linear_30_17413)"/>
<defs>
<linearGradient id="paint0_linear_30_17413" x1="0.859375" y1="11.1567" x2="19.1406" y2="11.1567" gradientUnits="userSpaceOnUse">
<stop stop-color="#6A11CB"/>
<stop offset="1" stop-color="#2575FC"/>
</linearGradient>
</defs>
</svg>
