<svg width="24" height="24" viewBox="0 0 24 24" fill="none" xmlns="http://www.w3.org/2000/svg">
<g clip-path="url(#clip0_30_17154)">
<path d="M23.9999 16.2422C23.9999 13.264 22.2913 10.6061 19.7324 9.31316C19.653 15.0235 15.0233 19.6531 9.31299 19.7326C10.6059 22.2915 13.2639 24 16.2421 24C17.6384 24 18.9963 23.6282 20.1895 22.9216L23.966 23.9662L22.9214 20.1896C23.628 18.9965 23.9999 17.6386 23.9999 16.2422Z" fill="url(#paint0_linear_30_17154)"/>
<path d="M18.3281 9.16406C18.3281 4.1109 14.2172 0 9.16406 0C4.1109 0 0 4.1109 0 9.16406C0 10.8109 0.438354 12.4144 1.27075 13.8221L0.0336914 18.2943L4.50604 17.0574C5.91376 17.8898 7.51721 18.3281 9.16406 18.3281C14.2172 18.3281 18.3281 14.2172 18.3281 9.16406ZM7.75781 7.03125H6.35156C6.35156 5.48035 7.61316 4.21875 9.16406 4.21875C10.715 4.21875 11.9766 5.48035 11.9766 7.03125C11.9766 7.81842 11.6433 8.57501 11.062 9.10675L9.86719 10.2003V11.2969H8.46094V9.58099L10.1125 8.06927C10.4077 7.79919 10.5703 7.4306 10.5703 7.03125C10.5703 6.2558 9.93951 5.625 9.16406 5.625C8.38861 5.625 7.75781 6.2558 7.75781 7.03125ZM8.46094 12.7031H9.86719V14.1094H8.46094V12.7031Z" fill="url(#paint1_linear_30_17154)"/>
</g>
<defs>
<linearGradient id="paint0_linear_30_17154" x1="9.31299" y1="16.6566" x2="23.9999" y2="16.6566" gradientUnits="userSpaceOnUse">
<stop stop-color="#6A11CB"/>
<stop offset="1" stop-color="#2575FC"/>
</linearGradient>
<linearGradient id="paint1_linear_30_17154" x1="0" y1="9.16406" x2="18.3281" y2="9.16406" gradientUnits="userSpaceOnUse">
<stop stop-color="#6A11CB"/>
<stop offset="1" stop-color="#2575FC"/>
</linearGradient>
<clipPath id="clip0_30_17154">
<rect width="24" height="24" fill="white"/>
</clipPath>
</defs>
</svg>
