<svg width="24" height="25" viewBox="0 0 24 25" fill="none" xmlns="http://www.w3.org/2000/svg">
<g clip-path="url(#clip0_30_17341)">
<path d="M18.6868 13.4651C18.8218 14.747 18.6477 16.0734 18.1143 17.3263V17.3268L19.966 19.7183C20.1317 19.9324 20.4425 19.9618 20.6477 19.7852C22.3104 18.3543 23.4106 16.2888 23.5737 13.9646C23.5927 13.694 23.375 13.4652 23.1037 13.4652H18.6868V13.4651Z" fill="url(#paint0_linear_30_17341)"/>
<path d="M14.0371 1.31182V7.15964C15.6059 7.83856 16.9082 9.02079 17.7396 10.501H23.1156C23.3814 10.501 23.5965 10.281 23.5862 10.0154C23.3948 5.0442 19.4313 1.09011 14.5279 0.841425C14.2604 0.827866 14.0371 1.04397 14.0371 1.31182Z" fill="url(#paint1_linear_30_17341)"/>
<path d="M11.0415 22.0646C6.76145 22.1088 3.22442 18.6386 3.18981 14.3585C3.15492 10.0448 6.6542 6.52412 10.96 6.52412V4.23071C10.96 3.96234 10.7359 3.74764 10.4678 3.75993C4.87219 4.017 0.413621 8.63504 0.413574 14.2946C0.413574 20.1304 5.19353 24.8783 11.0292 24.8407C13.23 24.8266 15.2701 24.1387 16.9542 22.973C17.1758 22.8197 17.2224 22.511 17.0574 22.2979L15.653 20.484C14.3682 21.4602 12.7719 22.0467 11.0415 22.0646Z" fill="url(#paint2_linear_30_17341)"/>
<path d="M4.60156 14.2943C4.60156 17.8 7.45379 20.6523 10.9595 20.6523C14.4649 20.6523 17.3175 17.8006 17.3175 14.2943C17.3175 10.7887 14.4649 7.93637 10.9595 7.93637C7.45379 7.93637 4.60156 10.7886 4.60156 14.2943ZM11.6657 10.0706V10.7443C12.3898 10.7443 13.0307 11.0523 13.4826 11.5344C13.7491 11.8188 13.7345 12.266 13.4502 12.5325C13.1675 12.7973 12.7224 12.7872 12.452 12.5C12.2496 12.2844 11.9737 12.1592 11.6945 12.1568C11.123 12.1568 10.7367 12.1568 10.1676 12.1568C9.77178 12.1568 9.45195 12.4775 9.45195 12.8724C9.45195 13.267 9.77305 13.5881 10.1681 13.5881H11.7514C12.9247 13.5881 13.8795 14.5429 13.8795 15.7162C13.8795 16.8126 13.0363 17.8448 11.6657 17.8448V18.518C11.6657 18.9079 11.3498 19.2243 10.9595 19.2243C10.5697 19.2243 10.2533 18.9079 10.2533 18.518V17.8448C9.75582 17.8448 9.26569 17.7909 8.69158 17.3928C8.37142 17.1706 8.29185 16.7303 8.51408 16.4102C8.7363 16.0896 9.17652 16.01 9.49668 16.2322C9.66617 16.3509 9.87668 16.4296 10.0861 16.4323H11.7514C12.1447 16.4323 12.4671 16.1148 12.4671 15.7162C12.4671 15.3217 12.146 15.0006 11.7514 15.0006C11.0508 15.0006 10.9064 15.0006 10.1681 15.0006C8.99431 15.0006 8.03949 14.0457 8.03949 12.8724C8.03949 11.7727 8.88579 10.7443 10.2533 10.7443V10.0706C10.2533 9.68076 10.5697 9.36437 10.9595 9.36437C11.3498 9.36437 11.6657 9.68076 11.6657 10.0706Z" fill="url(#paint3_linear_30_17341)"/>
</g>
<defs>
<linearGradient id="paint0_linear_30_17341" x1="18.1143" y1="16.6828" x2="23.5748" y2="16.6828" gradientUnits="userSpaceOnUse">
<stop stop-color="#6A11CB"/>
<stop offset="1" stop-color="#2575FC"/>
</linearGradient>
<linearGradient id="paint1_linear_30_17341" x1="14.0371" y1="5.67093" x2="23.5866" y2="5.67093" gradientUnits="userSpaceOnUse">
<stop stop-color="#6A11CB"/>
<stop offset="1" stop-color="#2575FC"/>
</linearGradient>
<linearGradient id="paint2_linear_30_17341" x1="0.413574" y1="14.3002" x2="17.1562" y2="14.3002" gradientUnits="userSpaceOnUse">
<stop stop-color="#6A11CB"/>
<stop offset="1" stop-color="#2575FC"/>
</linearGradient>
<linearGradient id="paint3_linear_30_17341" x1="4.60156" y1="14.2943" x2="17.3175" y2="14.2943" gradientUnits="userSpaceOnUse">
<stop stop-color="#6A11CB"/>
<stop offset="1" stop-color="#2575FC"/>
</linearGradient>
<clipPath id="clip0_30_17341">
<rect width="24" height="24" fill="white" transform="translate(0 0.84082)"/>
</clipPath>
</defs>
</svg>
