<svg width="24" height="24" viewBox="0 0 24 24" fill="none" xmlns="http://www.w3.org/2000/svg">
<path d="M14.8125 1.40625H13.9892C13.6988 0.587766 12.9167 0 12 0C11.0833 0 10.3013 0.587766 10.0108 1.40625H9.1875C8.02434 1.40625 7.07812 2.35247 7.07812 3.51562C7.07812 3.90427 7.39261 4.21875 7.78125 4.21875H16.2188C16.6074 4.21875 16.9219 3.90427 16.9219 3.51562C16.9219 2.35247 15.9757 1.40625 14.8125 1.40625Z" fill="url(#paint0_linear_30_17407)"/>
<path d="M19.0312 2.8125H18.257C18.3033 3.0398 18.3281 3.27487 18.3281 3.51562C18.3281 4.67878 17.3819 5.625 16.2188 5.625H7.78125C6.61809 5.625 5.67188 4.67878 5.67188 3.51562C5.67188 3.27487 5.69667 3.0398 5.74303 2.8125H4.96875C3.80559 2.8125 2.85938 3.75872 2.85938 4.92188V21.8906C2.85938 23.0538 3.80559 24 4.96875 24H19.0312C20.1944 24 21.1406 23.0538 21.1406 21.8906V4.92188C21.1406 3.75872 20.1944 2.8125 19.0312 2.8125ZM9.89062 19.6875H7.07812C6.68948 19.6875 6.375 19.373 6.375 18.9844C6.375 18.5957 6.68948 18.2812 7.07812 18.2812H9.89062C10.2793 18.2812 10.5938 18.5957 10.5938 18.9844C10.5938 19.373 10.2793 19.6875 9.89062 19.6875ZM9.89062 14.7656H7.07812C6.68948 14.7656 6.375 14.4511 6.375 14.0625C6.375 13.6739 6.68948 13.3594 7.07812 13.3594H9.89062C10.2793 13.3594 10.5938 13.6739 10.5938 14.0625C10.5938 14.4511 10.2793 14.7656 9.89062 14.7656ZM9.89062 9.84375H7.07812C6.68948 9.84375 6.375 9.52927 6.375 9.14062C6.375 8.75198 6.68948 8.4375 7.07812 8.4375H9.89062C10.2793 8.4375 10.5938 8.75198 10.5938 9.14062C10.5938 9.52927 10.2793 9.84375 9.89062 9.84375ZM16.7159 19.8935C16.9905 20.1682 16.9905 20.6131 16.7159 20.8878C16.5785 21.0251 16.3986 21.0938 16.2188 21.0938C16.0389 21.0938 15.8589 21.0251 15.7216 20.8878L14.8125 19.9786L13.9034 20.8878C13.766 21.0251 13.5861 21.0938 13.4062 21.0938C13.2264 21.0938 13.0464 21.0251 12.9091 20.8878C12.6345 20.6131 12.6345 20.1682 12.9091 19.8935L13.8182 18.9844L12.9091 18.0752C12.6345 17.8006 12.6345 17.3556 12.9091 17.081C13.1837 16.8063 13.6287 16.8063 13.9034 17.081L14.8125 17.9901L15.7216 17.081C15.9963 16.8063 16.4413 16.8063 16.7159 17.081C16.9905 17.3556 16.9905 17.8006 16.7159 18.0752L15.8068 18.9844L16.7159 19.8935ZM17.419 13.1534L15.3096 15.2627C15.1723 15.4001 14.9924 15.4688 14.8125 15.4688C14.6326 15.4688 14.4527 15.4001 14.3154 15.2627L12.9091 13.8565C12.6345 13.5818 12.6345 13.1369 12.9091 12.8622C13.1838 12.5876 13.6288 12.5876 13.9034 12.8622L14.8125 13.7714L16.4248 12.1591C16.6994 11.8845 17.1444 11.8845 17.419 12.1591C17.6937 12.4337 17.6937 12.8787 17.419 13.1534ZM17.419 8.93461L15.3096 11.044C15.1723 11.1813 14.9924 11.25 14.8125 11.25C14.6326 11.25 14.4527 11.1813 14.3154 11.044L12.9091 9.63773C12.6345 9.36309 12.6345 8.91811 12.9091 8.64347C13.1838 8.36883 13.6288 8.36883 13.9034 8.64347L14.8125 9.55261L16.4248 7.94034C16.6994 7.6657 17.1444 7.6657 17.419 7.94034C17.6937 8.21498 17.6937 8.65997 17.419 8.93461Z" fill="url(#paint1_linear_30_17407)"/>
<defs>
<linearGradient id="paint0_linear_30_17407" x1="7.07812" y1="2.10938" x2="16.9219" y2="2.10938" gradientUnits="userSpaceOnUse">
<stop stop-color="#6A11CB"/>
<stop offset="1" stop-color="#2575FC"/>
</linearGradient>
<linearGradient id="paint1_linear_30_17407" x1="2.85938" y1="13.4062" x2="21.1406" y2="13.4062" gradientUnits="userSpaceOnUse">
<stop stop-color="#6A11CB"/>
<stop offset="1" stop-color="#2575FC"/>
</linearGradient>
</defs>
</svg>
