<svg width="31" height="59" viewBox="0 0 31 59" fill="none" xmlns="http://www.w3.org/2000/svg">
<g opacity="0.5">
<path d="M29.758 13.763L16.5529 0.557962C15.8089 -0.185987 14.507 -0.185987 13.7631 0.557962L0.557962 13.763C-0.185987 14.507 -0.185987 15.8089 0.557962 16.5529L4.09172 20.0866C4.83567 20.8306 6.13758 20.8306 6.88153 20.0866L15.251 11.7172L23.6204 20.0866C24.3643 20.8306 25.6662 20.8306 26.4102 20.0866L29.944 16.5529C30.5019 15.8089 30.5019 14.507 29.758 13.763Z" fill="url(#paint0_linear_30_17747)"/>
<path d="M29.758 32.7336L16.5529 19.5285C15.8089 18.7846 14.507 18.7846 13.7631 19.5285L0.557962 32.7336C-0.185987 33.4776 -0.185987 34.7795 0.557962 35.5234L4.09172 39.0572C4.83567 39.8012 6.13758 39.8012 6.88153 39.0572L15.251 30.6878L23.6204 39.0572C24.3643 39.8012 25.6662 39.8012 26.4102 39.0572L29.944 35.5234C30.5019 34.7795 30.5019 33.4776 29.758 32.7336Z" fill="url(#paint1_linear_30_17747)"/>
<path d="M29.758 51.5186L16.5529 38.3135C15.8089 37.5695 14.507 37.5695 13.7631 38.3135L0.557962 51.5186C-0.185987 52.2625 -0.185987 53.5644 0.557962 54.3084L4.09172 57.8421C4.83567 58.5861 6.13758 58.5861 6.88153 57.8421L15.251 49.4727L23.6204 57.8421C24.3643 58.5861 25.6662 58.5861 26.4102 57.8421L29.944 54.3084C30.5019 53.5644 30.5019 52.2625 29.758 51.5186Z" fill="url(#paint2_linear_30_17747)"/>
</g>
<defs>
<linearGradient id="paint0_linear_30_17747" x1="15.147" y1="20.5854" x2="15.147" y2="-0.0161475" gradientUnits="userSpaceOnUse">
<stop stop-color="#FFD328"/>
<stop offset="1" stop-color="#FFA700"/>
</linearGradient>
<linearGradient id="paint1_linear_30_17747" x1="15.147" y1="39.556" x2="15.147" y2="18.9544" gradientUnits="userSpaceOnUse">
<stop stop-color="#FFD328"/>
<stop offset="1" stop-color="#FFA700"/>
</linearGradient>
<linearGradient id="paint2_linear_30_17747" x1="15.147" y1="58.3409" x2="15.147" y2="37.7393" gradientUnits="userSpaceOnUse">
<stop stop-color="#FFD328"/>
<stop offset="1" stop-color="#FFA700"/>
</linearGradient>
</defs>
</svg>
