<svg width="19" height="19" viewBox="0 0 19 19" fill="none" xmlns="http://www.w3.org/2000/svg">
<path opacity="0.5" d="M17.6247 11.219L13.6209 8.56624L16.1933 4.68371C16.5952 4.07706 16.4314 3.2702 15.8248 2.86826L13.1556 1.09975C12.5489 0.69781 11.742 0.861577 11.3401 1.46822L8.68734 5.47208L4.68348 2.81931C4.07683 2.41737 3.26996 2.58114 2.86803 3.18779L1.09951 5.85703C0.697576 6.46367 0.861346 7.27054 1.46799 7.67247L5.47185 10.3252L2.81908 14.3291C2.41714 14.9358 2.58091 15.7426 3.18756 16.1446L5.85679 17.9131C6.46344 18.315 7.2703 18.1512 7.67224 17.5446L10.4858 13.2981L14.4896 15.9509C15.0963 16.3528 15.9032 16.189 16.3051 15.5824L17.9932 13.0345C18.2738 12.3474 18.2314 11.621 17.6247 11.219Z" fill="url(#paint0_linear_30_17468)"/>
<defs>
<linearGradient id="paint0_linear_30_17468" x1="1.98567" y1="4.51704" x2="17.0321" y2="14.4861" gradientUnits="userSpaceOnUse">
<stop stop-color="#C72A16"/>
<stop offset="0.998" stop-color="#BA2244"/>
</linearGradient>
</defs>
</svg>
