<svg width="31" height="59" viewBox="0 0 31 59" fill="none" xmlns="http://www.w3.org/2000/svg">
<g opacity="0.5">
<path d="M29.758 13.763L16.5529 0.557962C15.8089 -0.185987 14.507 -0.185987 13.7631 0.557962L0.557962 13.763C-0.185987 14.507 -0.185987 15.8089 0.557962 16.5529L4.09172 20.0866C4.83567 20.8306 6.13758 20.8306 6.88153 20.0866L15.251 11.7172L23.6204 20.0866C24.3643 20.8306 25.6662 20.8306 26.4102 20.0866L29.944 16.5529C30.5019 15.8089 30.5019 14.507 29.758 13.763Z" fill="url(#paint0_linear_30_17743)"/>
<path d="M29.758 32.7337L16.5529 19.5287C15.8089 18.7847 14.507 18.7847 13.7631 19.5287L0.557962 32.7337C-0.185987 33.4777 -0.185987 34.7796 0.557962 35.5236L4.09172 39.0573C4.83567 39.8013 6.13758 39.8013 6.88153 39.0573L15.251 30.6879L23.6204 39.0573C24.3643 39.8013 25.6662 39.8013 26.4102 39.0573L29.944 35.5236C30.5019 34.7796 30.5019 33.4777 29.758 32.7337Z" fill="url(#paint1_linear_30_17743)"/>
<path d="M29.758 51.5187L16.5529 38.3136C15.8089 37.5696 14.507 37.5696 13.7631 38.3136L0.557962 51.5187C-0.185987 52.2626 -0.185987 53.5645 0.557962 54.3085L4.09172 57.8422C4.83567 58.5862 6.13758 58.5862 6.88153 57.8422L15.251 49.4728L23.6204 57.8422C24.3643 58.5862 25.6662 58.5862 26.4102 57.8422L29.944 54.3085C30.5019 53.5645 30.5019 52.2626 29.758 51.5187Z" fill="url(#paint2_linear_30_17743)"/>
</g>
<defs>
<linearGradient id="paint0_linear_30_17743" x1="4.43109" y1="3.03161" x2="18.0051" y2="22.9816" gradientUnits="userSpaceOnUse">
<stop stop-color="#FF9100"/>
<stop offset="1" stop-color="#FF4D00"/>
</linearGradient>
<linearGradient id="paint1_linear_30_17743" x1="4.43109" y1="22.0023" x2="18.0051" y2="41.9523" gradientUnits="userSpaceOnUse">
<stop stop-color="#FF9100"/>
<stop offset="1" stop-color="#FF4D00"/>
</linearGradient>
<linearGradient id="paint2_linear_30_17743" x1="4.43109" y1="40.7872" x2="18.0051" y2="60.7372" gradientUnits="userSpaceOnUse">
<stop stop-color="#FF9100"/>
<stop offset="1" stop-color="#FF4D00"/>
</linearGradient>
</defs>
</svg>
