<svg width="146" height="146" viewBox="0 0 146 146" fill="none" xmlns="http://www.w3.org/2000/svg">
<g opacity="0.5">
<path d="M41.7144 138.824C42.8357 139.272 43.9571 139.721 44.8541 140.169L145.327 82.3076C145.551 81.1862 145.551 80.0649 145.776 78.7192L41.7144 138.824Z" fill="url(#paint0_linear_30_17501)"/>
<path d="M17.269 119.985C17.9419 120.658 18.6147 121.555 19.2875 122.227L142.636 50.9095C142.412 50.0124 141.963 49.1153 141.739 48.2183L17.269 119.985Z" fill="url(#paint1_linear_30_17501)"/>
<path d="M48.2183 141.739C49.3396 142.187 50.6852 142.636 51.8066 142.86L143.757 89.7081C143.982 88.3625 144.206 87.2411 144.43 85.8955L48.2183 141.739Z" fill="url(#paint2_linear_30_17501)"/>
<path d="M25.5669 128.507C26.2397 129.179 27.1368 129.852 28.0339 130.525L145.327 62.7954C145.103 61.674 145.103 60.777 144.879 59.8799L25.5669 128.507Z" fill="url(#paint3_linear_30_17501)"/>
<path d="M21.0811 124.245C21.7539 124.918 22.4267 125.591 23.3238 126.264L143.981 56.5159C143.757 55.6188 143.533 54.4974 143.308 53.6003L21.0811 124.245Z" fill="url(#paint4_linear_30_17501)"/>
<path d="M30.2764 132.319C31.1734 132.992 32.0705 133.441 32.9676 134.113L145.775 69.0751C145.775 67.9537 145.551 67.0567 145.551 65.9353L30.2764 132.319Z" fill="url(#paint5_linear_30_17501)"/>
<path d="M38.5742 137.477L145.775 75.5789C145.775 74.6818 145.775 74.009 145.775 73.1119C145.775 72.8876 145.775 72.4391 145.775 72.2148L35.6587 135.683C36.78 136.356 37.6771 136.805 38.5742 137.477Z" fill="url(#paint6_linear_30_17501)"/>
<path d="M64.5894 145.551C66.1592 145.776 67.9534 145.776 69.5233 146L137.477 106.753C138.15 105.183 139.047 103.837 139.72 102.267L64.5894 145.551Z" fill="url(#paint7_linear_30_17501)"/>
<path d="M20.1846 22.4269L55.6192 2.01831C49.7882 3.36393 44.1815 5.60663 39.0233 8.29787L34.0893 11.2134C28.9311 14.3532 24.4457 18.1658 20.1846 22.4269Z" fill="url(#paint8_linear_30_17501)"/>
<path d="M2.46627 92.175L124.693 21.5299C124.021 20.8571 123.348 20.1843 122.451 19.5115L1.79346 89.2595C2.01773 90.1566 2.242 91.2779 2.46627 92.175Z" fill="url(#paint9_linear_30_17501)"/>
<path d="M75.355 146C77.5977 146 79.8404 145.776 81.8588 145.552L131.198 117.069C132.544 115.275 133.889 113.481 135.011 111.687L75.355 146Z" fill="url(#paint10_linear_30_17501)"/>
<path d="M90.3804 143.757C96.2114 142.412 101.818 140.169 106.976 137.478L111.91 134.562C116.844 131.422 121.554 127.61 125.591 123.349L90.3804 143.757Z" fill="url(#paint11_linear_30_17501)"/>
<path d="M55.8433 143.982C57.1889 144.206 58.5345 144.654 60.1044 144.879L141.739 97.782C142.187 96.4364 142.636 95.0907 143.084 93.7451L55.8433 143.982Z" fill="url(#paint12_linear_30_17501)"/>
<path d="M2.01851 56.2918C1.79424 57.6374 1.56997 58.7587 1.3457 60.1043L97.7818 4.48536C96.6605 4.03682 95.3149 3.58828 94.1935 3.36401L2.01851 56.2918Z" fill="url(#paint13_linear_30_17501)"/>
<path d="M0.672661 63.693C0.448391 64.8143 0.448391 65.9357 0.224121 67.2813L104.285 7.17692C103.164 6.72838 102.043 6.27984 101.146 5.8313L0.672661 63.693Z" fill="url(#paint14_linear_30_17501)"/>
<path d="M4.26066 48.2181C3.81212 49.5637 3.36358 50.9093 2.91504 52.2549L89.9318 2.01842C88.5862 1.79415 87.2406 1.34561 85.6707 1.12134L4.26066 48.2181Z" fill="url(#paint15_linear_30_17501)"/>
<path d="M14.8014 28.9308C13.4557 30.725 12.1101 32.5192 10.9888 34.3133L70.6446 0C68.4019 0 66.1592 0.22427 64.1408 0.44854L14.8014 28.9308Z" fill="url(#paint16_linear_30_17501)"/>
<path d="M8.07376 39.4715C7.40095 41.0414 6.50387 42.3871 5.83105 43.9569L81.1858 0.44854C79.6159 0.22427 77.8218 0.22427 76.2519 0L8.07376 39.4715Z" fill="url(#paint17_linear_30_17501)"/>
<path d="M13.6807 115.499C14.1292 116.172 14.802 117.069 15.4748 117.742L140.618 45.5272C140.169 44.6301 139.945 43.733 139.496 42.8359L13.6807 115.499Z" fill="url(#paint18_linear_30_17501)"/>
<path d="M0 70.4206C0 71.3177 0 71.9905 0 72.8876C0 73.1119 0 73.5604 0 73.7847L110.117 10.3162C109.22 9.64342 108.098 9.19488 107.201 8.74634L0 70.4206Z" fill="url(#paint19_linear_30_17501)"/>
<path d="M7.625 105.631C8.07354 106.529 8.52208 107.426 8.97062 108.098L135.235 35.2106C134.786 34.3135 134.338 33.6407 133.665 32.7437L7.625 105.631Z" fill="url(#paint20_linear_30_17501)"/>
<path d="M10.541 110.789C10.9896 111.686 11.4381 112.359 12.1109 113.256L138.151 40.3683C137.702 39.4713 137.254 38.5742 136.805 37.9014L10.541 110.789Z" fill="url(#paint21_linear_30_17501)"/>
<path d="M0.224121 77.1491C0.224121 78.2704 0.448391 79.1675 0.448391 80.2889L115.499 13.6806C114.602 13.0078 113.705 12.5593 112.808 11.8865L0.224121 77.1491Z" fill="url(#paint22_linear_30_17501)"/>
<path d="M5.38232 100.473C5.83086 101.37 6.05513 102.267 6.50367 103.165L132.319 30.501C131.871 29.8282 131.198 28.9311 130.525 28.2583L5.38232 100.473Z" fill="url(#paint23_linear_30_17501)"/>
<path d="M0.672363 83.4282C0.896633 84.5496 0.896633 85.4466 1.1209 86.3437L120.208 17.4928C119.536 16.82 118.638 16.1472 117.741 15.4744L0.672363 83.4282Z" fill="url(#paint24_linear_30_17501)"/>
<path d="M3.36426 95.0906C3.58853 95.9877 4.03707 96.8848 4.26134 97.7818L128.731 26.0154C128.058 25.3426 127.386 24.4455 126.713 23.7727L3.36426 95.0906Z" fill="url(#paint25_linear_30_17501)"/>
</g>
<defs>
<linearGradient id="paint0_linear_30_17501" x1="56.9114" y1="87.743" x2="94.9481" y2="152.155" gradientUnits="userSpaceOnUse">
<stop stop-color="#FF9100"/>
<stop offset="1" stop-color="#FF4D00"/>
</linearGradient>
<linearGradient id="paint1_linear_30_17501" x1="35.5776" y1="59.0863" x2="81.3815" y2="136.675" gradientUnits="userSpaceOnUse">
<stop stop-color="#FF9100"/>
<stop offset="1" stop-color="#FF4D00"/>
</linearGradient>
<linearGradient id="paint2_linear_30_17501" x1="62.269" y1="94.2606" x2="97.574" y2="153.89" gradientUnits="userSpaceOnUse">
<stop stop-color="#FF9100"/>
<stop offset="1" stop-color="#FF4D00"/>
</linearGradient>
<linearGradient id="paint3_linear_30_17501" x1="43.0566" y1="70.2539" x2="86.7623" y2="144.345" gradientUnits="userSpaceOnUse">
<stop stop-color="#FF9100"/>
<stop offset="1" stop-color="#FF4D00"/>
</linearGradient>
<linearGradient id="paint4_linear_30_17501" x1="39.0293" y1="64.2708" x2="84.0335" y2="140.389" gradientUnits="userSpaceOnUse">
<stop stop-color="#FF9100"/>
<stop offset="1" stop-color="#FF4D00"/>
</linearGradient>
<linearGradient id="paint5_linear_30_17501" x1="47.1438" y1="75.9471" x2="89.3372" y2="147.426" gradientUnits="userSpaceOnUse">
<stop stop-color="#FF9100"/>
<stop offset="1" stop-color="#FF4D00"/>
</linearGradient>
<linearGradient id="paint6_linear_30_17501" x1="51.7401" y1="81.7985" x2="92.2074" y2="150.078" gradientUnits="userSpaceOnUse">
<stop stop-color="#FF9100"/>
<stop offset="1" stop-color="#FF4D00"/>
</linearGradient>
<linearGradient id="paint7_linear_30_17501" x1="75.5614" y1="108.689" x2="102.442" y2="154.869" gradientUnits="userSpaceOnUse">
<stop stop-color="#FF9100"/>
<stop offset="1" stop-color="#FF4D00"/>
</linearGradient>
<linearGradient id="paint8_linear_30_17501" x1="25.3594" y1="5.01526" x2="37.8376" y2="26.6807" gradientUnits="userSpaceOnUse">
<stop stop-color="#FF9100"/>
<stop offset="1" stop-color="#FF4D00"/>
</linearGradient>
<linearGradient id="paint9_linear_30_17501" x1="19.7417" y1="30.1819" x2="64.7459" y2="106.3" gradientUnits="userSpaceOnUse">
<stop stop-color="#FF9100"/>
<stop offset="1" stop-color="#FF4D00"/>
</linearGradient>
<linearGradient id="paint10_linear_30_17501" x1="84.0671" y1="116.726" x2="105.033" y2="153.176" gradientUnits="userSpaceOnUse">
<stop stop-color="#FF9100"/>
<stop offset="1" stop-color="#FF4D00"/>
</linearGradient>
<linearGradient id="paint11_linear_30_17501" x1="95.5225" y1="126.346" x2="108.04" y2="147.942" gradientUnits="userSpaceOnUse">
<stop stop-color="#FF9100"/>
<stop offset="1" stop-color="#FF4D00"/>
</linearGradient>
<linearGradient id="paint12_linear_30_17501" x1="68.5839" y1="101.254" x2="100.12" y2="155.059" gradientUnits="userSpaceOnUse">
<stop stop-color="#FF9100"/>
<stop offset="1" stop-color="#FF4D00"/>
</linearGradient>
<linearGradient id="paint13_linear_30_17501" x1="15.4292" y1="11.6962" x2="50.4888" y2="71.2836" gradientUnits="userSpaceOnUse">
<stop stop-color="#FF9100"/>
<stop offset="1" stop-color="#FF4D00"/>
</linearGradient>
<linearGradient id="paint14_linear_30_17501" x1="15.4212" y1="14.8551" x2="53.4578" y2="79.2674" gradientUnits="userSpaceOnUse">
<stop stop-color="#FF9100"/>
<stop offset="1" stop-color="#FF4D00"/>
</linearGradient>
<linearGradient id="paint15_linear_30_17501" x1="15.6229" y1="8.63019" x2="47.1987" y2="62.3644" gradientUnits="userSpaceOnUse">
<stop stop-color="#FF9100"/>
<stop offset="1" stop-color="#FF4D00"/>
</linearGradient>
<linearGradient id="paint16_linear_30_17501" x1="19.7009" y1="5.03883" x2="40.6667" y2="41.4893" gradientUnits="userSpaceOnUse">
<stop stop-color="#FF9100"/>
<stop offset="1" stop-color="#FF4D00"/>
</linearGradient>
<linearGradient id="paint17_linear_30_17501" x1="16.8358" y1="6.45498" x2="43.8826" y2="52.8209" gradientUnits="userSpaceOnUse">
<stop stop-color="#FF9100"/>
<stop offset="1" stop-color="#FF4D00"/>
</linearGradient>
<linearGradient id="paint18_linear_30_17501" x1="32.2185" y1="53.8357" x2="78.5687" y2="132.381" gradientUnits="userSpaceOnUse">
<stop stop-color="#FF9100"/>
<stop offset="1" stop-color="#FF4D00"/>
</linearGradient>
<linearGradient id="paint19_linear_30_17501" x1="16.0814" y1="18.2971" x2="56.3429" y2="86.4639" gradientUnits="userSpaceOnUse">
<stop stop-color="#FF9100"/>
<stop offset="1" stop-color="#FF4D00"/>
</linearGradient>
<linearGradient id="paint20_linear_30_17501" x1="26.2611" y1="43.8093" x2="72.9042" y2="122.797" gradientUnits="userSpaceOnUse">
<stop stop-color="#FF9100"/>
<stop offset="1" stop-color="#FF4D00"/>
</linearGradient>
<linearGradient id="paint21_linear_30_17501" x1="29.1771" y1="48.967" x2="75.8202" y2="127.955" gradientUnits="userSpaceOnUse">
<stop stop-color="#FF9100"/>
<stop offset="1" stop-color="#FF4D00"/>
</linearGradient>
<linearGradient id="paint22_linear_30_17501" x1="17.0588" y1="21.9312" x2="59.4976" y2="93.451" gradientUnits="userSpaceOnUse">
<stop stop-color="#FF9100"/>
<stop offset="1" stop-color="#FF4D00"/>
</linearGradient>
<linearGradient id="paint23_linear_30_17501" x1="23.9202" y1="39.2581" x2="70.2703" y2="117.804" gradientUnits="userSpaceOnUse">
<stop stop-color="#FF9100"/>
<stop offset="1" stop-color="#FF4D00"/>
</linearGradient>
<linearGradient id="paint24_linear_30_17501" x1="18.1294" y1="25.8814" x2="62.0805" y2="100.014" gradientUnits="userSpaceOnUse">
<stop stop-color="#FF9100"/>
<stop offset="1" stop-color="#FF4D00"/>
</linearGradient>
<linearGradient id="paint25_linear_30_17501" x1="21.6728" y1="34.6408" x2="67.4767" y2="112.23" gradientUnits="userSpaceOnUse">
<stop stop-color="#FF9100"/>
<stop offset="1" stop-color="#FF4D00"/>
</linearGradient>
</defs>
</svg>
