<svg width="111" height="120" viewBox="0 0 111 120" fill="none" xmlns="http://www.w3.org/2000/svg">
<g opacity="0.5">
<path fill-rule="evenodd" clip-rule="evenodd" d="M10.5972 18.9553C11.1942 18.3583 12.0898 18.3583 12.3883 18.9553L13.5823 20.1493C14.1793 20.7463 15.0748 20.7463 15.6719 20.1493L17.1644 18.9553C17.7614 18.3583 18.6569 18.3583 18.9554 18.9553C19.5525 19.5523 19.5525 20.4478 18.9554 20.7463C18.3584 21.3433 18.3584 21.3433 17.7614 21.9403C17.1644 22.5374 17.1644 23.4329 17.7614 24.0299L18.9554 25.2239C19.5525 25.8209 19.5525 26.7165 18.9554 27.015C18.3584 27.612 17.4629 27.612 17.1644 27.015L15.9704 25.8209C15.3734 25.2239 14.4778 25.2239 13.8808 25.8209L12.6868 27.015C12.0898 27.612 11.1943 27.612 10.8957 27.015C10.2987 26.418 10.2987 25.5224 10.8957 25.2239L12.0898 24.0299C12.6868 23.4329 12.6868 22.5374 12.0898 21.9403L10.8957 20.7463C10.0002 20.4478 10.0002 19.5523 10.5972 18.9553Z" fill="url(#paint0_linear_30_17765)"/>
<path fill-rule="evenodd" clip-rule="evenodd" d="M30.8965 18.9553C31.4935 18.3583 32.389 18.3583 32.6875 18.9553L33.8816 20.1493C34.4786 20.7463 35.3741 20.7463 35.9711 20.1493L37.1651 18.9553C37.7622 18.3583 38.6577 18.3583 38.9562 18.9553C39.5532 19.5523 39.5532 20.4478 38.9562 20.7463C38.3592 21.3433 38.3592 21.3433 37.7622 21.9403C37.1652 22.5374 37.1652 23.4329 37.7622 24.0299L38.9562 25.2239C39.5532 25.8209 39.5532 26.7165 38.9562 27.015C38.3592 27.612 37.4637 27.612 37.1651 27.015L35.9711 25.8209C35.3741 25.2239 34.4786 25.2239 33.8816 25.8209L32.6875 27.015C32.0905 27.612 31.195 27.612 30.8965 27.015C30.2995 26.418 30.2995 25.5224 30.8965 25.2239L32.0905 24.3284C32.6875 23.7314 32.6875 22.8359 32.0905 22.2389L30.8965 21.0448C30.2995 20.4478 30.2995 19.5523 30.8965 18.9553Z" fill="url(#paint1_linear_30_17765)"/>
<path fill-rule="evenodd" clip-rule="evenodd" d="M50.8958 18.9553C51.4928 18.3583 52.3883 18.3583 52.6868 18.9553L53.8809 20.1493C54.4779 20.7463 55.3734 20.7463 55.9704 20.1493L57.1644 18.9553C57.7615 18.3583 58.657 18.3583 58.9555 18.9553C59.5525 19.5523 59.5525 20.4478 58.9555 20.7463C58.3585 21.3433 58.3585 21.3433 57.7614 21.9403C57.1644 22.5374 57.1644 23.4329 57.7614 24.0299L58.9555 25.2239C59.5525 25.8209 59.5525 26.7165 58.9555 27.015C58.3585 27.612 57.4629 27.612 57.1644 27.015L55.9704 25.8209C55.3734 25.2239 54.4779 25.2239 53.8809 25.8209L52.9853 27.3135C52.3883 27.9105 51.4928 27.9105 51.1943 27.3135C50.5973 26.7165 50.5973 25.8209 51.1943 25.5224L52.3883 24.3284C52.9853 23.7314 52.9853 22.8359 52.3883 22.2389L51.1943 21.0448C50.5973 20.4478 50.5973 19.5523 50.8958 18.9553Z" fill="url(#paint2_linear_30_17765)"/>
<path fill-rule="evenodd" clip-rule="evenodd" d="M71.1948 18.9553C71.7918 18.3583 72.6874 18.3583 72.9859 18.9553L74.1799 20.1493C74.7769 20.7463 75.6725 20.7463 76.2695 20.1493L77.4635 18.9553C78.0605 18.3583 78.956 18.3583 79.2545 18.9553C79.8516 19.5523 79.8516 20.4478 79.2545 20.7463C78.6575 21.3433 78.6575 21.3433 78.0605 21.9403C77.4635 22.5374 77.4635 23.4329 78.0605 24.0299L79.2545 25.2239C79.8516 25.8209 79.8516 26.7165 79.2545 27.015C78.6575 27.612 77.762 27.612 77.4635 27.015L76.2695 25.8209C75.6725 25.2239 74.7769 25.2239 74.1799 25.8209L72.9859 27.015C72.3889 27.612 71.4933 27.612 71.1948 27.015C70.5978 26.418 70.5978 25.5224 71.1948 25.2239L72.3889 24.0299C72.9859 23.4329 72.9859 22.5374 72.3889 21.9403L71.1948 20.7463C70.5978 20.4478 70.5978 19.5523 71.1948 18.9553Z" fill="url(#paint3_linear_30_17765)"/>
<path fill-rule="evenodd" clip-rule="evenodd" d="M91.4927 18.9553C92.0897 18.3583 92.9852 18.3583 93.2837 18.9553L94.4778 20.1493C95.0748 20.7463 95.9703 20.7463 96.5673 20.1493L97.7613 18.9553C98.3584 18.3583 99.2539 18.3583 99.5524 18.9553C100.149 19.5523 100.149 20.4478 99.5524 20.7463C98.9554 21.3433 98.9554 21.3433 98.3583 21.9403C97.7613 22.5374 97.7613 23.4329 98.3583 24.0299L99.5524 25.2239C100.149 25.8209 100.149 26.7165 99.5524 27.015C98.9554 27.612 98.0598 27.612 97.7613 27.015L96.5673 25.8209C95.9703 25.2239 95.0748 25.2239 94.4778 25.8209L93.2837 27.015C92.6867 27.612 91.7912 27.612 91.4927 27.015C90.8957 26.418 90.8957 25.5224 91.4927 25.2239L92.6867 24.0299C93.2837 23.4329 93.2837 22.5374 92.6867 21.9403L91.4927 20.7463C90.8957 20.4478 90.8957 19.5523 91.4927 18.9553Z" fill="url(#paint4_linear_30_17765)"/>
<path fill-rule="evenodd" clip-rule="evenodd" d="M0.448031 0.447761C1.04505 -0.149254 1.94056 -0.149254 2.23907 0.447761L3.43311 1.64179C4.03012 2.23881 4.92563 2.23881 5.52265 1.64179L6.71668 0.447761C7.3137 -0.149254 8.20922 -0.149254 8.50772 0.447761C9.10474 1.04478 9.10474 1.9403 8.50772 2.23881C8.50772 3.13433 8.20922 3.13433 7.6122 3.73134C7.01519 4.32836 7.01519 5.22388 7.6122 5.8209L8.80624 7.01493C9.40325 7.61194 9.40325 8.50746 8.80624 8.80597C8.20922 9.40299 7.31369 9.40299 7.01519 8.80597L5.82116 7.61194C5.22415 7.01493 4.32862 7.01493 3.73161 7.61194L2.53757 9.10448C1.94056 9.70149 1.04504 9.70149 0.746534 9.10448C0.149519 8.50746 0.149519 7.61194 0.746534 7.31343L1.94057 6.1194C2.53758 5.52239 2.53758 4.62687 1.94057 4.02985L0.746534 2.83582C0.149519 1.9403 0.149523 1.04478 0.448031 0.447761Z" fill="url(#paint5_linear_30_17765)"/>
<path fill-rule="evenodd" clip-rule="evenodd" d="M20.7471 0.447761C21.3441 -0.149254 22.2396 -0.149254 22.5381 0.447761L23.7322 1.64179C24.3292 2.23881 25.2247 2.23881 25.8217 1.64179L27.0157 0.447761C27.9113 0.149254 28.5083 0.149254 29.1053 0.447761C29.7023 1.04478 29.7023 1.9403 29.1053 2.23881C28.5083 3.13433 28.5083 3.13433 27.9113 3.73134C27.3142 4.32836 27.3142 5.22388 27.9113 5.8209L29.1053 7.01493C29.7023 7.61194 29.7023 8.50746 29.1053 8.80597C28.5083 9.40299 27.6128 9.40299 27.3142 8.80597L26.1202 7.61194C25.5232 7.01493 24.6277 7.01493 24.0307 7.61194L22.5381 9.10448C21.9411 9.70149 21.0456 9.70149 20.7471 9.10448C20.1501 8.50746 20.1501 7.61194 20.7471 7.31343L21.9411 6.1194C22.5381 5.52239 22.5381 4.62687 21.9411 4.02985L20.7471 2.83582C20.1501 1.9403 20.1501 1.04478 20.7471 0.447761Z" fill="url(#paint6_linear_30_17765)"/>
<path fill-rule="evenodd" clip-rule="evenodd" d="M41.0449 0.447761C41.6419 -0.149254 42.5375 -0.149254 42.836 0.447761L44.03 1.64179C44.627 2.23881 45.5225 2.23881 46.1195 1.64179L47.3136 0.447761C47.9106 -0.149254 48.8061 -0.149254 49.1046 0.447761C49.7016 1.04478 49.7016 1.9403 49.1046 2.23881C48.8061 3.13433 48.8061 3.13433 48.2091 3.73134C47.6121 4.32836 47.6121 5.22388 48.2091 5.8209L49.4031 7.01493C50.0002 7.61194 50.0002 8.50746 49.4031 9.10448C48.8061 9.70149 47.9106 9.70149 47.6121 9.10448L46.4181 7.91045C45.8211 7.31343 44.9255 7.31343 44.3285 7.91045L42.836 9.10448C42.239 9.70149 41.3434 9.70149 41.0449 9.10448C40.4479 8.50746 40.4479 7.61194 41.0449 7.31343L42.239 6.1194C42.836 5.52239 42.836 4.62687 42.239 4.02985L41.0449 2.53731C40.4479 1.9403 40.4479 1.04478 41.0449 0.447761Z" fill="url(#paint7_linear_30_17765)"/>
<path fill-rule="evenodd" clip-rule="evenodd" d="M61.0442 0.447761C61.6412 -0.149254 62.5368 -0.149254 62.8353 0.447761L64.0293 1.64179C64.6263 2.23881 65.5218 2.23881 66.1189 1.64179L67.3129 0.447761C67.9099 -0.149254 68.8054 -0.149254 69.1039 0.447761C69.7009 1.04478 69.7009 1.9403 69.1039 2.23881C69.1039 3.13433 68.8054 3.13433 68.2084 3.73134C67.6114 4.32836 67.6114 5.22388 68.2084 5.8209L69.4024 7.01493C69.9994 7.61194 69.9994 8.50746 69.4024 8.80597C68.8054 9.40299 67.9099 9.40299 67.6114 8.80597L66.4174 7.61194C65.8203 7.01493 64.9248 7.01493 64.3278 7.61194L63.1338 9.10448C62.5368 9.70149 61.6412 9.70149 61.3427 9.10448C60.7457 8.50746 60.7457 7.61194 61.3427 7.31343L62.5368 6.1194C63.1338 5.52239 63.1338 4.62687 62.5368 4.02985L61.3427 2.83582C60.7457 1.9403 60.7457 1.04478 61.0442 0.447761Z" fill="url(#paint8_linear_30_17765)"/>
<path fill-rule="evenodd" clip-rule="evenodd" d="M81.3433 0.447761C81.9403 0.149254 82.8358 0.149254 83.1343 0.447761L84.3283 1.64179C84.9254 2.23881 85.8209 2.23881 86.4179 1.64179L87.6119 0.447761C88.2089 -0.149254 89.1045 -0.149254 89.403 0.447761C90 1.04478 90 1.9403 89.403 2.23881C89.1045 3.13433 89.1045 3.13433 88.5075 3.73134C87.9104 4.32836 87.9104 5.22388 88.5075 5.8209L89.7015 7.01493C90.2985 7.61194 90.2985 8.50746 89.7015 8.80597C89.1045 9.40299 88.2089 9.40299 87.9104 8.80597L86.7164 7.61194C86.1194 7.01493 85.2239 7.01493 84.6268 7.61194L83.1343 9.10448C82.5373 9.70149 81.6418 9.70149 81.3433 9.10448C80.7463 8.50746 80.7463 7.61194 81.3433 7.31343L82.5373 6.1194C83.1343 5.52239 83.1343 4.62687 82.5373 4.02985L81.3433 2.83582C80.7463 1.9403 80.7463 1.04478 81.3433 0.447761Z" fill="url(#paint9_linear_30_17765)"/>
<path fill-rule="evenodd" clip-rule="evenodd" d="M101.643 0.447761C102.24 -0.149254 103.135 -0.149254 103.434 0.447761L104.628 1.64179C105.225 2.23881 106.12 2.23881 106.717 1.64179L107.911 0.447761C108.508 -0.149254 109.404 -0.149254 109.702 0.447761C110.299 1.04478 110.299 1.9403 109.702 2.23881C109.404 3.13433 109.404 3.13433 108.807 3.73134C108.21 4.32836 108.21 5.22388 108.807 5.8209L110.001 7.01493C110.598 7.61194 110.598 8.50746 110.001 8.80597C109.404 9.40299 108.508 9.40299 108.21 8.80597L106.717 7.61194C106.12 7.01493 105.225 7.01493 104.628 7.61194L103.434 9.10448C102.837 9.70149 101.941 9.70149 101.643 9.10448C101.046 8.50746 101.046 7.61194 101.643 7.31343L102.837 6.1194C103.434 5.52239 103.434 4.62687 102.837 4.02985L101.643 2.83582C101.046 1.9403 101.046 1.04478 101.643 0.447761Z" fill="url(#paint10_linear_30_17765)"/>
<path fill-rule="evenodd" clip-rule="evenodd" d="M10.5967 55.9701C11.1937 55.3731 12.0892 55.3731 12.3877 55.9701L13.5818 57.1641C14.1788 57.7611 15.0743 57.7611 15.6713 57.1641L16.8654 55.9701C17.4624 55.3731 18.3579 55.3731 18.6564 55.9701C19.2534 56.5671 19.2534 57.4626 18.6564 57.7611C18.0594 58.3582 18.0594 58.3582 17.4624 58.9552C16.8653 59.5522 16.8653 60.4477 17.4624 61.0447L18.6564 62.2388C19.2534 62.8358 19.2534 63.7313 18.6564 64.0298C18.0594 64.6268 17.1639 64.6268 16.8654 64.0298L15.6713 62.8358C15.0743 62.2388 14.1788 62.2388 13.5818 62.8358L12.3877 64.0298C11.7907 64.6268 10.8952 64.6268 10.5967 64.0298C9.99967 63.4328 9.99967 62.5373 10.5967 62.2388L11.7907 61.0447C12.3877 60.4477 12.3877 59.5522 11.7907 58.9552L10.5967 57.7611C9.99967 57.1641 9.99967 56.2686 10.5967 55.9701Z" fill="url(#paint11_linear_30_17765)"/>
<path fill-rule="evenodd" clip-rule="evenodd" d="M30.8945 55.9701C31.4916 55.3731 32.3871 55.3731 32.6856 55.9701L33.8796 57.1641C34.4766 57.7611 35.3722 57.7611 35.9692 57.1641L37.1632 55.9701C37.7602 55.3731 38.6557 55.3731 38.9543 55.9701C39.5513 56.5671 39.5513 57.4626 38.9543 57.7611C38.3572 58.3582 38.3572 58.3582 37.7602 58.9552C37.1632 59.5522 37.1632 60.4477 37.7602 61.0447L38.9543 62.2388C39.5513 62.8358 39.5513 63.7313 38.9543 64.0298C38.3572 64.6268 37.4617 64.6268 37.1632 64.0298L35.9692 62.8358C35.3722 62.2388 34.4766 62.2388 33.8796 62.8358L32.6856 64.0298C32.0886 64.6268 31.193 64.6268 30.8945 64.0298C30.2975 63.4328 30.2975 62.5373 30.8945 62.2388L32.0886 61.0447C32.6856 60.4477 32.6856 59.5522 32.0886 58.9552L30.8945 57.7611C30.2975 57.1641 30.2975 56.2686 30.8945 55.9701Z" fill="url(#paint12_linear_30_17765)"/>
<path fill-rule="evenodd" clip-rule="evenodd" d="M50.8953 55.9701C51.4923 55.3731 52.3878 55.3731 52.6863 55.9701L53.8804 57.1641C54.4774 57.7611 55.3729 57.7611 55.9699 57.1641L57.1639 55.9701C57.761 55.3731 58.6565 55.3731 58.955 55.9701C59.552 56.5671 59.552 57.4626 58.955 57.7611C58.358 58.3582 58.358 58.3582 57.761 58.9552C57.1639 59.5522 57.1639 60.4477 57.761 61.0447L58.955 62.2388C59.552 62.8358 59.552 63.7313 58.955 64.0298C58.358 64.6268 57.4625 64.6268 57.1639 64.0298L55.9699 62.8358C55.3729 62.2388 54.4774 62.2388 53.8804 62.8358L52.9848 64.3283C52.3878 64.9253 51.4923 64.9253 51.1938 64.3283C50.5968 63.7313 50.5968 62.8358 51.1938 62.5373L52.3878 61.3432C52.9848 60.7462 52.9848 59.8507 52.3878 59.2537L51.1938 58.0596C50.5968 57.1641 50.5968 56.2686 50.8953 55.9701Z" fill="url(#paint13_linear_30_17765)"/>
<path fill-rule="evenodd" clip-rule="evenodd" d="M71.1929 55.9701C71.7899 55.3731 72.6854 55.3731 72.9839 55.9701L74.178 57.1641C74.775 57.7611 75.6705 57.7611 76.2675 57.1641L77.4615 55.9701C78.0585 55.3731 78.9541 55.3731 79.2526 55.9701C79.8496 56.5671 79.8496 57.4626 79.2526 57.7611C78.6556 58.3582 78.6556 58.3582 78.0586 58.9552C77.4615 59.5522 77.4615 60.4477 78.0586 61.0447L79.2526 62.2388C79.8496 62.8358 79.8496 63.7313 79.2526 64.0298C78.6556 64.6268 77.76 64.6268 77.4615 64.0298L76.2675 62.8358C75.6705 62.2388 74.775 62.2388 74.178 62.8358L72.9839 64.0298C72.3869 64.6268 71.4914 64.6268 71.1929 64.0298C70.5959 63.4328 70.5959 62.5373 71.1929 62.2388L72.3869 61.0447C72.9839 60.4477 72.9839 59.5522 72.3869 58.9552L71.1929 57.7611C70.5959 57.1641 70.5959 56.2686 71.1929 55.9701Z" fill="url(#paint14_linear_30_17765)"/>
<path fill-rule="evenodd" clip-rule="evenodd" d="M91.4922 55.9701C92.0892 55.3731 92.9847 55.3731 93.2832 55.9701L94.4773 57.1641C95.0743 57.7611 95.9698 57.7611 96.5668 57.1641L97.7608 55.9701C98.3579 55.3731 99.2534 55.3731 99.5519 55.9701C100.149 56.5671 100.149 57.4626 99.5519 57.7611C98.9549 58.3582 98.9549 58.3582 98.3579 58.9552C97.7608 59.5522 97.7608 60.4477 98.3579 61.0447L99.5519 62.2388C100.149 62.8358 100.149 63.7313 99.5519 64.0298C98.9549 64.6268 98.0594 64.6268 97.7608 64.0298L96.5668 62.8358C95.9698 62.2388 95.0743 62.2388 94.4773 62.8358L93.2832 64.0298C92.6862 64.6268 91.7907 64.6268 91.4922 64.0298C90.8952 63.4328 90.8952 62.5373 91.4922 62.2388L92.6862 61.0447C93.2832 60.4477 93.2832 59.5522 92.6862 58.9552L91.4922 57.7611C90.8952 57.1641 90.8952 56.2686 91.4922 55.9701Z" fill="url(#paint15_linear_30_17765)"/>
<path fill-rule="evenodd" clip-rule="evenodd" d="M0.447761 37.4628C1.04478 36.8658 1.94029 36.8658 2.2388 37.4628L3.43284 38.6568C4.02985 39.2538 4.92536 39.2538 5.52238 38.6568L6.71641 37.4628C7.31343 36.8658 8.20895 36.8658 8.50745 37.4628C9.10447 38.0598 9.10447 38.9553 8.50745 39.2538C7.91044 39.8508 7.91045 39.8508 7.31343 40.4479C6.71642 41.0449 6.71642 41.9404 7.31343 42.5374L8.50745 43.7314C9.10447 44.3284 9.10447 45.224 8.50745 45.5225C7.91044 46.1195 7.01492 46.1195 6.71641 45.5225L5.52238 44.3284C4.92536 43.7314 4.02985 43.7314 3.43284 44.3284L2.2388 45.5225C1.64179 46.1195 0.746269 46.1195 0.447761 45.5225C-0.149254 44.9255 -0.149254 44.0299 0.447761 43.7314L1.64178 42.5374C2.2388 41.9404 2.2388 41.0449 1.64178 40.4479L0.447761 39.2538C0.149254 38.6568 0.149254 38.0598 0.447761 37.4628Z" fill="url(#paint16_linear_30_17765)"/>
<path fill-rule="evenodd" clip-rule="evenodd" d="M20.7462 37.4628C21.3432 36.8658 22.2387 36.8658 22.5372 37.4628L23.7312 38.6568C24.3283 39.2538 25.2238 39.2538 25.8208 38.6568L27.0148 37.4628C27.6118 36.8658 28.5074 36.8658 28.8059 37.4628C29.4029 38.0598 29.4029 38.9553 28.8059 39.2538C28.2089 39.8508 28.2088 39.8508 27.6118 40.4479C27.0148 41.0449 27.0148 41.9404 27.6118 42.5374L28.8059 43.7314C29.4029 44.3284 29.4029 45.224 28.8059 45.5225C28.2089 46.1195 27.3133 46.1195 27.0148 45.5225L26.1193 44.627C25.5223 44.0299 24.6268 44.0299 24.0297 44.627L22.8357 45.821C22.2387 46.418 21.3432 46.418 21.0447 45.821C20.4477 45.224 20.4477 44.3284 21.0447 44.0299L22.2387 42.8359C22.8357 42.2389 22.8357 41.3434 22.2387 40.7464L21.0447 39.5523C20.1491 38.6568 20.1491 38.0598 20.7462 37.4628Z" fill="url(#paint17_linear_30_17765)"/>
<path fill-rule="evenodd" clip-rule="evenodd" d="M41.0454 37.4628C41.6424 36.8658 42.538 36.8658 42.8365 37.4628L44.0305 38.6568C44.6275 39.2538 45.523 39.2538 46.12 38.6568L47.3141 37.4628C47.9111 36.8658 48.8066 36.8658 49.1051 37.4628C49.7021 38.0598 49.7021 38.9553 49.1051 39.2538C48.5081 39.8508 48.5081 39.8508 47.9111 40.4479C47.3141 41.0449 47.3141 41.9404 47.9111 42.5374L49.1051 43.7314C49.7021 44.3284 49.7021 45.224 49.1051 45.5225C48.5081 46.1195 47.6126 46.1195 47.3141 45.5225L46.12 44.3284C45.523 43.7314 44.6275 43.7314 44.0305 44.3284L42.8365 45.5225C42.2394 46.1195 41.3439 46.1195 41.0454 45.5225C40.4484 44.9255 40.4484 44.0299 41.0454 43.7314L42.2395 42.5374C42.8365 41.9404 42.8365 41.0449 42.2395 40.4479L41.0454 39.2538C40.4484 38.6568 40.4484 38.0598 41.0454 37.4628Z" fill="url(#paint18_linear_30_17765)"/>
<path fill-rule="evenodd" clip-rule="evenodd" d="M61.0444 37.4628C61.6415 36.8658 62.537 36.8658 62.8355 37.4628L64.0295 38.6568C64.6265 39.2538 65.5221 39.2538 66.1191 38.6568L67.3131 37.4628C67.9101 36.8658 68.8056 36.8658 69.1042 37.4628C69.7012 38.0598 69.7012 38.9553 69.1042 39.2538C68.5071 39.8508 68.5071 39.8508 67.9101 40.4479C67.3131 41.0449 67.3131 41.9404 67.9101 42.5374L69.1042 43.7314C69.7012 44.3284 69.7012 45.224 69.1042 45.5225C68.5071 46.1195 67.6116 46.1195 67.3131 45.5225L66.1191 44.3284C65.5221 43.7314 64.6265 43.7314 64.0295 44.3284L62.8355 45.5225C62.2385 46.1195 61.3429 46.1195 61.0444 45.5225C60.4474 44.9255 60.4474 44.0299 61.0444 43.7314L62.2385 42.5374C62.8355 41.9404 62.8355 41.0449 62.2385 40.4479L61.0444 39.2538C60.7459 38.6568 60.7459 38.0598 61.0444 37.4628Z" fill="url(#paint19_linear_30_17765)"/>
<path fill-rule="evenodd" clip-rule="evenodd" d="M81.3438 37.4628C81.9408 36.8658 82.8363 36.8658 83.1348 37.4628L84.3288 38.6568C84.9258 39.2538 85.8214 39.2538 86.4184 38.6568L87.6124 37.4628C88.2094 36.8658 89.1049 36.8658 89.4035 37.4628C90.0005 38.0598 90.0005 38.9553 89.4035 39.2538C88.8064 39.8508 88.8065 39.8508 88.2094 40.4479C87.6124 41.0449 87.6124 41.9404 88.2094 42.5374L89.4035 43.7314C90.0005 44.3284 90.0005 45.224 89.4035 45.5225C88.8064 46.1195 87.9109 46.1195 87.6124 45.5225L86.4184 44.3284C85.8214 43.7314 84.9258 43.7314 84.3288 44.3284L83.1348 45.5225C82.5378 46.1195 81.6423 46.1195 81.3438 45.5225C80.7467 44.9255 80.7467 44.0299 81.3438 43.7314L82.5378 42.5374C83.1348 41.9404 83.1348 41.0449 82.5378 40.4479L81.3438 39.2538C80.7467 38.6568 80.7467 38.0598 81.3438 37.4628Z" fill="url(#paint20_linear_30_17765)"/>
<path fill-rule="evenodd" clip-rule="evenodd" d="M101.642 37.4628C102.239 36.8658 103.134 36.8658 103.433 37.4628L104.627 38.6568C105.224 39.2538 106.119 39.2538 106.716 38.6568L107.91 37.4628C108.507 36.8658 109.403 36.8658 109.701 37.4628C110.298 38.0598 110.298 38.9553 109.701 39.2538C109.104 39.8508 109.104 39.8508 108.507 40.4479C107.91 41.0449 107.91 41.9404 108.507 42.5374L109.701 43.7314C110.298 44.3284 110.298 45.224 109.701 45.5225C109.104 46.1195 108.209 46.1195 107.91 45.5225L106.716 44.627C106.119 44.0299 105.224 44.0299 104.627 44.627L103.433 45.821C102.836 46.418 101.94 46.418 101.642 45.821C101.045 45.224 101.045 44.3284 101.642 44.0299L102.836 42.8359C103.433 42.2389 103.433 41.3434 102.836 40.7464L101.642 39.5523C101.045 38.6568 101.045 38.0598 101.642 37.4628Z" fill="url(#paint21_linear_30_17765)"/>
<path fill-rule="evenodd" clip-rule="evenodd" d="M10.5972 92.6867C11.1942 92.0896 12.0898 92.0896 12.3883 92.6867L13.5823 93.8807C14.1793 94.4777 15.0748 94.4777 15.6719 93.8807L17.1644 92.6867C17.7614 92.0896 18.6569 92.0896 18.9554 92.6867C19.5525 93.2837 19.5525 94.1792 18.9554 94.4777C18.3584 95.0747 18.3584 95.0747 17.7614 95.6717C17.1644 96.2687 17.1644 97.1643 17.7614 97.7613L18.9554 98.9553C19.5525 99.5523 19.5525 100.448 18.9554 100.746C18.3584 101.343 17.4629 101.343 17.1644 100.746L15.9704 99.5523C15.3734 98.9553 14.4778 98.9553 13.8808 99.5523L12.6868 100.746C12.0898 101.343 11.1943 101.343 10.8957 100.746C10.2987 100.149 10.2987 99.2538 10.8957 98.9553L12.0898 97.7613C12.6868 97.1643 12.6868 96.2687 12.0898 95.6717L10.8957 94.4777C10.0002 94.1792 10.0002 93.2837 10.5972 92.6867Z" fill="url(#paint22_linear_30_17765)"/>
<path fill-rule="evenodd" clip-rule="evenodd" d="M30.8965 92.6867C31.4935 92.0896 32.389 92.0896 32.6875 92.6867L33.8816 93.8807C34.4786 94.4777 35.3741 94.4777 35.9711 93.8807L37.1651 92.6867C37.7622 92.0896 38.6577 92.0896 38.9562 92.6867C39.5532 93.2837 39.5532 94.1792 38.9562 94.4777C38.3592 95.0747 38.3592 95.0747 37.7622 95.6717C37.1652 96.2687 37.1652 97.1643 37.7622 97.7613L38.9562 98.9553C39.5532 99.5523 39.5532 100.448 38.9562 100.746C38.3592 101.343 37.4637 101.343 37.1651 100.746L35.9711 99.5523C35.3741 98.9553 34.4786 98.9553 33.8816 99.5523L32.6875 100.746C32.0905 101.343 31.195 101.343 30.8965 100.746C30.2995 100.149 30.2995 99.2538 30.8965 98.9553L32.0905 97.7613C32.6875 97.1643 32.6875 96.2687 32.0905 95.6717L30.8965 94.4777C30.2995 94.1792 30.2995 93.2837 30.8965 92.6867Z" fill="url(#paint23_linear_30_17765)"/>
<path fill-rule="evenodd" clip-rule="evenodd" d="M50.8958 92.6867C51.4928 92.0896 52.3883 92.0896 52.6868 92.6867L53.8809 93.8807C54.4779 94.4777 55.3734 94.4777 55.9704 93.8807L57.1644 92.6867C57.7615 92.0896 58.657 92.0896 58.9555 92.6867C59.5525 93.2837 59.5525 94.1792 58.9555 94.4777C58.3585 95.0747 58.3585 95.0747 57.7614 95.6717C57.1644 96.2687 57.1644 97.1643 57.7614 97.7613L58.9555 98.9553C59.5525 99.5523 59.5525 100.448 58.9555 100.746C58.3585 101.343 57.4629 101.343 57.1644 100.746L55.9704 99.5523C55.3734 98.9553 54.4779 98.9553 53.8809 99.5523L52.9853 101.045C52.3883 101.642 51.4928 101.642 51.1943 101.045C50.5973 100.448 50.5973 99.5523 51.1943 99.2538L52.3883 98.0598C52.9853 97.4628 52.9853 96.5672 52.3883 95.9702L51.1943 94.7762C50.5973 94.1792 50.5973 93.2837 50.8958 92.6867Z" fill="url(#paint24_linear_30_17765)"/>
<path fill-rule="evenodd" clip-rule="evenodd" d="M71.1948 92.6867C71.7918 92.0896 72.6874 92.0896 72.9859 92.6867L74.1799 93.8807C74.7769 94.4777 75.6725 94.4777 76.2695 93.8807L77.4635 92.6867C78.0605 92.0896 78.956 92.0896 79.2545 92.6867C79.8516 93.2837 79.8516 94.1792 79.2545 94.4777C78.6575 95.0747 78.6575 95.0747 78.0605 95.6717C77.4635 96.2687 77.4635 97.1643 78.0605 97.7613L79.2545 98.9553C79.8516 99.5523 79.8516 100.448 79.2545 100.746C78.6575 101.343 77.762 101.343 77.4635 100.746L76.2695 99.5523C75.6725 98.9553 74.7769 98.9553 74.1799 99.5523L72.9859 100.746C72.3889 101.343 71.4933 101.343 71.1948 100.746C70.5978 100.149 70.5978 99.2538 71.1948 98.9553L72.3889 97.7613C72.9859 97.1643 72.9859 96.2687 72.3889 95.6717L71.1948 94.4777C70.5978 94.1792 70.5978 93.2837 71.1948 92.6867Z" fill="url(#paint25_linear_30_17765)"/>
<path fill-rule="evenodd" clip-rule="evenodd" d="M91.4927 92.6867C92.0897 92.0896 92.9852 92.0896 93.2837 92.6867L94.4778 93.8807C95.0748 94.4777 95.9703 94.4777 96.5673 93.8807L97.7613 92.6867C98.3584 92.0896 99.2539 92.0896 99.5524 92.6867C100.149 93.2837 100.149 94.1792 99.5524 94.4777C98.9554 95.0747 98.9554 95.0747 98.3583 95.6717C97.7613 96.2687 97.7613 97.1643 98.3583 97.7613L99.5524 98.9553C100.149 99.5523 100.149 100.448 99.5524 100.746C98.9554 101.343 98.0598 101.343 97.7613 100.746L96.5673 99.5523C95.9703 98.9553 95.0748 98.9553 94.4778 99.5523L93.2837 100.746C92.6867 101.343 91.7912 101.343 91.4927 100.746C90.8957 100.149 90.8957 99.2538 91.4927 98.9553L92.6867 97.7613C93.2837 97.1643 93.2837 96.2687 92.6867 95.6717L91.4927 94.4777C90.8957 94.1792 90.8957 93.2837 91.4927 92.6867Z" fill="url(#paint26_linear_30_17765)"/>
<path fill-rule="evenodd" clip-rule="evenodd" d="M0.447761 74.1791C1.04478 73.5821 1.94029 73.5821 2.2388 74.1791L3.43284 75.3732C4.02985 75.9702 4.92536 75.9702 5.52238 75.3732L6.71641 74.1791C7.31343 73.5821 8.20895 73.5821 8.50745 74.1791C9.10447 74.7762 9.10447 75.6717 8.50745 75.9702C7.91044 76.5672 7.91045 76.5672 7.31343 77.1642C6.71642 77.7612 6.71642 78.6568 7.31343 79.2538L8.50745 80.4478C9.10447 81.0448 9.10447 81.9403 8.50745 82.2389C7.91044 82.8359 7.01492 82.8359 6.71641 82.2389L5.52238 81.0448C4.92536 80.4478 4.02985 80.4478 3.43284 81.0448L2.2388 82.2389C1.64179 82.8359 0.746269 82.8359 0.447761 82.2389C-0.149254 81.6418 -0.149254 80.7463 0.447761 80.4478L1.64178 79.2538C2.2388 78.6568 2.2388 77.7612 1.64178 77.1642L0.447761 75.9702C0.149254 75.6717 0.149254 74.7762 0.447761 74.1791Z" fill="url(#paint27_linear_30_17765)"/>
<path fill-rule="evenodd" clip-rule="evenodd" d="M20.7462 74.1791C21.3432 73.5821 22.2387 73.5821 22.5372 74.1791L23.7312 75.3732C24.3283 75.9702 25.2238 75.9702 25.8208 75.3732L27.0148 74.1791C27.6118 73.5821 28.5074 73.5821 28.8059 74.1791C29.4029 74.7762 29.4029 75.6717 28.8059 75.9702C28.2089 76.5672 28.2088 76.5672 27.6118 77.1642C27.0148 77.7612 27.0148 78.6568 27.6118 79.2538L29.1044 80.7463C29.7014 81.3433 29.7014 82.2389 29.1044 82.5374C28.5074 83.1344 27.6118 83.1344 27.3133 82.5374L26.1193 81.3433C25.5223 80.7463 24.6268 80.7463 24.0297 81.3433L22.8357 82.5374C22.2387 83.1344 21.3432 83.1344 21.0447 82.5374C20.4477 81.9403 20.4477 81.0448 21.0447 80.7463L22.2387 79.5523C22.8357 78.9553 22.8357 78.0597 22.2387 77.4627L21.0447 76.2687C20.1491 75.6717 20.1491 74.7762 20.7462 74.1791Z" fill="url(#paint28_linear_30_17765)"/>
<path fill-rule="evenodd" clip-rule="evenodd" d="M41.0454 74.1791C41.6424 73.5821 42.538 73.5821 42.8365 74.1791L44.0305 75.3732C44.6275 75.9702 45.523 75.9702 46.12 75.3732L47.3141 74.1791C47.9111 73.5821 48.8066 73.5821 49.1051 74.1791C49.7021 74.7762 49.7021 75.6717 49.1051 75.9702C48.5081 76.5672 48.5081 76.5672 47.9111 77.1642C47.3141 77.7612 47.3141 78.6568 47.9111 79.2538L49.1051 80.4478C49.7021 81.0448 49.7021 81.9403 49.1051 82.2389C48.5081 82.8359 47.6126 82.8359 47.3141 82.2389L46.12 81.0448C45.523 80.4478 44.6275 80.4478 44.0305 81.0448L42.8365 82.2389C42.2394 82.8359 41.3439 82.8359 41.0454 82.2389C40.4484 81.6418 40.4484 80.7463 41.0454 80.4478L42.2395 79.2538C42.8365 78.6568 42.8365 77.7612 42.2395 77.1642L41.0454 76.2687C40.4484 75.6717 40.4484 74.7762 41.0454 74.1791Z" fill="url(#paint29_linear_30_17765)"/>
<path fill-rule="evenodd" clip-rule="evenodd" d="M61.0444 74.1791C61.6415 73.5821 62.537 73.5821 62.8355 74.1791L64.0295 75.3732C64.6265 75.9702 65.5221 75.9702 66.1191 75.3732L67.3131 74.1791C67.9101 73.5821 68.8056 73.5821 69.1042 74.1791C69.7012 74.7762 69.7012 75.6717 69.1042 75.9702C68.5071 76.5672 68.5071 76.5672 67.9101 77.1642C67.3131 77.7612 67.3131 78.6568 67.9101 79.2538L69.1042 80.4478C69.7012 81.0448 69.7012 81.9403 69.1042 82.2389C68.5071 82.8359 67.6116 82.8359 67.3131 82.2389L66.1191 81.0448C65.5221 80.4478 64.6265 80.4478 64.0295 81.0448L62.8355 82.2389C62.2385 82.8359 61.3429 82.8359 61.0444 82.2389C60.4474 81.6418 60.4474 80.7463 61.0444 80.4478L62.2385 79.2538C62.8355 78.6568 62.8355 77.7612 62.2385 77.1642L61.0444 75.9702C60.7459 75.6717 60.7459 74.7762 61.0444 74.1791Z" fill="url(#paint30_linear_30_17765)"/>
<path fill-rule="evenodd" clip-rule="evenodd" d="M81.3438 74.1791C81.9408 73.5821 82.8363 73.5821 83.1348 74.1791L84.3288 75.3732C84.9258 75.9702 85.8214 75.9702 86.4184 75.3732L87.6124 74.1791C88.2094 73.5821 89.1049 73.5821 89.4035 74.1791C90.0005 74.7762 90.0005 75.6717 89.4035 75.9702C88.8064 76.5672 88.8065 76.5672 88.2094 77.1642C87.6124 77.7612 87.6124 78.6568 88.2094 79.2538L89.4035 80.4478C90.0005 81.0448 90.0005 81.9403 89.4035 82.2389C88.8064 82.8359 87.9109 82.8359 87.6124 82.2389L86.4184 81.0448C85.8214 80.4478 84.9258 80.4478 84.3288 81.0448L83.1348 82.2389C82.5378 82.8359 81.6423 82.8359 81.3438 82.2389C80.7467 81.6418 80.7467 80.7463 81.3438 80.4478L82.5378 79.2538C83.1348 78.6568 83.1348 77.7612 82.5378 77.1642L81.3438 75.9702C80.7467 75.6717 80.7467 74.7762 81.3438 74.1791Z" fill="url(#paint31_linear_30_17765)"/>
<path fill-rule="evenodd" clip-rule="evenodd" d="M101.642 74.1791C102.239 73.5821 103.134 73.5821 103.433 74.1791L104.627 75.3732C105.224 75.9702 106.119 75.9702 106.716 75.3732L107.91 74.1791C108.507 73.5821 109.403 73.5821 109.701 74.1791C110.298 74.7762 110.298 75.6717 109.701 75.9702C109.104 76.5672 109.104 76.5672 108.507 77.1642C107.91 77.7612 107.91 78.6568 108.507 79.2538L109.701 80.4478C110.298 81.0448 110.298 81.9403 109.701 82.2389C109.104 82.8359 108.209 82.8359 107.91 82.2389L106.716 81.3433C106.119 80.7463 105.224 80.7463 104.627 81.3433L103.433 82.5374C102.836 83.1344 101.94 83.1344 101.642 82.5374C101.045 81.9403 101.045 81.0448 101.642 80.7463L102.836 79.5523C103.433 78.9553 103.433 78.0597 102.836 77.4627L101.642 76.2687C101.045 75.6717 101.045 74.7762 101.642 74.1791Z" fill="url(#paint32_linear_30_17765)"/>
<path fill-rule="evenodd" clip-rule="evenodd" d="M0.448031 111.194C1.04505 110.597 1.94056 110.597 2.23907 111.194L3.43311 112.388C4.03012 112.985 4.92563 112.985 5.52265 112.388L6.71668 111.194C7.3137 110.597 8.20922 110.597 8.50772 111.194C9.10474 111.791 9.10474 112.687 8.50772 112.985C8.50772 113.582 8.20922 113.582 7.6122 114.179C7.01519 114.776 7.01519 115.672 7.6122 116.269L8.80624 117.463C9.40325 118.06 9.40325 118.955 8.80624 119.254C8.20922 119.851 7.31369 119.851 7.01519 119.254L5.82116 118.06C5.22415 117.463 4.32862 117.463 3.73161 118.06L2.53757 119.552C1.94056 120.149 1.04504 120.149 0.746534 119.552C0.149519 118.955 0.149519 118.06 0.746534 117.761L1.94057 116.567C2.53758 115.97 2.53758 115.075 1.94057 114.478L0.746534 113.284C0.149519 112.388 0.149523 111.791 0.448031 111.194Z" fill="url(#paint33_linear_30_17765)"/>
<path fill-rule="evenodd" clip-rule="evenodd" d="M20.7471 111.194C21.3441 110.597 22.2396 110.597 22.5381 111.194L23.7322 112.388C24.3292 112.985 25.2247 112.985 25.8217 112.388L27.0157 111.194C27.6127 110.597 28.5083 110.597 28.8068 111.194C29.4038 111.791 29.4038 112.687 28.8068 112.985C28.2098 113.582 28.2098 113.582 27.6127 114.179C27.0157 114.776 27.0157 115.672 27.6127 116.269L28.8068 117.463C29.4038 118.06 29.4038 118.955 28.8068 119.254C28.2098 119.851 27.3142 119.851 27.0157 119.254L26.1202 118.358C25.5232 117.761 24.6277 117.761 24.0307 118.358L22.5381 119.552C21.9411 120.149 21.0456 120.149 20.7471 119.552C20.1501 118.955 20.1501 118.06 20.7471 117.761L21.9411 116.567C22.5381 115.97 22.5381 115.075 21.9411 114.478L20.7471 113.284C20.1501 112.388 20.1501 111.791 20.7471 111.194Z" fill="url(#paint34_linear_30_17765)"/>
<path fill-rule="evenodd" clip-rule="evenodd" d="M41.0449 111.194C41.6419 110.597 42.5375 110.597 42.836 111.194L44.03 112.388C44.627 112.985 45.5225 112.985 46.1195 112.388L47.3136 111.194C47.9106 110.597 48.8061 110.597 49.1046 111.194C49.7016 111.791 49.7016 112.687 49.1046 112.985C48.5076 113.582 48.5076 113.582 47.9106 114.179C47.3136 114.776 47.3136 115.672 47.9106 116.269L49.1046 117.463C49.7016 118.06 49.7016 118.955 49.1046 119.254C48.5076 119.851 47.6121 119.851 47.3136 119.254L46.1195 118.06C45.5225 117.463 44.627 117.463 44.03 118.06L42.836 119.552C42.239 120.149 41.3434 120.149 41.0449 119.552C40.4479 118.955 40.4479 118.06 41.0449 117.761L42.239 116.567C42.836 115.97 42.836 115.075 42.239 114.478L41.0449 112.985C40.4479 112.388 40.4479 111.791 41.0449 111.194Z" fill="url(#paint35_linear_30_17765)"/>
<path fill-rule="evenodd" clip-rule="evenodd" d="M61.0442 111.194C61.6412 110.597 62.5368 110.597 62.8353 111.194L64.0293 112.388C64.6263 112.985 65.5218 112.985 66.1189 112.388L67.3129 111.194C67.9099 110.597 68.8054 110.597 69.1039 111.194C69.7009 111.791 69.7009 112.687 69.1039 112.985C68.5069 113.582 68.5069 113.582 67.9099 114.179C67.3129 114.776 67.3129 115.672 67.9099 116.269L69.1039 117.463C69.7009 118.06 69.7009 118.955 69.1039 119.254C68.5069 119.851 67.6114 119.851 67.3129 119.254L66.1189 118.06C65.5218 117.463 64.6263 117.463 64.0293 118.06L63.1338 119.552C62.5368 120.149 61.6412 120.149 61.3427 119.552C60.7457 118.955 60.7457 118.06 61.3427 117.761L62.5368 116.567C63.1338 115.97 63.1338 115.075 62.5368 114.478L61.3427 113.284C60.7457 112.388 60.7457 111.791 61.0442 111.194Z" fill="url(#paint36_linear_30_17765)"/>
<path fill-rule="evenodd" clip-rule="evenodd" d="M81.3433 111.194C81.9403 110.597 82.8358 110.597 83.1343 111.194L84.3283 112.388C84.9254 112.985 85.8209 112.985 86.4179 112.388L87.6119 111.194C88.2089 110.597 89.1045 110.597 89.403 111.194C90 111.791 90 112.687 89.403 112.985C88.8059 113.582 88.806 113.582 88.209 114.179C87.6119 114.776 87.6119 115.672 88.209 116.269L89.403 117.463C90 118.06 90 118.955 89.403 119.254C88.8059 119.851 87.9104 119.851 87.6119 119.254L86.4179 118.06C85.8209 117.463 84.9254 117.463 84.3283 118.06L83.1343 119.552C82.5373 120.149 81.6418 120.149 81.3433 119.552C80.7463 118.955 80.7463 118.06 81.3433 117.761L82.5373 116.567C83.1343 115.97 83.1343 115.075 82.5373 114.478L81.3433 113.284C80.7463 112.388 80.7463 111.791 81.3433 111.194Z" fill="url(#paint37_linear_30_17765)"/>
<path fill-rule="evenodd" clip-rule="evenodd" d="M101.643 111.194C102.24 110.597 103.135 110.597 103.434 111.194L104.628 112.388C105.225 112.985 106.12 112.985 106.717 112.388L107.911 111.194C108.508 110.597 109.404 110.597 109.702 111.194C110.299 111.791 110.299 112.687 109.702 112.985C109.105 113.582 109.105 113.582 108.508 114.179C107.911 114.776 107.911 115.672 108.508 116.269L109.702 117.463C110.299 118.06 110.299 118.955 109.702 119.254C109.105 119.851 108.21 119.851 107.911 119.254L106.717 118.358C106.12 117.761 105.225 117.761 104.628 118.358L103.434 119.552C102.837 120.149 101.941 120.149 101.643 119.552C101.046 118.955 101.046 118.06 101.643 117.761L102.837 116.567C103.434 115.97 103.434 115.075 102.837 114.478L101.643 113.284C101.046 112.388 101.046 111.791 101.643 111.194Z" fill="url(#paint38_linear_30_17765)"/>
</g>
<defs>
<linearGradient id="paint0_linear_30_17765" x1="11.5279" y1="19.8226" x2="17.8553" y2="26.3385" gradientUnits="userSpaceOnUse">
<stop stop-color="#FF9100"/>
<stop offset="1" stop-color="#FF4D00"/>
</linearGradient>
<linearGradient id="paint1_linear_30_17765" x1="31.7566" y1="19.8226" x2="38.0867" y2="26.1527" gradientUnits="userSpaceOnUse">
<stop stop-color="#FF9100"/>
<stop offset="1" stop-color="#FF4D00"/>
</linearGradient>
<linearGradient id="paint2_linear_30_17765" x1="51.9708" y1="19.8664" x2="58.4996" y2="26.0071" gradientUnits="userSpaceOnUse">
<stop stop-color="#FF9100"/>
<stop offset="1" stop-color="#FF4D00"/>
</linearGradient>
<linearGradient id="paint3_linear_30_17765" x1="72.0549" y1="19.8226" x2="78.385" y2="26.1527" gradientUnits="userSpaceOnUse">
<stop stop-color="#FF9100"/>
<stop offset="1" stop-color="#FF4D00"/>
</linearGradient>
<linearGradient id="paint4_linear_30_17765" x1="92.3527" y1="19.8226" x2="98.6829" y2="26.1527" gradientUnits="userSpaceOnUse">
<stop stop-color="#FF9100"/>
<stop offset="1" stop-color="#FF4D00"/>
</linearGradient>
<linearGradient id="paint5_linear_30_17765" x1="1.56661" y1="1.40272" x2="8.30688" y2="7.75477" gradientUnits="userSpaceOnUse">
<stop stop-color="#FF9100"/>
<stop offset="1" stop-color="#FF4D00"/>
</linearGradient>
<linearGradient id="paint6_linear_30_17765" x1="21.6507" y1="1.40272" x2="28.3995" y2="7.94056" gradientUnits="userSpaceOnUse">
<stop stop-color="#FF9100"/>
<stop offset="1" stop-color="#FF4D00"/>
</linearGradient>
<linearGradient id="paint7_linear_30_17765" x1="41.9486" y1="1.40272" x2="48.6973" y2="7.94057" gradientUnits="userSpaceOnUse">
<stop stop-color="#FF9100"/>
<stop offset="1" stop-color="#FF4D00"/>
</linearGradient>
<linearGradient id="paint8_linear_30_17765" x1="62.1628" y1="1.40272" x2="68.9031" y2="7.75477" gradientUnits="userSpaceOnUse">
<stop stop-color="#FF9100"/>
<stop offset="1" stop-color="#FF4D00"/>
</linearGradient>
<linearGradient id="paint9_linear_30_17765" x1="82.2469" y1="1.40272" x2="88.9957" y2="7.94057" gradientUnits="userSpaceOnUse">
<stop stop-color="#FF9100"/>
<stop offset="1" stop-color="#FF4D00"/>
</linearGradient>
<linearGradient id="paint10_linear_30_17765" x1="102.546" y1="1.40272" x2="109.295" y2="7.94055" gradientUnits="userSpaceOnUse">
<stop stop-color="#FF9100"/>
<stop offset="1" stop-color="#FF4D00"/>
</linearGradient>
<linearGradient id="paint11_linear_30_17765" x1="11.4567" y1="56.8374" x2="17.7869" y2="63.1675" gradientUnits="userSpaceOnUse">
<stop stop-color="#FF9100"/>
<stop offset="1" stop-color="#FF4D00"/>
</linearGradient>
<linearGradient id="paint12_linear_30_17765" x1="31.7546" y1="56.8374" x2="38.0847" y2="63.1675" gradientUnits="userSpaceOnUse">
<stop stop-color="#FF9100"/>
<stop offset="1" stop-color="#FF4D00"/>
</linearGradient>
<linearGradient id="paint13_linear_30_17765" x1="51.9703" y1="56.8812" x2="58.4991" y2="63.0219" gradientUnits="userSpaceOnUse">
<stop stop-color="#FF9100"/>
<stop offset="1" stop-color="#FF4D00"/>
</linearGradient>
<linearGradient id="paint14_linear_30_17765" x1="72.0529" y1="56.8374" x2="78.3831" y2="63.1675" gradientUnits="userSpaceOnUse">
<stop stop-color="#FF9100"/>
<stop offset="1" stop-color="#FF4D00"/>
</linearGradient>
<linearGradient id="paint15_linear_30_17765" x1="92.3523" y1="56.8374" x2="98.6824" y2="63.1675" gradientUnits="userSpaceOnUse">
<stop stop-color="#FF9100"/>
<stop offset="1" stop-color="#FF4D00"/>
</linearGradient>
<linearGradient id="paint16_linear_30_17765" x1="1.30782" y1="38.3301" x2="7.63794" y2="44.6602" gradientUnits="userSpaceOnUse">
<stop stop-color="#FF9100"/>
<stop offset="1" stop-color="#FF4D00"/>
</linearGradient>
<linearGradient id="paint17_linear_30_17765" x1="21.6333" y1="38.3739" x2="28.1701" y2="44.6775" gradientUnits="userSpaceOnUse">
<stop stop-color="#FF9100"/>
<stop offset="1" stop-color="#FF4D00"/>
</linearGradient>
<linearGradient id="paint18_linear_30_17765" x1="41.9055" y1="38.3301" x2="48.2356" y2="44.6602" gradientUnits="userSpaceOnUse">
<stop stop-color="#FF9100"/>
<stop offset="1" stop-color="#FF4D00"/>
</linearGradient>
<linearGradient id="paint19_linear_30_17765" x1="61.9045" y1="38.3301" x2="68.2346" y2="44.6602" gradientUnits="userSpaceOnUse">
<stop stop-color="#FF9100"/>
<stop offset="1" stop-color="#FF4D00"/>
</linearGradient>
<linearGradient id="paint20_linear_30_17765" x1="82.2038" y1="38.3301" x2="88.5339" y2="44.6602" gradientUnits="userSpaceOnUse">
<stop stop-color="#FF9100"/>
<stop offset="1" stop-color="#FF4D00"/>
</linearGradient>
<linearGradient id="paint21_linear_30_17765" x1="102.502" y1="38.3739" x2="109.039" y2="44.7006" gradientUnits="userSpaceOnUse">
<stop stop-color="#FF9100"/>
<stop offset="1" stop-color="#FF4D00"/>
</linearGradient>
<linearGradient id="paint22_linear_30_17765" x1="11.5279" y1="93.5539" x2="17.8553" y2="100.07" gradientUnits="userSpaceOnUse">
<stop stop-color="#FF9100"/>
<stop offset="1" stop-color="#FF4D00"/>
</linearGradient>
<linearGradient id="paint23_linear_30_17765" x1="31.7566" y1="93.5539" x2="38.0867" y2="99.8841" gradientUnits="userSpaceOnUse">
<stop stop-color="#FF9100"/>
<stop offset="1" stop-color="#FF4D00"/>
</linearGradient>
<linearGradient id="paint24_linear_30_17765" x1="51.9708" y1="93.5978" x2="58.4996" y2="99.7385" gradientUnits="userSpaceOnUse">
<stop stop-color="#FF9100"/>
<stop offset="1" stop-color="#FF4D00"/>
</linearGradient>
<linearGradient id="paint25_linear_30_17765" x1="72.0549" y1="93.5539" x2="78.385" y2="99.8841" gradientUnits="userSpaceOnUse">
<stop stop-color="#FF9100"/>
<stop offset="1" stop-color="#FF4D00"/>
</linearGradient>
<linearGradient id="paint26_linear_30_17765" x1="92.3527" y1="93.5539" x2="98.6829" y2="99.8841" gradientUnits="userSpaceOnUse">
<stop stop-color="#FF9100"/>
<stop offset="1" stop-color="#FF4D00"/>
</linearGradient>
<linearGradient id="paint27_linear_30_17765" x1="1.30782" y1="75.0464" x2="7.63795" y2="81.3766" gradientUnits="userSpaceOnUse">
<stop stop-color="#FF9100"/>
<stop offset="1" stop-color="#FF4D00"/>
</linearGradient>
<linearGradient id="paint28_linear_30_17765" x1="21.6769" y1="75.0903" x2="28.218" y2="81.609" gradientUnits="userSpaceOnUse">
<stop stop-color="#FF9100"/>
<stop offset="1" stop-color="#FF4D00"/>
</linearGradient>
<linearGradient id="paint29_linear_30_17765" x1="41.9055" y1="75.0464" x2="48.2356" y2="81.3766" gradientUnits="userSpaceOnUse">
<stop stop-color="#FF9100"/>
<stop offset="1" stop-color="#FF4D00"/>
</linearGradient>
<linearGradient id="paint30_linear_30_17765" x1="61.9045" y1="75.0464" x2="68.2346" y2="81.3766" gradientUnits="userSpaceOnUse">
<stop stop-color="#FF9100"/>
<stop offset="1" stop-color="#FF4D00"/>
</linearGradient>
<linearGradient id="paint31_linear_30_17765" x1="82.2038" y1="75.0464" x2="88.5339" y2="81.3766" gradientUnits="userSpaceOnUse">
<stop stop-color="#FF9100"/>
<stop offset="1" stop-color="#FF4D00"/>
</linearGradient>
<linearGradient id="paint32_linear_30_17765" x1="102.502" y1="75.0903" x2="109.039" y2="81.417" gradientUnits="userSpaceOnUse">
<stop stop-color="#FF9100"/>
<stop offset="1" stop-color="#FF4D00"/>
</linearGradient>
<linearGradient id="paint33_linear_30_17765" x1="1.56661" y1="112.105" x2="8.10525" y2="118.466" gradientUnits="userSpaceOnUse">
<stop stop-color="#FF9100"/>
<stop offset="1" stop-color="#FF4D00"/>
</linearGradient>
<linearGradient id="paint34_linear_30_17765" x1="21.6071" y1="112.105" x2="28.1448" y2="118.432" gradientUnits="userSpaceOnUse">
<stop stop-color="#FF9100"/>
<stop offset="1" stop-color="#FF4D00"/>
</linearGradient>
<linearGradient id="paint35_linear_30_17765" x1="41.905" y1="112.105" x2="48.4426" y2="118.432" gradientUnits="userSpaceOnUse">
<stop stop-color="#FF9100"/>
<stop offset="1" stop-color="#FF4D00"/>
</linearGradient>
<linearGradient id="paint36_linear_30_17765" x1="62.1192" y1="112.105" x2="68.6481" y2="118.246" gradientUnits="userSpaceOnUse">
<stop stop-color="#FF9100"/>
<stop offset="1" stop-color="#FF4D00"/>
</linearGradient>
<linearGradient id="paint37_linear_30_17765" x1="82.2033" y1="112.105" x2="88.7409" y2="118.432" gradientUnits="userSpaceOnUse">
<stop stop-color="#FF9100"/>
<stop offset="1" stop-color="#FF4D00"/>
</linearGradient>
<linearGradient id="paint38_linear_30_17765" x1="102.503" y1="112.105" x2="109.04" y2="118.432" gradientUnits="userSpaceOnUse">
<stop stop-color="#FF9100"/>
<stop offset="1" stop-color="#FF4D00"/>
</linearGradient>
</defs>
</svg>
