<svg width="92" height="39" viewBox="0 0 92 39" fill="none" xmlns="http://www.w3.org/2000/svg">
<g opacity="0.5">
<path d="M91.5481 21.3645L81.2701 8.66541C80.6602 7.89303 79.4211 7.97388 78.4123 8.72695L67.7442 16.9202L61.1255 8.85544C60.5156 8.08306 59.2766 8.16391 58.2677 8.91698L47.5997 17.1102L41.1709 9.09555C40.561 8.32317 39.3219 8.40403 38.3131 9.1571L27.645 17.3504L21.3159 8.9543C20.6562 8.3726 19.2771 8.21269 18.4581 9.01585L1.49704 21.8681C0.488155 22.6212 0.188914 23.7653 0.798806 24.5377L3.56826 27.9181C4.17815 28.6905 5.41717 28.6096 6.42605 27.8565L17.0442 19.8539L23.4731 27.8686C23.8029 28.1595 24.3227 28.5004 24.7523 28.4099C25.3718 28.3695 25.8015 28.279 26.3308 27.8071L36.949 19.8045L43.3778 27.8192C43.7077 28.1101 44.2275 28.451 44.6571 28.3605C45.2766 28.3201 45.7063 28.2295 46.2356 27.7577L56.8538 19.7551L63.2826 27.7698C63.6125 28.0606 64.1323 28.4016 64.5619 28.311C65.1814 28.2706 65.611 28.1801 66.1404 27.7082L76.7586 19.7056L83.477 27.3891C84.0869 28.1614 85.326 28.0806 86.3348 27.3275L90.8499 24.034C91.6689 23.2309 91.9681 22.0868 91.5481 21.3645Z" fill="url(#paint0_radial_30_17751)"/>
</g>
<defs>
<radialGradient id="paint0_radial_30_17751" cx="0" cy="0" r="1" gradientUnits="userSpaceOnUse" gradientTransform="translate(48.0246 9.43806) rotate(14.7765) scale(34.8352 30.6527)">
<stop stop-color="#5B2AA4"/>
<stop offset="0.9944" stop-color="#481A72"/>
</radialGradient>
</defs>
</svg>
