<svg width="117" height="321" viewBox="0 0 117 321" fill="none" xmlns="http://www.w3.org/2000/svg">
<g opacity="0.5">
<path fill-rule="evenodd" clip-rule="evenodd" d="M11.1599 19.6481C11.7886 19.0193 12.7317 19.0193 13.046 19.6481L14.3035 20.9055C14.9322 21.5342 15.8753 21.5342 16.504 20.9055L17.7615 19.6481C18.3902 19.0193 19.3333 19.0193 19.6477 19.6481C20.2764 20.2768 20.2764 21.2199 19.6477 21.5342C19.0189 22.163 19.0189 22.163 18.3902 22.7917C17.7615 23.4204 17.7615 24.3635 18.3902 24.9922L19.962 26.564C20.5908 27.1928 20.5908 28.1358 19.962 28.4502C19.3333 29.0789 18.3902 29.0789 18.0759 28.4502L16.8184 27.1928C16.1897 26.564 15.2466 26.564 14.6179 27.1928L13.3604 28.4502C12.7317 29.0789 11.7886 29.0789 11.4742 28.4502C10.8455 27.8215 10.8455 26.8784 11.4742 26.564L12.7317 25.3066C13.3604 24.6779 13.3604 23.7348 12.7317 23.106L11.4742 21.8486C10.5311 21.2199 10.5311 20.2768 11.1599 19.6481Z" fill="url(#paint0_linear_30_17528)"/>
<path fill-rule="evenodd" clip-rule="evenodd" d="M32.537 19.6481C33.1657 19.0193 34.1088 19.0193 34.4232 19.6481L35.6806 20.9055C36.3093 21.5342 37.2524 21.5342 37.8811 20.9055L39.1386 19.6481C39.7673 19.0193 40.7104 19.0193 41.0248 19.6481C41.6535 20.2768 41.6535 21.2199 41.0248 21.5342C40.3961 22.163 40.3961 22.163 39.7673 22.7917C39.1386 23.4204 39.1386 24.3635 39.7673 24.9922L41.0248 26.2497C41.6535 26.8784 41.6535 27.8215 41.0248 28.1359C40.3961 28.7646 39.453 28.7646 39.1386 28.1359L37.8811 26.8784C37.2524 26.2497 36.3093 26.2497 35.6806 26.8784L34.4232 28.1359C33.7944 28.7646 32.8513 28.7646 32.537 28.1359C31.9082 27.5071 31.9082 26.564 32.537 26.2497L33.7944 24.9922C34.4232 24.3635 34.4232 23.4204 33.7944 22.7917L32.537 21.5342C31.9082 21.2199 31.9082 20.2768 32.537 19.6481Z" fill="url(#paint1_linear_30_17528)"/>
<path fill-rule="evenodd" clip-rule="evenodd" d="M53.5985 19.6481C54.2272 19.0193 55.1703 19.0193 55.4847 19.6481L56.7421 20.9055C57.3709 21.5342 58.3139 21.5342 58.9427 20.9055L60.2001 19.6481C60.8289 19.0193 61.7719 19.0193 62.0863 19.6481C62.715 20.2768 62.715 21.2199 62.0863 21.5342C61.4576 22.163 61.4576 22.163 60.8288 22.7917C60.2001 23.4204 60.2001 24.3635 60.8288 24.9922L62.0863 26.2497C62.715 26.8784 62.715 27.8215 62.0863 28.1359C61.4576 28.7646 60.5145 28.7646 60.2001 28.1359L58.9427 26.8784C58.3139 26.2497 57.3709 26.2497 56.7421 26.8784L55.4847 28.1359C54.856 28.7646 53.9129 28.7646 53.5985 28.1359C52.9698 27.5071 52.9698 26.564 53.5985 26.2497L54.8559 24.9922C55.4847 24.3635 55.4847 23.4204 54.8559 22.7917L53.5985 21.8486C53.2841 21.2199 53.2841 20.2768 53.5985 19.6481Z" fill="url(#paint2_linear_30_17528)"/>
<path fill-rule="evenodd" clip-rule="evenodd" d="M74.9764 19.6481C75.6052 19.0193 76.5482 19.0193 76.8626 19.6481L78.1201 20.9055C78.7488 21.5342 79.6919 21.5342 80.3206 20.9055L81.5781 19.6481C82.2068 19.0193 83.1499 19.0193 83.4642 19.6481C84.093 20.2768 84.093 21.2199 83.4642 21.5342C82.8355 22.163 82.8355 22.163 82.2068 22.7917C81.5781 23.4204 81.5781 24.3635 82.2068 24.9922L83.4642 26.2497C84.093 26.8784 84.093 27.8215 83.4642 28.1359C82.8355 28.7646 81.8924 28.7646 81.5781 28.1359L80.3206 26.8784C79.6919 26.2497 78.7488 26.2497 78.1201 26.8784L76.8626 28.1359C76.2339 28.7646 75.2908 28.7646 74.9764 28.1359C74.3477 27.5071 74.3477 26.564 74.9764 26.2497L76.2339 24.9922C76.8626 24.3635 76.8626 23.4204 76.2339 22.7917L74.9764 21.5342C74.3477 21.2199 74.3477 20.2768 74.9764 19.6481Z" fill="url(#paint3_linear_30_17528)"/>
<path fill-rule="evenodd" clip-rule="evenodd" d="M96.3524 19.6481C96.9811 19.0193 97.9242 19.0193 98.2386 19.6481L99.496 20.9055C100.125 21.5342 101.068 21.5342 101.697 20.9055L102.954 19.6481C103.583 19.0193 104.526 19.0193 104.84 19.6481C105.469 20.2768 105.469 21.2199 104.84 21.5342C104.211 22.163 104.211 22.163 103.583 22.7917C102.954 23.4204 102.954 24.3635 103.583 24.9922L104.84 26.2497C105.469 26.8784 105.469 27.8215 104.84 28.1359C104.211 28.7646 103.268 28.7646 102.954 28.1359L101.697 26.8784C101.068 26.2497 100.125 26.2497 99.496 26.8784L98.2386 28.1359C97.6099 28.7646 96.6668 28.7646 96.3524 28.1359C95.7237 27.5071 95.7237 26.564 96.3524 26.2497L97.6099 24.9922C98.2386 24.3635 98.2386 23.4204 97.6099 22.7917L96.3524 21.5342C95.7237 21.2199 95.7237 20.2768 96.3524 19.6481Z" fill="url(#paint4_linear_30_17528)"/>
<path fill-rule="evenodd" clip-rule="evenodd" d="M0.4721 0.471545C1.10083 -0.157182 2.04392 -0.157182 2.35828 0.471545L3.61573 1.729C4.24446 2.35773 5.18755 2.35773 5.81627 1.729L7.07373 0.471545C7.70245 -0.157182 8.64554 -0.157182 8.9599 0.471545C9.58863 1.10027 9.58863 2.04338 8.9599 2.35774C8.33118 2.98647 8.33118 2.98645 7.70245 3.61518C7.07373 4.2439 7.07373 5.18701 7.70245 5.81573L9.58863 7.38755C10.2174 8.01627 10.2174 8.95936 9.58863 9.27372C8.9599 9.90245 8.01682 9.90245 7.70245 9.27372L6.445 8.01626C5.81627 7.38754 4.87318 7.38754 4.24446 8.01626L2.98701 9.27372C2.35828 9.90245 1.41519 9.90245 1.10083 9.27372C0.157737 8.645 0.157737 7.70191 0.4721 7.38755L1.72955 6.13009C2.35828 5.50136 2.35828 4.55828 1.72955 3.92956L0.4721 2.6721C0.157737 1.72901 0.157737 0.785908 0.4721 0.471545Z" fill="url(#paint5_linear_30_17528)"/>
<path fill-rule="evenodd" clip-rule="evenodd" d="M21.849 0.471545C22.4777 -0.157182 23.4208 -0.157182 23.7352 0.471545L24.9926 1.729C25.6213 2.35773 26.5644 2.35773 27.1932 1.729L28.4506 0.471545C29.0793 -0.157182 30.0224 -0.157182 30.3368 0.471545C30.9655 1.10027 30.9655 2.04338 30.3368 2.35774C29.7081 2.98647 29.7081 2.98645 29.0793 3.61518C28.4506 4.2439 28.4506 5.18701 29.0793 5.81573L30.3368 7.07319C30.9655 7.70192 30.9655 8.645 30.3368 8.95936C29.7081 9.58809 28.765 9.58809 28.4506 8.95936L27.1932 7.70191C26.5644 7.07318 25.6213 7.07318 24.9926 7.70191L23.7352 8.95936C23.1064 9.58809 22.1633 9.58809 21.849 8.95936C21.2203 8.33064 21.2203 7.38755 21.849 7.07319L23.1064 5.81573C23.7352 5.18701 23.7352 4.2439 23.1064 3.61518L21.849 2.35774C21.2203 1.72902 21.2203 0.785908 21.849 0.471545Z" fill="url(#paint6_linear_30_17528)"/>
<path fill-rule="evenodd" clip-rule="evenodd" d="M43.2255 0.471545C43.8542 -0.157182 44.7973 -0.157182 45.1116 0.471545L46.3691 1.729C46.9978 2.35773 47.9409 2.35773 48.5696 1.729L49.8271 0.471545C50.4558 -0.157182 51.3989 -0.157182 51.7133 0.471545C52.342 1.10027 52.342 2.04338 51.7133 2.35774C51.0845 2.98647 51.0845 2.98645 50.4558 3.61518C49.8271 4.2439 49.8271 5.18701 50.4558 5.81573L51.7133 7.07319C52.342 7.70192 52.342 8.645 51.7133 8.95936C51.0845 9.58809 50.1414 9.58809 49.8271 8.95936L48.5696 7.70191C47.9409 7.07318 46.9978 7.07318 46.3691 7.70191L45.1116 8.95936C44.4829 9.58809 43.5398 9.58809 43.2255 8.95936C42.5967 8.33064 42.5967 7.38755 43.2255 7.07319L44.4829 5.81573C45.1116 5.18701 45.1116 4.2439 44.4829 3.61518L43.2255 2.35774C42.5967 1.72902 42.5967 0.785908 43.2255 0.471545Z" fill="url(#paint7_linear_30_17528)"/>
<path fill-rule="evenodd" clip-rule="evenodd" d="M64.288 0.471545C64.9167 -0.157182 65.8598 -0.157182 66.1741 0.471545L67.4316 1.729C68.0603 2.35773 69.0034 2.35773 69.6321 1.729L70.8896 0.471545C71.5183 -0.157182 72.4614 -0.157182 72.7758 0.471545C73.4045 1.10027 73.4045 2.04338 72.7758 2.35774C72.147 2.98647 72.147 2.98645 71.5183 3.61518C70.8896 4.2439 70.8896 5.18701 71.5183 5.81573L72.7758 7.07319C73.4045 7.70192 73.4045 8.645 72.7758 8.95936C72.147 9.58809 71.2039 9.58809 70.8896 8.95936L69.6321 7.70191C69.0034 7.07318 68.0603 7.07318 67.4316 7.70191L66.1741 8.95936C65.5454 9.58809 64.6023 9.58809 64.288 8.95936C63.6592 8.33064 63.6592 7.38755 64.288 7.07319L65.5454 5.81573C66.1741 5.18701 66.1741 4.2439 65.5454 3.61518L64.288 2.35774C63.9736 1.72902 63.9736 0.785908 64.288 0.471545Z" fill="url(#paint8_linear_30_17528)"/>
<path fill-rule="evenodd" clip-rule="evenodd" d="M85.6647 0.471545C86.2935 -0.157182 87.2366 -0.157182 87.5509 0.471545L88.8084 1.729C89.4371 2.35773 90.3802 2.35773 91.0089 1.729L92.2664 0.471545C92.8951 -0.157182 93.8382 -0.157182 94.1525 0.471545C94.7813 1.10027 94.7813 2.04338 94.1525 2.35774C93.5238 2.98647 93.5238 2.98645 92.8951 3.61518C92.2664 4.2439 92.2664 5.18701 92.8951 5.81573L94.1525 7.07319C94.7813 7.70192 94.7813 8.645 94.1525 8.95936C93.5238 9.58809 92.5807 9.58809 92.2664 8.95936L91.3233 8.01626C90.6946 7.38754 89.7515 7.38754 89.1227 8.01626L87.8653 9.27372C87.2366 9.90245 86.2935 9.90245 85.9791 9.27372C85.3504 8.645 85.3504 7.70191 85.9791 7.38755L87.2366 6.13009C87.8653 5.50136 87.8653 4.55828 87.2366 3.92956L85.9791 2.6721C85.036 1.72901 85.036 0.785908 85.6647 0.471545Z" fill="url(#paint9_linear_30_17528)"/>
<path fill-rule="evenodd" clip-rule="evenodd" d="M107.042 0.471545C107.671 -0.157182 108.614 -0.157182 108.928 0.471545L110.185 1.729C110.814 2.35773 111.757 2.35773 112.386 1.729L113.643 0.471545C114.272 -0.157182 115.215 -0.157182 115.53 0.471545C116.158 1.10027 116.158 2.04338 115.53 2.35774C114.901 2.98647 114.901 2.98645 114.272 3.61518C113.643 4.2439 113.643 5.18701 114.272 5.81573L115.53 7.07319C116.158 7.70192 116.158 8.645 115.53 8.95936C114.901 9.58809 113.958 9.58809 113.643 8.95936L112.386 7.70191C111.757 7.07318 110.814 7.07318 110.185 7.70191L108.928 8.95936C108.299 9.58809 107.356 9.58809 107.042 8.95936C106.413 8.33064 106.413 7.38755 107.042 7.07319L108.299 5.81573C108.928 5.18701 108.928 4.2439 108.299 3.61518L107.042 2.35774C106.413 1.72902 106.413 0.785908 107.042 0.471545Z" fill="url(#paint10_linear_30_17528)"/>
<path fill-rule="evenodd" clip-rule="evenodd" d="M11.1595 58.629C11.7883 58.0003 12.7313 58.0003 13.0457 58.629L14.3032 59.8865C14.9319 60.5152 15.875 60.5152 16.5037 59.8865L17.7612 58.629C18.3899 58.0003 19.333 58.0003 19.6473 58.629C20.2761 59.2577 20.2761 60.2009 19.6473 60.5152C19.0186 61.1439 19.0186 61.1439 18.3899 61.7726C17.7612 62.4014 17.7612 63.3445 18.3899 63.9732L19.6473 65.2307C20.2761 65.8594 20.2761 66.8025 19.6473 67.1168C19.0186 67.7456 18.0755 67.7456 17.7612 67.1168L16.5037 65.8594C15.875 65.2307 14.9319 65.2307 14.3032 65.8594L13.0457 67.4312C12.417 68.0599 11.4739 68.0599 11.1595 67.4312C10.5308 66.8025 10.5308 65.8594 11.1595 65.545L12.417 64.2876C13.0457 63.6588 13.0457 62.7158 12.417 62.087L11.1595 60.8296C10.5308 59.8865 10.5308 59.2577 11.1595 58.629Z" fill="url(#paint11_linear_30_17528)"/>
<path fill-rule="evenodd" clip-rule="evenodd" d="M32.5355 58.6288C33.1642 58 34.1073 58 34.4217 58.6288L35.6791 59.8862C36.3079 60.515 37.251 60.515 37.8797 59.8862L39.1371 58.6288C39.7659 58 40.709 58 41.0233 58.6288C41.652 59.2575 41.652 60.2006 41.0233 60.515C40.3946 61.1437 40.3946 61.1437 39.7659 61.7724C39.1371 62.4011 39.1371 63.3442 39.7659 63.973L41.0233 65.2304C41.652 65.8591 41.652 66.8022 41.0233 67.1166C40.3946 67.7453 39.4515 67.7453 39.1371 67.1166L37.8797 65.8591C37.251 65.2304 36.3079 65.2304 35.6791 65.8591L34.4217 67.1166C33.793 67.7453 32.8499 67.7453 32.5355 67.1166C31.9068 66.4879 31.9068 65.5448 32.5355 65.2304L33.793 63.973C34.4217 63.3442 34.4217 62.4011 33.793 61.7724L32.5355 60.515C31.9068 59.8862 31.9068 59.2575 32.5355 58.6288Z" fill="url(#paint12_linear_30_17528)"/>
<path fill-rule="evenodd" clip-rule="evenodd" d="M53.5985 58.6288C54.2272 58 55.1703 58 55.4847 58.6288L56.7421 59.8862C57.3709 60.515 58.3139 60.515 58.9427 59.8862L60.2001 58.6288C60.8289 58 61.7719 58 62.0863 58.6288C62.715 59.2575 62.715 60.2006 62.0863 60.515C61.4576 61.1437 61.4576 61.1437 60.8288 61.7724C60.2001 62.4011 60.2001 63.3442 60.8288 63.973L62.0863 65.2304C62.715 65.8591 62.715 66.8022 62.0863 67.1166C61.4576 67.7453 60.5145 67.7453 60.2001 67.1166L58.9427 65.8591C58.3139 65.2304 57.3709 65.2304 56.7421 65.8591L55.4847 67.1166C54.856 67.7453 53.9129 67.7453 53.5985 67.1166C52.9698 66.4879 52.9698 65.5448 53.5985 65.2304L54.8559 63.973C55.4847 63.3442 55.4847 62.4011 54.8559 61.7724L53.5985 60.515C53.2841 59.8862 53.2841 59.2575 53.5985 58.6288Z" fill="url(#paint13_linear_30_17528)"/>
<path fill-rule="evenodd" clip-rule="evenodd" d="M74.9745 58.6288C75.6032 58 76.5463 58 76.8607 58.6288L78.1181 59.8862C78.7468 60.515 79.6899 60.515 80.3186 59.8862L81.5761 58.6288C82.2048 58 83.1479 58 83.4623 58.6288C84.091 59.2575 84.091 60.2006 83.4623 60.515C82.8336 61.1437 82.8336 61.1437 82.2048 61.7724C81.5761 62.4011 81.5761 63.3442 82.2048 63.973L83.4623 65.2304C84.091 65.8591 84.091 66.8022 83.4623 67.1166C82.8336 67.7453 81.8905 67.7453 81.5761 67.1166L80.3186 65.8591C79.6899 65.2304 78.7468 65.2304 78.1181 65.8591L76.8607 67.1166C76.2319 67.7453 75.2888 67.7453 74.9745 67.1166C74.3457 66.4879 74.3457 65.5448 74.9745 65.2304L76.2319 63.973C76.8607 63.3442 76.8607 62.4011 76.2319 61.7724L74.9745 60.515C74.3457 59.8862 74.3457 59.2575 74.9745 58.6288Z" fill="url(#paint14_linear_30_17528)"/>
<path fill-rule="evenodd" clip-rule="evenodd" d="M96.3524 58.6288C96.9811 58 97.9242 58 98.2386 58.6288L99.496 59.8862C100.125 60.515 101.068 60.515 101.697 59.8862L102.954 58.6288C103.583 58 104.526 58 104.84 58.6288C105.469 59.2575 105.469 60.2006 104.84 60.515C104.211 61.1437 104.211 61.1437 103.583 61.7724C102.954 62.4011 102.954 63.3442 103.583 63.973L104.84 65.2304C105.469 65.8591 105.469 66.8022 104.84 67.1166C104.211 67.7453 103.268 67.7453 102.954 67.1166L101.697 65.8591C101.068 65.2304 100.125 65.2304 99.496 65.8591L98.2386 67.1166C97.6099 67.7453 96.6668 67.7453 96.3524 67.1166C95.7237 66.4879 95.7237 65.5448 96.3524 65.2304L97.6099 64.2873C98.2386 63.6586 98.2386 62.7155 97.6099 62.0868L96.3524 60.8293C95.7237 59.8862 95.7237 59.2575 96.3524 58.6288Z" fill="url(#paint15_linear_30_17528)"/>
<path fill-rule="evenodd" clip-rule="evenodd" d="M0.472193 39.1383C1.10092 38.5096 2.04401 38.5096 2.35837 39.1383L3.61582 40.3958C4.24455 41.0245 5.18764 41.0245 5.81637 40.3958L7.38818 39.1383C8.01691 38.5096 8.96 38.5096 9.27436 39.1383C9.90309 39.767 9.90309 40.7101 9.27436 41.0245C8.64563 41.6532 8.64563 41.6532 8.01691 42.2819C7.38818 42.9107 7.38818 43.8537 8.01691 44.4825L9.58872 46.0543C10.2174 46.683 10.2174 47.6261 9.58872 47.9405C8.96 48.5692 8.01691 48.5692 7.70255 47.9405L6.44509 46.683C5.81637 46.0543 4.87328 46.0543 4.24455 46.683L2.9871 47.9405C2.35837 48.5692 1.41528 48.5692 1.10092 47.9405C0.472193 47.3117 0.472193 46.3686 1.10092 46.0543L2.35837 44.7968C2.9871 44.1681 2.9871 43.225 2.35837 42.5963L1.10092 41.3388C0.15783 40.7101 0.15783 39.767 0.472193 39.1383Z" fill="url(#paint16_linear_30_17528)"/>
<path fill-rule="evenodd" clip-rule="evenodd" d="M21.8479 39.1383C22.4766 38.5096 23.4197 38.5096 23.734 39.1383L24.9915 40.3958C25.6202 41.0245 26.5633 41.0245 27.192 40.3958L28.7638 39.1383C29.3926 38.5096 30.3357 38.5096 30.65 39.1383C31.2787 39.767 31.2787 40.7101 30.65 41.0245C30.0213 41.6532 30.0213 41.6532 29.3926 42.2819C28.7638 42.9107 28.7638 43.8537 29.3926 44.4825L30.65 45.7399C31.2787 46.3686 31.2787 47.3117 30.65 47.6261C30.0213 48.2548 29.0782 48.2548 28.7638 47.6261L27.5064 46.3687C26.8777 45.7399 25.9346 45.7399 25.3058 46.3687L24.0484 47.6261C23.4197 48.2548 22.4766 48.2548 22.1622 47.6261C21.5335 46.9974 21.5335 46.0543 22.1622 45.7399L23.4197 44.4825C24.0484 43.8537 24.0484 42.9107 23.4197 42.2819L22.1622 41.0245C21.2191 40.7101 21.2191 39.767 21.8479 39.1383Z" fill="url(#paint17_linear_30_17528)"/>
<path fill-rule="evenodd" clip-rule="evenodd" d="M43.2255 39.1383C43.8542 38.5096 44.7973 38.5096 45.1116 39.1383L46.3691 40.3958C46.9978 41.0245 47.9409 41.0245 48.5696 40.3958L49.8271 39.1383C50.4558 38.5096 51.3989 38.5096 51.7133 39.1383C52.342 39.767 52.342 40.7101 51.7133 41.0245C51.0845 41.6532 51.0845 41.6532 50.4558 42.2819C49.8271 42.9107 49.8271 43.8537 50.4558 44.4825L51.7133 45.7399C52.342 46.3686 52.342 47.3117 51.7133 47.6261C51.0845 48.2548 50.1414 48.2548 49.8271 47.6261L48.5696 46.3687C47.9409 45.7399 46.9978 45.7399 46.3691 46.3687L45.1116 47.6261C44.4829 48.2548 43.5398 48.2548 43.2255 47.6261C42.5967 46.9974 42.5967 46.0543 43.2255 45.7399L44.4829 44.4825C45.1116 43.8537 45.1116 42.9107 44.4829 42.2819L43.2255 41.0245C42.5967 40.7101 42.5967 39.767 43.2255 39.1383Z" fill="url(#paint18_linear_30_17528)"/>
<path fill-rule="evenodd" clip-rule="evenodd" d="M64.288 39.1383C64.9167 38.5096 65.8598 38.5096 66.1741 39.1383L67.4316 40.3958C68.0603 41.0245 69.0034 41.0245 69.6321 40.3958L70.8896 39.1383C71.5183 38.5096 72.4614 38.5096 72.7758 39.1383C73.4045 39.767 73.4045 40.7101 72.7758 41.0245C72.147 41.6532 72.147 41.6532 71.5183 42.2819C70.8896 42.9107 70.8896 43.8537 71.5183 44.4825L72.7758 45.7399C73.4045 46.3686 73.4045 47.3117 72.7758 47.6261C72.147 48.2548 71.2039 48.2548 70.8896 47.6261L69.6321 46.3687C69.0034 45.7399 68.0603 45.7399 67.4316 46.3687L66.1741 47.6261C65.5454 48.2548 64.6023 48.2548 64.288 47.6261C63.6592 46.9974 63.6592 46.0543 64.288 45.7399L65.5454 44.4825C66.1741 43.8537 66.1741 42.9107 65.5454 42.2819L64.288 41.0245C63.9736 40.7101 63.9736 39.767 64.288 39.1383Z" fill="url(#paint19_linear_30_17528)"/>
<path fill-rule="evenodd" clip-rule="evenodd" d="M85.6647 39.1383C86.2935 38.5096 87.2366 38.5096 87.5509 39.1383L88.8084 40.3958C89.4371 41.0245 90.3802 41.0245 91.0089 40.3958L92.2664 39.1383C92.8951 38.5096 93.8382 38.5096 94.1525 39.1383C94.7813 39.767 94.7813 40.7101 94.1525 41.0245C93.5238 41.6532 93.5238 41.6532 92.8951 42.2819C92.2664 42.9107 92.2664 43.8537 92.8951 44.4825L94.1525 45.7399C94.7813 46.3686 94.7813 47.3117 94.1525 47.6261C93.5238 48.2548 92.5807 48.2548 92.2664 47.6261L91.3233 46.683C90.6946 46.0543 89.7515 46.0543 89.1227 46.683L87.8653 47.9405C87.2366 48.5692 86.2935 48.5692 85.9791 47.9405C85.3504 47.3117 85.3504 46.3686 85.9791 46.0543L87.2366 44.7968C87.8653 44.1681 87.8653 43.225 87.2366 42.5963L85.9791 41.3388C85.036 40.7101 85.036 39.767 85.6647 39.1383Z" fill="url(#paint20_linear_30_17528)"/>
<path fill-rule="evenodd" clip-rule="evenodd" d="M107.04 39.1383C107.669 38.5096 108.612 38.5096 108.927 39.1383L110.184 40.3958C110.813 41.0245 111.756 41.0245 112.385 40.3958L113.642 39.1383C114.271 38.5096 115.214 38.5096 115.528 39.1383C116.157 39.767 116.157 40.7101 115.528 41.0245C114.899 41.6532 114.899 41.6532 114.271 42.2819C113.642 42.9107 113.642 43.8537 114.271 44.4825L115.528 45.7399C116.157 46.3686 116.157 47.3117 115.528 47.6261C114.899 48.2548 113.956 48.2548 113.642 47.6261L112.385 46.3687C111.756 45.7399 110.813 45.7399 110.184 46.3687L108.927 47.6261C108.298 48.2548 107.355 48.2548 107.04 47.6261C106.412 46.9974 106.412 46.0543 107.04 45.7399L108.298 44.4825C108.927 43.8537 108.927 42.9107 108.298 42.2819L107.04 41.0245C106.412 40.7101 106.412 39.767 107.04 39.1383Z" fill="url(#paint21_linear_30_17528)"/>
<path fill-rule="evenodd" clip-rule="evenodd" d="M11.1599 97.2958C11.7886 96.667 12.7317 96.667 13.046 97.2958L14.3035 98.5532C14.9322 99.1819 15.8753 99.1819 16.504 98.5532L17.7615 97.2958C18.3902 96.667 19.3333 96.667 19.6477 97.2958C20.2764 97.9245 20.2764 98.8676 19.6477 99.1819C19.0189 99.8107 19.0189 99.8107 18.3902 100.439C17.7615 101.068 17.7615 102.011 18.3902 102.64L19.6477 103.897C20.2764 104.526 20.2764 105.469 19.6477 105.784C19.0189 106.412 18.0759 106.412 17.7615 105.784L16.8184 105.155C16.1897 104.526 15.2466 104.526 14.6179 105.155L13.3604 106.412C12.7317 107.041 11.7886 107.041 11.4742 106.412C10.8455 105.784 10.8455 104.84 11.4742 104.526L12.7317 103.269C13.3604 102.64 13.3604 101.697 12.7317 101.068L11.4742 99.8107C10.5311 98.8676 10.5311 97.9245 11.1599 97.2958Z" fill="url(#paint22_linear_30_17528)"/>
<path fill-rule="evenodd" clip-rule="evenodd" d="M32.537 97.2955C33.1657 96.6668 34.1088 96.6668 34.4232 97.2955L35.6806 98.553C36.3093 99.1817 37.2524 99.1817 37.8811 98.553L39.1386 97.2955C39.7673 96.6668 40.7104 96.6668 41.0248 97.2955C41.6535 97.9242 41.6535 98.8673 41.0248 99.1817C40.3961 99.8104 40.3961 99.8104 39.7673 100.439C39.1386 101.068 39.1386 102.011 39.7673 102.64L41.0248 103.897C41.6535 104.526 41.6535 105.469 41.0248 105.783C40.3961 106.412 39.453 106.412 39.1386 105.783L37.8811 104.526C37.2524 103.897 36.3093 103.897 35.6806 104.526L34.4232 105.783C33.7944 106.412 32.8513 106.412 32.537 105.783C31.9082 105.155 31.9082 104.212 32.537 103.897L33.7944 102.64C34.4232 102.011 34.4232 101.068 33.7944 100.439L32.537 99.1817C31.9082 98.8673 31.9082 97.9242 32.537 97.2955Z" fill="url(#paint23_linear_30_17528)"/>
<path fill-rule="evenodd" clip-rule="evenodd" d="M53.5985 97.2955C54.2272 96.6668 55.1703 96.6668 55.4847 97.2955L56.7421 98.553C57.3709 99.1817 58.3139 99.1817 58.9427 98.553L60.2001 97.2955C60.8289 96.6668 61.7719 96.6668 62.0863 97.2955C62.715 97.9242 62.715 98.8673 62.0863 99.1817C61.4576 99.8104 61.4576 99.8104 60.8288 100.439C60.2001 101.068 60.2001 102.011 60.8288 102.64L62.0863 103.897C62.715 104.526 62.715 105.469 62.0863 105.783C61.4576 106.412 60.5145 106.412 60.2001 105.783L58.9427 104.526C58.3139 103.897 57.3709 103.897 56.7421 104.526L55.4847 105.783C54.856 106.412 53.9129 106.412 53.5985 105.783C52.9698 105.155 52.9698 104.212 53.5985 103.897L54.8559 102.64C55.4847 102.011 55.4847 101.068 54.8559 100.439L53.5985 99.1817C53.2841 98.8673 53.2841 97.9242 53.5985 97.2955Z" fill="url(#paint24_linear_30_17528)"/>
<path fill-rule="evenodd" clip-rule="evenodd" d="M74.9764 97.2955C75.6052 96.6668 76.5482 96.6668 76.8626 97.2955L78.1201 98.553C78.7488 99.1817 79.6919 99.1817 80.3206 98.553L81.5781 97.2955C82.2068 96.6668 83.1499 96.6668 83.4642 97.2955C84.093 97.9242 84.093 98.8673 83.4642 99.1817C82.8355 99.8104 82.8355 99.8104 82.2068 100.439C81.5781 101.068 81.5781 102.011 82.2068 102.64L83.4642 103.897C84.093 104.526 84.093 105.469 83.4642 105.783C82.8355 106.412 81.8924 106.412 81.5781 105.783L80.3206 104.526C79.6919 103.897 78.7488 103.897 78.1201 104.526L76.8626 105.783C76.2339 106.412 75.2908 106.412 74.9764 105.783C74.3477 105.155 74.3477 104.212 74.9764 103.897L76.2339 102.64C76.8626 102.011 76.8626 101.068 76.2339 100.439L74.9764 99.1817C74.3477 98.8673 74.3477 97.9242 74.9764 97.2955Z" fill="url(#paint25_linear_30_17528)"/>
<path fill-rule="evenodd" clip-rule="evenodd" d="M96.3524 97.2955C96.9811 96.6668 97.9242 96.6668 98.2386 97.2955L99.496 98.553C100.125 99.1817 101.068 99.1817 101.697 98.553L102.954 97.2955C103.583 96.6668 104.526 96.6668 104.84 97.2955C105.469 97.9242 105.469 98.8673 104.84 99.1817C104.211 99.8104 104.211 99.8104 103.583 100.439C102.954 101.068 102.954 102.011 103.583 102.64L104.84 103.897C105.469 104.526 105.469 105.469 104.84 105.783C104.211 106.412 103.268 106.412 102.954 105.783L101.697 104.526C101.068 103.897 100.125 103.897 99.496 104.526L98.2386 105.783C97.6099 106.412 96.6668 106.412 96.3524 105.783C95.7237 105.155 95.7237 104.212 96.3524 103.897L97.6099 102.64C98.2386 102.011 98.2386 101.068 97.6099 100.439L96.3524 99.1817C95.7237 98.8673 95.7237 97.9242 96.3524 97.2955Z" fill="url(#paint26_linear_30_17528)"/>
<path fill-rule="evenodd" clip-rule="evenodd" d="M0.471545 78.119C1.10027 77.4903 2.04336 77.4903 2.35772 78.119L3.61518 79.3765C4.2439 80.0052 5.18699 80.0052 5.81572 79.3765L7.07317 78.119C7.7019 77.4903 8.64499 77.4903 8.95935 78.119C9.58807 78.7477 9.58807 79.6908 8.95935 80.0052C8.33062 80.6339 8.33062 80.6339 7.7019 81.2626C7.07317 81.8914 7.07317 82.8344 7.7019 83.4632L8.95935 84.7206C9.58807 85.3494 9.58807 86.2924 8.95935 86.6068C8.33062 87.2355 7.38753 87.2355 7.07317 86.6068L5.81572 85.3493C5.18699 84.7206 4.2439 84.7206 3.61518 85.3493L2.35772 86.6068C1.729 87.2355 0.785908 87.2355 0.471545 86.6068C-0.157182 85.9781 -0.157182 85.035 0.471545 84.7206L1.729 83.4632C2.35772 82.8344 2.35772 81.8914 1.729 81.2626L0.471545 80.0052C0.157182 79.3765 0.157182 78.4334 0.471545 78.119Z" fill="url(#paint27_linear_30_17528)"/>
<path fill-rule="evenodd" clip-rule="evenodd" d="M21.8475 78.119C22.4762 77.4903 23.4193 77.4903 23.7337 78.119L24.9912 79.3765C25.6199 80.0052 26.563 80.0052 27.1917 79.3765L28.4491 78.119C29.0779 77.4903 30.021 77.4903 30.3353 78.119C30.9641 78.7477 30.9641 79.6908 30.3353 80.0052C29.7066 80.6339 29.7066 80.6339 29.0779 81.2626C28.4491 81.8914 28.4491 82.8344 29.0779 83.4632L30.3353 84.7206C30.9641 85.3494 30.9641 86.2924 30.3353 86.6068C29.7066 87.2355 28.7635 87.2355 28.4491 86.6068L27.1917 85.3493C26.563 84.7206 25.6199 84.7206 24.9912 85.3493L23.7337 86.6068C23.105 87.2355 22.1619 87.2355 21.8475 86.6068C21.2188 85.9781 21.2188 85.035 21.8475 84.7206L23.105 83.4632C23.7337 82.8344 23.7337 81.8914 23.105 81.2626L21.8475 80.0052C21.2188 79.3765 21.2188 78.4334 21.8475 78.119Z" fill="url(#paint28_linear_30_17528)"/>
<path fill-rule="evenodd" clip-rule="evenodd" d="M43.2255 78.119C43.8542 77.4903 44.7973 77.4903 45.1116 78.119L46.3691 79.3765C46.9978 80.0052 47.9409 80.0052 48.5696 79.3765L49.8271 78.119C50.4558 77.4903 51.3989 77.4903 51.7133 78.119C52.342 78.7477 52.342 79.6908 51.7133 80.0052C51.0845 80.6339 51.0845 80.6339 50.4558 81.2626C49.8271 81.8914 49.8271 82.8344 50.4558 83.4632L51.7133 84.7206C52.342 85.3494 52.342 86.2924 51.7133 86.6068C51.0845 87.2355 50.1414 87.2355 49.8271 86.6068L48.5696 85.3493C47.9409 84.7206 46.9978 84.7206 46.3691 85.3493L45.1116 86.6068C44.4829 87.2355 43.5398 87.2355 43.2255 86.6068C42.5967 85.9781 42.5967 85.035 43.2255 84.7206L44.4829 83.4632C45.1116 82.8344 45.1116 81.8914 44.4829 81.2626L43.2255 80.0052C42.5967 79.3765 42.5967 78.4334 43.2255 78.119Z" fill="url(#paint29_linear_30_17528)"/>
<path fill-rule="evenodd" clip-rule="evenodd" d="M64.2865 78.119C64.9152 77.4903 65.8583 77.4903 66.1727 78.119L67.4301 79.3765C68.0588 80.0052 69.0019 80.0052 69.6307 79.3765L70.8881 78.119C71.5168 77.4903 72.4599 77.4903 72.7743 78.119C73.403 78.7477 73.403 79.6908 72.7743 80.0052C72.1456 80.6339 72.1456 80.6339 71.5168 81.2626C70.8881 81.8914 70.8881 82.8344 71.5168 83.4632L72.7743 84.7206C73.403 85.3494 73.403 86.2924 72.7743 86.6068C72.1456 87.2355 71.2025 87.2355 70.8881 86.6068L69.6307 85.3493C69.0019 84.7206 68.0588 84.7206 67.4301 85.3493L66.1727 86.6068C65.5439 87.2355 64.6008 87.2355 64.2865 86.6068C63.6578 85.9781 63.6578 85.035 64.2865 84.7206L65.5439 83.4632C66.1727 82.8344 66.1727 81.8914 65.5439 81.2626L64.2865 80.0052C63.9721 79.3765 63.9721 78.4334 64.2865 78.119Z" fill="url(#paint30_linear_30_17528)"/>
<path fill-rule="evenodd" clip-rule="evenodd" d="M85.6644 78.119C86.2931 77.4903 87.2362 77.4903 87.5506 78.119L88.808 79.3765C89.4368 80.0052 90.3799 80.0052 91.0086 79.3765L92.266 78.119C92.8948 77.4903 93.8379 77.4903 94.1522 78.119C94.7809 78.7477 94.7809 79.6908 94.1522 80.0052C93.5235 80.6339 93.5235 80.6339 92.8948 81.2626C92.266 81.8914 92.266 82.8344 92.8948 83.4632L94.1522 84.7206C94.7809 85.3494 94.7809 86.2924 94.1522 86.6068C93.5235 87.2355 92.5804 87.2355 92.266 86.6068L91.0086 85.3493C90.3799 84.7206 89.4368 84.7206 88.808 85.3493L87.5506 86.6068C86.9219 87.2355 85.9788 87.2355 85.6644 86.6068C85.0357 85.9781 85.0357 85.035 85.6644 84.7206L86.9219 83.4632C87.5506 82.8344 87.5506 81.8914 86.9219 81.2626L85.6644 80.0052C85.0357 79.3765 85.0357 78.4334 85.6644 78.119Z" fill="url(#paint31_linear_30_17528)"/>
<path fill-rule="evenodd" clip-rule="evenodd" d="M107.04 78.119C107.669 77.4903 108.612 77.4903 108.927 78.119L110.184 79.3765C110.813 80.0052 111.756 80.0052 112.385 79.3765L113.642 78.119C114.271 77.4903 115.214 77.4903 115.528 78.119C116.157 78.7477 116.157 79.6908 115.528 80.0052C114.899 80.6339 114.899 80.6339 114.271 81.2626C113.642 81.8914 113.642 82.8344 114.271 83.4632L115.528 84.7206C116.157 85.3494 116.157 86.2924 115.528 86.6068C114.899 87.2355 113.956 87.2355 113.642 86.6068L112.385 85.3493C111.756 84.7206 110.813 84.7206 110.184 85.3493L108.927 86.6068C108.298 87.2355 107.355 87.2355 107.04 86.6068C106.412 85.9781 106.412 85.035 107.04 84.7206L108.298 83.4632C108.927 82.8344 108.927 81.8914 108.298 81.2626L107.04 80.0052C106.412 79.3765 106.412 78.4334 107.04 78.119Z" fill="url(#paint32_linear_30_17528)"/>
<path fill-rule="evenodd" clip-rule="evenodd" d="M11.1595 136.276C11.7883 135.648 12.7313 135.648 13.0457 136.276L14.3032 137.534C14.9319 138.162 15.875 138.162 16.5037 137.534L17.7612 136.276C18.3899 135.648 19.333 135.648 19.6473 136.276C20.2761 136.905 20.2761 137.848 19.6473 138.162C19.0186 138.791 19.0186 138.791 18.3899 139.42C17.7612 140.049 17.7612 140.992 18.3899 141.62L19.6473 142.878C20.2761 143.507 20.2761 144.45 19.6473 144.764C19.0186 145.393 18.0755 145.393 17.7612 144.764L16.5037 143.507C15.875 142.878 14.9319 142.878 14.3032 143.507L13.0457 144.764C12.417 145.393 11.4739 145.393 11.1595 144.764C10.5308 144.135 10.5308 143.192 11.1595 142.878L12.417 141.62C13.0457 140.992 13.0457 140.049 12.417 139.42L11.1595 138.162C10.5308 137.848 10.5308 136.905 11.1595 136.276Z" fill="url(#paint33_linear_30_17528)"/>
<path fill-rule="evenodd" clip-rule="evenodd" d="M32.5355 136.276C33.1642 135.648 34.1073 135.648 34.4217 136.276L35.6791 137.534C36.3079 138.162 37.251 138.162 37.8797 137.534L39.1371 136.276C39.7659 135.648 40.709 135.648 41.0233 136.276C41.652 136.905 41.652 137.848 41.0233 138.162C40.3946 138.791 40.3946 138.791 39.7659 139.42C39.1371 140.049 39.1371 140.992 39.7659 141.62L41.0233 142.878C41.652 143.507 41.652 144.45 41.0233 144.764C40.3946 145.393 39.4515 145.393 39.1371 144.764L37.8797 143.507C37.251 142.878 36.3079 142.878 35.6791 143.507L34.4217 144.764C33.793 145.393 32.8499 145.393 32.5355 144.764C31.9068 144.135 31.9068 143.192 32.5355 142.878L33.793 141.62C34.4217 140.992 34.4217 140.049 33.793 139.42L32.5355 138.162C31.9068 137.848 31.9068 136.905 32.5355 136.276Z" fill="url(#paint34_linear_30_17528)"/>
<path fill-rule="evenodd" clip-rule="evenodd" d="M53.5985 136.276C54.2272 135.648 55.1703 135.648 55.4847 136.276L56.7421 137.534C57.3709 138.162 58.3139 138.162 58.9427 137.534L60.2001 136.276C60.8289 135.648 61.7719 135.648 62.0863 136.276C62.715 136.905 62.715 137.848 62.0863 138.162C61.4576 138.791 61.4576 138.791 60.8288 139.42C60.2001 140.049 60.2001 140.992 60.8288 141.62L62.0863 142.878C62.715 143.507 62.715 144.45 62.0863 144.764C61.4576 145.393 60.5145 145.393 60.2001 144.764L58.9427 143.507C58.3139 142.878 57.3709 142.878 56.7421 143.507L55.4847 144.764C54.856 145.393 53.9129 145.393 53.5985 144.764C52.9698 144.135 52.9698 143.192 53.5985 142.878L54.8559 141.62C55.4847 140.992 55.4847 140.049 54.8559 139.42L53.5985 138.162C53.2841 137.848 53.2841 136.905 53.5985 136.276Z" fill="url(#paint35_linear_30_17528)"/>
<path fill-rule="evenodd" clip-rule="evenodd" d="M74.9745 136.276C75.6032 135.648 76.5463 135.648 76.8607 136.276L78.1181 137.534C78.7468 138.162 79.6899 138.162 80.3186 137.534L81.5761 136.276C82.2048 135.648 83.1479 135.648 83.4623 136.276C84.091 136.905 84.091 137.848 83.4623 138.162C82.8336 138.791 82.8336 138.791 82.2048 139.42C81.5761 140.049 81.5761 140.992 82.2048 141.62L83.4623 142.878C84.091 143.507 84.091 144.45 83.4623 144.764C82.8336 145.393 81.8905 145.393 81.5761 144.764L80.3186 143.507C79.6899 142.878 78.7468 142.878 78.1181 143.507L76.8607 144.764C76.2319 145.393 75.2888 145.393 74.9745 144.764C74.3457 144.135 74.3457 143.192 74.9745 142.878L76.2319 141.62C76.8607 140.992 76.8607 140.049 76.2319 139.42L74.9745 138.162C74.3457 137.848 74.3457 136.905 74.9745 136.276Z" fill="url(#paint36_linear_30_17528)"/>
<path fill-rule="evenodd" clip-rule="evenodd" d="M96.3524 136.276C96.9811 135.648 97.9242 135.648 98.2386 136.276L99.496 137.534C100.125 138.162 101.068 138.162 101.697 137.534L102.954 136.276C103.583 135.648 104.526 135.648 104.84 136.276C105.469 136.905 105.469 137.848 104.84 138.162C104.211 138.791 104.211 138.791 103.583 139.42C102.954 140.049 102.954 140.992 103.583 141.62L104.84 142.878C105.469 143.507 105.469 144.45 104.84 144.764C104.211 145.393 103.268 145.393 102.954 144.764L101.697 143.507C101.068 142.878 100.125 142.878 99.496 143.507L98.2386 144.764C97.6099 145.393 96.6668 145.393 96.3524 144.764C95.7237 144.135 95.7237 143.192 96.3524 142.878L97.6099 141.62C98.2386 140.992 98.2386 140.049 97.6099 139.42L96.3524 138.162C95.7237 137.848 95.7237 136.905 96.3524 136.276Z" fill="url(#paint37_linear_30_17528)"/>
<path fill-rule="evenodd" clip-rule="evenodd" d="M0.471545 116.786C1.10027 116.157 2.04336 116.157 2.35772 116.786L3.61518 118.043C4.2439 118.672 5.18699 118.672 5.81572 118.043L7.07317 116.786C7.7019 116.157 8.64499 116.157 8.95935 116.786C9.58807 117.415 9.58807 118.358 8.95935 118.672C8.33062 119.301 8.33062 119.301 7.7019 119.93C7.07317 120.558 7.07317 121.501 7.7019 122.13L8.95935 123.388C9.58807 124.016 9.58807 124.959 8.95935 125.274C8.33062 125.903 7.38753 125.903 7.07317 125.274L5.81572 124.016C5.18699 123.388 4.2439 123.388 3.61518 124.016L2.35772 125.274C1.729 125.903 0.785908 125.903 0.471545 125.274C-0.157182 124.645 -0.157182 123.702 0.471545 123.388L1.729 122.13C2.35772 121.501 2.35772 120.558 1.729 119.93L0.471545 118.672C0.157182 118.358 0.157182 117.415 0.471545 116.786Z" fill="url(#paint38_linear_30_17528)"/>
<path fill-rule="evenodd" clip-rule="evenodd" d="M21.8475 116.786C22.4762 116.157 23.4193 116.157 23.7337 116.786L24.9912 118.043C25.6199 118.672 26.563 118.672 27.1917 118.043L28.4491 116.786C29.0779 116.157 30.021 116.157 30.3353 116.786C30.9641 117.415 30.9641 118.358 30.3353 118.672C29.7066 119.301 29.7066 119.301 29.0779 119.93C28.4491 120.558 28.4491 121.501 29.0779 122.13L30.3353 123.388C30.9641 124.016 30.9641 124.959 30.3353 125.274C29.7066 125.903 28.7635 125.903 28.4491 125.274L27.1917 124.016C26.563 123.388 25.6199 123.388 24.9912 124.016L23.7337 125.274C23.105 125.903 22.1619 125.903 21.8475 125.274C21.2188 124.645 21.2188 123.702 21.8475 123.388L23.105 122.13C23.7337 121.501 23.7337 120.558 23.105 119.93L21.8475 118.672C21.2188 118.358 21.2188 117.415 21.8475 116.786Z" fill="url(#paint39_linear_30_17528)"/>
<path fill-rule="evenodd" clip-rule="evenodd" d="M43.2255 116.786C43.8542 116.157 44.7973 116.157 45.1116 116.786L46.3691 118.043C46.9978 118.672 47.9409 118.672 48.5696 118.043L49.8271 116.786C50.4558 116.157 51.3989 116.157 51.7133 116.786C52.342 117.415 52.342 118.358 51.7133 118.672C51.0845 119.301 51.0845 119.301 50.4558 119.93C49.8271 120.558 49.8271 121.501 50.4558 122.13L51.7133 123.388C52.342 124.016 52.342 124.959 51.7133 125.274C51.0845 125.903 50.1414 125.903 49.8271 125.274L48.5696 124.016C47.9409 123.388 46.9978 123.388 46.3691 124.016L45.1116 125.274C44.4829 125.903 43.5398 125.903 43.2255 125.274C42.5967 124.645 42.5967 123.702 43.2255 123.388L44.4829 122.13C45.1116 121.501 45.1116 120.558 44.4829 119.93L43.2255 118.672C42.5967 118.358 42.5967 117.415 43.2255 116.786Z" fill="url(#paint40_linear_30_17528)"/>
<path fill-rule="evenodd" clip-rule="evenodd" d="M64.2865 116.786C64.9152 116.157 65.8583 116.157 66.1727 116.786L67.4301 118.043C68.0588 118.672 69.0019 118.672 69.6307 118.043L70.8881 116.786C71.5168 116.157 72.4599 116.157 72.7743 116.786C73.403 117.415 73.403 118.358 72.7743 118.672C72.1456 119.301 72.1456 119.301 71.5168 119.93C70.8881 120.558 70.8881 121.501 71.5168 122.13L72.7743 123.388C73.403 124.016 73.403 124.959 72.7743 125.274C72.1456 125.903 71.2025 125.903 70.8881 125.274L69.6307 124.016C69.0019 123.388 68.0588 123.388 67.4301 124.016L66.1727 125.274C65.5439 125.903 64.6008 125.903 64.2865 125.274C63.6578 124.645 63.6578 123.702 64.2865 123.388L65.5439 122.13C66.1727 121.501 66.1727 120.558 65.5439 119.93L64.2865 118.672C63.9721 118.358 63.9721 117.415 64.2865 116.786Z" fill="url(#paint41_linear_30_17528)"/>
<path fill-rule="evenodd" clip-rule="evenodd" d="M85.6644 116.786C86.2931 116.157 87.2362 116.157 87.5506 116.786L88.808 118.043C89.4368 118.672 90.3799 118.672 91.0086 118.043L92.266 116.786C92.8948 116.157 93.8379 116.157 94.1522 116.786C94.7809 117.415 94.7809 118.358 94.1522 118.672C93.5235 119.301 93.5235 119.301 92.8948 119.93C92.266 120.558 92.266 121.501 92.8948 122.13L94.1522 123.388C94.7809 124.016 94.7809 124.959 94.1522 125.274C93.5235 125.903 92.5804 125.903 92.266 125.274L91.0086 124.016C90.3799 123.388 89.4368 123.388 88.808 124.016L87.5506 125.274C86.9219 125.903 85.9788 125.903 85.6644 125.274C85.0357 124.645 85.0357 123.702 85.6644 123.388L86.9219 122.13C87.5506 121.501 87.5506 120.558 86.9219 119.93L85.6644 118.672C85.0357 118.358 85.0357 117.415 85.6644 116.786Z" fill="url(#paint42_linear_30_17528)"/>
<path fill-rule="evenodd" clip-rule="evenodd" d="M107.04 116.786C107.669 116.157 108.612 116.157 108.927 116.786L110.184 118.043C110.813 118.672 111.756 118.672 112.385 118.043L113.642 116.786C114.271 116.157 115.214 116.157 115.528 116.786C116.157 117.415 116.157 118.358 115.528 118.672C114.899 119.301 114.899 119.301 114.271 119.93C113.642 120.558 113.642 121.501 114.271 122.13L115.528 123.388C116.157 124.016 116.157 124.959 115.528 125.274C114.899 125.903 113.956 125.903 113.642 125.274L112.385 124.016C111.756 123.388 110.813 123.388 110.184 124.016L108.927 125.274C108.298 125.903 107.355 125.903 107.04 125.274C106.412 124.645 106.412 123.702 107.04 123.388L108.298 122.13C108.927 121.501 108.927 120.558 108.298 119.93L107.04 118.672C106.412 118.358 106.412 117.415 107.04 116.786Z" fill="url(#paint43_linear_30_17528)"/>
<path fill-rule="evenodd" clip-rule="evenodd" d="M11.1595 175.258C11.7883 174.629 12.7313 174.629 13.0457 175.258L14.3032 176.515C14.9319 177.144 15.875 177.144 16.5037 176.515L17.7612 175.258C18.3899 174.629 19.333 174.629 19.6473 175.258C20.2761 175.887 20.2761 176.83 19.6473 177.144C19.0186 177.773 19.0186 177.773 18.3899 178.402C17.7612 179.03 17.7612 179.973 18.3899 180.602L19.6473 181.86C20.2761 182.488 20.2761 183.431 19.6473 183.746C19.0186 184.374 18.0755 184.374 17.7612 183.746L16.5037 182.488C15.875 181.86 14.9319 181.86 14.3032 182.488L13.0457 183.746C12.417 184.374 11.4739 184.374 11.1595 183.746C10.5308 183.117 10.5308 182.174 11.1595 181.86L12.417 180.602C13.0457 179.973 13.0457 179.03 12.417 178.402L11.1595 177.144C10.5308 176.515 10.5308 175.572 11.1595 175.258Z" fill="url(#paint44_linear_30_17528)"/>
<path fill-rule="evenodd" clip-rule="evenodd" d="M32.5355 175.258C33.1642 174.629 34.1073 174.629 34.4217 175.258L35.6791 176.515C36.3079 177.144 37.251 177.144 37.8797 176.515L39.1371 175.258C39.7659 174.629 40.709 174.629 41.0233 175.258C41.652 175.886 41.652 176.829 41.0233 177.144C40.3946 177.773 40.3946 177.773 39.7659 178.401C39.1371 179.03 39.1371 179.973 39.7659 180.602L41.0233 181.859C41.652 182.488 41.652 183.431 41.0233 183.745C40.3946 184.374 39.4515 184.374 39.1371 183.745L37.8797 182.488C37.251 181.859 36.3079 181.859 35.6791 182.488L34.4217 183.745C33.793 184.374 32.8499 184.374 32.5355 183.745C31.9068 183.117 31.9068 182.174 32.5355 181.859L33.793 180.602C34.4217 179.973 34.4217 179.03 33.793 178.401L32.5355 177.144C31.9068 176.515 31.9068 175.572 32.5355 175.258Z" fill="url(#paint45_linear_30_17528)"/>
<path fill-rule="evenodd" clip-rule="evenodd" d="M53.5985 175.258C54.2272 174.629 55.1703 174.629 55.4847 175.258L56.7421 176.515C57.3709 177.144 58.3139 177.144 58.9427 176.515L60.2001 175.258C60.8289 174.629 61.7719 174.629 62.0863 175.258C62.715 175.886 62.715 176.829 62.0863 177.144C61.4576 177.773 61.4576 177.773 60.8288 178.401C60.2001 179.03 60.2001 179.973 60.8288 180.602L62.0863 181.859C62.715 182.488 62.715 183.431 62.0863 183.745C61.4576 184.374 60.5145 184.374 60.2001 183.745L58.9427 182.488C58.3139 181.859 57.3709 181.859 56.7421 182.488L55.4847 183.745C54.856 184.374 53.9129 184.374 53.5985 183.745C52.9698 183.117 52.9698 182.174 53.5985 181.859L54.8559 180.602C55.4847 179.973 55.4847 179.03 54.8559 178.401L53.5985 177.144C53.2841 176.515 53.2841 175.572 53.5985 175.258Z" fill="url(#paint46_linear_30_17528)"/>
<path fill-rule="evenodd" clip-rule="evenodd" d="M74.9745 175.258C75.6032 174.629 76.5463 174.629 76.8607 175.258L78.1181 176.515C78.7468 177.144 79.6899 177.144 80.3186 176.515L81.5761 175.258C82.2048 174.629 83.1479 174.629 83.4623 175.258C84.091 175.886 84.091 176.829 83.4623 177.144C82.8336 177.773 82.8336 177.773 82.2048 178.401C81.5761 179.03 81.5761 179.973 82.2048 180.602L83.4623 181.859C84.091 182.488 84.091 183.431 83.4623 183.745C82.8336 184.374 81.8905 184.374 81.5761 183.745L80.3186 182.488C79.6899 181.859 78.7468 181.859 78.1181 182.488L76.8607 183.745C76.2319 184.374 75.2888 184.374 74.9745 183.745C74.3457 183.117 74.3457 182.174 74.9745 181.859L76.2319 180.602C76.8607 179.973 76.8607 179.03 76.2319 178.401L74.9745 177.144C74.3457 176.515 74.3457 175.572 74.9745 175.258Z" fill="url(#paint47_linear_30_17528)"/>
<path fill-rule="evenodd" clip-rule="evenodd" d="M96.3524 175.258C96.9811 174.629 97.9242 174.629 98.2386 175.258L99.496 176.515C100.125 177.144 101.068 177.144 101.697 176.515L102.954 175.258C103.583 174.629 104.526 174.629 104.84 175.258C105.469 175.886 105.469 176.829 104.84 177.144C104.211 177.773 104.211 177.773 103.583 178.401C102.954 179.03 102.954 179.973 103.583 180.602L104.84 181.859C105.469 182.488 105.469 183.431 104.84 183.745C104.211 184.374 103.268 184.374 102.954 183.745L101.697 182.488C101.068 181.859 100.125 181.859 99.496 182.488L98.2386 183.745C97.6099 184.374 96.6668 184.374 96.3524 183.745C95.7237 183.117 95.7237 182.174 96.3524 181.859L97.6099 180.602C98.2386 179.973 98.2386 179.03 97.6099 178.401L96.3524 177.144C95.7237 176.515 95.7237 175.572 96.3524 175.258Z" fill="url(#paint48_linear_30_17528)"/>
<path fill-rule="evenodd" clip-rule="evenodd" d="M0.471545 155.767C1.10027 155.138 2.04336 155.138 2.35772 155.767L3.61518 157.024C4.2439 157.653 5.18699 157.653 5.81572 157.024L7.07317 155.767C7.7019 155.138 8.64499 155.138 8.95935 155.767C9.58807 156.395 9.58807 157.338 8.95935 157.653C8.33062 158.282 8.33062 158.282 7.7019 158.91C7.07317 159.539 7.07317 160.482 7.7019 161.111L8.95935 162.368C9.58807 162.997 9.58807 163.94 8.95935 164.255C8.33062 164.883 7.38753 164.883 7.07317 164.255L5.81572 162.997C5.18699 162.368 4.2439 162.368 3.61518 162.997L2.35772 164.255C1.729 164.883 0.785908 164.883 0.471545 164.255C-0.157182 163.626 -0.157182 162.683 0.471545 162.368L1.729 161.111C2.35772 160.482 2.35772 159.539 1.729 158.91L0.471545 157.653C0.157182 157.024 0.157182 156.395 0.471545 155.767Z" fill="url(#paint49_linear_30_17528)"/>
<path fill-rule="evenodd" clip-rule="evenodd" d="M21.8475 155.767C22.4762 155.138 23.4193 155.138 23.7337 155.767L24.9912 157.024C25.6199 157.653 26.563 157.653 27.1917 157.024L28.4491 155.767C29.0779 155.138 30.021 155.138 30.3353 155.767C30.9641 156.395 30.9641 157.338 30.3353 157.653C29.7066 158.282 29.7066 158.282 29.0779 158.91C28.4491 159.539 28.4491 160.482 29.0779 161.111L30.3353 162.368C30.9641 162.997 30.9641 163.94 30.3353 164.255C29.7066 164.883 28.7635 164.883 28.4491 164.255L27.1917 162.997C26.563 162.368 25.6199 162.368 24.9912 162.997L23.7337 164.255C23.105 164.883 22.1619 164.883 21.8475 164.255C21.2188 163.626 21.2188 162.683 21.8475 162.368L23.105 161.111C23.7337 160.482 23.7337 159.539 23.105 158.91L21.8475 157.653C21.2188 157.024 21.2188 156.395 21.8475 155.767Z" fill="url(#paint50_linear_30_17528)"/>
<path fill-rule="evenodd" clip-rule="evenodd" d="M43.2255 155.767C43.8542 155.138 44.7973 155.138 45.1116 155.767L46.3691 157.024C46.9978 157.653 47.9409 157.653 48.5696 157.024L49.8271 155.767C50.4558 155.138 51.3989 155.138 51.7133 155.767C52.342 156.395 52.342 157.338 51.7133 157.653C51.0845 158.282 51.0845 158.282 50.4558 158.91C49.8271 159.539 49.8271 160.482 50.4558 161.111L51.7133 162.368C52.342 162.997 52.342 163.94 51.7133 164.255C51.0845 164.883 50.1414 164.883 49.8271 164.255L48.5696 162.997C47.9409 162.368 46.9978 162.368 46.3691 162.997L45.1116 164.255C44.4829 164.883 43.5398 164.883 43.2255 164.255C42.5967 163.626 42.5967 162.683 43.2255 162.368L44.4829 161.111C45.1116 160.482 45.1116 159.539 44.4829 158.91L43.2255 157.653C42.5967 157.024 42.5967 156.395 43.2255 155.767Z" fill="url(#paint51_linear_30_17528)"/>
<path fill-rule="evenodd" clip-rule="evenodd" d="M64.2865 155.767C64.9152 155.138 65.8583 155.138 66.1727 155.767L67.4301 157.024C68.0588 157.653 69.0019 157.653 69.6307 157.024L70.8881 155.767C71.5168 155.138 72.4599 155.138 72.7743 155.767C73.403 156.395 73.403 157.338 72.7743 157.653C72.1456 158.282 72.1456 158.282 71.5168 158.91C70.8881 159.539 70.8881 160.482 71.5168 161.111L72.7743 162.368C73.403 162.997 73.403 163.94 72.7743 164.255C72.1456 164.883 71.2025 164.883 70.8881 164.255L69.6307 162.997C69.0019 162.368 68.0588 162.368 67.4301 162.997L66.1727 164.255C65.5439 164.883 64.6008 164.883 64.2865 164.255C63.6578 163.626 63.6578 162.683 64.2865 162.368L65.5439 161.111C66.1727 160.482 66.1727 159.539 65.5439 158.91L64.2865 157.653C63.9721 157.024 63.9721 156.395 64.2865 155.767Z" fill="url(#paint52_linear_30_17528)"/>
<path fill-rule="evenodd" clip-rule="evenodd" d="M85.6644 155.767C86.2931 155.138 87.2362 155.138 87.5506 155.767L88.808 157.024C89.4368 157.653 90.3799 157.653 91.0086 157.024L92.266 155.767C92.8948 155.138 93.8379 155.138 94.1522 155.767C94.7809 156.395 94.7809 157.338 94.1522 157.653C93.5235 158.282 93.5235 158.282 92.8948 158.91C92.266 159.539 92.266 160.482 92.8948 161.111L94.1522 162.368C94.7809 162.997 94.7809 163.94 94.1522 164.255C93.5235 164.883 92.5804 164.883 92.266 164.255L91.0086 162.997C90.3799 162.368 89.4368 162.368 88.808 162.997L87.5506 164.255C86.9219 164.883 85.9788 164.883 85.6644 164.255C85.0357 163.626 85.0357 162.683 85.6644 162.368L86.9219 161.111C87.5506 160.482 87.5506 159.539 86.9219 158.91L85.6644 157.653C85.0357 157.024 85.0357 156.395 85.6644 155.767Z" fill="url(#paint53_linear_30_17528)"/>
<path fill-rule="evenodd" clip-rule="evenodd" d="M107.04 155.767C107.669 155.138 108.612 155.138 108.927 155.767L110.184 157.024C110.813 157.653 111.756 157.653 112.385 157.024L113.642 155.767C114.271 155.138 115.214 155.138 115.528 155.767C116.157 156.395 116.157 157.338 115.528 157.653C114.899 158.282 114.899 158.282 114.271 158.91C113.642 159.539 113.642 160.482 114.271 161.111L115.528 162.368C116.157 162.997 116.157 163.94 115.528 164.255C114.899 164.883 113.956 164.883 113.642 164.255L112.385 162.997C111.756 162.368 110.813 162.368 110.184 162.997L108.927 164.255C108.298 164.883 107.355 164.883 107.04 164.255C106.412 163.626 106.412 162.683 107.04 162.368L108.298 161.111C108.927 160.482 108.927 159.539 108.298 158.91L107.04 157.653C106.412 157.024 106.412 156.395 107.04 155.767Z" fill="url(#paint54_linear_30_17528)"/>
<path fill-rule="evenodd" clip-rule="evenodd" d="M11.1599 213.924C11.7886 213.295 12.7317 213.295 13.046 213.924L14.3035 215.181C14.9322 215.81 15.8753 215.81 16.504 215.181L17.7615 213.924C18.3902 213.295 19.3333 213.295 19.6477 213.924C20.2764 214.552 20.2764 215.495 19.6477 215.81C19.0189 216.439 19.0189 216.439 18.3902 217.067C17.7615 217.696 17.7615 218.639 18.3902 219.268L19.6477 220.525C20.2764 221.154 20.2764 222.097 19.6477 222.411C19.0189 223.04 18.0759 223.04 17.7615 222.411L16.8184 221.468C16.1897 220.84 15.2466 220.84 14.6179 221.468L13.3604 222.726C12.7317 223.355 11.7886 223.355 11.4742 222.726C10.8455 222.097 10.8455 221.154 11.4742 220.84L12.7317 219.582C13.3604 218.953 13.3604 218.01 12.7317 217.382L11.4742 216.124C10.5311 215.495 10.5311 214.552 11.1599 213.924Z" fill="url(#paint55_linear_30_17528)"/>
<path fill-rule="evenodd" clip-rule="evenodd" d="M32.537 213.924C33.1657 213.295 34.1088 213.295 34.4232 213.924L35.6806 215.181C36.3093 215.81 37.2524 215.81 37.8811 215.181L39.1386 213.924C39.7673 213.295 40.7104 213.295 41.0248 213.924C41.6535 214.552 41.6535 215.495 41.0248 215.81C40.3961 216.439 40.3961 216.439 39.7673 217.067C39.1386 217.696 39.1386 218.639 39.7673 219.268L41.0248 220.525C41.6535 221.154 41.6535 222.097 41.0248 222.411C40.3961 223.04 39.453 223.04 39.1386 222.411L37.8811 221.154C37.2524 220.525 36.3093 220.525 35.6806 221.154L34.4232 222.411C33.7944 223.04 32.8513 223.04 32.537 222.411C31.9082 221.783 31.9082 220.84 32.537 220.525L33.7944 219.268C34.4232 218.639 34.4232 217.696 33.7944 217.067L32.537 215.81C31.9082 215.495 31.9082 214.552 32.537 213.924Z" fill="url(#paint56_linear_30_17528)"/>
<path fill-rule="evenodd" clip-rule="evenodd" d="M53.5985 213.924C54.2272 213.295 55.1703 213.295 55.4847 213.924L56.7421 215.181C57.3709 215.81 58.3139 215.81 58.9427 215.181L60.2001 213.924C60.8289 213.295 61.7719 213.295 62.0863 213.924C62.715 214.552 62.715 215.495 62.0863 215.81C61.4576 216.439 61.4576 216.439 60.8288 217.067C60.2001 217.696 60.2001 218.639 60.8288 219.268L62.0863 220.525C62.715 221.154 62.715 222.097 62.0863 222.411C61.4576 223.04 60.5145 223.04 60.2001 222.411L58.9427 221.154C58.3139 220.525 57.3709 220.525 56.7421 221.154L55.4847 222.411C54.856 223.04 53.9129 223.04 53.5985 222.411C52.9698 221.783 52.9698 220.84 53.5985 220.525L54.8559 219.268C55.4847 218.639 55.4847 217.696 54.8559 217.067L53.5985 215.81C53.2841 215.495 53.2841 214.552 53.5985 213.924Z" fill="url(#paint57_linear_30_17528)"/>
<path fill-rule="evenodd" clip-rule="evenodd" d="M74.9764 213.924C75.6052 213.295 76.5482 213.295 76.8626 213.924L78.1201 215.181C78.7488 215.81 79.6919 215.81 80.3206 215.181L81.5781 213.924C82.2068 213.295 83.1499 213.295 83.4642 213.924C84.093 214.552 84.093 215.495 83.4642 215.81C82.8355 216.439 82.8355 216.439 82.2068 217.067C81.5781 217.696 81.5781 218.639 82.2068 219.268L83.4642 220.525C84.093 221.154 84.093 222.097 83.4642 222.411C82.8355 223.04 81.8924 223.04 81.5781 222.411L80.3206 221.154C79.6919 220.525 78.7488 220.525 78.1201 221.154L76.8626 222.411C76.2339 223.04 75.2908 223.04 74.9764 222.411C74.3477 221.783 74.3477 220.84 74.9764 220.525L76.2339 219.268C76.8626 218.639 76.8626 217.696 76.2339 217.067L74.9764 215.81C74.3477 215.495 74.3477 214.552 74.9764 213.924Z" fill="url(#paint58_linear_30_17528)"/>
<path fill-rule="evenodd" clip-rule="evenodd" d="M96.3524 213.924C96.9811 213.295 97.9242 213.295 98.2386 213.924L99.496 215.181C100.125 215.81 101.068 215.81 101.697 215.181L102.954 213.924C103.583 213.295 104.526 213.295 104.84 213.924C105.469 214.552 105.469 215.495 104.84 215.81C104.211 216.439 104.211 216.439 103.583 217.067C102.954 217.696 102.954 218.639 103.583 219.268L104.84 220.525C105.469 221.154 105.469 222.097 104.84 222.411C104.211 223.04 103.268 223.04 102.954 222.411L101.697 221.154C101.068 220.525 100.125 220.525 99.496 221.154L98.2386 222.411C97.6099 223.04 96.6668 223.04 96.3524 222.411C95.7237 221.783 95.7237 220.84 96.3524 220.525L97.6099 219.268C98.2386 218.639 98.2386 217.696 97.6099 217.067L96.3524 215.81C95.7237 215.495 95.7237 214.552 96.3524 213.924Z" fill="url(#paint59_linear_30_17528)"/>
<path fill-rule="evenodd" clip-rule="evenodd" d="M0.471545 194.434C1.10027 193.805 2.04336 193.805 2.35772 194.434L3.61518 195.691C4.2439 196.32 5.18699 196.32 5.81572 195.691L7.07317 194.434C7.7019 193.805 8.64499 193.805 8.95935 194.434C9.58807 195.062 9.58807 196.006 8.95935 196.32C8.33062 196.949 8.33062 196.949 7.7019 197.577C7.07317 198.206 7.07317 199.149 7.7019 199.778L8.95935 201.035C9.58807 201.664 9.58807 202.607 8.95935 202.922C8.33062 203.55 7.38753 203.55 7.07317 202.922L5.81572 201.664C5.18699 201.035 4.2439 201.035 3.61518 201.664L2.35772 202.922C1.729 203.55 0.785908 203.55 0.471545 202.922C-0.157182 202.293 -0.157182 201.35 0.471545 201.035L1.729 199.778C2.35772 199.149 2.35772 198.206 1.729 197.577L0.471545 196.32C0.157182 196.006 0.157182 195.062 0.471545 194.434Z" fill="url(#paint60_linear_30_17528)"/>
<path fill-rule="evenodd" clip-rule="evenodd" d="M21.8475 194.433C22.4762 193.805 23.4193 193.805 23.7337 194.433L24.9912 195.691C25.6199 196.32 26.563 196.32 27.1917 195.691L28.4491 194.433C29.0779 193.805 30.021 193.805 30.3353 194.433C30.9641 195.062 30.9641 196.005 30.3353 196.32C29.7066 196.948 29.7066 196.948 29.0779 197.577C28.4491 198.206 28.4491 199.149 29.0779 199.778L30.3353 201.035C30.9641 201.664 30.9641 202.607 30.3353 202.921C29.7066 203.55 28.7635 203.55 28.4491 202.921L27.1917 201.664C26.563 201.035 25.6199 201.035 24.9912 201.664L23.7337 202.921C23.105 203.55 22.1619 203.55 21.8475 202.921C21.2188 202.293 21.2188 201.349 21.8475 201.035L23.105 199.778C23.7337 199.149 23.7337 198.206 23.105 197.577L21.8475 196.32C21.2188 196.005 21.2188 195.062 21.8475 194.433Z" fill="url(#paint61_linear_30_17528)"/>
<path fill-rule="evenodd" clip-rule="evenodd" d="M43.2255 194.433C43.8542 193.805 44.7973 193.805 45.1116 194.433L46.3691 195.691C46.9978 196.32 47.9409 196.32 48.5696 195.691L49.8271 194.433C50.4558 193.805 51.3989 193.805 51.7133 194.433C52.342 195.062 52.342 196.005 51.7133 196.32C51.0845 196.948 51.0845 196.948 50.4558 197.577C49.8271 198.206 49.8271 199.149 50.4558 199.778L51.7133 201.035C52.342 201.664 52.342 202.607 51.7133 202.921C51.0845 203.55 50.1414 203.55 49.8271 202.921L48.5696 201.664C47.9409 201.035 46.9978 201.035 46.3691 201.664L45.1116 202.921C44.4829 203.55 43.5398 203.55 43.2255 202.921C42.5967 202.293 42.5967 201.349 43.2255 201.035L44.4829 199.778C45.1116 199.149 45.1116 198.206 44.4829 197.577L43.2255 196.32C42.5967 196.005 42.5967 195.062 43.2255 194.433Z" fill="url(#paint62_linear_30_17528)"/>
<path fill-rule="evenodd" clip-rule="evenodd" d="M64.2865 194.433C64.9152 193.805 65.8583 193.805 66.1727 194.433L67.4301 195.691C68.0588 196.32 69.0019 196.32 69.6307 195.691L70.8881 194.433C71.5168 193.805 72.4599 193.805 72.7743 194.433C73.403 195.062 73.403 196.005 72.7743 196.32C72.1456 196.948 72.1456 196.948 71.5168 197.577C70.8881 198.206 70.8881 199.149 71.5168 199.778L72.7743 201.035C73.403 201.664 73.403 202.607 72.7743 202.921C72.1456 203.55 71.2025 203.55 70.8881 202.921L69.6307 201.664C69.0019 201.035 68.0588 201.035 67.4301 201.664L66.1727 202.921C65.5439 203.55 64.6008 203.55 64.2865 202.921C63.6578 202.293 63.6578 201.349 64.2865 201.035L65.5439 199.778C66.1727 199.149 66.1727 198.206 65.5439 197.577L64.2865 196.32C63.9721 196.005 63.9721 195.062 64.2865 194.433Z" fill="url(#paint63_linear_30_17528)"/>
<path fill-rule="evenodd" clip-rule="evenodd" d="M85.6644 194.433C86.2931 193.805 87.2362 193.805 87.5506 194.433L88.808 195.691C89.4368 196.32 90.3799 196.32 91.0086 195.691L92.266 194.433C92.8948 193.805 93.8379 193.805 94.1522 194.433C94.7809 195.062 94.7809 196.005 94.1522 196.32C93.5235 196.948 93.5235 196.948 92.8948 197.577C92.266 198.206 92.266 199.149 92.8948 199.778L94.1522 201.035C94.7809 201.664 94.7809 202.607 94.1522 202.921C93.5235 203.55 92.5804 203.55 92.266 202.921L91.0086 201.664C90.3799 201.035 89.4368 201.035 88.808 201.664L87.5506 202.921C86.9219 203.55 85.9788 203.55 85.6644 202.921C85.0357 202.293 85.0357 201.349 85.6644 201.035L86.9219 199.778C87.5506 199.149 87.5506 198.206 86.9219 197.577L85.6644 196.32C85.0357 196.005 85.0357 195.062 85.6644 194.433Z" fill="url(#paint64_linear_30_17528)"/>
<path fill-rule="evenodd" clip-rule="evenodd" d="M107.04 194.433C107.669 193.805 108.612 193.805 108.927 194.433L110.184 195.691C110.813 196.32 111.756 196.32 112.385 195.691L113.642 194.433C114.271 193.805 115.214 193.805 115.528 194.433C116.157 195.062 116.157 196.005 115.528 196.32C114.899 196.948 114.899 196.948 114.271 197.577C113.642 198.206 113.642 199.149 114.271 199.778L115.528 201.035C116.157 201.664 116.157 202.607 115.528 202.921C114.899 203.55 113.956 203.55 113.642 202.921L112.385 201.664C111.756 201.035 110.813 201.035 110.184 201.664L108.927 202.921C108.298 203.55 107.355 203.55 107.04 202.921C106.412 202.293 106.412 201.349 107.04 201.035L108.298 199.778C108.927 199.149 108.927 198.206 108.298 197.577L107.04 196.32C106.412 196.005 106.412 195.062 107.04 194.433Z" fill="url(#paint65_linear_30_17528)"/>
<path fill-rule="evenodd" clip-rule="evenodd" d="M11.1595 252.905C11.7883 252.277 12.7313 252.277 13.0457 252.905L14.3032 254.163C14.9319 254.792 15.875 254.792 16.5037 254.163L17.7612 252.905C18.3899 252.277 19.333 252.277 19.6473 252.905C20.2761 253.534 20.2761 254.477 19.6473 254.792C19.0186 255.42 19.0186 255.42 18.3899 256.049C17.7612 256.678 17.7612 257.621 18.3899 258.25L19.6473 259.507C20.2761 260.136 20.2761 261.079 19.6473 261.393C19.0186 262.022 18.0755 262.022 17.7612 261.393L16.5037 260.136C15.875 259.507 14.9319 259.507 14.3032 260.136L13.0457 261.393C12.417 262.022 11.4739 262.022 11.1595 261.393C10.5308 260.764 10.5308 259.821 11.1595 259.507L12.417 258.25C13.0457 257.621 13.0457 256.678 12.417 256.049L11.1595 254.792C10.5308 254.163 10.5308 253.22 11.1595 252.905Z" fill="url(#paint66_linear_30_17528)"/>
<path fill-rule="evenodd" clip-rule="evenodd" d="M32.5355 252.905C33.1642 252.277 34.1073 252.277 34.4217 252.905L35.6791 254.163C36.3079 254.792 37.251 254.792 37.8797 254.163L39.1371 252.905C39.7659 252.277 40.709 252.277 41.0233 252.905C41.652 253.534 41.652 254.477 41.0233 254.792C40.3946 255.42 40.3946 255.42 39.7659 256.049C39.1371 256.678 39.1371 257.621 39.7659 258.25L41.0233 259.507C41.652 260.136 41.652 261.079 41.0233 261.393C40.3946 262.022 39.4515 262.022 39.1371 261.393L37.8797 260.136C37.251 259.507 36.3079 259.507 35.6791 260.136L34.4217 261.393C33.793 262.022 32.8499 262.022 32.5355 261.393C31.9068 260.764 31.9068 259.821 32.5355 259.507L33.793 258.25C34.4217 257.621 34.4217 256.678 33.793 256.049L32.5355 254.792C31.9068 254.163 31.9068 253.22 32.5355 252.905Z" fill="url(#paint67_linear_30_17528)"/>
<path fill-rule="evenodd" clip-rule="evenodd" d="M53.5985 252.905C54.2272 252.277 55.1703 252.277 55.4847 252.905L56.7421 254.163C57.3709 254.792 58.3139 254.792 58.9427 254.163L60.2001 252.905C60.8289 252.277 61.7719 252.277 62.0863 252.905C62.715 253.534 62.715 254.477 62.0863 254.792C61.4576 255.42 61.4576 255.42 60.8288 256.049C60.2001 256.678 60.2001 257.621 60.8288 258.25L62.0863 259.507C62.715 260.136 62.715 261.079 62.0863 261.393C61.4576 262.022 60.5145 262.022 60.2001 261.393L58.9427 260.136C58.3139 259.507 57.3709 259.507 56.7421 260.136L55.4847 261.393C54.856 262.022 53.9129 262.022 53.5985 261.393C52.9698 260.764 52.9698 259.821 53.5985 259.507L54.8559 258.25C55.4847 257.621 55.4847 256.678 54.8559 256.049L53.5985 254.792C53.2841 254.163 53.2841 253.22 53.5985 252.905Z" fill="url(#paint68_linear_30_17528)"/>
<path fill-rule="evenodd" clip-rule="evenodd" d="M74.9753 252.905C75.604 252.277 76.5471 252.277 76.8615 252.905L78.1189 254.163C78.7476 254.792 79.6907 254.792 80.3195 254.163L81.8913 252.905C82.52 252.277 83.4631 252.277 83.7775 252.905C84.4062 253.534 84.4062 254.477 83.7775 254.792C83.1487 255.42 83.1487 255.42 82.52 256.049C81.8913 256.678 81.8913 257.621 82.52 258.25L83.7775 259.507C84.4062 260.136 84.4062 261.079 83.7775 261.393C83.1487 262.022 82.2056 262.022 81.8913 261.393L80.6338 260.136C80.0051 259.507 79.062 259.507 78.4333 260.136L77.1758 261.393C76.5471 262.022 75.604 262.022 75.2897 261.393C74.6609 260.764 74.6609 259.821 75.2897 259.507L76.5471 258.25C77.1758 257.621 77.1758 256.678 76.5471 256.049L75.2897 254.792C74.3466 254.163 74.3466 253.22 74.9753 252.905Z" fill="url(#paint69_linear_30_17528)"/>
<path fill-rule="evenodd" clip-rule="evenodd" d="M96.3524 252.905C96.9811 252.277 97.9242 252.277 98.2386 252.905L99.496 254.163C100.125 254.792 101.068 254.792 101.697 254.163L102.954 252.905C103.583 252.277 104.526 252.277 104.84 252.905C105.469 253.534 105.469 254.477 104.84 254.792C104.211 255.42 104.211 255.42 103.583 256.049C102.954 256.678 102.954 257.621 103.583 258.25L104.84 259.507C105.469 260.136 105.469 261.079 104.84 261.393C104.211 262.022 103.268 262.022 102.954 261.393L101.697 260.136C101.068 259.507 100.125 259.507 99.496 260.136L98.2386 261.393C97.6099 262.022 96.6668 262.022 96.3524 261.393C95.7237 260.764 95.7237 259.821 96.3524 259.507L97.6099 258.25C98.2386 257.621 98.2386 256.678 97.6099 256.049L96.3524 254.792C95.7237 254.163 95.7237 253.22 96.3524 252.905Z" fill="url(#paint70_linear_30_17528)"/>
<path fill-rule="evenodd" clip-rule="evenodd" d="M0.472193 233.415C1.10092 232.786 2.04401 232.786 2.35837 233.415L3.61582 234.672C4.24455 235.301 5.18764 235.301 5.81637 234.672L7.07382 233.415C7.70254 232.786 8.64563 232.786 8.96 233.415C9.58872 234.044 9.58872 234.987 8.96 235.301C8.33127 235.93 8.33127 235.93 7.70255 236.559C7.07382 237.187 7.07382 238.13 7.70255 238.759L9.58872 240.331C10.2174 240.96 10.2174 241.903 9.58872 242.217C8.96 242.846 8.01691 242.846 7.70255 242.217L6.44509 240.96C5.81637 240.331 4.87328 240.331 4.24455 240.96L2.9871 242.217C2.35837 242.846 1.41528 242.846 1.10092 242.217C0.472193 241.588 0.472193 240.645 1.10092 240.331L2.35837 239.073C2.9871 238.445 2.9871 237.502 2.35837 236.873L1.10092 235.615C0.15783 234.672 0.15783 234.044 0.472193 233.415Z" fill="url(#paint71_linear_30_17528)"/>
<path fill-rule="evenodd" clip-rule="evenodd" d="M21.849 233.415C22.4777 232.786 23.4208 232.786 23.7352 233.415L24.9926 234.672C25.6213 235.301 26.5644 235.301 27.1932 234.672L28.4506 233.415C29.0793 232.786 30.0224 232.786 30.3368 233.415C30.9655 234.044 30.9655 234.987 30.3368 235.301C29.7081 235.93 29.7081 235.93 29.0793 236.559C28.4506 237.187 28.4506 238.13 29.0793 238.759L30.3368 240.017C30.9655 240.645 30.9655 241.588 30.3368 241.903C29.7081 242.531 28.765 242.531 28.4506 241.903L27.1932 240.645C26.5644 240.017 25.6213 240.017 24.9926 240.645L23.7352 241.903C23.1064 242.531 22.1633 242.531 21.849 241.903C21.2203 241.274 21.2203 240.331 21.849 240.017L23.1064 238.759C23.7352 238.13 23.7352 237.187 23.1064 236.559L21.849 235.301C21.2203 234.672 21.2203 234.044 21.849 233.415Z" fill="url(#paint72_linear_30_17528)"/>
<path fill-rule="evenodd" clip-rule="evenodd" d="M43.2255 233.415C43.8542 232.786 44.7973 232.786 45.1116 233.415L46.3691 234.672C46.9978 235.301 47.9409 235.301 48.5696 234.672L49.8271 233.415C50.4558 232.786 51.3989 232.786 51.7133 233.415C52.342 234.044 52.342 234.987 51.7133 235.301C51.0845 235.93 51.0845 235.93 50.4558 236.559C49.8271 237.187 49.8271 238.13 50.4558 238.759L51.7133 240.017C52.342 240.645 52.342 241.588 51.7133 241.903C51.0845 242.531 50.1414 242.531 49.8271 241.903L48.5696 240.645C47.9409 240.017 46.9978 240.017 46.3691 240.645L45.1116 241.903C44.4829 242.531 43.5398 242.531 43.2255 241.903C42.5967 241.274 42.5967 240.331 43.2255 240.017L44.4829 238.759C45.1116 238.13 45.1116 237.187 44.4829 236.559L43.2255 235.301C42.5967 234.672 42.5967 234.044 43.2255 233.415Z" fill="url(#paint73_linear_30_17528)"/>
<path fill-rule="evenodd" clip-rule="evenodd" d="M64.288 233.415C64.9167 232.786 65.8598 232.786 66.1741 233.415L67.4316 234.672C68.0603 235.301 69.0034 235.301 69.6321 234.672L70.8896 233.415C71.5183 232.786 72.4614 232.786 72.7758 233.415C73.4045 234.044 73.4045 234.987 72.7758 235.301C72.147 235.93 72.147 235.93 71.5183 236.559C70.8896 237.187 70.8896 238.13 71.5183 238.759L72.7758 240.017C73.4045 240.645 73.4045 241.588 72.7758 241.903C72.147 242.531 71.2039 242.531 70.8896 241.903L69.6321 240.645C69.0034 240.017 68.0603 240.017 67.4316 240.645L66.1741 241.903C65.5454 242.531 64.6023 242.531 64.288 241.903C63.6592 241.274 63.6592 240.331 64.288 240.017L65.5454 238.759C66.1741 238.13 66.1741 237.187 65.5454 236.559L64.288 235.301C63.9736 234.672 63.9736 234.044 64.288 233.415Z" fill="url(#paint74_linear_30_17528)"/>
<path fill-rule="evenodd" clip-rule="evenodd" d="M85.6647 233.415C86.2935 232.786 87.2366 232.786 87.5509 233.415L88.8084 234.672C89.4371 235.301 90.3802 235.301 91.0089 234.672L92.2664 233.415C92.8951 232.786 93.8382 232.786 94.1525 233.415C94.7813 234.044 94.7813 234.987 94.1525 235.301C93.5238 235.93 93.5238 235.93 92.8951 236.559C92.2664 237.187 92.2664 238.13 92.8951 238.759L94.4669 240.331C95.0956 240.96 95.0956 241.903 94.4669 242.217C93.8382 242.846 92.8951 242.846 92.5807 242.217L91.3233 240.96C90.6946 240.331 89.7515 240.331 89.1227 240.96L87.8653 242.217C87.2366 242.846 86.2935 242.846 85.9791 242.217C85.3504 241.588 85.3504 240.645 85.9791 240.331L87.2366 239.073C87.8653 238.445 87.8653 237.502 87.2366 236.873L85.9791 235.615C85.036 234.672 85.036 234.044 85.6647 233.415Z" fill="url(#paint75_linear_30_17528)"/>
<path fill-rule="evenodd" clip-rule="evenodd" d="M107.04 233.415C107.669 232.786 108.612 232.786 108.927 233.415L110.184 234.672C110.813 235.301 111.756 235.301 112.385 234.672L113.642 233.415C114.271 232.786 115.214 232.786 115.528 233.415C116.157 234.044 116.157 234.987 115.528 235.301C114.899 235.93 114.899 235.93 114.271 236.559C113.642 237.187 113.642 238.13 114.271 238.759L115.528 240.017C116.157 240.645 116.157 241.588 115.528 241.903C114.899 242.531 113.956 242.531 113.642 241.903L112.385 240.645C111.756 240.017 110.813 240.017 110.184 240.645L108.927 241.903C108.298 242.531 107.355 242.531 107.04 241.903C106.412 241.274 106.412 240.331 107.04 240.017L108.298 238.759C108.927 238.13 108.927 237.187 108.298 236.559L107.04 235.301C106.412 234.672 106.412 234.044 107.04 233.415Z" fill="url(#paint76_linear_30_17528)"/>
<path fill-rule="evenodd" clip-rule="evenodd" d="M11.1595 291.572C11.7883 290.944 12.7313 290.944 13.0457 291.572L14.3032 292.83C14.9319 293.459 15.875 293.459 16.5037 292.83L17.7612 291.572C18.3899 290.944 19.333 290.944 19.6473 291.572C20.2761 292.201 20.2761 293.144 19.6473 293.459C19.0186 294.087 19.0186 294.087 18.3899 294.716C17.7612 295.345 17.7612 296.288 18.3899 296.917L19.6473 298.174C20.2761 298.803 20.2761 299.746 19.6473 300.06C19.0186 300.689 18.0755 300.689 17.7612 300.06L16.5037 298.803C15.875 298.174 14.9319 298.174 14.3032 298.803L13.0457 300.06C12.417 300.689 11.4739 300.689 11.1595 300.06C10.5308 299.431 10.5308 298.488 11.1595 298.174L12.417 296.917C13.0457 296.288 13.0457 295.345 12.417 294.716L11.1595 293.773C10.5308 293.144 10.5308 292.201 11.1595 291.572Z" fill="url(#paint77_linear_30_17528)"/>
<path fill-rule="evenodd" clip-rule="evenodd" d="M32.5355 291.572C33.1642 290.943 34.1073 290.943 34.4217 291.572L35.6791 292.83C36.3079 293.458 37.251 293.458 37.8797 292.83L39.1371 291.572C39.7659 290.943 40.709 290.943 41.0233 291.572C41.652 292.201 41.652 293.144 41.0233 293.458C40.3946 294.087 40.3946 294.087 39.7659 294.716C39.1371 295.344 39.1371 296.288 39.7659 296.916L41.0233 298.174C41.652 298.802 41.652 299.746 41.0233 300.06C40.3946 300.689 39.4515 300.689 39.1371 300.06L37.8797 298.802C37.251 298.174 36.3079 298.174 35.6791 298.802L34.4217 300.06C33.793 300.689 32.8499 300.689 32.5355 300.06C31.9068 299.431 31.9068 298.488 32.5355 298.174L33.793 296.916C34.4217 296.288 34.4217 295.344 33.793 294.716L32.5355 293.458C31.9068 293.144 31.9068 292.201 32.5355 291.572Z" fill="url(#paint78_linear_30_17528)"/>
<path fill-rule="evenodd" clip-rule="evenodd" d="M53.5985 291.572C54.2272 290.943 55.1703 290.943 55.4847 291.572L56.7421 292.83C57.3709 293.458 58.3139 293.458 58.9427 292.83L60.2001 291.572C60.8289 290.943 61.7719 290.943 62.0863 291.572C62.715 292.201 62.715 293.144 62.0863 293.458C61.4576 294.087 61.4576 294.087 60.8288 294.716C60.2001 295.344 60.2001 296.288 60.8288 296.916L62.0863 298.174C62.715 298.802 62.715 299.746 62.0863 300.06C61.4576 300.689 60.5145 300.689 60.2001 300.06L58.9427 298.802C58.3139 298.174 57.3709 298.174 56.7421 298.802L55.4847 300.06C54.856 300.689 53.9129 300.689 53.5985 300.06C52.9698 299.431 52.9698 298.488 53.5985 298.174L54.8559 296.916C55.4847 296.288 55.4847 295.344 54.8559 294.716L53.5985 293.773C53.2841 293.144 53.2841 292.201 53.5985 291.572Z" fill="url(#paint79_linear_30_17528)"/>
<path fill-rule="evenodd" clip-rule="evenodd" d="M74.9745 291.572C75.6032 290.943 76.5463 290.943 76.8607 291.572L78.1181 292.83C78.7468 293.458 79.6899 293.458 80.3186 292.83L81.5761 291.572C82.2048 290.943 83.1479 290.943 83.4623 291.572C84.091 292.201 84.091 293.144 83.4623 293.458C82.8336 294.087 82.8336 294.087 82.2048 294.716C81.5761 295.344 81.5761 296.288 82.2048 296.916L83.4623 298.174C84.091 298.802 84.091 299.746 83.4623 300.06C82.8336 300.689 81.8905 300.689 81.5761 300.06L80.3186 298.802C79.6899 298.174 78.7468 298.174 78.1181 298.802L76.8607 300.06C76.2319 300.689 75.2888 300.689 74.9745 300.06C74.3457 299.431 74.3457 298.488 74.9745 298.174L76.2319 296.916C76.8607 296.288 76.8607 295.344 76.2319 294.716L74.9745 293.458C74.3457 293.144 74.3457 292.201 74.9745 291.572Z" fill="url(#paint80_linear_30_17528)"/>
<path fill-rule="evenodd" clip-rule="evenodd" d="M96.3524 291.572C96.9811 290.943 97.9242 290.943 98.2386 291.572L99.496 292.83C100.125 293.458 101.068 293.458 101.697 292.83L102.954 291.572C103.583 290.943 104.526 290.943 104.84 291.572C105.469 292.201 105.469 293.144 104.84 293.458C104.211 294.087 104.211 294.087 103.583 294.716C102.954 295.344 102.954 296.288 103.583 296.916L104.84 298.174C105.469 298.802 105.469 299.746 104.84 300.06C104.211 300.689 103.268 300.689 102.954 300.06L101.697 298.802C101.068 298.174 100.125 298.174 99.496 298.802L98.2386 300.06C97.6099 300.689 96.6668 300.689 96.3524 300.06C95.7237 299.431 95.7237 298.488 96.3524 298.174L97.6099 296.916C98.2386 296.288 98.2386 295.344 97.6099 294.716L96.3524 293.458C95.7237 293.144 95.7237 292.201 96.3524 291.572Z" fill="url(#paint81_linear_30_17528)"/>
<path fill-rule="evenodd" clip-rule="evenodd" d="M0.472116 272.081C1.10084 271.452 2.04393 271.452 2.35829 272.081L3.61575 273.338C4.24447 273.967 5.18756 273.967 5.81629 273.338L7.07374 272.081C7.70247 271.452 8.64556 271.452 8.95992 272.081C9.58865 272.71 9.58865 273.653 8.95992 273.967C8.33119 274.596 8.33119 274.596 7.70247 275.225C7.07374 275.853 7.07374 276.796 7.70247 277.425L8.95992 278.683C9.58865 279.311 9.58865 280.254 8.95992 280.569C8.33119 281.197 7.3881 281.197 7.07374 280.569L5.81629 279.311C5.18756 278.683 4.24447 278.683 3.61575 279.311L2.67266 281.197C2.04393 281.826 1.10084 281.826 0.786479 281.197C0.157753 280.569 0.157753 279.626 0.786479 279.311L2.04393 278.054C2.67266 277.425 2.67266 276.482 2.04393 275.853L0.786479 274.596C0.157753 273.653 0.157753 272.71 0.472116 272.081Z" fill="url(#paint82_linear_30_17528)"/>
<path fill-rule="evenodd" clip-rule="evenodd" d="M21.849 272.081C22.4777 271.452 23.4208 271.452 23.7352 272.081L24.9926 273.338C25.6213 273.967 26.5644 273.967 27.1932 273.338L28.4506 272.081C29.0793 271.452 30.0224 271.452 30.3368 272.081C30.9655 272.71 30.9655 273.653 30.3368 273.967C29.7081 274.596 29.7081 274.596 29.0793 275.225C28.4506 275.853 28.4506 276.796 29.0793 277.425L30.3368 278.683C30.9655 279.311 30.9655 280.254 30.3368 280.569C29.7081 281.197 28.765 281.197 28.4506 280.569L27.1932 279.311C26.5644 278.683 25.6213 278.683 24.9926 279.311L23.7352 281.197C23.1064 281.826 22.1633 281.826 21.849 281.197C21.2203 280.569 21.2203 279.626 21.849 279.311L23.1064 278.054C23.7352 277.425 23.7352 276.482 23.1064 275.853L21.849 274.596C21.2203 273.653 21.2203 272.71 21.849 272.081Z" fill="url(#paint83_linear_30_17528)"/>
<path fill-rule="evenodd" clip-rule="evenodd" d="M43.2255 272.081C43.8542 271.452 44.7973 271.452 45.1116 272.081L46.3691 273.338C46.9978 273.967 47.9409 273.967 48.5696 273.338L49.8271 272.081C50.4558 271.452 51.3989 271.452 51.7133 272.081C52.342 272.71 52.342 273.653 51.7133 273.967C51.0845 274.596 51.0845 274.596 50.4558 275.225C49.8271 275.853 49.8271 276.796 50.4558 277.425L51.7133 278.683C52.342 279.311 52.342 280.254 51.7133 280.569C51.0845 281.197 50.1414 281.197 49.8271 280.569L48.5696 279.311C47.9409 278.683 46.9978 278.683 46.3691 279.311L45.1116 280.569C44.4829 281.197 43.5398 281.197 43.2255 280.569C42.5967 279.94 42.5967 278.997 43.2255 278.683L44.4829 277.425C45.1116 276.796 45.1116 275.853 44.4829 275.225L43.2255 273.967C42.5967 273.653 42.5967 272.71 43.2255 272.081Z" fill="url(#paint84_linear_30_17528)"/>
<path fill-rule="evenodd" clip-rule="evenodd" d="M64.288 272.081C64.9167 271.452 65.8598 271.452 66.1741 272.081L67.4316 273.338C68.0603 273.967 69.0034 273.967 69.6321 273.338L70.8896 272.081C71.5183 271.452 72.4614 271.452 72.7758 272.081C73.4045 272.71 73.4045 273.653 72.7758 273.967C72.147 274.596 72.147 274.596 71.5183 275.225C70.8896 275.853 70.8896 276.796 71.5183 277.425L72.7758 278.683C73.4045 279.311 73.4045 280.254 72.7758 280.569C72.147 281.197 71.2039 281.197 70.8896 280.569L69.6321 279.311C69.0034 278.683 68.0603 278.683 67.4316 279.311L66.1741 280.569C65.5454 281.197 64.6023 281.197 64.288 280.569C63.6592 279.94 63.6592 278.997 64.288 278.683L65.5454 277.425C66.1741 276.796 66.1741 275.853 65.5454 275.225L64.288 273.967C63.9736 273.653 63.9736 272.71 64.288 272.081Z" fill="url(#paint85_linear_30_17528)"/>
<path fill-rule="evenodd" clip-rule="evenodd" d="M85.6644 272.081C86.2931 271.452 87.2362 271.452 87.5506 272.081L88.808 273.338C89.4368 273.967 90.3799 273.967 91.0086 273.338L92.266 272.081C92.8948 271.452 93.8379 271.452 94.1522 272.081C94.7809 272.71 94.7809 273.653 94.1522 273.967C93.5235 274.596 93.5235 274.596 92.8948 275.225C92.266 275.853 92.266 276.796 92.8948 277.425L94.1522 278.683C94.7809 279.311 94.7809 280.254 94.1522 280.569C93.5235 281.197 92.5804 281.197 92.266 280.569L91.0086 279.311C90.3799 278.683 89.4368 278.683 88.808 279.311L87.5506 280.569C86.9219 281.197 85.9788 281.197 85.6644 280.569C85.0357 279.94 85.0357 278.997 85.6644 278.683L86.9219 277.425C87.5506 276.796 87.5506 275.853 86.9219 275.225L85.6644 273.967C85.0357 273.653 85.0357 272.71 85.6644 272.081Z" fill="url(#paint86_linear_30_17528)"/>
<path fill-rule="evenodd" clip-rule="evenodd" d="M107.042 272.081C107.671 271.452 108.614 271.452 108.928 272.081L110.185 273.338C110.814 273.967 111.757 273.967 112.386 273.338L113.643 272.081C114.272 271.452 115.215 271.452 115.53 272.081C116.158 272.71 116.158 273.653 115.53 273.967C114.901 274.596 114.901 274.596 114.272 275.225C113.643 275.853 113.643 276.796 114.272 277.425L115.53 278.683C116.158 279.311 116.158 280.254 115.53 280.569C114.901 281.197 113.958 281.197 113.643 280.569L112.386 279.311C111.757 278.683 110.814 278.683 110.185 279.311L108.928 280.569C108.299 281.197 107.356 281.197 107.042 280.569C106.413 279.94 106.413 278.997 107.042 278.683L108.299 277.425C108.928 276.796 108.928 275.853 108.299 275.225L107.042 273.967C106.413 273.653 106.413 272.71 107.042 272.081Z" fill="url(#paint87_linear_30_17528)"/>
<path fill-rule="evenodd" clip-rule="evenodd" d="M0.471545 311.063C1.10027 310.434 2.04336 310.434 2.35772 311.063L3.61518 312.32C4.2439 312.949 5.18699 312.949 5.81572 312.32L7.07317 311.063C7.7019 310.434 8.64499 310.434 8.95935 311.063C9.58807 311.691 9.58807 312.634 8.95935 312.949C8.33062 313.578 8.33062 313.578 7.7019 314.206C7.07317 314.835 7.07317 315.778 7.7019 316.407L8.95935 317.664C9.58807 318.293 9.58807 319.236 8.95935 319.55C8.33062 320.179 7.38753 320.179 7.07317 319.55L5.81572 318.293C5.18699 317.664 4.2439 317.664 3.61518 318.293L2.35772 319.55C1.729 320.179 0.785908 320.179 0.471545 319.55C-0.157182 318.922 -0.157182 317.979 0.471545 317.664L1.729 316.407C2.35772 315.778 2.35772 314.835 1.729 314.206L0.471545 312.949C0.157182 312.634 0.157182 311.691 0.471545 311.063Z" fill="url(#paint88_linear_30_17528)"/>
<path fill-rule="evenodd" clip-rule="evenodd" d="M21.8475 311.062C22.4762 310.434 23.4193 310.434 23.7337 311.062L24.9912 312.32C25.6199 312.949 26.563 312.949 27.1917 312.32L28.4491 311.062C29.0779 310.434 30.021 310.434 30.3353 311.062C30.9641 311.691 30.9641 312.634 30.3353 312.949C29.7066 313.577 29.7066 313.577 29.0779 314.206C28.4491 314.835 28.4491 315.778 29.0779 316.407L30.3353 317.664C30.9641 318.293 30.9641 319.236 30.3353 319.55C29.7066 320.179 28.7635 320.179 28.4491 319.55L27.1917 318.293C26.563 317.664 25.6199 317.664 24.9912 318.293L23.7337 319.55C23.105 320.179 22.1619 320.179 21.8475 319.55C21.2188 318.921 21.2188 317.978 21.8475 317.664L23.105 316.407C23.7337 315.778 23.7337 314.835 23.105 314.206L21.8475 312.949C21.2188 312.634 21.2188 311.691 21.8475 311.062Z" fill="url(#paint89_linear_30_17528)"/>
<path fill-rule="evenodd" clip-rule="evenodd" d="M43.2255 311.062C43.8542 310.434 44.7973 310.434 45.1116 311.062L46.3691 312.32C46.9978 312.949 47.9409 312.949 48.5696 312.32L49.8271 311.062C50.4558 310.434 51.3989 310.434 51.7133 311.062C52.342 311.691 52.342 312.634 51.7133 312.949C51.0845 313.577 51.0845 313.577 50.4558 314.206C49.8271 314.835 49.8271 315.778 50.4558 316.407L51.7133 317.664C52.342 318.293 52.342 319.236 51.7133 319.55C51.0845 320.179 50.1414 320.179 49.8271 319.55L48.5696 318.293C47.9409 317.664 46.9978 317.664 46.3691 318.293L45.1116 319.55C44.4829 320.179 43.5398 320.179 43.2255 319.55C42.5967 318.921 42.5967 317.978 43.2255 317.664L44.4829 316.407C45.1116 315.778 45.1116 314.835 44.4829 314.206L43.2255 312.949C42.5967 312.634 42.5967 311.691 43.2255 311.062Z" fill="url(#paint90_linear_30_17528)"/>
<path fill-rule="evenodd" clip-rule="evenodd" d="M64.2865 311.062C64.9152 310.434 65.8583 310.434 66.1727 311.062L67.4301 312.32C68.0588 312.949 69.0019 312.949 69.6307 312.32L70.8881 311.062C71.5168 310.434 72.4599 310.434 72.7743 311.062C73.403 311.691 73.403 312.634 72.7743 312.949C72.1456 313.577 72.1456 313.577 71.5168 314.206C70.8881 314.835 70.8881 315.778 71.5168 316.407L72.7743 317.664C73.403 318.293 73.403 319.236 72.7743 319.55C72.1456 320.179 71.2025 320.179 70.8881 319.55L69.6307 318.293C69.0019 317.664 68.0588 317.664 67.4301 318.293L66.1727 319.55C65.5439 320.179 64.6008 320.179 64.2865 319.55C63.6578 318.921 63.6578 317.978 64.2865 317.664L65.5439 316.407C66.1727 315.778 66.1727 314.835 65.5439 314.206L64.2865 312.949C63.9721 312.634 63.9721 311.691 64.2865 311.062Z" fill="url(#paint91_linear_30_17528)"/>
<path fill-rule="evenodd" clip-rule="evenodd" d="M85.6644 311.062C86.2931 310.434 87.2362 310.434 87.5506 311.062L88.808 312.32C89.4368 312.949 90.3799 312.949 91.0086 312.32L92.266 311.062C92.8948 310.434 93.8379 310.434 94.1522 311.062C94.7809 311.691 94.7809 312.634 94.1522 312.949C93.5235 313.577 93.5235 313.577 92.8948 314.206C92.266 314.835 92.266 315.778 92.8948 316.407L94.1522 317.664C94.7809 318.293 94.7809 319.236 94.1522 319.55C93.5235 320.179 92.5804 320.179 92.266 319.55L91.0086 318.293C90.3799 317.664 89.4368 317.664 88.808 318.293L87.5506 319.55C86.9219 320.179 85.9788 320.179 85.6644 319.55C85.0357 318.921 85.0357 317.978 85.6644 317.664L86.9219 316.407C87.5506 315.778 87.5506 314.835 86.9219 314.206L85.6644 312.949C85.0357 312.634 85.0357 311.691 85.6644 311.062Z" fill="url(#paint92_linear_30_17528)"/>
<path fill-rule="evenodd" clip-rule="evenodd" d="M107.04 311.062C107.669 310.434 108.612 310.434 108.927 311.062L110.184 312.32C110.813 312.949 111.756 312.949 112.385 312.32L113.642 311.062C114.271 310.434 115.214 310.434 115.528 311.062C116.157 311.691 116.157 312.634 115.528 312.949C114.899 313.577 114.899 313.577 114.271 314.206C113.642 314.835 113.642 315.778 114.271 316.407L115.528 317.664C116.157 318.293 116.157 319.236 115.528 319.55C114.899 320.179 113.956 320.179 113.642 319.55L112.385 318.293C111.756 317.664 110.813 317.664 110.184 318.293L108.927 319.55C108.298 320.179 107.355 320.179 107.04 319.55C106.412 318.921 106.412 317.978 107.04 317.664L108.298 316.407C108.927 315.778 108.927 314.835 108.298 314.206L107.04 312.949C106.412 312.634 106.412 311.691 107.04 311.062Z" fill="url(#paint93_linear_30_17528)"/>
</g>
<defs>
<linearGradient id="paint0_linear_30_17528" x1="12.14" y1="20.6076" x2="19.0285" y2="27.4725" gradientUnits="userSpaceOnUse">
<stop stop-color="#FF9100"/>
<stop offset="1" stop-color="#FF4D00"/>
</linearGradient>
<linearGradient id="paint1_linear_30_17528" x1="33.4427" y1="20.5614" x2="40.1091" y2="27.2278" gradientUnits="userSpaceOnUse">
<stop stop-color="#FF9100"/>
<stop offset="1" stop-color="#FF4D00"/>
</linearGradient>
<linearGradient id="paint2_linear_30_17528" x1="54.5042" y1="20.5614" x2="61.1706" y2="27.2278" gradientUnits="userSpaceOnUse">
<stop stop-color="#FF9100"/>
<stop offset="1" stop-color="#FF4D00"/>
</linearGradient>
<linearGradient id="paint3_linear_30_17528" x1="75.8822" y1="20.5614" x2="82.5485" y2="27.2278" gradientUnits="userSpaceOnUse">
<stop stop-color="#FF9100"/>
<stop offset="1" stop-color="#FF4D00"/>
</linearGradient>
<linearGradient id="paint4_linear_30_17528" x1="97.2581" y1="20.5614" x2="103.924" y2="27.2278" gradientUnits="userSpaceOnUse">
<stop stop-color="#FF9100"/>
<stop offset="1" stop-color="#FF4D00"/>
</linearGradient>
<linearGradient id="paint5_linear_30_17528" x1="1.671" y1="1.43107" x2="8.55936" y2="8.37497" gradientUnits="userSpaceOnUse">
<stop stop-color="#FF9100"/>
<stop offset="1" stop-color="#FF4D00"/>
</linearGradient>
<linearGradient id="paint6_linear_30_17528" x1="22.7547" y1="1.38491" x2="29.4211" y2="8.05127" gradientUnits="userSpaceOnUse">
<stop stop-color="#FF9100"/>
<stop offset="1" stop-color="#FF4D00"/>
</linearGradient>
<linearGradient id="paint7_linear_30_17528" x1="44.1312" y1="1.38491" x2="50.7976" y2="8.05127" gradientUnits="userSpaceOnUse">
<stop stop-color="#FF9100"/>
<stop offset="1" stop-color="#FF4D00"/>
</linearGradient>
<linearGradient id="paint8_linear_30_17528" x1="65.1937" y1="1.38491" x2="71.8601" y2="8.05127" gradientUnits="userSpaceOnUse">
<stop stop-color="#FF9100"/>
<stop offset="1" stop-color="#FF4D00"/>
</linearGradient>
<linearGradient id="paint9_linear_30_17528" x1="86.599" y1="1.43107" x2="93.483" y2="8.06947" gradientUnits="userSpaceOnUse">
<stop stop-color="#FF9100"/>
<stop offset="1" stop-color="#FF4D00"/>
</linearGradient>
<linearGradient id="paint10_linear_30_17528" x1="107.948" y1="1.38491" x2="114.614" y2="8.05127" gradientUnits="userSpaceOnUse">
<stop stop-color="#FF9100"/>
<stop offset="1" stop-color="#FF4D00"/>
</linearGradient>
<linearGradient id="paint11_linear_30_17528" x1="12.0653" y1="59.5885" x2="18.9502" y2="66.2513" gradientUnits="userSpaceOnUse">
<stop stop-color="#FF9100"/>
<stop offset="1" stop-color="#FF4D00"/>
</linearGradient>
<linearGradient id="paint12_linear_30_17528" x1="33.4412" y1="59.5421" x2="40.1076" y2="66.2085" gradientUnits="userSpaceOnUse">
<stop stop-color="#FF9100"/>
<stop offset="1" stop-color="#FF4D00"/>
</linearGradient>
<linearGradient id="paint13_linear_30_17528" x1="54.5042" y1="59.5421" x2="61.1706" y2="66.2085" gradientUnits="userSpaceOnUse">
<stop stop-color="#FF9100"/>
<stop offset="1" stop-color="#FF4D00"/>
</linearGradient>
<linearGradient id="paint14_linear_30_17528" x1="75.8802" y1="59.5421" x2="82.5466" y2="66.2085" gradientUnits="userSpaceOnUse">
<stop stop-color="#FF9100"/>
<stop offset="1" stop-color="#FF4D00"/>
</linearGradient>
<linearGradient id="paint15_linear_30_17528" x1="97.2581" y1="59.5421" x2="103.925" y2="66.2085" gradientUnits="userSpaceOnUse">
<stop stop-color="#FF9100"/>
<stop offset="1" stop-color="#FF4D00"/>
</linearGradient>
<linearGradient id="paint16_linear_30_17528" x1="1.71188" y1="40.0978" x2="8.60042" y2="47.0082" gradientUnits="userSpaceOnUse">
<stop stop-color="#FF9100"/>
<stop offset="1" stop-color="#FF4D00"/>
</linearGradient>
<linearGradient id="paint17_linear_30_17528" x1="22.828" y1="40.0517" x2="29.4915" y2="46.9137" gradientUnits="userSpaceOnUse">
<stop stop-color="#FF9100"/>
<stop offset="1" stop-color="#FF4D00"/>
</linearGradient>
<linearGradient id="paint18_linear_30_17528" x1="44.1312" y1="40.0517" x2="50.7975" y2="46.718" gradientUnits="userSpaceOnUse">
<stop stop-color="#FF9100"/>
<stop offset="1" stop-color="#FF4D00"/>
</linearGradient>
<linearGradient id="paint19_linear_30_17528" x1="65.1937" y1="40.0517" x2="71.86" y2="46.718" gradientUnits="userSpaceOnUse">
<stop stop-color="#FF9100"/>
<stop offset="1" stop-color="#FF4D00"/>
</linearGradient>
<linearGradient id="paint20_linear_30_17528" x1="86.599" y1="40.0978" x2="93.483" y2="46.7362" gradientUnits="userSpaceOnUse">
<stop stop-color="#FF9100"/>
<stop offset="1" stop-color="#FF4D00"/>
</linearGradient>
<linearGradient id="paint21_linear_30_17528" x1="107.946" y1="40.0517" x2="114.612" y2="46.718" gradientUnits="userSpaceOnUse">
<stop stop-color="#FF9100"/>
<stop offset="1" stop-color="#FF4D00"/>
</linearGradient>
<linearGradient id="paint22_linear_30_17528" x1="12.0941" y1="98.3015" x2="19.1884" y2="104.929" gradientUnits="userSpaceOnUse">
<stop stop-color="#FF9100"/>
<stop offset="1" stop-color="#FF4D00"/>
</linearGradient>
<linearGradient id="paint23_linear_30_17528" x1="33.4427" y1="98.2089" x2="40.1091" y2="104.875" gradientUnits="userSpaceOnUse">
<stop stop-color="#FF9100"/>
<stop offset="1" stop-color="#FF4D00"/>
</linearGradient>
<linearGradient id="paint24_linear_30_17528" x1="54.5042" y1="98.2089" x2="61.1706" y2="104.875" gradientUnits="userSpaceOnUse">
<stop stop-color="#FF9100"/>
<stop offset="1" stop-color="#FF4D00"/>
</linearGradient>
<linearGradient id="paint25_linear_30_17528" x1="75.8822" y1="98.2089" x2="82.5485" y2="104.875" gradientUnits="userSpaceOnUse">
<stop stop-color="#FF9100"/>
<stop offset="1" stop-color="#FF4D00"/>
</linearGradient>
<linearGradient id="paint26_linear_30_17528" x1="97.2581" y1="98.2089" x2="103.924" y2="104.875" gradientUnits="userSpaceOnUse">
<stop stop-color="#FF9100"/>
<stop offset="1" stop-color="#FF4D00"/>
</linearGradient>
<linearGradient id="paint27_linear_30_17528" x1="1.37729" y1="79.0324" x2="8.04364" y2="85.6987" gradientUnits="userSpaceOnUse">
<stop stop-color="#FF9100"/>
<stop offset="1" stop-color="#FF4D00"/>
</linearGradient>
<linearGradient id="paint28_linear_30_17528" x1="22.7533" y1="79.0324" x2="29.4196" y2="85.6987" gradientUnits="userSpaceOnUse">
<stop stop-color="#FF9100"/>
<stop offset="1" stop-color="#FF4D00"/>
</linearGradient>
<linearGradient id="paint29_linear_30_17528" x1="44.1312" y1="79.0324" x2="50.7975" y2="85.6987" gradientUnits="userSpaceOnUse">
<stop stop-color="#FF9100"/>
<stop offset="1" stop-color="#FF4D00"/>
</linearGradient>
<linearGradient id="paint30_linear_30_17528" x1="65.1922" y1="79.0324" x2="71.8586" y2="85.6987" gradientUnits="userSpaceOnUse">
<stop stop-color="#FF9100"/>
<stop offset="1" stop-color="#FF4D00"/>
</linearGradient>
<linearGradient id="paint31_linear_30_17528" x1="86.5702" y1="79.0324" x2="93.2365" y2="85.6987" gradientUnits="userSpaceOnUse">
<stop stop-color="#FF9100"/>
<stop offset="1" stop-color="#FF4D00"/>
</linearGradient>
<linearGradient id="paint32_linear_30_17528" x1="107.946" y1="79.0324" x2="114.612" y2="85.6987" gradientUnits="userSpaceOnUse">
<stop stop-color="#FF9100"/>
<stop offset="1" stop-color="#FF4D00"/>
</linearGradient>
<linearGradient id="paint33_linear_30_17528" x1="12.0653" y1="137.19" x2="18.7316" y2="143.856" gradientUnits="userSpaceOnUse">
<stop stop-color="#FF9100"/>
<stop offset="1" stop-color="#FF4D00"/>
</linearGradient>
<linearGradient id="paint34_linear_30_17528" x1="33.4412" y1="137.19" x2="40.1076" y2="143.856" gradientUnits="userSpaceOnUse">
<stop stop-color="#FF9100"/>
<stop offset="1" stop-color="#FF4D00"/>
</linearGradient>
<linearGradient id="paint35_linear_30_17528" x1="54.5042" y1="137.19" x2="61.1706" y2="143.856" gradientUnits="userSpaceOnUse">
<stop stop-color="#FF9100"/>
<stop offset="1" stop-color="#FF4D00"/>
</linearGradient>
<linearGradient id="paint36_linear_30_17528" x1="75.8802" y1="137.19" x2="82.5466" y2="143.856" gradientUnits="userSpaceOnUse">
<stop stop-color="#FF9100"/>
<stop offset="1" stop-color="#FF4D00"/>
</linearGradient>
<linearGradient id="paint37_linear_30_17528" x1="97.2581" y1="137.19" x2="103.924" y2="143.856" gradientUnits="userSpaceOnUse">
<stop stop-color="#FF9100"/>
<stop offset="1" stop-color="#FF4D00"/>
</linearGradient>
<linearGradient id="paint38_linear_30_17528" x1="1.37729" y1="117.699" x2="8.04366" y2="124.366" gradientUnits="userSpaceOnUse">
<stop stop-color="#FF9100"/>
<stop offset="1" stop-color="#FF4D00"/>
</linearGradient>
<linearGradient id="paint39_linear_30_17528" x1="22.7533" y1="117.699" x2="29.4196" y2="124.366" gradientUnits="userSpaceOnUse">
<stop stop-color="#FF9100"/>
<stop offset="1" stop-color="#FF4D00"/>
</linearGradient>
<linearGradient id="paint40_linear_30_17528" x1="44.1312" y1="117.699" x2="50.7976" y2="124.366" gradientUnits="userSpaceOnUse">
<stop stop-color="#FF9100"/>
<stop offset="1" stop-color="#FF4D00"/>
</linearGradient>
<linearGradient id="paint41_linear_30_17528" x1="65.1922" y1="117.699" x2="71.8586" y2="124.366" gradientUnits="userSpaceOnUse">
<stop stop-color="#FF9100"/>
<stop offset="1" stop-color="#FF4D00"/>
</linearGradient>
<linearGradient id="paint42_linear_30_17528" x1="86.5702" y1="117.699" x2="93.2365" y2="124.366" gradientUnits="userSpaceOnUse">
<stop stop-color="#FF9100"/>
<stop offset="1" stop-color="#FF4D00"/>
</linearGradient>
<linearGradient id="paint43_linear_30_17528" x1="107.946" y1="117.699" x2="114.613" y2="124.366" gradientUnits="userSpaceOnUse">
<stop stop-color="#FF9100"/>
<stop offset="1" stop-color="#FF4D00"/>
</linearGradient>
<linearGradient id="paint44_linear_30_17528" x1="12.0653" y1="176.171" x2="18.7316" y2="182.838" gradientUnits="userSpaceOnUse">
<stop stop-color="#FF9100"/>
<stop offset="1" stop-color="#FF4D00"/>
</linearGradient>
<linearGradient id="paint45_linear_30_17528" x1="33.4412" y1="176.171" x2="40.1076" y2="182.837" gradientUnits="userSpaceOnUse">
<stop stop-color="#FF9100"/>
<stop offset="1" stop-color="#FF4D00"/>
</linearGradient>
<linearGradient id="paint46_linear_30_17528" x1="54.5042" y1="176.171" x2="61.1706" y2="182.837" gradientUnits="userSpaceOnUse">
<stop stop-color="#FF9100"/>
<stop offset="1" stop-color="#FF4D00"/>
</linearGradient>
<linearGradient id="paint47_linear_30_17528" x1="75.8802" y1="176.171" x2="82.5466" y2="182.837" gradientUnits="userSpaceOnUse">
<stop stop-color="#FF9100"/>
<stop offset="1" stop-color="#FF4D00"/>
</linearGradient>
<linearGradient id="paint48_linear_30_17528" x1="97.2581" y1="176.171" x2="103.924" y2="182.837" gradientUnits="userSpaceOnUse">
<stop stop-color="#FF9100"/>
<stop offset="1" stop-color="#FF4D00"/>
</linearGradient>
<linearGradient id="paint49_linear_30_17528" x1="1.37729" y1="156.68" x2="8.04364" y2="163.346" gradientUnits="userSpaceOnUse">
<stop stop-color="#FF9100"/>
<stop offset="1" stop-color="#FF4D00"/>
</linearGradient>
<linearGradient id="paint50_linear_30_17528" x1="22.7533" y1="156.68" x2="29.4196" y2="163.346" gradientUnits="userSpaceOnUse">
<stop stop-color="#FF9100"/>
<stop offset="1" stop-color="#FF4D00"/>
</linearGradient>
<linearGradient id="paint51_linear_30_17528" x1="44.1312" y1="156.68" x2="50.7975" y2="163.346" gradientUnits="userSpaceOnUse">
<stop stop-color="#FF9100"/>
<stop offset="1" stop-color="#FF4D00"/>
</linearGradient>
<linearGradient id="paint52_linear_30_17528" x1="65.1922" y1="156.68" x2="71.8586" y2="163.346" gradientUnits="userSpaceOnUse">
<stop stop-color="#FF9100"/>
<stop offset="1" stop-color="#FF4D00"/>
</linearGradient>
<linearGradient id="paint53_linear_30_17528" x1="86.5702" y1="156.68" x2="93.2365" y2="163.346" gradientUnits="userSpaceOnUse">
<stop stop-color="#FF9100"/>
<stop offset="1" stop-color="#FF4D00"/>
</linearGradient>
<linearGradient id="paint54_linear_30_17528" x1="107.946" y1="156.68" x2="114.612" y2="163.346" gradientUnits="userSpaceOnUse">
<stop stop-color="#FF9100"/>
<stop offset="1" stop-color="#FF4D00"/>
</linearGradient>
<linearGradient id="paint55_linear_30_17528" x1="12.0941" y1="214.883" x2="18.9781" y2="221.522" gradientUnits="userSpaceOnUse">
<stop stop-color="#FF9100"/>
<stop offset="1" stop-color="#FF4D00"/>
</linearGradient>
<linearGradient id="paint56_linear_30_17528" x1="33.4427" y1="214.837" x2="40.1091" y2="221.503" gradientUnits="userSpaceOnUse">
<stop stop-color="#FF9100"/>
<stop offset="1" stop-color="#FF4D00"/>
</linearGradient>
<linearGradient id="paint57_linear_30_17528" x1="54.5042" y1="214.837" x2="61.1706" y2="221.503" gradientUnits="userSpaceOnUse">
<stop stop-color="#FF9100"/>
<stop offset="1" stop-color="#FF4D00"/>
</linearGradient>
<linearGradient id="paint58_linear_30_17528" x1="75.8822" y1="214.837" x2="82.5485" y2="221.503" gradientUnits="userSpaceOnUse">
<stop stop-color="#FF9100"/>
<stop offset="1" stop-color="#FF4D00"/>
</linearGradient>
<linearGradient id="paint59_linear_30_17528" x1="97.2581" y1="214.837" x2="103.924" y2="221.503" gradientUnits="userSpaceOnUse">
<stop stop-color="#FF9100"/>
<stop offset="1" stop-color="#FF4D00"/>
</linearGradient>
<linearGradient id="paint60_linear_30_17528" x1="1.37729" y1="195.347" x2="8.04367" y2="202.013" gradientUnits="userSpaceOnUse">
<stop stop-color="#FF9100"/>
<stop offset="1" stop-color="#FF4D00"/>
</linearGradient>
<linearGradient id="paint61_linear_30_17528" x1="22.7533" y1="195.347" x2="29.4197" y2="202.013" gradientUnits="userSpaceOnUse">
<stop stop-color="#FF9100"/>
<stop offset="1" stop-color="#FF4D00"/>
</linearGradient>
<linearGradient id="paint62_linear_30_17528" x1="44.1312" y1="195.347" x2="50.7976" y2="202.013" gradientUnits="userSpaceOnUse">
<stop stop-color="#FF9100"/>
<stop offset="1" stop-color="#FF4D00"/>
</linearGradient>
<linearGradient id="paint63_linear_30_17528" x1="65.1922" y1="195.347" x2="71.8586" y2="202.013" gradientUnits="userSpaceOnUse">
<stop stop-color="#FF9100"/>
<stop offset="1" stop-color="#FF4D00"/>
</linearGradient>
<linearGradient id="paint64_linear_30_17528" x1="86.5702" y1="195.347" x2="93.2365" y2="202.013" gradientUnits="userSpaceOnUse">
<stop stop-color="#FF9100"/>
<stop offset="1" stop-color="#FF4D00"/>
</linearGradient>
<linearGradient id="paint65_linear_30_17528" x1="107.946" y1="195.347" x2="114.613" y2="202.013" gradientUnits="userSpaceOnUse">
<stop stop-color="#FF9100"/>
<stop offset="1" stop-color="#FF4D00"/>
</linearGradient>
<linearGradient id="paint66_linear_30_17528" x1="12.0653" y1="253.819" x2="18.7316" y2="260.485" gradientUnits="userSpaceOnUse">
<stop stop-color="#FF9100"/>
<stop offset="1" stop-color="#FF4D00"/>
</linearGradient>
<linearGradient id="paint67_linear_30_17528" x1="33.4412" y1="253.819" x2="40.1076" y2="260.485" gradientUnits="userSpaceOnUse">
<stop stop-color="#FF9100"/>
<stop offset="1" stop-color="#FF4D00"/>
</linearGradient>
<linearGradient id="paint68_linear_30_17528" x1="54.5042" y1="253.819" x2="61.1706" y2="260.485" gradientUnits="userSpaceOnUse">
<stop stop-color="#FF9100"/>
<stop offset="1" stop-color="#FF4D00"/>
</linearGradient>
<linearGradient id="paint69_linear_30_17528" x1="75.9554" y1="253.819" x2="82.6189" y2="260.681" gradientUnits="userSpaceOnUse">
<stop stop-color="#FF9100"/>
<stop offset="1" stop-color="#FF4D00"/>
</linearGradient>
<linearGradient id="paint70_linear_30_17528" x1="97.2581" y1="253.819" x2="103.924" y2="260.485" gradientUnits="userSpaceOnUse">
<stop stop-color="#FF9100"/>
<stop offset="1" stop-color="#FF4D00"/>
</linearGradient>
<linearGradient id="paint71_linear_30_17528" x1="1.71188" y1="234.374" x2="8.60042" y2="241.285" gradientUnits="userSpaceOnUse">
<stop stop-color="#FF9100"/>
<stop offset="1" stop-color="#FF4D00"/>
</linearGradient>
<linearGradient id="paint72_linear_30_17528" x1="22.7547" y1="234.328" x2="29.4211" y2="240.995" gradientUnits="userSpaceOnUse">
<stop stop-color="#FF9100"/>
<stop offset="1" stop-color="#FF4D00"/>
</linearGradient>
<linearGradient id="paint73_linear_30_17528" x1="44.1312" y1="234.328" x2="50.7975" y2="240.995" gradientUnits="userSpaceOnUse">
<stop stop-color="#FF9100"/>
<stop offset="1" stop-color="#FF4D00"/>
</linearGradient>
<linearGradient id="paint74_linear_30_17528" x1="65.1937" y1="234.328" x2="71.86" y2="240.995" gradientUnits="userSpaceOnUse">
<stop stop-color="#FF9100"/>
<stop offset="1" stop-color="#FF4D00"/>
</linearGradient>
<linearGradient id="paint75_linear_30_17528" x1="86.6449" y1="234.374" x2="93.5334" y2="241.239" gradientUnits="userSpaceOnUse">
<stop stop-color="#FF9100"/>
<stop offset="1" stop-color="#FF4D00"/>
</linearGradient>
<linearGradient id="paint76_linear_30_17528" x1="107.946" y1="234.328" x2="114.612" y2="240.995" gradientUnits="userSpaceOnUse">
<stop stop-color="#FF9100"/>
<stop offset="1" stop-color="#FF4D00"/>
</linearGradient>
<linearGradient id="paint77_linear_30_17528" x1="12.0653" y1="292.486" x2="18.7316" y2="299.152" gradientUnits="userSpaceOnUse">
<stop stop-color="#FF9100"/>
<stop offset="1" stop-color="#FF4D00"/>
</linearGradient>
<linearGradient id="paint78_linear_30_17528" x1="33.4412" y1="292.485" x2="40.1076" y2="299.152" gradientUnits="userSpaceOnUse">
<stop stop-color="#FF9100"/>
<stop offset="1" stop-color="#FF4D00"/>
</linearGradient>
<linearGradient id="paint79_linear_30_17528" x1="54.5042" y1="292.485" x2="61.1706" y2="299.152" gradientUnits="userSpaceOnUse">
<stop stop-color="#FF9100"/>
<stop offset="1" stop-color="#FF4D00"/>
</linearGradient>
<linearGradient id="paint80_linear_30_17528" x1="75.8802" y1="292.485" x2="82.5466" y2="299.152" gradientUnits="userSpaceOnUse">
<stop stop-color="#FF9100"/>
<stop offset="1" stop-color="#FF4D00"/>
</linearGradient>
<linearGradient id="paint81_linear_30_17528" x1="97.2581" y1="292.485" x2="103.924" y2="299.152" gradientUnits="userSpaceOnUse">
<stop stop-color="#FF9100"/>
<stop offset="1" stop-color="#FF4D00"/>
</linearGradient>
<linearGradient id="paint82_linear_30_17528" x1="1.6042" y1="273.087" x2="8.6843" y2="279.538" gradientUnits="userSpaceOnUse">
<stop stop-color="#FF9100"/>
<stop offset="1" stop-color="#FF4D00"/>
</linearGradient>
<linearGradient id="paint83_linear_30_17528" x1="22.7547" y1="273.087" x2="29.8507" y2="279.739" gradientUnits="userSpaceOnUse">
<stop stop-color="#FF9100"/>
<stop offset="1" stop-color="#FF4D00"/>
</linearGradient>
<linearGradient id="paint84_linear_30_17528" x1="44.1312" y1="272.994" x2="50.7975" y2="279.661" gradientUnits="userSpaceOnUse">
<stop stop-color="#FF9100"/>
<stop offset="1" stop-color="#FF4D00"/>
</linearGradient>
<linearGradient id="paint85_linear_30_17528" x1="65.1937" y1="272.994" x2="71.86" y2="279.661" gradientUnits="userSpaceOnUse">
<stop stop-color="#FF9100"/>
<stop offset="1" stop-color="#FF4D00"/>
</linearGradient>
<linearGradient id="paint86_linear_30_17528" x1="86.5702" y1="272.994" x2="93.2365" y2="279.661" gradientUnits="userSpaceOnUse">
<stop stop-color="#FF9100"/>
<stop offset="1" stop-color="#FF4D00"/>
</linearGradient>
<linearGradient id="paint87_linear_30_17528" x1="107.948" y1="272.994" x2="114.614" y2="279.661" gradientUnits="userSpaceOnUse">
<stop stop-color="#FF9100"/>
<stop offset="1" stop-color="#FF4D00"/>
</linearGradient>
<linearGradient id="paint88_linear_30_17528" x1="1.37729" y1="311.976" x2="8.04364" y2="318.642" gradientUnits="userSpaceOnUse">
<stop stop-color="#FF9100"/>
<stop offset="1" stop-color="#FF4D00"/>
</linearGradient>
<linearGradient id="paint89_linear_30_17528" x1="22.7533" y1="311.976" x2="29.4196" y2="318.642" gradientUnits="userSpaceOnUse">
<stop stop-color="#FF9100"/>
<stop offset="1" stop-color="#FF4D00"/>
</linearGradient>
<linearGradient id="paint90_linear_30_17528" x1="44.1312" y1="311.976" x2="50.7975" y2="318.642" gradientUnits="userSpaceOnUse">
<stop stop-color="#FF9100"/>
<stop offset="1" stop-color="#FF4D00"/>
</linearGradient>
<linearGradient id="paint91_linear_30_17528" x1="65.1922" y1="311.976" x2="71.8586" y2="318.642" gradientUnits="userSpaceOnUse">
<stop stop-color="#FF9100"/>
<stop offset="1" stop-color="#FF4D00"/>
</linearGradient>
<linearGradient id="paint92_linear_30_17528" x1="86.5702" y1="311.976" x2="93.2365" y2="318.642" gradientUnits="userSpaceOnUse">
<stop stop-color="#FF9100"/>
<stop offset="1" stop-color="#FF4D00"/>
</linearGradient>
<linearGradient id="paint93_linear_30_17528" x1="107.946" y1="311.976" x2="114.612" y2="318.642" gradientUnits="userSpaceOnUse">
<stop stop-color="#FF9100"/>
<stop offset="1" stop-color="#FF4D00"/>
</linearGradient>
</defs>
</svg>
